<svg width="85" height="86" viewBox="0 0 85 86" fill="none" xmlns="http://www.w3.org/2000/svg">
<path d="M8.17718e-07 42.4954C0.00456409 19.0631 19.1406 -0.00684306 42.6392 1.84209e-06C65.889 0.00684674 85.0046 19.1908 85 42.5137C84.9954 65.9803 65.8343 85.0433 42.281 85.0114C19.0904 84.9795 -0.00456245 65.7795 8.17718e-07 42.4954ZM65.022 15.0223C52.2905 4.10238 31.0097 3.46808 17.1625 17.5321C3.18288 31.7307 4.48113 52.8677 15.0953 65.0905C17.6028 62.5784 20.108 60.0686 22.3805 57.7892C23.9868 59.4343 25.568 61.0542 27.2039 62.729C24.9816 64.9421 22.4673 67.4474 19.9506 69.9526C32.5384 80.7858 53.8055 81.6528 67.7782 67.5387C81.7327 53.4404 80.617 32.2897 69.9138 19.9255C67.4063 22.4376 64.9034 24.9474 62.6719 27.1834C61.0451 25.5406 59.4503 23.9298 57.7869 22.2505C60.0001 20.0396 62.5099 17.5298 65.0197 15.0223H65.022Z" fill="white"/>
<path d="M62.6417 42.6033C62.628 53.6281 53.5266 62.6634 42.4493 62.6474C31.3583 62.6315 22.339 53.546 22.3572 42.4093C22.3777 31.3023 31.4883 22.3378 42.7276 22.3652C53.6795 22.3926 62.6554 31.5145 62.6395 42.6033H62.6417ZM44.3636 42.4983C44.3636 44.602 44.3544 46.7079 44.3681 48.8116C44.3773 50.0893 45.1621 50.8651 46.4467 50.881C47.4985 50.8947 48.5504 50.897 49.6022 50.881C51.2473 50.8559 52.744 50.354 53.9715 49.2565C56.9331 46.6121 57.4487 43.2535 56.5019 39.6098C55.7193 36.6003 53.7479 34.67 50.6152 34.2069C49.2782 34.0084 47.891 34.127 46.5288 34.1247C45.1165 34.1224 44.3727 34.8617 44.3681 36.2695C44.359 38.3457 44.3681 40.422 44.3681 42.4983H44.3636ZM32.4626 48.0244C33.6125 48.0244 34.7305 48.118 35.8257 48.0016C37.2061 47.8556 38.0822 48.1317 38.4336 49.6718C38.6732 50.719 39.8687 51.1411 40.843 50.7852C41.8811 50.4065 42.4082 49.398 42.0272 48.3188C40.551 44.1342 39.0565 39.9543 37.5324 35.788C37.149 34.7408 36.3368 34.1498 35.1891 34.127C34.0095 34.1042 33.1471 34.6563 32.7432 35.7492C31.2054 39.9132 29.6904 44.0863 28.2073 48.2686C27.8149 49.3752 28.399 50.4681 29.4417 50.8126C30.4456 51.1457 31.4701 50.6278 31.9058 49.5508C32.1066 49.0557 32.2778 48.5469 32.4671 48.0267L32.4626 48.0244Z" fill="#FFC200"/>
<path d="M48.3132 46.8647V38.1352C51.3569 37.6286 53.1868 39.4152 52.9951 42.719C52.9586 43.335 52.8537 43.967 52.6529 44.5466C51.9889 46.4631 50.6177 47.1796 48.3132 46.8647Z" fill="#FFC200"/>
<path d="M33.8635 44.1083C34.2719 42.9561 34.653 41.8814 35.1047 40.6083C35.5633 41.8632 35.9603 42.9515 36.3825 44.1083H33.8635Z" fill="#FFC200"/>
<path d="M42.7373 59.6331C52.0646 59.6331 59.6259 52.0718 59.6259 42.7445C59.6259 33.4171 52.0646 25.8558 42.7373 25.8558C33.4099 25.8558 25.8486 33.4171 25.8486 42.7445C25.8486 52.0718 33.4099 59.6331 42.7373 59.6331Z" fill="#FFC200"/>
<path d="M31.3035 35.9915H34.3289L37.8015 47.1418H35.1252L33.6855 41.497C33.4026 40.3836 33.0626 39.0785 32.7956 37.9012H32.7272C32.4534 39.0785 32.1454 40.3836 31.8625 41.497L30.4136 47.1418H27.8308L31.3035 35.9915ZM30.1284 42.5238H35.4652V44.4905H30.1284V42.5238V42.5238Z" fill="#173371"/>
<path d="M39.1546 35.9915H42.2348C45.4702 35.9915 47.5967 37.6844 47.5967 41.5153C47.5967 45.3462 45.4702 47.1418 42.3763 47.1418H39.1523V35.9915H39.1546ZM42.0957 45.1089C43.8297 45.1089 45.0093 44.1825 45.0093 41.5153C45.0093 38.8481 43.8297 38.0244 42.0957 38.0244H41.6781V45.1111H42.0957V45.1089Z" fill="#173371"/>
<path d="M49.0802 45.7386L50.5291 44.0046C51.3733 44.6959 52.4114 45.1682 53.4929 45.1682C54.5744 45.1682 55.0581 44.753 55.0581 44.2076C55.0581 43.4045 54.3965 43.2106 53.3401 42.7679L51.8867 42.1473C50.65 41.6773 49.5229 40.7304 49.5229 39.1082C49.5229 37.2623 51.1862 35.7861 53.6093 35.7861C54.9509 35.7861 56.3062 36.2881 57.3124 37.2464L56.0415 38.8367C55.2566 38.2731 54.5607 37.9651 53.4724 37.9651C52.6419 37.9651 52.076 38.3096 52.076 38.9622C52.076 39.6147 52.8244 39.8771 53.8922 40.2787L55.2566 40.8559C56.7169 41.4035 57.6387 42.3139 57.6387 43.8882C57.6387 45.7409 56.0826 47.3472 53.3218 47.3472C51.8159 47.3472 50.2599 46.795 49.0757 45.7363L49.0802 45.7386Z" fill="#173371"/>
</svg>
