<svg width="24" height="24" viewBox="0 0 24 24" fill="none" xmlns="http://www.w3.org/2000/svg">
<path d="M11.1438 14.4894H10.4277C10.0361 14.4894 9.71167 14.1649 9.71167 13.7733V9.47682C9.71167 9.08522 10.0361 8.76074 10.4277 8.76074H11.1438C12.7214 8.76074 14.0081 10.0474 14.0081 11.6251C14.0081 13.2027 12.7214 14.4894 11.1438 14.4894ZM11.1438 10.1929V13.0572C11.9382 13.0572 12.576 12.4194 12.576 11.6251C12.576 10.8307 11.9382 10.1929 11.1438 10.1929V10.1929Z" fill="#FFC200"/>
<path d="M7.08238 14.4894C6.69078 14.4894 6.36631 14.1649 6.36631 13.7733V10.674C6.36631 10.4055 6.15372 10.1929 5.88519 10.1929C5.61666 10.1929 5.40408 10.4055 5.40408 10.674V13.7733C5.40408 14.1649 5.07961 14.4894 4.688 14.4894C4.2964 14.4894 3.97192 14.1649 3.97192 13.7733V10.674C3.97192 9.62227 4.83345 8.76074 5.88519 8.76074C6.93693 8.76074 7.79846 9.62227 7.79846 10.674V13.7733C7.79846 14.1649 7.47399 14.4894 7.08238 14.4894V14.4894Z" fill="#FFC200"/>
<path d="M7.08243 13.0572H4.69923C4.30763 13.0572 3.98315 12.7327 3.98315 12.3411C3.98315 11.9495 4.30763 11.625 4.69923 11.625H7.08243C7.47403 11.625 7.7985 11.9495 7.7985 12.3411C7.7985 12.7327 7.47403 13.0572 7.08243 13.0572Z" fill="#FFC200"/>
<path d="M17.5551 14.4894H16.1677C15.7761 14.4894 15.4516 14.1649 15.4516 13.7733C15.4516 13.3817 15.7761 13.0572 16.1677 13.0572H17.5551C17.7005 13.0572 17.8348 12.8894 17.8348 12.6992C17.8348 12.509 17.7117 12.3411 17.5551 12.3411H17.1523C16.2125 12.3411 15.4404 11.5355 15.4404 10.5509C15.4404 9.56633 16.2125 8.76074 17.1523 8.76074H18.5397C18.9313 8.76074 19.2558 9.08522 19.2558 9.47682C19.2558 9.86842 18.9313 10.1929 18.5397 10.1929H17.1523C17.0068 10.1929 16.8726 10.3607 16.8726 10.5509C16.8726 10.7411 16.9957 10.909 17.1523 10.909H17.5551C18.4949 10.909 19.267 11.7146 19.267 12.6992C19.267 13.6838 18.4949 14.4894 17.5551 14.4894Z" fill="#FFC200"/>
<path d="M1.56641 20.6766L21.0459 1.80127" stroke="#173371" stroke-width="2" stroke-miterlimit="10"/>
<path d="M19.5019 22.1313H3.74824C2.3049 22.1313 1.1189 20.9565 1.1189 19.5019V3.74824C1.1189 2.3049 2.29371 1.1189 3.74824 1.1189H19.5019C20.9453 1.1189 22.1313 2.29371 22.1313 3.74824V19.5019C22.1313 20.9453 20.9565 22.1313 19.5019 22.1313Z" stroke="#173371" stroke-width="2" stroke-miterlimit="10"/>
</svg>
