<svg width="86" height="86" viewBox="0 0 86 86" fill="none" xmlns="http://www.w3.org/2000/svg">
<path d="M0.00940542 74.7226C0.122246 74.4217 0.197472 74.1114 0.338523 73.8387C0.912131 72.7197 1.30708 71.422 2.14398 70.5475C4.88978 67.67 7.79543 64.9431 10.5976 62.2067L22.7845 74.3841C20.0199 77.2239 17.2459 80.1578 14.3778 82.9976C13.3058 84.0602 11.9047 84.6244 10.3908 84.8595C10.2967 84.8783 10.2215 84.9535 10.1369 85.0099H7.14659C6.91151 84.9065 6.68583 84.7654 6.44134 84.6902C3.43225 83.8063 1.44813 81.841 0.404347 78.9071C0.263296 78.5122 0.131648 78.1078 0 77.7035V74.7132L0.00940542 74.7226Z" fill="white"/>
<path d="M20.461 52.3151L24.7678 56.6312L27.5418 53.8196C21.5048 46.5132 18.8812 38.0689 20.0285 28.6091C21.0722 19.9579 25.0781 12.7925 31.8579 7.30096C45.1168 -3.44714 63.9706 -2.05544 75.5556 9.68002C87.8176 22.1019 87.8082 41.0498 77.5115 53.4717C66.312 66.975 45.5869 69.6644 31.1903 57.4964L28.5197 60.2233L32.7513 64.4455C30.5603 66.6459 28.5009 68.7146 26.4792 70.7364C22.4451 66.7117 18.3264 62.593 14.2548 58.5307L20.461 52.3245V52.3151ZM27.5418 32.5773C27.4854 46.2499 38.5438 57.3835 52.2633 57.4681C65.9923 57.5434 77.1542 46.485 77.22 32.7372C77.2952 19.027 66.1992 7.85576 52.4608 7.80874C38.7318 7.76173 27.5982 18.8295 27.5512 32.5867L27.5418 32.5773Z" fill="white"/>
<path d="M72.3015 32.6331C72.3204 43.6069 63.4153 52.5119 52.4039 52.5307C41.4301 52.5495 32.5063 43.6445 32.4781 32.6519C32.4499 21.6969 41.3925 12.7637 52.3851 12.7543C63.3683 12.7449 72.2827 21.6405 72.3015 32.6331ZM44.3546 31.9278C45.1069 37.4382 49.1974 39.4976 52.2911 39.5352C54.0213 39.554 55.6105 39.0838 57.0304 38.0777C59.1274 36.5825 60.2182 34.5044 60.4815 31.721L63.6692 35.4259L67.8161 33.0092C64.3651 27.48 58.7418 23.3801 52.3663 23.5118C45.4736 23.6528 40.8565 27.6399 37.0199 32.934L41.2421 35.5011C41.7405 34.8617 42.1824 34.2599 42.6714 33.6957C43.1792 33.1127 43.7246 32.5767 44.3546 31.9184V31.9278Z" fill="#FFC200"/>
<path d="M55.4961 31.4858C55.5149 33.216 54.1514 34.5983 52.4212 34.5983C50.7474 34.5983 49.3557 33.2254 49.3369 31.5516C49.318 29.8778 50.7568 28.4203 52.44 28.4203C54.1044 28.4203 55.4867 29.8026 55.4961 31.4858Z" fill="white"/>
</svg>
