<svg width="85" height="86" viewBox="0 0 85 86" fill="none" xmlns="http://www.w3.org/2000/svg">
<g clip-path="url(#clip0_5419_4223)">
<path d="M51.1898 0C51.8345 0.499068 52.5394 0.937832 53.1133 1.5076C58.0603 6.42134 62.9741 11.3684 67.9232 16.28C68.7425 17.0952 69.1376 17.9852 69.123 19.1476C69.0835 22.4664 69.1084 25.7852 69.1084 29.1622H63.7559V21.252C63.0801 21.252 62.4771 21.252 61.8761 21.252C58.9982 21.252 56.1202 21.2166 53.2422 21.2624C50.4579 21.306 47.8939 19.0623 47.8606 16.1989C47.8211 12.9342 47.8315 9.66944 47.819 6.40471C47.819 6.07615 47.819 5.74968 47.819 5.35458C47.5092 5.33795 47.2451 5.31299 46.981 5.31299C34.1695 5.31299 21.358 5.31092 8.54654 5.31299C6.3444 5.31299 5.3525 6.30073 5.3525 8.48832C5.3525 31.1772 5.3525 53.8661 5.3525 76.557C5.3525 78.6906 6.35896 79.6949 8.50079 79.6949C14.2006 79.697 19.9003 79.6949 25.6001 79.6949H26.5546V84.9705C26.3217 84.983 26.0825 85.0058 25.8434 85.0058C19.9773 85.0058 14.1111 85.0121 8.24502 85.0058C4.35021 85.0017 1.39947 82.8307 0.320235 79.1085C0.0790191 78.2747 0.0145562 77.3639 0.0145562 76.4884C0 53.8266 0.00623835 31.1647 0 8.50287C0 5.01563 1.41611 2.37681 4.57687 0.788112C5.24645 0.451241 5.98674 0.259931 6.69375 0C21.5265 0 36.3571 0 51.1898 0Z" fill="white"/>
<path d="M39.834 69.0316H34.5459V61.1609H23.9553V69.0316H18.6007V68.3953C18.6007 61.7015 18.5966 55.0078 18.6028 48.314C18.607 45.305 20.0958 43.2838 22.7804 42.6413C23.2046 42.5394 23.6559 42.5123 24.0926 42.5103C27.5216 42.4999 30.9527 42.4957 34.3817 42.5082C37.5362 42.5186 39.8589 44.754 39.8756 47.9044C39.9109 54.8747 39.886 61.845 39.8818 68.8153C39.8818 68.8673 39.8589 68.9172 39.8319 69.0295L39.834 69.0316ZM23.974 55.746H34.494V47.8732H23.974V55.746Z" fill="#FFC200"/>
<path d="M47.8669 61.1004V69.0148H42.5081V68.5324C42.5081 60.9008 42.506 53.2692 42.5081 45.6377C42.5081 43.9637 43.107 43.0176 44.415 42.6204C44.6978 42.5351 45.0097 42.5122 45.3091 42.5102C48.7652 42.5039 52.2212 42.4956 55.6794 42.5102C58.7466 42.5226 61.0506 44.7185 61.1234 47.7836C61.1878 50.4641 61.1878 53.1486 61.1234 55.829C61.0485 58.8921 58.7445 61.0817 55.6752 61.0984C53.1071 61.1108 50.5369 61.1004 47.8669 61.1004ZM55.7376 55.7521V47.8523H47.8897V55.7521H55.7376Z" fill="#FFC200"/>
<path d="M71.4395 57.0434C70.6993 57.8378 69.9985 58.5448 69.3622 59.3059C69.1813 59.5242 69.123 59.9006 69.121 60.2042C69.1043 63.13 69.1106 66.0558 69.1106 69.0252H63.8142V42.5559H69.0877V51.7076C71.9594 48.867 74.8249 46.0307 77.6426 43.2421C79.0233 44.6187 80.271 45.8622 81.5956 47.1785C79.564 49.2143 77.4991 51.2854 75.3905 53.3982C78.3787 57.1412 81.3897 60.9175 84.4611 64.7665C83.0741 65.8811 81.7079 66.977 80.2939 68.1123C77.3743 64.4608 74.4776 60.8384 71.4416 57.0414L71.4395 57.0434Z" fill="#FFC200"/>
</g>
<defs>
<clipPath id="clip0_5419_4223">
<rect width="84.4589" height="85.01" fill="white"/>
</clipPath>
</defs>
</svg>
