<svg width="74" height="86" viewBox="0 0 74 86" fill="none" xmlns="http://www.w3.org/2000/svg">
<path d="M37.6224 0C41.8104 1.88146 45.9962 3.76735 50.1864 5.64216C57.259 8.80603 64.325 11.9832 71.413 15.1071C73.1795 15.8859 73.9271 17.1417 73.9205 19.0476C73.8918 27.3766 73.9051 35.7078 73.9095 44.0368C73.9139 51.7778 71.918 58.9664 68.0344 65.6336C67.0089 67.3953 65.1057 67.9832 63.4539 67.058C61.7976 66.1306 61.2683 64.0961 62.2916 62.33C64.6911 58.1877 66.3076 53.7658 66.9449 49.0111C67.1611 47.4003 67.2294 45.7585 67.2361 44.13C67.2647 36.5464 67.2427 28.9651 67.2625 21.3816C67.2625 20.7737 67.0971 20.4786 66.5171 20.2212C56.8245 15.9192 47.1474 11.5816 37.4548 7.27956C37.1108 7.12647 36.5925 7.08875 36.2617 7.2374C26.6154 11.5572 16.9846 15.9081 7.34938 20.2501C6.96785 20.4231 6.65689 20.5474 6.6591 21.1065C6.69879 29.491 6.60617 37.8777 6.76496 46.2621C6.87743 52.2349 8.82256 57.7328 11.9255 62.7981C15.3593 68.4026 19.8869 72.8888 25.8414 75.711C35.0223 80.0641 43.8261 79.0612 52.1977 73.4656C53.2849 72.7401 54.3413 72.1211 55.7064 72.5671C57.0076 72.9931 57.7883 73.8983 58.022 75.2206C58.2492 76.492 57.8103 77.6057 56.7848 78.369C52.5792 81.4996 47.9215 83.6694 42.7499 84.5103C29.4405 86.6802 18.8283 81.666 10.2164 71.7417C5.22782 65.9931 2.0962 59.2615 0.722256 51.7601C0.281183 49.3528 0.0672628 46.8745 0.0430038 44.4273C-0.034184 35.8742 0.0165394 27.3233 0.014334 18.7702C0.014334 17.0751 0.74872 15.9125 2.31453 15.2092C13.2377 10.3036 24.1476 5.37369 35.062 0.450396C35.3707 0.312837 35.6685 0.150872 35.9706 0C36.5219 0 37.0711 0 37.6224 0Z" fill="white"/>
<path d="M27.0611 34.1444C27.0611 32.76 27.0589 31.4332 27.0611 30.1064C27.0721 25.0189 30.7463 20.7035 35.5959 20.0845C40.7189 19.43 45.3568 22.6338 46.5918 27.7124C46.7594 28.4024 46.83 29.1302 46.8498 29.8424C46.8895 31.2513 46.8609 32.6623 46.8609 34.1333C48.9383 34.4661 50.7158 35.3647 52.092 36.9711C53.4549 38.5619 54.1187 40.4211 54.1209 42.5178C54.1253 47.9159 54.1253 53.3118 54.1209 58.7099C54.1209 60.9042 52.7779 62.2864 50.5857 62.2953C46.3205 62.3131 42.0576 62.302 37.7924 62.302C33.0597 62.302 28.3292 62.3042 23.5965 62.302C21.0801 62.302 19.8032 61.0063 19.801 58.4769C19.801 53.2186 19.7966 47.9603 19.801 42.6997C19.8054 38.2402 22.5974 34.9299 27.0589 34.1467L27.0611 34.1444ZM47.5048 55.5815C47.5048 51.1663 47.5225 46.8243 47.4938 42.4823C47.4872 41.3441 46.8123 40.7872 45.606 40.7872C39.8831 40.7828 34.1624 40.7828 28.4394 40.7872C26.9751 40.7872 26.4215 41.3552 26.4193 42.8595C26.4149 45.8769 26.4193 48.8921 26.4193 51.9096C26.4193 53.121 26.4193 54.3324 26.4193 55.5815H47.507H47.5048ZM40.2426 34.0446C40.2426 32.5692 40.3242 31.1314 40.2227 29.7093C40.0948 27.9365 38.6966 26.7029 36.9985 26.6918C35.2805 26.6829 33.8646 27.8633 33.7169 29.6383C33.5956 31.0871 33.6926 32.5536 33.6926 34.0468H40.2448L40.2426 34.0446Z" fill="#FFC200"/>
</svg>
