<svg width="16" height="25" viewBox="0 0 16 25" fill="none" xmlns="http://www.w3.org/2000/svg">
<path d="M15.6572 12.641V12.6582V12.676V12.6937V12.7115V12.7293V12.7471V12.7649V12.7826V12.8004V12.8182V12.836V12.8538V12.8715V12.8893V12.9071V12.9249V12.9426V12.9604V12.9782V12.996V13.0138V13.0315V13.0493V13.0671V13.0849V13.1027V13.1204V13.1382V13.156V13.1738V13.1916V13.2093V13.2271V13.2449V13.2627V13.2805V13.2982V13.316V13.3338V13.3516V13.3694V13.3871V13.4049V13.4227V13.4405V13.4583V13.476V13.4938V13.5116V13.5294V13.5472V13.5649V13.5827V13.6005V13.6183V13.6361V13.6538V13.6716V13.6894V13.7072V13.7249V13.7427V13.7605V13.7783V13.7961V13.8138V13.8316V13.8494V13.8672V13.885V13.9027V13.9205V13.9383V13.9561V13.9739V13.9916V14.0094V14.0272V14.045V14.0628V14.0805V14.0983V14.1161V14.1339V14.1517V14.1694V14.1872V14.205V14.2228V14.2406V14.2583V14.2761V14.2939V14.3117V14.3295V14.3472V14.365V14.3828V14.4006V14.4184V14.4361V14.4539V14.4717V14.4895V14.5072V14.525V14.5428V14.5606V14.5784V14.5961V14.6139V14.6317V14.6495V14.6673V14.685V14.7028V14.7206V14.7384V14.7562V14.7739V14.7917V14.8095V14.8273V14.8451V14.8628V14.8806V14.8984V14.9162V14.934V14.9517V14.9695V14.9873V15.0051V15.0229V15.0406V15.0584V15.0762V15.094V15.1118V15.1295V15.1473V15.1651V15.1829V15.2007V15.2184V15.2362V15.254V15.2718V15.2895V15.3073V15.3251V15.3429V15.3607V15.3784V15.3962V15.414V15.4318V15.4496V15.4673V15.4851V15.5029V15.5207V15.5385V15.5562V15.574V15.5918V15.6096V15.6274V15.6451V15.6629V15.6807V15.6985V15.7163V15.734V15.7518V15.7696V15.7874V15.8052V15.8229V15.8407V15.8585V15.8763V15.8941V15.9118V15.9296V15.9474V15.9652V15.983V16.0007V16.0185V16.0363V16.0541V16.0718V16.0896V16.1074V16.1252V16.143V16.1607V16.1785V16.1963V16.2141V16.2319V16.2496V16.2674V16.2852V16.303V16.3208V16.3385V16.3563V16.3741V16.3919V16.4097V16.4274V16.4452V16.463V16.4808V16.4986V16.5163V16.5341V16.5519V16.5697V16.5875V16.6052V16.623V16.6408V16.6586V16.6764V16.6941V16.7119V16.7297V16.7475V16.7653V16.783V16.8008V16.8186V16.8364V16.8541V16.8719V16.8897V16.9075V16.9253V16.943V16.9608V16.9786V16.9964V17.0142V17.0319V17.0497V17.0675V17.0853V17.1031V17.1208V17.1386V17.1564V17.1742V17.192V17.2097V17.2275V17.2453V17.2631V17.2809V17.2986V17.3164V17.3342V17.352V17.3698V17.3875V17.4053V17.4231V17.4409V17.4587V17.4764V17.4942V17.512V17.5298V17.5476V17.5653V17.5831V17.6009V17.6187V17.6364V17.6542V17.672V17.6898V17.7076V17.7253V17.7431V17.7609V17.7787V17.7965V17.8142V17.832V17.8498V17.8676V17.8854V17.9031V17.9209V17.9387V17.9565V17.9743V17.992V18.0098V18.0276V18.0454V18.0632V18.0809V18.0987V18.1165V18.1343V18.1521V18.1698V18.1876V18.2054V18.2232V18.241V18.2587V18.2765V18.2943V18.3121V18.3298V18.3476V18.3654V18.3832V18.401V18.4187V18.4365V18.4543V18.4721V18.4899V18.5076V18.5254V18.5432V18.561V18.5788V18.5965V18.6143V18.6321V18.6499V18.6677V18.6854V18.7032V18.721V18.7388V18.7566V18.7743V18.7921V18.8099V18.8277V18.8455V18.8632V18.881V18.8988V18.9166V18.9344V18.9521V18.9699V18.9877V19.0055V19.0233V19.041V19.0588V19.0766V19.0944V19.1121V19.1299V19.1477V19.1655V19.1833V19.201V19.2188V19.2366V19.2544V19.2722V19.2899V19.3077V19.3255V19.3433V19.3611V19.3788V19.3966V19.4144V19.4322V19.45V19.4677V19.4855V19.5033V19.5211V19.5389V19.5566V19.5744V19.5922V19.61V19.6278V19.6455V19.6633V19.6811V19.6989V19.7167V19.7344V19.7522V19.77V19.7878V19.8056V19.8233V19.8411V19.8589V19.8767V19.8944V19.9122V19.93V19.9478V19.9656V19.9833V20.0011V20.0189V20.0367V20.0545V20.0722V20.09V20.1078V20.1256V20.1434V20.1611V20.1789V20.1967V20.2145V20.2323V20.25V20.2678V20.2856V20.3034V20.3212V20.3389V20.3567V20.3745V20.3923V20.4101V20.4278V20.4456V20.4634V20.4812V20.499V20.5167V20.5345V20.5523V20.5701V20.5879V20.6056V20.6234V20.6412V20.659V20.6767V20.6945V20.7123V20.7301V20.7479V20.7656V20.7834V20.8012V20.819V20.8368V20.8545V20.8723V20.8901V20.9079V20.9257V20.9434V20.9612V20.979V20.9968V21.0146V21.0323V21.0501V21.0679V21.0857V21.1035V21.1212V21.139V21.1568V21.1746V21.1924V21.2101V21.2279V21.2457V21.2635V21.2813V21.299V21.3168V21.3346V21.3524V21.3701V21.3879V21.4057V21.4235V21.4413V21.459V21.4768V21.4946V21.5124V21.5302V21.5479V21.5657V21.5835V21.6013V21.6191V21.6368V21.6546V21.6724V21.6902V21.708V21.7257V21.7435C15.6572 23.0814 14.8338 24.0742 13.5187 24.3212C13.5187 24.3212 13.5187 24.3212 13.5187 24.3212L15.6572 12.641ZM15.6572 12.641C15.6572 12.6408 15.6572 12.6406 15.6572 12.6404V12.641ZM0.900485 21.7856L0.900485 21.7856C0.899838 15.6761 0.899838 9.56656 0.900485 3.4577L0.900485 3.45766C0.901158 2.00159 2.00783 0.901642 3.46817 0.90097L3.46818 0.90097C6.67788 0.899677 9.88758 0.899677 13.0973 0.90097L13.0972 1.00097L13.0973 0.90097C14.555 0.901643 15.6565 2.00476 15.6572 3.46478L0.900485 21.7856ZM0.900485 21.7856C0.901157 23.2437 2.00397 24.3487 3.46104 24.3488M0.900485 21.7856L3.46104 24.3488M3.46104 24.3488C6.67077 24.3507 9.88048 24.3501 13.0902 24.3488H3.46104ZM14.4827 20.4884C14.4835 20.6187 14.4855 20.7476 14.4876 20.8755C14.4933 21.2257 14.4988 21.568 14.4768 21.9111C14.4287 22.6629 13.8412 23.1798 13.0441 23.1804C11.4917 23.1818 9.93959 23.1816 8.3873 23.1813C7.7658 23.1812 7.14426 23.1811 6.52265 23.1811C6.19113 23.1811 5.85974 23.1812 5.52839 23.1814C4.86585 23.1817 4.2035 23.1819 3.5408 23.1811C3.085 23.1805 2.72008 23.0336 2.46906 22.7813C2.21797 22.5289 2.07169 22.1619 2.07076 21.7039C2.07033 21.4155 2.07047 21.127 2.07062 20.8347C2.07067 20.7199 2.07073 20.6045 2.07075 20.4884H14.4827ZM3.45269 2.0706L3.45278 2.0706C6.66892 2.06801 9.88495 2.06607 13.101 2.07125C13.8869 2.07245 14.4669 2.65455 14.4863 3.43883C14.4884 3.53225 14.4878 3.62482 14.4871 3.72599C14.4869 3.74935 14.4867 3.77317 14.4866 3.79757H2.07613C2.03909 3.25156 2.11963 2.77521 2.54229 2.40694L2.54234 2.4069C2.80212 2.18027 3.10902 2.0706 3.45269 2.0706ZM2.08499 4.98919H14.4811V19.2922H2.08499V4.98919Z" fill="#173371" stroke="#173371" stroke-width="0.2"/>
<path d="M11.6836 9.61991L11.6838 9.61992C11.8446 9.62516 11.9887 9.68223 12.0934 9.78401C12.1986 9.88629 12.2582 10.0282 12.2586 10.1912V10.1913C12.2618 12.1358 12.2625 14.081 12.2586 16.0256C12.2586 16.2012 12.1966 16.3493 12.0763 16.4518C11.9582 16.5525 11.7954 16.5995 11.6101 16.5995L11.6836 9.61991ZM11.6836 9.61991C11.5813 9.61688 11.4776 9.61756 11.3546 9.61836C11.3214 9.61858 11.2867 9.61881 11.2503 9.61898C11.252 9.49735 11.2566 9.37751 11.2613 9.25731C11.2647 9.16783 11.2681 9.07816 11.2704 8.9874C11.2765 8.74494 11.274 8.50171 11.2374 8.26167L11.2374 8.26165C10.9949 6.67338 9.57822 5.60927 7.97122 5.75014L7.97119 5.75015C6.45476 5.88361 5.26931 7.21424 5.26797 8.77409V8.77417V8.776V8.77783V8.77965V8.78148V8.78331V8.78513V8.78696V8.78879V8.79061V8.79244V8.79427V8.79609V8.79792V8.79975V8.80157V8.8034V8.80523V8.80705V8.80888V8.81071V8.81253V8.81436V8.81619V8.81801V8.81984V8.82167V8.82349V8.82532V8.82715V8.82897V8.8308V8.83263V8.83445V8.83628V8.83811V8.83993V8.84176V8.84359V8.84541V8.84724V8.84907V8.85089V8.85272V8.85455V8.85637V8.8582V8.86003V8.86185V8.86368V8.86551V8.86733V8.86916V8.87099V8.87281V8.87464V8.87647V8.87829V8.88012V8.88195V8.88378V8.8856V8.88743V8.88926V8.89108V8.89291V8.89474V8.89656V8.89839V8.90022V8.90205V8.90387V8.9057V8.90753V8.90935V8.91118V8.91301V8.91484V8.91666V8.91849V8.92032V8.92214V8.92397V8.9258V8.92763V8.92945V8.93128V8.93311V8.93494V8.93676V8.93859V8.94042V8.94225V8.94408V8.9459V8.94773V8.94956V8.95139V8.95321V8.95504V8.95687V8.9587V8.96053V8.96235V8.96418V8.96601V8.96784V8.96967V8.9715V8.97332V8.97515V8.97698V8.97881V8.98064V8.98247V8.98429V8.98612V8.98795V8.98978V8.99161V8.99344V8.99527V8.9971V8.99892V9.00075V9.00258V9.00441V9.00624V9.00807V9.0099V9.01173V9.01356V9.01539V9.01722V9.01905V9.02088V9.02271V9.02453V9.02636V9.02819V9.03002V9.03185V9.03368V9.03551V9.03734V9.03917V9.041V9.04283V9.04467V9.0465V9.04833V9.05016V9.05199V9.05382V9.05565V9.05748V9.05931V9.06114V9.06297V9.0648V9.06663V9.06847V9.0703V9.07213V9.07396V9.07579V9.07762V9.07945V9.08129V9.08312V9.08495V9.08678V9.08861V9.09044V9.09228V9.09411V9.09594V9.09777V9.09961V9.10144V9.10327V9.1051V9.10694V9.10877V9.1106V9.11244V9.11427V9.1161V9.11793V9.11977V9.1216V9.12344V9.12527V9.1271V9.12894V9.13077V9.1326V9.13444V9.13627V9.13811V9.13994V9.14177V9.14361V9.14544V9.14728V9.14911V9.15095V9.15278V9.15462V9.15645V9.15829V9.16012V9.16196V9.16379V9.16563V9.16746V9.1693V9.17114V9.17297V9.17481V9.17664V9.17848V9.18032V9.18215V9.18399V9.18583V9.18766V9.1895V9.19134V9.19317V9.19501V9.19685V9.19869V9.20052V9.20236V9.2042V9.20604V9.20787V9.20971V9.21155V9.21339V9.21523V9.21707V9.2189V9.22074V9.22258V9.22442V9.22626V9.2281V9.22994V9.23178V9.23362V9.23546V9.2373V9.23914V9.24098V9.24282V9.24466V9.2465V9.24834V9.25018V9.25202V9.25386V9.2557V9.25754V9.25938V9.26122V9.26306V9.26491V9.26675V9.26859V9.27043V9.27227V9.27412V9.27596V9.2778V9.27964V9.28149V9.28333V9.28517V9.28701V9.28886V9.2907V9.29254V9.29439V9.29623V9.29807V9.29992V9.30176V9.30361V9.30545V9.3073V9.30914V9.31099V9.31283V9.31468V9.31652V9.31837V9.32021V9.32206V9.3239V9.32575V9.32759V9.32944V9.33129V9.33313V9.33498V9.33683V9.33867V9.34052V9.34237V9.34422V9.34606V9.34791V9.34976V9.35161V9.35345V9.3553V9.35715V9.359V9.36085V9.3627V9.36455V9.3664V9.36824V9.37009V9.37194V9.37379V9.37564V9.37749V9.37934V9.38119V9.38304V9.3849V9.38675V9.3886V9.39045V9.3923V9.39415V9.396V9.39785V9.39971V9.40156V9.40341V9.40526V9.40712V9.40897V9.41082V9.41267V9.41453V9.41638V9.41824V9.42009V9.42194V9.4238V9.42565V9.42751V9.42936V9.43122V9.43307V9.43493V9.43678V9.43864V9.44049V9.44235V9.4442V9.44606V9.44792V9.44977V9.45163V9.45349V9.45534V9.4572V9.45906V9.46092V9.46277V9.46463V9.46649V9.46835V9.47021V9.47207V9.47392V9.47578V9.47764V9.4795V9.48136V9.48322V9.48508V9.48694V9.4888V9.49066V9.49252V9.49438V9.49625V9.49811V9.49997V9.50183V9.50369V9.50555V9.50742V9.50928V9.51114V9.513V9.51487V9.51673V9.51859V9.52046V9.52232V9.52419V9.52605V9.52791V9.52978V9.53164V9.53351V9.53537V9.53724V9.53911V9.54097V9.54284V9.5447V9.54657V9.54844V9.5503V9.55217V9.55404V9.55591V9.55777V9.55964V9.56151V9.56338V9.56525V9.56711V9.56898V9.57085V9.57272V9.57459V9.57646V9.57833V9.5802V9.58207V9.58394V9.58581V9.58768V9.58956V9.59143V9.5933V9.59517V9.59704V9.59891V9.60079V9.60266V9.60453V9.60641V9.60828V9.61015V9.61203V9.6139V9.61578V9.61765V9.61908C5.24752 9.61903 5.22742 9.61898 5.2076 9.61892C5.1104 9.61864 5.02016 9.61837 4.9304 9.61923L4.93025 9.61923C4.73826 9.62134 4.57555 9.67165 4.46142 9.7864C4.34721 9.90124 4.29771 10.0644 4.2977 10.258C4.2977 10.258 4.2977 10.258 4.2977 10.258M11.6836 9.61991L4.2977 10.258M4.91612 16.5995L4.91577 16.5995C4.73066 16.597 4.57236 16.5444 4.4606 16.4312C4.34883 16.318 4.29771 16.1585 4.2977 15.9711C4.2977 15.9711 4.2977 15.9711 4.2977 15.971M4.91612 16.5995L4.3977 15.971H4.2977M4.91612 16.5995C5.04614 16.6008 5.17671 16.6004 5.3065 16.5999C5.37101 16.5997 5.43533 16.5995 5.49928 16.5995C6.17824 16.5995 6.85721 16.5996 7.53618 16.5996M4.91612 16.5995L7.53618 16.5996M4.2977 15.971C4.29641 14.0667 4.29641 12.1624 4.2977 10.258M4.2977 15.971V10.258M7.53618 16.5996C8.89414 16.5998 10.2521 16.5999 11.6101 16.5995L7.53618 16.5996ZM5.48156 10.7927H11.076V15.4169H8.87817V14.5537C9.73262 14.1526 9.9363 13.3631 9.80056 12.7801L9.80056 12.7801C9.62849 12.0416 9.02021 11.5565 8.2788 11.5565C7.53006 11.5565 6.91298 12.0606 6.74651 12.8029L6.7465 12.8029C6.58795 13.5116 6.9591 14.1733 7.68849 14.5544V15.4176H5.48156V10.7927ZM6.44257 9.61146C6.44285 9.50785 6.44082 9.40423 6.43883 9.30193C6.43827 9.27343 6.43772 9.24503 6.43721 9.21676C6.4343 9.05261 6.43311 8.89172 6.44268 8.73297C6.46177 8.41637 6.52348 8.11323 6.69632 7.82494C7.1186 7.12115 7.9392 6.77408 8.72596 6.972C9.51807 7.17125 10.0824 7.8658 10.1156 8.70181C10.1243 8.92332 10.122 9.14379 10.1197 9.37468C10.1189 9.45228 10.1181 9.53106 10.1177 9.61146H6.44257ZM8.66204 13.1168L8.66203 13.1171C8.65696 13.3141 8.46981 13.4946 8.27596 13.4926L8.27592 13.4926C8.17707 13.4916 8.07842 13.4439 8.00502 13.3665C7.93159 13.2892 7.89051 13.1897 7.89608 13.0938L7.89609 13.0937C7.90153 12.9975 7.95042 12.903 8.02634 12.833C8.10234 12.7629 8.19845 12.7235 8.29078 12.7274L8.29086 12.7274C8.48938 12.7355 8.66753 12.926 8.66204 13.1168Z" fill="#FFC200" stroke="#FFC200" stroke-width="0.2"/>
<path d="M5.35408 18.5381L5.35383 18.5381C5.02112 18.5319 4.77232 18.2674 4.7816 17.9334L4.7816 17.9333C4.79098 17.601 5.05993 17.3569 5.39364 17.3692L5.35408 18.5381ZM5.35408 18.5381C5.68755 18.5435 5.94936 18.2916 5.95248 17.9591L5.95248 17.9589M5.35408 18.5381L5.95248 17.9589M5.95248 17.9589C5.9548 17.6382 5.71414 17.3809 5.39368 17.3692L5.95248 17.9589Z" fill="#173371" stroke="#173371" stroke-width="0.2"/>
<path d="M7.29237 17.4692L7.28995 17.3692C6.96818 17.377 6.72353 17.6293 6.72276 17.9508L6.72276 17.9508C6.72198 18.2838 6.97856 18.5405 7.31247 18.5382H7.31248C7.64516 18.5358 7.89909 18.2752 7.89366 17.9417L7.89365 17.9417C7.88787 17.6098 7.6235 17.3607 7.28982 17.3692L7.29237 17.4692ZM7.29237 17.4692C7.57131 17.4621 7.78838 17.6677 7.79365 17.9425L6.82275 17.9511C6.8234 17.6833 7.02522 17.4756 7.29237 17.4692Z" fill="#173371" stroke="#173371" stroke-width="0.2"/>
<path d="M8.76437 17.9706L8.66441 17.9732C8.673 18.2942 8.9272 18.5376 9.24886 18.5376C9.58186 18.5376 9.83775 18.2802 9.83464 17.9463L9.83464 17.9463C9.83153 17.6135 9.5687 17.3624 9.23537 17.3686L9.23537 17.3686C8.90279 17.3752 8.65514 17.6397 8.66441 17.9733L8.76437 17.9706ZM8.76437 17.9706C8.77149 18.2364 8.98042 18.4376 9.24886 18.4376C9.52636 18.4376 9.73724 18.2254 9.73465 17.9473C9.73207 17.6716 9.51683 17.4642 9.2388 17.4686L9.23629 17.4686C8.96088 17.4746 8.75663 17.6916 8.76437 17.9706Z" fill="#173371" stroke="#173371" stroke-width="0.2"/>
<path d="M11.203 17.3686L11.203 17.3686L11.1662 18.4376L11.1623 18.5375C11.1623 18.5375 11.1623 18.5375 11.1623 18.5375C11.4956 18.5506 11.7659 18.305 11.7752 17.9734L11.7752 17.9733C11.7845 17.64 11.5358 17.3748 11.203 17.3686Z" fill="#173371" stroke="#173371" stroke-width="0.2"/>
<path d="M9.83475 21.834L9.83475 21.8342C9.83323 22.0019 9.77183 22.1483 9.65894 22.2527C9.54676 22.3564 9.39174 22.4112 9.21486 22.4126C9.00437 22.4144 8.79343 22.4138 8.58293 22.4132C8.47792 22.4129 8.37302 22.4126 8.26834 22.4126H8.2677C8.17572 22.4126 8.0834 22.4129 7.99089 22.4132C7.76799 22.4139 7.54394 22.4145 7.32069 22.4113L9.83475 21.834ZM9.83475 21.834C9.83589 21.6652 9.77652 21.5162 9.66538 21.4093C9.55465 21.3029 9.40021 21.2457 9.22361 21.245L9.83475 21.834ZM9.2231 21.345C9.53358 21.3462 9.73669 21.5448 9.73475 21.8333C9.73217 22.1192 9.52776 22.3101 9.21404 22.3126C9.00408 22.3144 8.79411 22.3138 8.58396 22.3132C8.47881 22.3129 8.37361 22.3126 8.26834 22.3126H8.2677C8.17506 22.3126 8.08237 22.3129 7.98965 22.3132C7.76708 22.3139 7.54438 22.3145 7.322 22.3113C7.02639 22.3075 6.82651 22.1121 6.82328 21.8353L9.2231 21.345ZM6.89371 22.2478C7.00157 22.3514 7.15076 22.4091 7.32056 22.4113L7.33129 21.245C7.33127 21.245 7.33126 21.245 7.33124 21.245C7.15462 21.2457 7.00049 21.3036 6.89036 21.4107C6.77991 21.5182 6.7214 21.6677 6.72329 21.8364L6.72329 21.8364C6.72519 21.9995 6.78556 22.1438 6.89371 22.2478Z" fill="#173371" stroke="#173371" stroke-width="0.2"/>
</svg>
