<svg width="33" height="41" viewBox="0 0 33 41" fill="none" xmlns="http://www.w3.org/2000/svg">
<path d="M24.5374 0C24.7816 2.531 23.9379 4.70678 22.295 6.61613C21.5179 7.5264 20.6299 8.30347 19.5198 8.81411C18.5429 9.25814 17.5216 9.39135 16.4337 9.30255C16.3005 7.4376 16.7446 5.75026 17.7436 4.19614C19.1201 2.06477 21.0739 0.777062 23.5161 0.155412C23.6715 0.111009 23.8269 0.0666053 23.9823 0.0222018H24.5374V0Z" fill="#021747"/>
<path d="M31.9528 13.7429C28.8667 15.6967 27.3348 18.3831 27.6012 22.0242C27.8677 25.6653 29.7992 28.0853 32.9963 29.6172C32.3968 31.4822 31.5754 33.1695 30.5541 34.768C29.6438 36.1667 28.7335 37.5655 27.5346 38.7422C26.58 39.6746 25.4699 40.2741 24.1156 40.3185C23.1387 40.3407 22.2062 40.0965 21.2959 39.7634C20.5189 39.4748 19.7196 39.164 18.9203 38.942C17.4772 38.5423 16.0563 38.72 14.6798 39.2084C13.6807 39.5414 12.6816 39.9188 11.6826 40.2075C10.4393 40.5627 9.30696 40.2741 8.24128 39.5858C7.33101 39.0086 6.59835 38.2315 5.93229 37.41C3.11267 34.0576 1.24772 30.2389 0.426251 25.9095C0.0710229 24.0002 -0.128793 22.0686 0.0932247 20.1149C0.515059 16.496 1.93597 13.4099 5.08863 11.3452C7.53082 9.74662 10.1506 9.36919 12.9259 10.3905C13.8361 10.7235 14.7464 11.0565 15.6567 11.3896C16.4337 11.6782 17.1886 11.5894 17.9435 11.323C19.2312 10.8567 20.5189 10.3239 21.851 10.013C25.159 9.25819 28.1341 10.0574 30.6873 12.2998C31.1535 12.6995 31.4865 13.2323 31.9528 13.7429Z" fill="#021747"/>
</svg>
