<svg width="25" height="25" viewBox="0 0 25 25" fill="none" xmlns="http://www.w3.org/2000/svg">
<path d="M12.4838 25C5.5927 24.9958 -0.00833177 19.3698 9.30409e-06 12.4578C0.00835038 5.59727 5.68584 -0.0552004 12.513 0.000406809C19.4458 0.056014 24.9857 5.64314 24.9718 12.5662C24.9579 19.3962 19.3263 25.0042 12.4838 25ZM12.5061 2.54305C7.00234 2.53331 2.51345 6.99996 2.5065 12.4912C2.49955 17.9573 6.96064 22.4323 12.4379 22.4546C17.9444 22.4768 22.4305 18.0352 22.4625 12.5315C22.4945 7.05279 18.007 2.55139 12.5047 2.54165L12.5061 2.54305Z" fill="#E2E2E2"/>
<path d="M12.5061 2.54443C18.0084 2.55416 22.4945 7.05556 22.4639 12.5343C22.4319 18.038 17.9458 22.4796 12.4393 22.4574C6.96202 22.4351 2.50093 17.9601 2.50788 12.4939C2.51483 7.00274 7.00372 2.53609 12.5074 2.54582L12.5061 2.54443ZM12.4713 10.7381C11.4217 9.67883 10.4277 8.66122 9.41707 7.66168C8.95136 7.20014 8.41614 7.1348 7.90178 7.41979C7.41243 7.69088 7.14274 8.22054 7.29705 8.78356C7.3749 9.06576 7.56813 9.34241 7.77805 9.55511C8.74562 10.538 9.73681 11.4972 10.7739 12.519C10.5528 12.7066 10.3832 12.8304 10.2359 12.9763C9.36285 13.8438 8.4787 14.7016 7.62791 15.5913C6.92031 16.3322 7.25951 17.475 8.23959 17.7127C8.74562 17.835 9.14738 17.6209 9.4977 17.2706C10.4875 16.2808 11.4787 15.2938 12.5213 14.2539C12.659 14.4138 12.7632 14.5514 12.8842 14.6724C13.7517 15.5454 14.6233 16.4156 15.4935 17.2859C15.8439 17.6376 16.2484 17.8392 16.7558 17.7029C17.7331 17.4416 18.0501 16.3128 17.3286 15.5704C16.3263 14.5389 15.2906 13.5407 14.209 12.4689C14.3884 12.323 14.5482 12.2145 14.6831 12.0811C15.5686 11.2011 16.4639 10.3308 17.3286 9.42999C18.0445 8.68346 17.7303 7.55325 16.7558 7.29468C16.2498 7.15983 15.8439 7.3614 15.4935 7.71312C14.5023 8.70432 13.5125 9.69691 12.4713 10.7381Z" fill="#E2E2E2"/>
<path d="M12.4713 10.7368C13.5125 9.69558 14.5023 8.70438 15.4935 7.71179C15.8439 7.36008 16.2498 7.15989 16.7558 7.29335C17.7303 7.55192 18.0445 8.68214 17.3286 9.42866C16.4639 10.3295 15.57 11.2011 14.6831 12.0797C14.5482 12.2132 14.3884 12.3216 14.209 12.4676C15.2892 13.5394 16.3263 14.5376 17.3286 15.5691C18.0501 16.3114 17.7331 17.4403 16.7558 17.7016C16.2498 17.8365 15.8453 17.6349 15.4935 17.2846C14.6233 16.4143 13.7516 15.5441 12.8842 14.671C12.7632 14.5501 12.659 14.4125 12.5213 14.2526C11.4787 15.2924 10.4875 16.2795 9.4977 17.2693C9.14738 17.6196 8.74561 17.8337 8.23959 17.7114C7.2609 17.4736 6.92031 16.3295 7.62791 15.5899C8.4787 14.7002 9.36285 13.8425 10.2359 12.975C10.3832 12.829 10.5515 12.7053 10.7739 12.5176C9.73542 11.4959 8.74561 10.5366 7.77805 9.55378C7.56952 9.34108 7.3749 9.06305 7.29705 8.78223C7.14135 8.21921 7.41243 7.69094 7.90178 7.41846C8.41614 7.13348 8.95136 7.19882 9.41707 7.66036C10.4277 8.65989 11.4203 9.6775 12.4713 10.7368Z" fill="white"/>
</svg>
