<svg width="20" height="21" viewBox="0 0 20 21" fill="none" xmlns="http://www.w3.org/2000/svg">
<g clip-path="url(#clip0_5489_1513)">
<path d="M13.6548 20.2269H5.89201C5.85267 20.2121 5.81487 20.1921 5.77451 20.184C5.48129 20.1268 5.18245 20.0905 4.89433 20.0139C1.98763 19.2404 0.00760026 16.6653 0.00351351 13.6585C0.000448449 11.5109 -0.00465999 9.3638 0.00913279 7.21621C0.0121979 6.76054 0.0515328 6.29618 0.147061 5.85175C0.809625 2.76165 3.44558 0.646251 6.60974 0.644718C8.73128 0.643697 10.8528 0.641653 12.9743 0.647783C13.3105 0.648805 13.6492 0.672815 13.9827 0.717258C16.5855 1.06514 18.7974 3.08093 19.3951 5.64537C19.4697 5.96464 19.5203 6.28903 19.5821 6.61137V14.2991C19.5683 14.3455 19.5474 14.391 19.5417 14.438C19.1796 17.2798 17.1525 19.4923 14.3577 20.0941C14.1248 20.1441 13.8893 20.1835 13.6548 20.2274V20.2269ZM9.22015 11.3259C9.14097 11.2509 9.09449 11.2095 9.05055 11.165C8.64903 10.7645 8.25057 10.361 7.8465 9.96353C7.58188 9.70351 7.26567 9.70249 7.01842 9.95024C6.77985 10.1898 6.7727 10.5045 7.02863 10.764C7.81227 11.5568 8.60152 12.3446 9.39486 13.1277C9.64211 13.3719 9.93023 13.3811 10.1759 13.1394C10.98 12.3492 11.7764 11.5507 12.5667 10.7466C12.6535 10.6583 12.7128 10.5193 12.7327 10.3952C12.7705 10.1587 12.6137 9.92726 12.3767 9.81896C12.1458 9.71372 11.9378 9.76941 11.7642 9.93952C11.3504 10.3456 10.9427 10.7579 10.532 11.1671C10.486 11.213 10.4375 11.256 10.3639 11.3254V11.0705C10.3639 9.08896 10.3639 7.10791 10.3639 5.12635C10.3639 5.05636 10.3675 4.98536 10.3593 4.91639C10.3236 4.6201 10.1065 4.41577 9.81375 4.39789C9.54709 4.38205 9.31773 4.5588 9.25285 4.84436C9.22884 4.94858 9.22118 5.05841 9.22118 5.16568C9.21913 7.13447 9.21964 9.10327 9.21964 11.0715V11.3254L9.22015 11.3259ZM6.12138 15.2462C6.12138 15.1706 6.12138 15.1087 6.12138 15.0464C6.12138 14.7154 6.12393 14.3839 6.12035 14.0528C6.1178 13.803 6.01716 13.6058 5.77911 13.5042C5.38883 13.3376 4.99394 13.5987 4.98015 14.0395C4.96891 14.4022 4.97658 14.766 4.97709 15.1287C4.97811 15.946 5.50887 16.4737 6.33184 16.4742C7.61866 16.4747 8.90496 16.4742 10.1918 16.4742C11.1854 16.4742 12.179 16.4773 13.1725 16.4732C13.7718 16.4707 14.3311 16.0656 14.3991 15.4995C14.4619 14.9723 14.4374 14.4319 14.4144 13.8991C14.4027 13.6232 14.1207 13.4393 13.8366 13.4567C13.5455 13.474 13.3181 13.6942 13.311 13.9854C13.3023 14.3353 13.3074 14.6863 13.3069 15.0367C13.3069 15.1041 13.3069 15.1711 13.3069 15.2456H6.12138V15.2462Z" fill="white"/>
<path d="M9.22013 11.3265V11.0726C9.22013 9.1038 9.22013 7.13501 9.22166 5.16673C9.22166 5.05945 9.22983 4.94962 9.25333 4.84541C9.31872 4.55985 9.54758 4.3831 9.81424 4.39893C10.1069 4.4163 10.3241 4.62064 10.3598 4.91744C10.368 4.9864 10.3644 5.05741 10.3644 5.12739C10.3644 7.10896 10.3644 9.09001 10.3644 11.0716V11.3265C10.438 11.2575 10.4865 11.2141 10.5325 11.1681C10.9432 10.7589 11.3509 10.3467 11.7646 9.94056C11.9383 9.76994 12.1457 9.71426 12.3771 9.82C12.6142 9.9283 12.771 10.1597 12.7332 10.3962C12.7133 10.5204 12.654 10.6598 12.5672 10.7477C11.7769 11.5518 10.9805 12.3502 10.1764 13.1405C9.93071 13.3821 9.64259 13.3729 9.39534 13.1287C8.602 12.3456 7.81275 11.5579 7.02912 10.7651C6.77319 10.5061 6.77983 10.1909 7.0189 9.95129C7.26615 9.70353 7.58236 9.70455 7.84698 9.96457C8.25106 10.362 8.64951 10.7656 9.05104 11.1661C9.09497 11.21 9.14146 11.2519 9.22064 11.327L9.22013 11.3265Z" fill="#173371"/>
<path d="M6.12136 15.2467H13.3074C13.3074 15.1721 13.3074 15.1052 13.3074 15.0378C13.3079 14.6873 13.3028 14.3369 13.3115 13.9865C13.3186 13.6953 13.546 13.4751 13.8371 13.4577C14.1212 13.4409 14.4032 13.6248 14.4149 13.9001C14.4379 14.4329 14.4624 14.9734 14.3996 15.5006C14.3321 16.0661 13.7723 16.4717 13.173 16.4743C12.1794 16.4784 11.1859 16.4753 10.1923 16.4753C8.90545 16.4753 7.61915 16.4753 6.33233 16.4753C5.50988 16.4753 4.97911 15.9471 4.97758 15.1297C4.97758 14.7665 4.96889 14.4033 4.98064 14.0406C4.99444 13.5997 5.38881 13.3387 5.7796 13.5052C6.01714 13.6069 6.11829 13.8036 6.12085 14.0539C6.12391 14.3849 6.12187 14.7165 6.12187 15.0475C6.12187 15.1093 6.12187 15.1716 6.12187 15.2472L6.12136 15.2467Z" fill="#FFFDFE"/>
</g>
<defs>
<clipPath id="clip0_5489_1513">
<rect width="19.5843" height="19.5843" fill="white" transform="translate(0 0.635254)"/>
</clipPath>
</defs>
</svg>
