<svg width="36" height="37" viewBox="0 0 36 37" fill="none" xmlns="http://www.w3.org/2000/svg">
<g clip-path="url(#clip0_5419_4177)">
<path d="M24.9266 36.7491H10.7558C10.684 36.722 10.615 36.6857 10.5413 36.6707C10.006 36.5663 9.46047 36.5001 8.93452 36.3602C3.62839 34.9483 0.0138742 30.2474 0.00641386 24.7585C0.000818636 20.8381 -0.00850673 16.9187 0.0166718 12.9983C0.022267 12.1665 0.0940724 11.3188 0.268457 10.5075C1.47796 4.86656 6.28985 1.00492 12.066 1.00212C15.9388 1.00026 19.8116 0.996529 23.6845 1.00772C24.2981 1.00958 24.9163 1.05341 25.5253 1.13454C30.2766 1.7696 34.3145 5.44939 35.4055 10.1307C35.5417 10.7136 35.634 11.3057 35.7468 11.8942V25.9279C35.7216 26.0128 35.6834 26.0958 35.6732 26.1816C35.012 31.3693 31.3117 35.4081 26.2098 36.5066C25.7845 36.598 25.3546 36.6698 24.9266 36.75V36.7491ZM16.8312 20.5005C16.6867 20.3635 16.6018 20.2879 16.5216 20.2068C15.7887 19.4757 15.0613 18.739 14.3237 18.0135C13.8406 17.5388 13.2634 17.5369 12.812 17.9892C12.3765 18.4266 12.3635 19.001 12.8307 19.4748C14.2612 20.922 15.7019 22.36 17.1502 23.7896C17.6015 24.2354 18.1275 24.2521 18.576 23.811C20.0438 22.3684 21.4977 20.9109 22.9403 19.443C23.0988 19.2817 23.207 19.0281 23.2434 18.8015C23.3124 18.3697 23.0261 17.9473 22.5934 17.7496C22.1719 17.5575 21.7923 17.6591 21.4753 17.9696C20.7199 18.711 19.9758 19.4636 19.226 20.2105C19.1421 20.2945 19.0535 20.3728 18.9192 20.4996V20.0343C18.9192 16.417 18.9192 12.8006 18.9192 9.18327C18.9192 9.05551 18.9257 8.92589 18.9108 8.8C18.8455 8.25913 18.4492 7.88611 17.9149 7.85347C17.4281 7.82457 17.0094 8.14722 16.8909 8.66851C16.8471 8.85875 16.8331 9.05924 16.8331 9.25508C16.8294 12.8491 16.8303 16.4431 16.8303 20.0361V20.4996L16.8312 20.5005ZM11.1745 27.6568C11.1745 27.5188 11.1745 27.406 11.1745 27.2922C11.1745 26.6879 11.1791 26.0827 11.1726 25.4784C11.168 25.0224 10.9842 24.6625 10.5497 24.4769C9.83722 24.1729 9.11637 24.6494 9.09119 25.4542C9.07067 26.1163 9.08466 26.7802 9.0856 27.4423C9.08746 28.9344 10.0564 29.8977 11.5587 29.8986C13.9077 29.8996 16.2559 29.8986 18.6049 29.8986C20.4187 29.8986 22.2325 29.9042 24.0463 29.8968C25.1402 29.8921 26.1613 29.1526 26.2853 28.1194C26.4 27.157 26.3553 26.1704 26.3133 25.1977C26.2918 24.6942 25.7771 24.3584 25.2586 24.3902C24.727 24.4219 24.3121 24.8238 24.299 25.3553C24.2832 25.9941 24.2925 26.6348 24.2915 27.2745C24.2915 27.3976 24.2915 27.5197 24.2915 27.6559H11.1745V27.6568Z" fill="#24366F"/>
<path d="M16.8312 20.5015V20.038C16.8312 16.444 16.8312 12.85 16.834 9.25694C16.834 9.06111 16.849 8.86062 16.8919 8.67038C17.0112 8.14909 17.429 7.82643 17.9158 7.85534C18.4501 7.88705 18.8465 8.26006 18.9117 8.80187C18.9267 8.92776 18.9201 9.05738 18.9201 9.18514C18.9201 12.8024 18.9201 16.4188 18.9201 20.0361V20.5015C19.0544 20.3756 19.143 20.2963 19.2269 20.2124C19.9767 19.4654 20.7209 18.7129 21.4762 17.9715C21.7933 17.66 22.1719 17.5584 22.5943 17.7514C23.027 17.9491 23.3133 18.3716 23.2443 18.8033C23.2079 19.0299 23.0998 19.2845 22.9412 19.4449C21.4986 20.9127 20.0448 22.3703 18.577 23.8129C18.1284 24.254 17.6024 24.2372 17.1511 23.7915C15.7029 22.3619 14.2621 20.9239 12.8316 19.4766C12.3644 19.0038 12.3765 18.4284 12.8129 17.9911C13.2643 17.5388 13.8415 17.5407 14.3246 18.0153C15.0622 18.7408 15.7896 19.4776 16.5226 20.2087C16.6028 20.2889 16.6876 20.3653 16.8322 20.5024L16.8312 20.5015Z" fill="#FFFDFE"/>
<path d="M11.1744 27.6578H24.2924C24.2924 27.5216 24.2924 27.3995 24.2924 27.2764C24.2933 26.6366 24.284 25.9969 24.2999 25.3572C24.3129 24.8257 24.7279 24.4237 25.2594 24.392C25.7779 24.3613 26.2927 24.697 26.3141 25.1996C26.3561 26.1722 26.4009 27.1589 26.2862 28.1212C26.1631 29.1536 25.141 29.894 24.0471 29.8987C22.2334 29.9061 20.4196 29.9005 18.6058 29.9005C16.2567 29.9005 13.9086 29.9005 11.5595 29.9005C10.0582 29.9005 9.08925 28.9363 9.08645 27.4442C9.08645 26.7812 9.0706 26.1182 9.09205 25.4561C9.11722 24.6513 9.83714 24.1747 10.5505 24.4788C10.9842 24.6643 11.1688 25.0234 11.1735 25.4803C11.1791 26.0846 11.1753 26.6898 11.1753 27.2941C11.1753 27.4069 11.1753 27.5207 11.1753 27.6587L11.1744 27.6578Z" fill="#FFFDFE"/>
</g>
<defs>
<clipPath id="clip0_5419_4177">
<rect width="35.7508" height="35.7508" fill="white" transform="translate(0 0.985199)"/>
</clipPath>
</defs>
</svg>
