<svg width="53" height="52" viewBox="0 0 53 52" fill="none" xmlns="http://www.w3.org/2000/svg">
<circle cx="26.3359" cy="26" r="26" fill="white"/>
<path d="M12 33.6411C12 28.7332 12 23.8261 12 18.9182C12.0364 18.7701 12.0839 18.6242 12.1084 18.4747C12.3839 16.7894 13.1419 15.3527 14.3718 14.1752C15.9269 12.6855 17.7974 11.9835 19.9518 12.0003C21.7383 12.0143 23.5249 12.0031 25.3121 12.0031C27.8154 12.0031 30.3187 12.0052 32.822 12.0024C34.168 12.0003 35.4462 12.2971 36.6028 12.9774C39.2347 14.5258 40.5821 16.8425 40.5898 19.9016C40.601 24.1487 40.5863 28.3959 40.5961 32.643C40.5989 33.9463 40.3507 35.1874 39.743 36.3405C38.6914 38.3352 37.0789 39.6608 34.8987 40.274C34.4764 40.3928 34.0407 40.4633 33.6114 40.5562H18.9246C18.8868 40.5373 18.8505 40.5108 18.8099 40.5003C18.175 40.3376 17.5114 40.2461 16.9087 40.0037C14.5389 39.0504 12.9957 37.3232 12.2825 34.8696C12.1657 34.4666 12.093 34.051 12 33.6411V33.6411ZM13.6768 26.2517C13.6768 28.3798 13.6691 30.5086 13.6824 32.6367C13.6852 33.1075 13.7124 33.5894 13.8138 34.0475C14.4529 36.9404 16.8653 38.8751 19.8392 38.8814C24.1479 38.8904 28.4573 38.8863 32.766 38.8814C33.6464 38.88 34.5078 38.734 35.3057 38.3485C37.6754 37.2037 38.89 35.2949 38.9082 32.6793C38.9375 28.4133 38.92 24.1473 38.9102 19.8813C38.9088 19.4197 38.8753 18.9475 38.7732 18.4992C38.1061 15.5867 35.7217 13.6842 32.7388 13.6793C28.4391 13.6723 24.1395 13.666 19.8399 13.6821C17.7443 13.6898 16.0486 14.5398 14.8067 16.2397C14.0194 17.3167 13.681 18.5425 13.6782 19.866C13.674 21.9941 13.6768 24.1229 13.6768 26.251V26.2517Z" fill="#173371"/>
<path d="M26.2778 34.0875C21.9705 34.0777 18.4715 30.5702 18.4778 26.2686C18.4841 21.9558 22.0097 18.4553 26.3282 18.4727C30.6355 18.4902 34.1275 22.004 34.1142 26.3056C34.1002 30.6072 30.5851 34.0979 26.2778 34.0882V34.0875ZM26.2596 32.4105C29.6013 32.3924 32.3962 29.8026 32.4255 26.3161C32.4535 22.9748 29.8181 20.1881 26.3331 20.1587C22.9928 20.1308 20.1965 22.7583 20.1672 26.2434C20.1392 29.5742 22.7641 32.3365 26.2596 32.4105Z" fill="#173371"/>
<path d="M34.3008 20.3124C33.0324 20.3131 31.9962 19.2836 31.992 18.0173C31.9878 16.7441 33.0401 15.6853 34.3036 15.6895C35.5532 15.6944 36.6027 16.7371 36.6202 17.9929C36.6377 19.248 35.5742 20.3117 34.3001 20.3124H34.3008ZM34.3092 17.3887C33.9757 17.3852 33.6841 17.6618 33.6729 17.9922C33.6617 18.3176 33.9778 18.6382 34.3064 18.6347C34.6344 18.6312 34.9176 18.3407 34.919 18.0075C34.9197 17.6688 34.6477 17.3922 34.3099 17.3887H34.3092Z" fill="#173371"/>
</svg>
