<svg width="37" height="37" viewBox="0 0 37 37" fill="none" xmlns="http://www.w3.org/2000/svg">
<path d="M18.5858 36.1258C18.2926 36.0091 17.993 35.9058 17.706 35.7738C16.5588 35.2453 15.8563 34.3494 15.5296 33.1337C15.4835 32.9633 15.362 32.7776 15.2209 32.6743C14.2022 31.9264 13.168 31.1996 12.1409 30.4622C11.289 29.8512 11.296 29.0796 12.1549 28.4659C13.1736 27.7376 14.1903 27.0058 15.2146 26.2852C15.3843 26.1658 15.4472 26.0415 15.4465 25.8313C15.4409 23.4238 15.4283 21.0155 15.4548 18.6079C15.4758 16.694 17.1656 14.9839 19.0683 14.9748C23.6538 14.9532 28.2399 14.9518 32.8254 14.9727C34.6297 14.9811 36.1233 16.2722 36.4954 18.0458C36.5052 18.0933 36.5415 18.1359 36.5653 18.1805V32.9138C36.5394 32.9717 36.5045 33.0276 36.4899 33.0883C36.2238 34.1944 35.6135 35.0602 34.6241 35.6139C34.2128 35.8444 33.7366 35.9582 33.2897 36.1258H18.5858ZM27.2854 27.8877C27.423 28.3569 27.571 28.8171 27.6911 29.2849C27.7623 29.5635 27.9383 29.6934 28.1932 29.6459C28.4452 29.5991 28.7099 29.5174 28.9179 29.3757C29.0269 29.3017 29.103 29.0419 29.0625 28.9058C28.3726 26.6008 27.6646 24.3008 26.9537 22.0021C26.8302 21.6013 26.5041 21.4135 25.9978 21.4142C25.5042 21.4142 25.1809 21.5922 25.0608 21.9791C24.3437 24.2882 23.6307 26.598 22.9367 28.9142C22.8962 29.0503 22.9807 29.308 23.0924 29.3876C23.2886 29.5265 23.5456 29.604 23.7878 29.6466C24.0546 29.6941 24.2466 29.5754 24.3178 29.2752C24.4107 28.8813 24.5259 28.4917 24.66 28.1105C24.6928 28.0162 24.8345 27.8996 24.9281 27.8975C25.7053 27.88 26.4831 27.8877 27.284 27.8877H27.2854Z" fill="#173371"/>
<path d="M18.7249 0.375031C19.0656 0.49164 19.4189 0.581715 19.745 0.730444C20.895 1.25344 21.5947 2.15419 21.9208 3.37056C21.9662 3.54093 22.0898 3.72527 22.2315 3.82931C23.26 4.58413 24.3039 5.318 25.3394 6.06304C26.139 6.6384 26.1417 7.42254 25.3464 7.99581C24.3493 8.71502 23.3543 9.43771 22.3425 10.136C22.0814 10.3161 21.9899 10.5047 22.0011 10.8147C22.0248 11.4871 22.0088 12.1602 22.0088 12.8717C21.2051 12.8717 20.4188 12.8829 19.634 12.869C18.7542 12.8529 17.8855 12.9416 17.0867 13.3096C16.443 13.6063 15.8487 14.0092 15.2315 14.366C15.1323 14.0329 14.8453 13.9198 14.455 13.9059C13.717 13.8793 13.0236 13.674 12.3714 13.2684C13.2135 12.3383 13.6904 11.2532 13.8475 10.0166C14.1198 10.0166 14.3628 10.0222 14.6058 10.0152C14.9738 10.0047 15.228 9.77637 15.2392 9.45587C15.2503 9.14095 15.0066 8.87701 14.6373 8.86654C13.976 8.84769 13.3141 8.85816 12.6521 8.85746C12.4566 8.85746 12.2611 8.85746 12.0355 8.85746C12.0355 8.39661 12.0425 7.95671 12.0335 7.51681C12.0251 7.09366 11.7947 6.84089 11.4413 6.84369C11.095 6.84648 10.8716 7.09925 10.8611 7.52798C10.8506 7.95671 10.859 8.38544 10.859 8.85746C10.1244 8.85746 9.4101 8.85607 8.69578 8.85816C8.52192 8.85816 8.34666 8.85676 8.17558 8.87981C7.85927 8.9224 7.63723 9.18425 7.65678 9.46914C7.67703 9.76659 7.91304 9.99702 8.23354 10.0131C8.4877 10.0256 8.74327 10.0159 9.04282 10.0159C9.2097 11.2371 9.66496 12.3313 10.5245 13.2628C9.91215 13.6608 9.2523 13.8353 8.55893 13.9066C8.51284 13.9114 8.46606 13.9121 8.41997 13.9142C7.91723 13.9394 7.63164 14.1691 7.65538 14.5308C7.68122 14.9218 7.97239 15.0803 8.50865 15.0601C9.50646 15.0231 10.41 14.7117 11.2563 14.1977C11.3443 14.1447 11.5105 14.116 11.5852 14.1628C12.4761 14.727 13.4397 15.0433 14.4955 15.0692C14.5283 15.0699 14.5597 15.088 14.6254 15.1076C14.5751 15.1914 14.536 15.2668 14.4871 15.3352C13.7484 16.3651 13.372 17.5152 13.3587 18.7818C13.349 19.6874 13.3567 20.5931 13.3567 21.5148C13.2994 21.5252 13.2568 21.5399 13.2149 21.5399C10.3122 21.5385 7.4089 21.5525 4.50624 21.5266C2.61466 21.5099 0.898342 19.7831 0.891359 17.8887C0.875998 13.2691 0.878791 8.65078 0.891359 4.0318C0.896247 2.36367 2.18314 0.870793 3.91621 0.450442C3.97626 0.435081 4.03212 0.400168 4.09008 0.375031C8.9688 0.375031 13.8468 0.375031 18.7249 0.375031Z" fill="#173371"/>
<path d="M11.4493 12.5352C10.7741 11.8264 10.3774 11.0011 10.2378 10.0305H12.6552C12.5204 10.9997 12.121 11.8236 11.4493 12.5352Z" fill="#173371"/>
<path d="M25.0179 26.7384C25.3412 25.5946 25.6541 24.4879 25.9969 23.2764C26.3411 24.4893 26.6554 25.5981 26.9787 26.7384H25.0179Z" fill="#173371"/>
</svg>
