<svg width="52" height="52" viewBox="0 0 52 52" fill="none" xmlns="http://www.w3.org/2000/svg">
<circle cx="26" cy="26" r="26" fill="white"/>
<path d="M12.0007 15.2803C12.1312 14.9148 12.2284 14.533 12.3978 14.1867C13.1687 12.6113 14.7097 11.8789 16.2586 12.0163C18.1386 12.1828 19.4321 13.6965 19.681 15.116C20.1264 17.6576 18.1549 19.767 15.9082 19.7571C14.0155 19.7493 12.4475 18.4693 12.0582 16.5809C12.0504 16.5412 12.0199 16.5065 12 16.4697V15.2796L12.0007 15.2803ZM15.9047 12.9917C14.1587 12.9974 12.968 14.3057 12.9794 15.8916C12.9914 17.6328 14.2998 18.7675 16.016 18.7746C17.4868 18.781 18.7626 17.416 18.7485 15.8562C18.7336 14.2589 17.4691 12.9846 15.9047 12.991V12.9917Z" fill="#173371"/>
<path d="M28.3854 22.2851C28.7677 21.9706 29.0967 21.6624 29.4627 21.4067C30.4548 20.7111 31.5611 20.3229 32.7731 20.2507C33.8865 20.1841 34.9977 20.1707 36.0835 20.483C38.2273 21.1 39.6981 22.4678 40.525 24.5284C40.8682 25.3841 40.9959 26.2851 40.9945 27.2095C40.9881 31.2704 40.9796 35.3314 41.003 39.3923C41.0072 40.0843 40.4456 40.5724 39.8435 40.5596C38.3528 40.5292 36.8614 40.5504 35.3707 40.5497C34.6424 40.5497 34.2134 40.1212 34.2134 39.3888C34.212 36.0553 34.2148 32.7211 34.2098 29.3876C34.2098 29.059 34.1829 28.7289 34.141 28.403C34.0219 27.4638 33.4106 26.9148 32.5922 26.5868C31.3604 26.0917 30.1449 26.4693 29.3776 27.5509C28.9996 28.0843 28.8719 28.6977 28.8719 29.3416C28.8719 32.7133 28.8719 36.085 28.8719 39.456C28.8719 40.1701 28.4939 40.549 27.7734 40.5497C26.0842 40.5511 24.3949 40.5511 22.7057 40.5497C21.9823 40.549 21.615 40.1786 21.615 39.456C21.615 33.5909 21.615 27.7266 21.615 21.8615C21.615 21.0759 21.9795 20.7147 22.7752 20.714C24.2566 20.7132 25.7388 20.7387 27.2196 20.7026C27.8855 20.6863 28.45 21.1878 28.3876 21.8778C28.3762 22.0038 28.3861 22.1313 28.3861 22.2865L28.3854 22.2851ZM40.0172 39.5439C40.0215 39.4674 40.025 39.4305 40.025 39.3937C40.025 35.3144 40.0307 31.235 40.0179 27.1563C40.0165 26.6704 39.964 26.1717 39.8491 25.7C39.3705 23.728 38.1982 22.3346 36.3033 21.5718C35.3431 21.185 34.3339 21.1949 33.3255 21.2091C31.5384 21.2332 30.0697 21.9075 28.9123 23.2937C28.4833 23.808 27.9521 24.2373 27.4515 24.7203V21.6978H22.6553V39.5403H27.9323V39.1826C27.9323 35.9342 27.9202 32.6864 27.9443 29.4379C27.9486 28.8918 28.0259 28.3166 28.2117 27.8073C28.7088 26.4494 29.718 25.6207 31.1519 25.4407C32.5858 25.2608 33.7865 25.7737 34.6389 26.9693C35.1303 27.6586 35.2013 28.4739 35.2055 29.292C35.2232 32.5971 35.236 35.9016 35.2509 39.2067C35.2509 39.3172 35.2509 39.4277 35.2509 39.5439H40.0165H40.0172Z" fill="#173371"/>
<path d="M19.2484 30.667C19.2484 33.443 19.2307 36.219 19.2598 38.995C19.2676 39.7607 18.6534 40.5555 17.7109 40.5512C16.5032 40.5463 15.2955 40.5512 14.0878 40.5498C13.112 40.5484 12.4758 39.9208 12.4702 38.9447C12.4638 37.9155 12.4688 36.8863 12.4688 35.857C12.4688 31.3626 12.4688 26.8681 12.4688 22.3737C12.4688 21.7539 12.6262 21.2078 13.2127 20.8968C13.4042 20.7955 13.6382 20.7268 13.8538 20.7247C15.1742 20.7091 16.4954 20.7055 17.8159 20.7204C18.6272 20.7296 19.2463 21.3806 19.247 22.1973C19.2505 25.0208 19.2484 27.8435 19.2484 30.667V30.667ZM13.4637 30.5947C13.4637 33.3792 13.4637 36.1638 13.4637 38.9483C13.4637 39.3747 13.6361 39.5596 14.0552 39.561C15.2622 39.5659 16.4699 39.5659 17.6769 39.561C18.1258 39.5588 18.2818 39.391 18.2818 38.9383C18.2818 33.4168 18.2818 27.8952 18.2818 22.3737C18.2818 21.8644 18.0974 21.6845 17.579 21.6845C16.4288 21.6845 15.2778 21.6845 14.1275 21.6845C13.6006 21.6845 13.4644 21.8219 13.4644 22.3553C13.4644 25.1022 13.4644 27.8485 13.4644 30.5955L13.4637 30.5947Z" fill="#173371"/>
</svg>
