<svg width="38" height="38" viewBox="0 0 38 38" fill="none" xmlns="http://www.w3.org/2000/svg">
<g clip-path="url(#clip0_5431_536)">
<path d="M32.7942 15.9863C32.7942 26.9177 18.7395 36.2875 18.7395 36.2875C18.7395 36.2875 4.68481 26.9177 4.68481 15.9863C4.68481 12.2588 6.16557 8.68392 8.80133 6.04816C11.4371 3.4124 15.012 1.93164 18.7395 1.93164C22.467 1.93164 26.0419 3.4124 28.6776 6.04816C31.3134 8.68392 32.7942 12.2588 32.7942 15.9863Z" stroke="#FFC200" stroke-width="4" stroke-linecap="round" stroke-linejoin="round"/>
<path d="M18.7396 20.6715C21.327 20.6715 23.4245 18.574 23.4245 15.9867C23.4245 13.3993 21.327 11.3018 18.7396 11.3018C16.1522 11.3018 14.0547 13.3993 14.0547 15.9867C14.0547 18.574 16.1522 20.6715 18.7396 20.6715Z" stroke="#FFC200" stroke-width="4" stroke-linecap="round" stroke-linejoin="round"/>
</g>
<defs>
<clipPath id="clip0_5431_536">
<rect width="37.4791" height="37.4791" fill="white" transform="translate(0 0.370117)"/>
</clipPath>
</defs>
</svg>
