<svg width="82" height="86" viewBox="0 0 82 86" fill="none" xmlns="http://www.w3.org/2000/svg">
<path d="M77.7732 22.2838H76.7622C74.8434 22.2838 72.9248 22.2845 71.0062 22.2852C63.6062 22.2878 56.2071 22.2905 48.8066 22.2537C48.0877 22.249 47.2692 21.9615 46.6709 21.5511C45.4029 20.6808 44.1677 19.7625 42.9324 18.8441C42.1731 18.2796 41.4137 17.715 40.6467 17.1615C40.3661 16.9575 39.9742 16.8021 39.6333 16.8021C29.7941 16.7867 19.9549 16.7873 10.1157 16.7879C8.14749 16.7881 6.17932 16.7882 4.21115 16.7882C4.14386 16.7882 4.07657 16.795 3.98776 16.8039C3.92967 16.8098 3.86238 16.8166 3.77985 16.823V17.7714C3.77985 21.4264 3.78167 25.0812 3.78348 28.736C3.78906 39.981 3.79464 51.2254 3.74739 62.4711C3.73812 64.8108 5.14795 66.7447 7.97691 66.6891C11.0455 66.6271 14.1154 66.6435 17.1856 66.6599C18.1384 66.665 19.0912 66.6701 20.044 66.6728C21.484 66.6775 22.3118 67.4288 22.2631 68.6276C22.2237 69.6108 21.4886 70.3829 20.4823 70.3876C19.3934 70.3909 18.3045 70.3975 17.2155 70.4041C13.7312 70.4252 10.2468 70.4463 6.76649 70.3597C3.19783 70.2716 0.1741 66.9581 0.00946454 63.234C-0.00047474 63.0114 -0.000189204 62.787 9.47751e-05 62.5639C0.000142055 62.5268 0.000189291 62.4897 0.000189291 62.4526V7.85382C0.000189291 3.9814 2.23321 1.04578 5.85751 0.199418C6.55084 0.0347822 7.29054 0.00927525 8.00705 0.00695644C29.8572 0 51.7051 0 73.5553 0C77.5088 0 80.3911 2.07534 81.3071 5.60921C81.4856 6.30022 81.5668 7.03296 81.5691 7.74715C81.583 26.0611 81.5853 44.3751 81.576 62.6891C81.576 67.1691 78.3367 70.3876 73.8729 70.3899C69.7339 70.3922 65.5971 70.3922 61.458 70.3899C60.1317 70.3899 59.3154 69.6873 59.3085 68.5511C59.3015 67.4241 60.1038 66.6752 61.4302 66.6705C63.7315 66.6614 66.0328 66.6625 68.3341 66.6636C70.1417 66.6645 71.9494 66.6653 73.757 66.6612C75.8625 66.6566 77.1912 65.7268 77.6735 63.9413C77.7616 63.612 77.7917 63.2595 77.7917 62.9164C77.7973 52.205 77.7969 41.4937 77.7966 30.7823C77.7965 28.0979 77.7964 25.4134 77.7964 22.729C77.7964 22.658 77.7918 22.5869 77.7856 22.4892C77.7819 22.4307 77.7775 22.3626 77.7732 22.2792V22.2838ZM77.7871 18.5041V18.4851C77.7871 14.6194 77.7871 10.8668 77.7825 7.11412C77.7825 6.9147 77.7454 6.71065 77.6967 6.51818C77.2306 4.73965 75.8347 3.73097 73.8103 3.73097C59.1276 3.72942 44.4449 3.72994 29.7622 3.73046C22.4208 3.73071 15.0794 3.73097 7.73807 3.73097C7.71415 3.73097 7.69017 3.73091 7.66615 3.73084C7.54576 3.73052 7.4243 3.73019 7.30445 3.73793C5.52128 3.85387 3.93985 5.12458 3.83783 6.79644C3.74909 8.23401 3.76924 9.67719 3.78972 11.1432C3.79867 11.7841 3.80768 12.4294 3.80768 13.0804H4.80709C7.28062 13.0804 9.75425 13.0808 12.2279 13.0812C21.5044 13.0828 30.7818 13.0843 40.0577 13.0642C41.0385 13.0642 41.8269 13.3262 42.5991 13.9222C44.431 15.332 46.2999 16.6908 48.1898 18.0218C48.577 18.2954 49.1196 18.4833 49.5903 18.4856C57.163 18.5088 64.7356 18.5078 72.3083 18.5068C73.8231 18.5066 75.3378 18.5064 76.8526 18.5064H77.7871V18.5041Z" fill="white"/>
<path d="M77.7732 22.2838H76.7622C74.8434 22.2838 72.9248 22.2845 71.0062 22.2852C63.6062 22.2878 56.2071 22.2905 48.8066 22.2537C48.0877 22.249 47.2692 21.9615 46.6709 21.5511C45.4029 20.6808 44.1677 19.7625 42.9324 18.8441C42.1731 18.2796 41.4137 17.715 40.6467 17.1615C40.3661 16.9575 39.9742 16.8021 39.6333 16.8021C29.7941 16.7867 19.9549 16.7873 10.1157 16.7879C8.14749 16.7881 6.17932 16.7882 4.21115 16.7882C4.14386 16.7882 4.07657 16.795 3.98776 16.8039C3.92967 16.8098 3.86238 16.8166 3.77985 16.823V17.7714C3.77985 21.4264 3.78167 25.0812 3.78348 28.736C3.78906 39.981 3.79464 51.2254 3.74739 62.4711C3.73812 64.8108 5.14795 66.7447 7.97691 66.6891C11.0455 66.6271 14.1154 66.6435 17.1856 66.6599C18.1384 66.665 19.0912 66.6701 20.044 66.6728C21.484 66.6775 22.3118 67.4288 22.2631 68.6276C22.2237 69.6108 21.4886 70.3829 20.4823 70.3876C19.3934 70.3909 18.3045 70.3975 17.2155 70.4041C13.7312 70.4252 10.2468 70.4463 6.76649 70.3597C3.19783 70.2716 0.1741 66.9581 0.00946454 63.234C-0.00047474 63.0114 -0.000189204 62.787 9.47751e-05 62.5639C0.000142055 62.5268 0.000189291 62.4897 0.000189291 62.4526V7.85382C0.000189291 3.9814 2.23321 1.04578 5.85751 0.199418C6.55084 0.0347822 7.29054 0.00927525 8.00705 0.00695644C29.8572 0 51.7051 0 73.5553 0C77.5088 0 80.3911 2.07534 81.3071 5.60921C81.4856 6.30022 81.5668 7.03296 81.5691 7.74715C81.583 26.0611 81.5853 44.3751 81.576 62.6891C81.576 67.1691 78.3367 70.3876 73.8729 70.3899C69.7339 70.3922 65.5971 70.3922 61.458 70.3899C60.1317 70.3899 59.3154 69.6873 59.3085 68.5511C59.3015 67.4241 60.1038 66.6752 61.4302 66.6705C63.7315 66.6614 66.0328 66.6625 68.3341 66.6636C70.1417 66.6645 71.9494 66.6653 73.757 66.6612C75.8625 66.6566 77.1912 65.7268 77.6735 63.9413C77.7616 63.612 77.7917 63.2595 77.7917 62.9164C77.7973 52.205 77.7969 41.4937 77.7966 30.7823C77.7965 28.0979 77.7964 25.4134 77.7964 22.729C77.7964 22.658 77.7918 22.5869 77.7856 22.4892C77.7819 22.4307 77.7775 22.3626 77.7732 22.2792V22.2838ZM77.7871 18.5041V18.4851C77.7871 14.6194 77.7871 10.8668 77.7825 7.11412C77.7825 6.9147 77.7454 6.71065 77.6967 6.51818C77.2306 4.73965 75.8347 3.73097 73.8103 3.73097C59.1276 3.72942 44.4449 3.72994 29.7622 3.73046C22.4208 3.73071 15.0794 3.73097 7.73807 3.73097C7.71415 3.73097 7.69017 3.73091 7.66615 3.73084C7.54576 3.73052 7.4243 3.73019 7.30445 3.73793C5.52128 3.85387 3.93985 5.12458 3.83783 6.79644C3.74909 8.23401 3.76924 9.67719 3.78972 11.1432C3.79867 11.7841 3.80768 12.4294 3.80768 13.0804H4.80709C7.28062 13.0804 9.75425 13.0808 12.2279 13.0812C21.5044 13.0828 30.7818 13.0843 40.0577 13.0642C41.0385 13.0642 41.8269 13.3262 42.5991 13.9222C44.431 15.332 46.2999 16.6908 48.1898 18.0218C48.577 18.2954 49.1196 18.4833 49.5903 18.4856C57.163 18.5088 64.7356 18.5078 72.3083 18.5068C73.8231 18.5066 75.3378 18.5064 76.8526 18.5064H77.7871V18.5041Z" stroke="white"/>
<path d="M51.9277 12.9901C50.912 13.0017 50.0332 12.1553 50.0216 11.1513C50.01 10.1426 50.861 9.28926 51.8859 9.27998C52.9178 9.27071 53.7781 10.0962 53.7943 11.1095C53.8105 12.1089 52.9456 12.9785 51.9277 12.9901V12.9901Z" fill="white"/>
<path d="M68.576 11.1143C68.5853 10.0754 69.4038 9.27544 70.4473 9.28239C71.4954 9.28935 72.2954 10.1056 72.2838 11.1514C72.2745 12.1925 71.449 13.0018 70.4079 12.9925C69.369 12.9832 68.5667 12.1624 68.576 11.1143V11.1143Z" fill="white"/>
<path d="M61.1635 9.28235C62.2047 9.28235 63.0186 10.0893 63.0209 11.1281C63.0232 12.1739 62.214 12.9901 61.1728 12.9924C60.134 12.9924 59.3154 12.1809 59.3108 11.1397C59.3062 10.0986 60.1178 9.28467 61.1612 9.28235H61.1635Z" fill="white"/>
<path d="M40.4103 85.0078C38.9389 84.5729 37.4237 84.2457 36.0005 83.683C26.7998 80.0451 21.3302 73.2287 19.6529 63.2721C19.4208 61.898 19.3464 60.4814 19.3398 59.085C19.307 53.1831 19.3245 47.2835 19.3267 41.3817C19.3267 39.2949 19.9026 38.4678 21.8272 37.7684C27.9603 35.5404 34.0824 33.2854 40.2374 31.1246C41.0234 30.8489 42.0591 30.84 42.843 31.1157C49.0768 33.3146 55.2799 35.6076 61.4874 37.8805C63.1318 38.4834 63.7383 39.38 63.7405 41.1822C63.7471 47.2432 63.7756 53.3042 63.7362 59.3651C63.6573 71.5275 55.9171 81.5828 44.4129 84.5303C43.767 84.6962 43.1189 84.8509 42.4708 85.01H40.4125L40.4103 85.0078ZM41.1198 58.5111C40.3578 57.702 39.6878 56.9488 38.974 56.2405C37.7675 55.0436 36.0837 55.0391 34.9736 56.1979C33.9138 57.303 33.9116 59.0648 35.0217 60.2348C36.3881 61.6739 37.7719 63.095 39.182 64.4914C40.3315 65.6323 41.9869 65.6548 43.1189 64.5138C45.7595 61.8554 48.3717 59.1679 50.9774 56.4736C51.6452 55.7832 51.9495 54.9225 51.7503 53.9407C51.5313 52.8626 50.916 52.0758 49.8782 51.7643C48.7921 51.437 47.7959 51.6724 46.966 52.5219C45.0589 54.4832 43.1408 56.4378 41.1176 58.5089L41.1198 58.5111Z" fill="#FFC200"/>
</svg>
