<svg width="86" height="86" viewBox="0 0 86 86" fill="none" xmlns="http://www.w3.org/2000/svg">
<path d="M57.403 61.6836C53.8527 64.3876 49.9374 66.0018 45.5584 66.6176C45.5584 68.8553 45.5406 71.0651 45.5837 73.2723C45.5888 73.5333 45.8802 73.8476 46.121 74.0351C48.3713 75.7837 49.1949 78.5586 48.199 81.1333C47.2157 83.6776 44.7145 85.2031 41.8788 84.9903C39.3041 84.7952 36.9803 82.7095 36.5292 79.998C36.1262 77.5931 36.9448 75.5733 38.9062 74.0909C39.3345 73.769 39.5043 73.4675 39.4967 72.9404C39.4688 70.8573 39.484 68.7717 39.484 66.6227C35.1075 65.9993 31.1618 64.3876 27.614 61.6583C25.5157 63.7768 23.4402 65.8574 21.3952 67.9633C21.2229 68.1407 21.1494 68.5208 21.1924 68.7767C21.6359 71.3869 20.3815 73.9616 18.0247 75.2059C15.6654 76.4502 12.7537 76.0042 10.8708 74.1061C9.01835 72.2384 8.5774 69.3647 9.78619 67.0256C11.0001 64.6765 13.6381 63.3688 16.2002 63.8073C16.4814 63.8554 16.897 63.7718 17.0896 63.5842C19.1727 61.5569 21.2254 59.4941 23.3414 57.3857C20.6577 53.8734 19.0181 49.9429 18.4074 45.5385C16.1647 45.5385 13.9549 45.5208 11.7451 45.5638C11.4841 45.5689 11.1673 45.8629 10.9798 46.1036C9.23628 48.3489 6.44871 49.175 3.87907 48.1791C1.30437 47.1806 -0.246539 44.5907 0.032218 41.7651C0.285634 39.2107 2.34337 36.9578 5.02198 36.5144C7.42689 36.114 9.44915 36.9325 10.9291 38.8939C11.2509 39.3222 11.5576 39.4895 12.0821 39.4819C14.1652 39.454 16.2508 39.4692 18.3973 39.4692C19.0181 35.0902 20.6299 31.1445 23.3541 27.6068C21.2381 25.506 19.1626 23.428 17.0516 21.3829C16.8641 21.2004 16.4358 21.1574 16.1495 21.208C13.6584 21.6389 11.0305 20.3287 9.80647 18.015C8.5622 15.6608 9.01074 12.7414 10.9063 10.8611C12.8044 8.9782 15.6857 8.56006 18.0704 9.82207C20.3283 11.0157 21.641 13.6537 21.2355 16.0941C21.1848 16.4083 21.2355 16.867 21.4357 17.0723C23.458 19.163 25.5183 21.2131 27.6267 23.3367C31.1441 20.6404 35.0822 19.0135 39.484 18.3926C39.484 16.1524 39.4992 13.9426 39.4637 11.7354C39.4587 11.4921 39.2204 11.188 39.005 11.0207C36.6863 9.22401 35.8526 6.56314 36.8206 3.96563C37.7963 1.34785 40.2747 -0.195457 43.1636 0.0199467C45.7104 0.207474 47.9684 2.20946 48.4879 4.91848C48.9542 7.36394 48.1179 9.4014 46.1412 10.9194C45.7231 11.2387 45.5406 11.5377 45.5482 12.0673C45.5787 14.1504 45.5609 16.236 45.5609 18.3875C49.9349 19.0059 53.8806 20.6176 57.4233 23.3418C59.5191 21.2309 61.5971 19.1579 63.6421 17.0495C63.8246 16.862 63.8727 16.4362 63.8246 16.1499C63.3938 13.6512 64.6862 11.0435 67.0075 9.80433C69.3567 8.55246 72.276 8.99594 74.164 10.8915C76.019 12.7541 76.4675 15.6557 75.2613 17.9694C74.0474 20.2983 71.4321 21.6287 68.9461 21.2283C68.6319 21.1776 68.2771 21.3246 67.9527 21.4158C67.8463 21.4463 67.7728 21.5856 67.6841 21.6769C65.7151 23.6408 63.7435 25.6048 61.7136 27.6271C64.3897 31.1343 66.0293 35.0648 66.6451 39.4717C68.8828 39.4717 71.0926 39.4869 73.3024 39.4515C73.5456 39.4464 73.8523 39.2082 74.0195 38.9953C75.8112 36.6765 78.467 35.8403 81.0721 36.8058C83.6848 37.7738 85.2382 40.2675 85.0228 43.1463C84.8328 45.6931 82.8308 47.951 80.1218 48.4705C77.6763 48.9393 75.6363 48.1031 74.1234 46.1214C73.799 45.6982 73.5 45.5233 72.9729 45.5309C70.8898 45.5613 68.8042 45.5436 66.6527 45.5436C66.0293 49.9175 64.4176 53.8632 61.6959 57.406C63.8119 59.5042 65.8899 61.5823 67.9958 63.6299C68.1707 63.8022 68.5533 63.8757 68.8093 63.8326C71.422 63.3866 73.984 64.6334 75.2384 66.9977C76.4853 69.3444 76.0342 72.2789 74.1412 74.1517C72.2684 76.0042 69.3491 76.4502 67.0582 75.2363C64.6811 73.9743 63.3989 71.392 63.8373 68.8249C63.8854 68.5436 63.7993 68.128 63.6117 67.9354C61.5819 65.8523 59.5191 63.8047 57.4106 61.6887L57.403 61.6836ZM42.525 24.2896C32.5404 24.287 24.3247 32.4876 24.3044 42.4722C24.2841 52.4466 32.4796 60.675 42.4667 60.7156C52.4716 60.7536 60.7507 52.4922 60.7355 42.4823C60.7203 32.4977 52.5096 24.2921 42.525 24.2896Z" fill="white"/>
<path d="M34.6183 42.5449C36.0222 43.9108 37.3856 45.1728 38.6755 46.5083C39.755 47.6259 39.7778 49.3187 38.8326 50.4768C37.8899 51.6324 36.2934 51.9618 35.0035 51.2396C34.6791 51.0572 34.3826 50.8063 34.1165 50.5427C32.2108 48.6522 30.3127 46.7567 28.4223 44.8535C26.917 43.3356 26.9246 41.6529 28.44 40.1299C30.3102 38.2495 32.1855 36.3742 34.0658 34.504C35.49 33.0874 37.3096 32.9962 38.5918 34.2607C39.8716 35.5228 39.8057 37.3702 38.4068 38.7868C37.2082 40.0006 35.9893 41.1891 34.6208 42.5424L34.6183 42.5449Z" fill="#FFC200"/>
<path d="M50.3974 42.5272C49.0416 41.1791 47.7998 39.9652 46.5809 38.7311C45.2353 37.3677 45.1897 35.5228 46.4466 34.2735C47.7035 33.0241 49.5332 33.0799 50.9067 34.4382C52.8377 36.3464 54.7612 38.2648 56.6694 40.1983C58.0961 41.6453 58.1088 43.3534 56.6922 44.7928C54.7662 46.7517 52.82 48.6903 50.8636 50.6188C49.5053 51.9543 47.6402 51.9695 46.4061 50.6974C45.1998 49.4531 45.2505 47.6336 46.5632 46.3082C47.8024 45.0563 49.0745 43.8323 50.4024 42.5298L50.3974 42.5272Z" fill="#FFC200"/>
</svg>
