<svg width="24" height="24" viewBox="0 0 24 24" fill="none" xmlns="http://www.w3.org/2000/svg">
<path d="M15.6996 16.8703C14.7286 17.6098 13.6577 18.0513 12.4601 18.2197C12.4601 18.8317 12.4552 19.4361 12.467 20.0398C12.4684 20.1112 12.5481 20.1971 12.614 20.2484C13.2294 20.7266 13.4547 21.4856 13.1823 22.1897C12.9134 22.8856 12.2293 23.3028 11.4537 23.2446C10.7496 23.1912 10.114 22.6208 9.99063 21.8792C9.88043 21.2215 10.1043 20.6691 10.6407 20.2636C10.7579 20.1756 10.8043 20.0931 10.8022 19.949C10.7946 19.3793 10.7988 18.8089 10.7988 18.2211C9.60181 18.0506 8.52267 17.6098 7.55235 16.8634C6.97848 17.4428 6.41084 18.0118 5.85152 18.5878C5.80439 18.6363 5.78429 18.7402 5.79607 18.8102C5.91736 19.5241 5.57429 20.2283 4.92972 20.5686C4.28445 20.9089 3.4881 20.7869 2.97314 20.2678C2.46649 19.757 2.3459 18.971 2.6765 18.3313C3.00848 17.6888 3.72999 17.3312 4.4307 17.4511C4.50763 17.4643 4.62129 17.4414 4.67397 17.3901C5.24369 16.8356 5.80508 16.2715 6.38381 15.6948C5.64983 14.7342 5.20141 13.6592 5.03437 12.4547C4.42099 12.4547 3.81662 12.4498 3.21225 12.4616C3.14086 12.463 3.05423 12.5434 3.00294 12.6092C2.5261 13.2233 1.7637 13.4492 1.06092 13.1768C0.35674 12.9038 -0.0674279 12.1954 0.00881153 11.4227C0.0781201 10.724 0.640905 10.1079 1.3735 9.98658C2.03123 9.87707 2.58432 10.1009 2.98908 10.6374C3.0771 10.7545 3.16096 10.8003 3.30443 10.7982C3.87415 10.7906 4.44456 10.7947 5.0316 10.7947C5.20141 9.59706 5.64221 8.51793 6.38728 7.55038C5.80855 6.97581 5.24091 6.40748 4.66357 5.84817C4.61228 5.79826 4.49515 5.78648 4.41683 5.80034C3.73553 5.91817 3.0168 5.55984 2.68204 4.92705C2.34174 4.28318 2.46441 3.48474 2.98284 2.97047C3.50196 2.45551 4.29 2.34115 4.94219 2.68631C5.55973 3.01275 5.91875 3.73425 5.80786 4.4017C5.79399 4.48764 5.80786 4.61309 5.86261 4.66923C6.41569 5.24102 6.97917 5.80173 7.55582 6.38253C8.51782 5.64509 9.59487 5.20013 10.7988 5.03032C10.7988 4.41764 10.8029 3.81327 10.7932 3.20959C10.7918 3.14305 10.7267 3.05988 10.6678 3.01414C10.0336 2.52274 9.80557 1.795 10.0703 1.08459C10.3372 0.368632 11.015 -0.0534569 11.8051 0.00545537C12.5017 0.0567437 13.1192 0.604281 13.2613 1.34519C13.3888 2.01402 13.1601 2.57126 12.6195 2.98642C12.5051 3.07374 12.4552 3.15553 12.4573 3.30038C12.4656 3.8701 12.4608 4.44051 12.4608 5.02894C13.657 5.19805 14.7362 5.63885 15.7051 6.38392C16.2783 5.80658 16.8466 5.23964 17.4059 4.66299C17.4558 4.6117 17.469 4.49526 17.4558 4.41694C17.338 3.73356 17.6915 3.02038 18.3264 2.68146C18.9689 2.33907 19.7673 2.46036 20.2836 2.97879C20.791 3.48821 20.9137 4.28179 20.5837 4.91458C20.2518 5.55152 19.5365 5.91539 18.8566 5.80589C18.7706 5.79203 18.6736 5.83222 18.5849 5.85718C18.5558 5.86549 18.5357 5.90361 18.5114 5.92856C17.9729 6.4657 17.4337 7.00284 16.8785 7.55593C17.6104 8.51516 18.0588 9.59013 18.2273 10.7954C18.8392 10.7954 19.4436 10.7996 20.048 10.7899C20.1145 10.7885 20.1984 10.7233 20.2441 10.6651C20.7341 10.0309 21.4605 9.80222 22.173 10.0663C22.8876 10.331 23.3124 11.013 23.2535 11.8004C23.2015 12.4969 22.654 13.1145 21.9131 13.2566C21.2443 13.3848 20.6863 13.1561 20.2725 12.6141C20.1838 12.4983 20.102 12.4505 19.9579 12.4526C19.3882 12.4609 18.8178 12.456 18.2293 12.456C18.0588 13.6523 17.618 14.7314 16.8737 15.7004C17.4524 16.2742 18.0207 16.8426 18.5967 17.4026C18.6445 17.4497 18.7491 17.4698 18.8191 17.458C19.5337 17.3361 20.2344 17.6771 20.5775 18.3237C20.9185 18.9655 20.7951 19.7681 20.2774 20.2803C19.7652 20.7869 18.9668 20.9089 18.3402 20.5769C17.6901 20.2318 17.3394 19.5255 17.4593 18.8234C17.4725 18.7465 17.4489 18.6328 17.3976 18.5801C16.8425 18.0104 16.2783 17.4504 15.7016 16.8717L15.6996 16.8703ZM11.6305 6.64313C8.89971 6.64244 6.65273 8.88526 6.64718 11.616C6.64164 14.344 8.88308 16.5945 11.6145 16.6055C14.3508 16.6159 16.6151 14.3565 16.611 11.6188C16.6068 8.88804 14.3612 6.64383 11.6305 6.64313V6.64313Z" fill="#173371"/>
<path d="M9.46805 11.6359C9.85202 12.0095 10.2249 12.3547 10.5777 12.7199C10.8729 13.0256 10.8792 13.4885 10.6206 13.8053C10.3628 14.1213 9.92618 14.2114 9.5734 14.0139C9.48468 13.964 9.40359 13.8954 9.33082 13.8233C8.80962 13.3063 8.29049 12.7878 7.77345 12.2673C7.36176 11.8522 7.36384 11.392 7.7783 10.9754C8.2898 10.4611 8.80268 9.94826 9.31695 9.43676C9.70647 9.04933 10.2041 9.02438 10.5548 9.37023C10.9048 9.71538 10.8868 10.2206 10.5042 10.6081C10.1764 10.9401 9.84301 11.2651 9.46874 11.6352L9.46805 11.6359Z" fill="#FFC200"/>
<path d="M13.7835 11.6312C13.4127 11.2625 13.0731 10.9305 12.7397 10.593C12.3717 10.2201 12.3592 9.71551 12.703 9.37381C13.0467 9.03212 13.5472 9.04737 13.9228 9.41887C14.4509 9.94076 14.977 10.4654 15.4989 10.9942C15.8891 11.39 15.8926 11.8571 15.5051 12.2508C14.9784 12.7866 14.4461 13.3168 13.911 13.8442C13.5395 14.2095 13.0294 14.2136 12.6919 13.8657C12.362 13.5254 12.3758 13.0278 12.7349 12.6653C13.0738 12.3229 13.4217 11.9881 13.7849 11.6319L13.7835 11.6312Z" fill="#FFC200"/>
</svg>
