<svg width="15" height="24" viewBox="0 0 15 24" fill="none" xmlns="http://www.w3.org/2000/svg">
<g clip-path="url(#clip0_5424_5114)">
<path d="M2.15589 1.04216L12.1689 1.02173C12.7308 1.02173 13.1906 1.48151 13.2008 2.04346L13.2417 21.0783C13.2417 21.6709 12.7717 22.1409 12.1791 22.1512L2.14567 22.1716C1.55307 22.1716 1.07285 21.6914 1.07285 21.0988L1.03198 2.1865C1.03198 1.56325 1.54285 1.05238 2.16611 1.04216H2.15589Z" stroke="#E2E2E2" stroke-width="2" stroke-miterlimit="10"/>
<path d="M1.1853 17.8089L13.0885 17.4104" stroke="#E2E2E2" stroke-width="0.75" stroke-miterlimit="10"/>
<path d="M11.147 13.2007V13.1497H4.64882L4.61816 13.2212L11.147 13.2007Z" stroke="#E2E2E2" stroke-width="0.75" stroke-linecap="round" stroke-linejoin="round"/>
<path d="M3.67822 13.2009L4.608 14.0693L4.62843 12.363L3.67822 13.2009Z" fill="#E2E2E2" stroke="#E2E2E2" stroke-width="0.75" stroke-miterlimit="10"/>
<path d="M8.10751 19.7294C8.18498 19.3248 7.99169 18.9478 7.67578 18.8873C7.35988 18.8268 7.04099 19.1058 6.96351 19.5104C6.88604 19.9149 7.07933 20.292 7.39524 20.3524C7.71114 20.4129 8.03004 20.134 8.10751 19.7294Z" fill="#E2E2E2" stroke="#E2E2E2" stroke-width="0.5" stroke-miterlimit="10"/>
<path d="M9.69627 7.67317C8.44975 6.42665 6.42672 6.42665 5.16999 7.67317C3.92348 8.91968 3.92348 10.9427 5.16999 12.1994C6.41651 13.446 8.43954 13.446 9.69627 12.1994C10.9428 10.9529 10.9428 8.9299 9.69627 7.67317ZM9.56344 11.7397C9.41018 11.6068 9.25692 11.4842 9.08323 11.3821C9.19562 10.9938 9.25692 10.5749 9.27736 10.1355H10.2174C10.1765 10.7281 9.9517 11.2799 9.56344 11.7397ZM4.64891 10.1355H5.5889C5.60934 10.5749 5.67064 10.9938 5.78303 11.3821C5.61956 11.4842 5.45608 11.6068 5.30282 11.7397C4.91456 11.2901 4.68978 10.7281 4.64891 10.1355ZM5.30282 8.12273C5.45608 8.25555 5.60934 8.37816 5.78303 8.48034C5.67064 8.86859 5.60934 9.2875 5.5889 9.72685H4.64891C4.68978 9.13424 4.91456 8.58251 5.30282 8.12273ZM7.22368 8.5212C6.8865 8.50077 6.56977 8.41903 6.27346 8.27599C6.44716 7.82643 6.7639 7.29513 7.22368 7.1623V8.51099V8.5212ZM7.22368 8.9299V9.72685H5.98738C5.9976 9.35903 6.0589 9.00142 6.14064 8.67446C6.47781 8.81751 6.84563 8.90946 7.21346 8.9299H7.22368ZM7.22368 10.1355V10.9325C6.84563 10.9529 6.48803 11.0449 6.15086 11.1879C6.0589 10.861 6.00781 10.5034 5.9976 10.1355H7.23389H7.22368ZM7.22368 11.3412V12.6899C6.7639 12.557 6.44716 12.0257 6.27346 11.5762C6.56977 11.4434 6.8865 11.3616 7.22368 11.331V11.3412ZM7.63237 11.3412C7.96954 11.3616 8.28628 11.4434 8.58258 11.5864C8.40889 12.036 8.09215 12.5673 7.63237 12.7001V11.3514V11.3412ZM7.63237 10.9325V10.1355H8.86867C8.85845 10.5034 8.79714 10.861 8.7154 11.1879C8.37823 11.0449 8.01041 10.9529 7.64259 10.9325H7.63237ZM7.63237 9.72685V8.9299C8.01041 8.90946 8.36802 8.81751 8.70519 8.67446C8.79714 9.00142 8.84823 9.35903 8.85845 9.72685H7.62215H7.63237ZM7.63237 8.5212V7.17252C8.09215 7.30534 8.40889 7.83664 8.58258 8.28621C8.28628 8.41903 7.96954 8.50077 7.63237 8.53142V8.5212ZM8.55193 7.37686C8.81758 7.48925 9.05258 7.64251 9.27736 7.83664C9.17518 7.9286 9.06279 8.01034 8.9504 8.08186C8.84823 7.82643 8.7154 7.58121 8.55193 7.36665V7.37686ZM5.91586 8.09208C5.80347 8.02056 5.69108 7.93882 5.5889 7.84686C5.80347 7.65273 6.04868 7.49947 6.31433 7.38708C6.15086 7.60165 6.01803 7.84686 5.91586 8.10229V8.09208ZM5.91586 11.7907C6.01803 12.0462 6.15086 12.2914 6.31433 12.506C6.04868 12.3936 5.81368 12.2403 5.5889 12.0462C5.69108 11.9542 5.80347 11.8725 5.91586 11.801V11.7907ZM8.94019 11.7907C9.05258 11.8623 9.16497 11.944 9.26714 12.036C9.05258 12.2301 8.80736 12.3834 8.54171 12.4957C8.70519 12.2812 8.83801 12.036 8.94019 11.7805V11.7907ZM9.26714 9.73707C9.24671 9.29772 9.1854 8.87881 9.07301 8.49055C9.23649 8.38838 9.39997 8.26577 9.55323 8.13295C9.94148 8.58251 10.1663 9.14446 10.2071 9.73707H9.26714Z" fill="#E2E2E2" stroke="#E2E2E2" stroke-width="0.25" stroke-miterlimit="10"/>
<path d="M3.93359 7.35645V7.42797H10.1968L10.2275 7.35645H3.93359Z" stroke="#E2E2E2" stroke-width="0.75" stroke-linecap="round" stroke-linejoin="round"/>
<path d="M11.1368 7.37688L10.2377 6.53906L10.2173 8.18405L11.1368 7.37688Z" fill="#E2E2E2" stroke="#E2E2E2" stroke-width="0.75" stroke-miterlimit="10"/>
</g>
<defs>
<clipPath id="clip0_5424_5114">
<rect width="14.2634" height="23.1933" fill="white"/>
</clipPath>
</defs>
</svg>
