<svg width="24" height="24" viewBox="0 0 24 24" fill="none" xmlns="http://www.w3.org/2000/svg">
<path d="M10.8162 12.4394C10.8162 11.6806 10.8156 10.9218 10.8162 10.1623C10.8169 9.67799 10.9984 9.42936 11.4594 9.29697C13.2128 8.79197 14.9661 8.28503 16.7232 7.79359C16.906 7.74257 17.1281 7.74774 17.3115 7.79876C19.0461 8.28245 20.7768 8.78035 22.5082 9.27631C23.008 9.41967 23.1927 9.6683 23.1933 10.1888C23.1933 11.5449 23.2282 12.9024 23.1869 14.2579C23.0616 18.3515 21.1507 21.3085 17.4865 23.1277C17.1662 23.2866 16.8718 23.2924 16.5431 23.1355C13.4 21.6308 11.5034 19.1613 10.9428 15.7238C10.7743 14.6899 10.8511 13.616 10.8162 12.5601C10.815 12.5201 10.8162 12.4794 10.8162 12.4387V12.4394ZM16.3106 14.9146C16.0762 14.6828 15.8643 14.4736 15.6525 14.2643C15.307 13.9234 14.8272 13.9059 14.5127 14.2224C14.204 14.533 14.2144 15.0076 14.5411 15.3486C14.9208 15.7445 15.3019 16.1384 15.6848 16.5304C16.0988 16.9547 16.5276 16.9521 16.9434 16.5265C17.0054 16.4632 17.0668 16.3993 17.1281 16.3354C17.9076 15.5191 18.6909 14.7061 19.4652 13.8853C19.781 13.5507 19.7681 13.0806 19.4562 12.7784C19.143 12.4749 18.6806 12.4839 18.3506 12.8029C18.2692 12.8811 18.1943 12.9657 18.1162 13.047C17.5169 13.667 16.9183 14.2869 16.3112 14.9146H16.3106Z" fill="#FFC200"/>
<path d="M19.3062 7.17009C18.0741 7.17009 16.858 7.1688 15.642 7.17396C15.5736 7.17396 15.4941 7.22111 15.4399 7.26889C15.086 7.5821 14.6985 7.57887 14.3363 7.2605C14.2827 7.21336 14.1994 7.17332 14.1303 7.17332C11.9391 7.1688 9.74797 7.17009 7.55618 7.17073C7.52518 7.17073 7.49483 7.18042 7.4677 7.18494C7.08023 8.97182 6.95883 11.9773 7.4606 14.5579C7.61882 14.5579 7.78478 14.5579 7.95075 14.5579C8.39376 14.5579 8.83676 14.5546 9.27977 14.5585C9.79317 14.563 10.1393 14.8788 10.1412 15.3373C10.1438 15.8107 9.79834 16.1245 9.26879 16.1278C8.81739 16.1303 8.36663 16.1297 7.91523 16.1316C7.90038 16.1316 7.88553 16.142 7.83838 16.16C7.91136 16.3919 7.97916 16.6282 8.06053 16.8594C8.38859 17.7906 8.79156 18.6818 9.46382 19.4251C9.91974 19.9288 10.4609 20.2317 11.1648 20.1678C11.2927 20.1561 11.4231 20.1581 11.551 20.1697C11.941 20.2039 12.2362 20.5623 12.2233 20.9769C12.211 21.3734 11.8952 21.7028 11.5051 21.7164C8.26912 21.8274 5.45738 20.8058 3.16226 18.4971C1.41542 16.7406 0.379583 14.6108 0.0799398 12.1426C-0.591675 6.62246 3.03505 1.49107 8.45963 0.266018C13.2785 -0.822128 18.2355 1.5014 20.446 5.89337C20.621 6.24081 20.7902 6.60955 20.8593 6.98733C20.9491 7.47554 20.6294 7.85204 20.1877 7.90305C19.7602 7.95213 19.4082 7.6667 19.3056 7.16944L19.3062 7.17009ZM7.50516 19.5239L7.56651 19.5259L7.54197 19.4742C7.53745 19.4587 7.5368 19.4413 7.52905 19.4277C6.94333 18.4397 6.49451 17.3948 6.21811 16.2782C6.18066 16.1278 6.08896 16.1265 5.96884 16.1271C5.11511 16.1297 4.26074 16.1284 3.40702 16.129C3.34825 16.129 3.28884 16.1374 3.19197 16.1452C4.31886 17.717 5.73377 18.8478 7.50516 19.5239V19.5239ZM5.86035 7.19979C5.81643 7.183 5.80158 7.17267 5.78737 7.17267C4.67598 7.17138 3.56394 7.17396 2.45255 7.16557C2.29498 7.16428 2.26785 7.25985 2.22717 7.36318C1.30564 9.69381 1.30693 12.0238 2.21942 14.3577C2.284 14.5236 2.37312 14.5637 2.53908 14.5624C3.562 14.5546 4.58493 14.5585 5.60849 14.5585C5.68663 14.5585 5.76477 14.5585 5.86681 14.5585C5.46965 12.089 5.4703 9.64731 5.86099 7.19979H5.86035ZM13.8338 5.58727C13.6227 5.03061 13.447 4.50494 13.2255 3.99929C12.8936 3.24243 12.4867 2.52884 11.841 1.98703C11.1823 1.43424 10.5242 1.42003 9.84548 1.94053C9.70534 2.04773 9.57167 2.16785 9.45413 2.29894C8.6088 3.23856 8.17807 4.38547 7.81643 5.58727H13.8338V5.58727ZM14.0915 2.18206C14.7153 3.25987 15.1674 4.40032 15.4606 5.58469H18.4447C17.3282 3.98056 15.8939 2.85238 14.0915 2.18206V2.18206ZM3.17647 5.59954C4.17098 5.59954 5.10349 5.59631 6.036 5.60277C6.1897 5.60406 6.19809 5.50655 6.22328 5.4071C6.50419 4.3196 6.93429 3.29474 7.51355 2.33252C7.53874 2.29119 7.55359 2.24341 7.59299 2.15429C5.7609 2.86723 4.31693 3.98831 3.17647 5.59954V5.59954Z" fill="#173371"/>
<path d="M7.54194 19.4741L7.56648 19.5258C7.54581 19.5251 7.52515 19.5245 7.50513 19.5238C7.5174 19.5071 7.52967 19.4909 7.54194 19.4741V19.4741Z" fill="#173371"/>
</svg>
