<svg width="472" height="559" viewBox="0 0 472 559" fill="none" xmlns="http://www.w3.org/2000/svg">
<g clip-path="url(#clip0_5471_691)">
<path d="M339.57 2.80066C327.774 -3.43188 313.156 1.07767 306.921 12.8692C300.687 24.6606 305.198 39.2741 316.993 45.5067C328.789 51.7392 343.407 47.2297 349.642 35.4382C355.876 23.6467 351.365 9.0332 339.57 2.80066ZM329.767 19.832C325.966 17.8254 324.512 13.1102 326.519 9.30973C328.526 5.50922 333.243 4.05567 337.045 6.06228C340.846 8.06889 342.3 12.7841 340.293 16.5846C338.286 20.3851 333.569 21.8386 329.767 19.832Z" fill="#FAA722"/>
<path d="M328.257 46.3081L322.93 36.1758L310.071 36.6934L309.624 37.5372L285.196 83.753L286.778 88.8723L293.409 92.3821L301.9 89.7586L305.311 83.3134L303.382 76.7688L308.879 75.0742L307.297 69.9478L312.397 68.3737L310.709 62.9069L316.894 60.9996L315.206 55.5257L324.66 53.1079L328.257 46.3081Z" fill="#FAA722"/>
<path d="M290.168 87.3337L288.785 81.64L310.376 40.7988L313.397 43.3869L290.168 87.3337Z" stroke="#091439" stroke-width="0.75" stroke-miterlimit="10"/>
<path d="M328.533 45.9957C340.861 45.9957 350.854 36.0055 350.854 23.6819C350.854 11.3584 340.861 1.36816 328.533 1.36816C316.206 1.36816 306.212 11.3584 306.212 23.6819C306.212 36.0055 316.206 45.9957 328.533 45.9957Z" stroke="#091439" stroke-width="0.75" stroke-miterlimit="10"/>
<path d="M404.085 454.82L350.19 474.28L363.86 512.112L417.755 492.652L404.085 454.82Z" fill="white"/>
<path d="M393.844 476.317C388.574 478.48 387.411 491.576 386.191 493.313C386.191 493.313 377.041 486.733 373.835 489.506C370.622 492.278 364.607 511.876 364.607 511.876C364.955 511.749 417.726 492.703 417.726 492.703C417.726 492.703 399.114 474.155 393.844 476.324V476.317Z" fill="#CCBFD5"/>
<path d="M385.411 474.559C386.503 477.537 384.978 480.813 382.006 481.869C379.034 482.926 375.743 481.366 374.651 478.388C373.559 475.41 375.083 472.134 378.055 471.078C381.027 470.021 384.318 471.581 385.411 474.559Z" fill="#CCBFD5"/>
<path d="M404.078 454.818L350.05 474.327L363.72 512.159L417.748 492.65L404.078 454.818Z" stroke="#091439" stroke-width="0.75" stroke-miterlimit="10"/>
<path d="M113.556 56.3621C175.654 49.3638 238.319 47.3856 300.743 50.4487" stroke="#CCBFD5" stroke-miterlimit="10"/>
<path d="M98.2281 355.962L42.0536 344.649L34.1072 384.081L90.2817 395.394L98.2281 355.962Z" fill="white"/>
<path d="M34.9321 384.248C35.2939 384.319 90.2988 395.394 90.2988 395.394C90.2988 395.394 84.0146 369.89 78.3829 369.003C72.7511 368.124 64.9632 378.71 63.0269 379.568C63.0269 379.568 58.6151 369.202 54.4374 369.904C50.2527 370.606 34.9392 384.248 34.9392 384.248H34.9321Z" fill="#F59BB0"/>
<path d="M72.0264 362.706C72.65 359.612 70.6868 356.607 67.6416 355.994C64.5964 355.38 61.6223 357.391 60.9987 360.486C60.3752 363.58 62.3384 366.585 65.3836 367.198C68.4288 367.812 71.4029 365.8 72.0264 362.706Z" fill="#F59BB0"/>
<path d="M98.2238 355.962L41.9103 344.621L33.9639 384.053L90.2774 395.394L98.2238 355.962Z" stroke="#091439" stroke-width="0.75" stroke-miterlimit="10"/>
<path d="M315.607 381.639L263.779 351.436L226.925 414.634L278.753 444.837L315.607 381.639Z" fill="white" stroke="#091439" stroke-width="0.75" stroke-miterlimit="10"/>
<path d="M261.165 368.968C274.365 376.661 287.572 384.354 300.772 392.054" stroke="#091439" stroke-width="0.75" stroke-linecap="round" stroke-linejoin="round"/>
<path d="M259.016 372.655C272.216 380.348 285.423 388.041 298.623 395.741" stroke="#091439" stroke-width="0.75" stroke-linecap="round" stroke-linejoin="round"/>
<path d="M256.86 376.349C270.06 384.042 283.267 391.735 296.466 399.429" stroke="#091439" stroke-width="0.75" stroke-linecap="round" stroke-linejoin="round"/>
<path d="M254.711 380.043C267.911 387.736 281.118 395.429 294.317 403.13" stroke="#091439" stroke-width="0.75" stroke-linecap="round" stroke-linejoin="round"/>
<path d="M252.555 383.737C265.754 391.43 278.961 399.124 292.161 406.824" stroke="#091439" stroke-width="0.75" stroke-linecap="round" stroke-linejoin="round"/>
<path d="M250.398 387.431C263.598 395.124 276.805 402.818 290.005 410.518" stroke="#091439" stroke-width="0.75" stroke-linecap="round" stroke-linejoin="round"/>
<path d="M248.71 391.289C261.91 398.982 275.117 406.675 288.317 414.375" stroke="#091439" stroke-width="0.75" stroke-linecap="round" stroke-linejoin="round"/>
<path d="M245.987 395.281C259.186 402.974 272.393 410.667 285.593 418.36" stroke="#091439" stroke-width="0.75" stroke-linecap="round" stroke-linejoin="round"/>
<path d="M243.596 398.968C256.796 406.661 270.003 414.354 283.203 422.054" stroke="#091439" stroke-width="0.75" stroke-linecap="round" stroke-linejoin="round"/>
<path d="M241.688 402.569C254.888 410.263 268.095 417.956 281.295 425.656" stroke="#091439" stroke-width="0.75" stroke-linecap="round" stroke-linejoin="round"/>
<path d="M239.213 406.817C252.413 414.51 265.62 422.203 278.819 429.904" stroke="#091439" stroke-width="0.75" stroke-linecap="round" stroke-linejoin="round"/>
<path d="M263.917 364.153C268.464 366.805 273.01 369.457 277.564 372.102" stroke="#091439" stroke-width="0.75" stroke-linecap="round" stroke-linejoin="round"/>
<path d="M98.8387 83.0082C98.9522 78.3356 99.853 41.0751 99.853 41.0751C99.853 41.0751 125.345 45.1663 142.999 29.6948C159.887 46.003 185.542 43.1526 185.542 43.1526C185.542 43.1526 184.641 80.4131 184.527 85.0857C184.414 89.7584 183.733 101.373 170.427 115.348C157.121 129.323 140.431 135.655 140.431 135.655C140.431 135.655 124.068 128.522 111.457 113.916C98.8458 99.3092 98.7253 87.6809 98.8387 83.0082Z" fill="#253C98"/>
<path d="M105.797 82.4128C105.896 78.4563 106.655 46.9462 106.655 46.9462C106.655 46.9462 127.487 50.4772 142.417 37.3882C156.695 51.1792 179.122 48.6975 179.122 48.6975C179.122 48.6975 178.356 80.2076 178.264 84.1641C178.165 88.1206 177.59 97.9339 166.341 109.754C155.092 121.574 140.97 126.927 140.97 126.927C140.97 126.927 127.132 120.893 116.464 108.541C105.797 96.1896 105.697 86.3551 105.79 82.4057L105.797 82.4128Z" stroke="#091439" stroke-width="0.75" stroke-linecap="round" stroke-linejoin="round"/>
<path d="M185.109 43.6064L178.768 48.7683" stroke="#091439" stroke-width="0.75" stroke-linecap="round" stroke-linejoin="round"/>
<path d="M142.417 37.3881C142.587 34.8639 142.758 32.3396 142.928 29.8154" stroke="#091439" stroke-width="0.75" stroke-linecap="round" stroke-linejoin="round"/>
<path d="M106.79 47.4282L100.435 41.4438" stroke="#091439" stroke-width="0.75" stroke-linecap="round" stroke-linejoin="round"/>
<path d="M140.75 126.955L140.438 135.428" stroke="#091439" stroke-width="0.75" stroke-linecap="round" stroke-linejoin="round"/>
<path d="M139.048 95.3457L122.224 80.5904L128.444 73.4928L138.864 82.6253L159.504 63.4526L165.937 70.373L139.048 95.3457Z" fill="#FEC20E"/>
<path d="M429.28 258.874L363.182 235.511C362.252 235.184 361.763 234.163 362.096 233.235L379.999 182.608C380.758 180.467 383.105 179.347 385.24 180.106L407.838 188.089C409.328 188.614 410.377 189.947 410.555 191.514L411.328 198.583C411.392 199.172 411.789 199.668 412.342 199.86L445.338 211.523C446.26 211.85 446.749 212.849 446.437 213.778L431.571 257.761C431.252 258.704 430.223 259.2 429.287 258.874H429.28Z" fill="#FEC20E"/>
<path d="M405.523 190.638L385.943 183.718L383.893 189.514L403.473 196.434L405.523 190.638Z" fill="#FEC20E"/>
<path d="M127.891 522.519C186.244 517.528 246.008 516.535 304.531 518.719" stroke="#CCBFD5" stroke-miterlimit="10"/>
<path d="M228.327 486.557L131.902 464.887C130.087 464.479 128.284 465.619 127.876 467.434L114.162 528.415C113.754 530.229 114.895 532.031 116.711 532.439L213.136 554.109C214.951 554.517 216.753 553.377 217.162 551.562L230.875 490.581C231.283 488.767 230.142 486.965 228.327 486.557Z" fill="#3F77BC"/>
<path d="M157.587 480.768L140.335 476.891C139.685 476.745 139.04 477.153 138.894 477.803L136.053 490.435C135.907 491.084 136.315 491.729 136.965 491.875L154.217 495.752C154.867 495.899 155.512 495.49 155.658 494.841L158.499 482.209C158.645 481.559 158.236 480.914 157.587 480.768Z" fill="#FAA722"/>
<path d="M138.481 481.402C144.807 482.82 151.134 484.245 157.461 485.663" stroke="#F3743E" stroke-width="0.75" stroke-linecap="round" stroke-linejoin="round"/>
<path d="M137.232 486.947C143.559 488.365 149.886 489.79 156.213 491.208" stroke="#F3743E" stroke-width="0.75" stroke-linecap="round" stroke-linejoin="round"/>
<path d="M144.63 477.999C143.552 482.806 142.467 487.613 141.389 492.421" stroke="#F3743E" stroke-width="0.75" stroke-linecap="round" stroke-linejoin="round"/>
<path d="M152.482 479.757C151.404 484.564 150.319 489.372 149.24 494.179" stroke="#F3743E" stroke-width="0.75" stroke-linecap="round" stroke-linejoin="round"/>
<path d="M218.992 494.718L198.702 490.158L196.174 501.4L216.464 505.96L218.992 494.718Z" fill="#253C98"/>
<path d="M147.167 510.118L131.708 506.644L130.61 511.528L146.069 515.002L147.167 510.118Z" fill="#253C98"/>
<path d="M169.484 515.132L154.024 511.657L152.926 516.541L168.385 520.016L169.484 515.132Z" fill="#253C98"/>
<path d="M191.807 520.145L176.347 516.67L175.249 521.554L190.709 525.029L191.807 520.145Z" fill="#253C98"/>
<path d="M214.129 525.165L198.669 521.69L197.571 526.574L213.03 530.049L214.129 525.165Z" fill="#253C98"/>
<path d="M148.181 529.61L127.932 525.06L127.481 527.066L147.729 531.616L148.181 529.61Z" fill="#253C98"/>
<path d="M345.755 346.293L387.226 395.302C388.638 396.976 391.142 397.181 392.816 395.77L447.998 349.108C449.672 347.697 449.877 345.194 448.466 343.52L406.994 294.511C405.583 292.837 403.079 292.632 401.405 294.043L346.223 340.705C344.549 342.116 344.343 344.619 345.755 346.293Z" fill="#FAA722"/>
<path d="M389.106 299.276L391.652 302.282L398 296.893L395.248 293.639C384.375 280.734 364.671 279.053 351.571 290.129C338.47 301.204 336.867 320.902 347.989 334.047L350.493 337.018L356.876 331.615L354.365 328.651C346.23 319.037 347.407 304.629 356.99 296.532C366.565 288.434 380.978 289.661 389.106 299.276Z" fill="#253C98"/>
<path d="M425.897 290.696C425.897 290.696 424.301 300.268 420.612 317.874C416.896 335.465 411.037 361.097 401.696 392.891L401.306 392.799C406.327 366.706 412.328 335.55 419.038 300.708L419.548 300.828C411.654 328.807 402.838 360.048 393.447 393.324L392.865 393.168C400.852 362.742 409.47 329.913 418.435 295.73L419.045 295.936C406.065 327.942 394.915 362.416 386.425 398.493C385.893 400.804 385.361 403.116 384.836 405.406L384.191 405.257C393.397 365.458 402.334 326.822 410.86 289.987L411.484 290.136C402.774 325.446 394.468 359.105 386.687 390.643L386.113 390.516C392.567 358.779 398.554 329.296 404.036 302.331L404.533 302.466C393.773 334.487 386.602 363.373 381.588 388.041L381.205 387.97C386.872 358.162 391.354 334.614 394.419 318.505C395.958 310.464 397.142 304.281 397.944 300.105C398.348 298.027 398.653 296.446 398.866 295.376C399.079 294.312 399.192 293.78 399.192 293.78C399.192 293.78 399.107 294.326 398.915 295.39C398.717 296.46 398.426 298.042 398.05 300.126C397.27 304.31 396.121 310.5 394.624 318.547C391.603 334.657 387.184 358.219 381.588 388.041L381.205 387.97C386.177 363.281 393.312 334.366 404.044 302.31L404.54 302.445C399.079 329.417 393.113 358.899 386.694 390.643L386.12 390.516C393.887 358.97 402.171 325.312 410.867 290.001L411.491 290.15C402.973 326.992 394.043 365.628 384.843 405.427L384.198 405.278C384.723 402.988 385.255 400.676 385.794 398.358C394.298 362.246 405.462 327.744 418.463 295.716L419.073 295.922C410.087 330.098 401.455 362.927 393.461 393.345L392.879 393.189C402.299 359.92 411.136 328.687 419.052 300.715L419.563 300.835C412.81 335.664 406.767 366.812 401.71 392.898L401.32 392.806C410.711 361.041 416.626 335.43 420.414 317.86C422.3 309.067 423.641 302.282 424.542 297.694C424.982 295.404 425.322 293.667 425.549 292.49C425.776 291.32 425.911 290.731 425.911 290.731L425.897 290.696Z" fill="white"/>
<path d="M398.086 334.77C395.213 331.374 390.127 330.949 386.73 333.82C383.332 336.692 382.907 341.776 385.779 345.172C388.028 347.831 391.617 348.639 394.709 347.505L400.079 362.069L412.385 351.667L398.908 343.96C400.54 341.102 400.341 337.429 398.093 334.77H398.086Z" fill="#091439"/>
<path d="M115.996 255.889L36.748 280.663C35.6344 281.01 34.4499 280.393 34.1024 279.28L15.1148 218.586C14.3133 216.019 15.739 213.296 18.3066 212.488L45.4012 204.015C47.1815 203.455 49.1321 203.972 50.4088 205.334L56.1682 211.481C56.6434 211.992 57.374 212.183 58.0336 211.97L97.5903 199.604C98.6968 199.257 99.8671 199.867 100.229 200.959L117.379 253.201C117.748 254.322 117.124 255.527 116.003 255.875L115.996 255.889Z" fill="#FAA722"/>
<path d="M45.0175 208.052L21.5413 215.394L23.7159 222.343L47.1921 215.002L45.0175 208.052Z" fill="white"/>
<path d="M25.215 317.519C25.215 317.519 25.7257 316.853 26.747 315.576C27.7826 314.293 29.3076 312.407 31.3006 309.939C35.2939 304.983 41.1668 297.687 48.6284 288.257C63.5447 269.403 84.8019 242.027 109.783 207.73L110.145 208.084C97.9024 217.174 86.0361 228.541 74.6804 241.552C63.2823 254.548 52.3593 269.141 41.0888 284.392L40.5852 284.031C57.5796 260.256 77.4466 235.404 99.7962 211.055L100.271 211.516C91.3415 220.138 82.0428 229.448 72.8363 239.077C58.5584 253.995 45.0466 269.091 32.3433 284.123L31.8326 283.719C53.9977 253.683 76.8367 226.584 98.9876 202.781L99.399 203.206C68.4955 230.363 43.5571 257.236 24.1227 280.656L23.7751 280.365C44.2238 256.427 60.6153 237.233 71.9071 224.01C77.553 217.416 81.9293 212.317 84.8941 208.857C86.3765 207.141 87.5043 205.83 88.2703 204.943C89.0293 204.064 89.4335 203.625 89.4335 203.625C89.4335 203.625 89.0647 204.093 88.32 204.986C87.5681 205.886 86.4546 207.205 84.9934 208.942C82.0499 212.424 77.7091 217.55 72.0987 224.173C60.8423 237.425 44.5004 256.668 24.1227 280.663L23.7751 280.372C43.1812 256.895 68.1054 229.973 99.0089 202.767L99.4203 203.192C77.3048 226.995 54.4942 254.088 32.3575 284.109L31.8468 283.705C44.5501 268.651 58.0761 253.542 72.3611 238.616C81.5747 228.98 90.8876 219.663 99.8175 211.041L100.293 211.502C77.9573 235.822 58.0974 260.646 41.1029 284.392L40.5994 284.031C51.8841 268.786 62.8283 254.187 74.2549 241.183C85.646 228.165 97.5619 216.777 109.847 207.68L111.201 206.681L110.208 208.042C85.1707 242.317 63.8497 269.644 48.8625 288.448C41.3654 297.85 35.4571 305.118 31.4283 310.046C29.4069 312.499 27.8677 314.371 26.818 315.64C25.7753 316.895 25.2221 317.533 25.2221 317.533L25.215 317.519Z" fill="white"/>
<path d="M304.531 518.712C364.827 521.888 407.065 529.263 407.065 537.842C407.065 549.329 331.356 558.646 237.958 558.646C144.559 558.646 68.8502 549.329 68.8502 537.842C68.8502 532.616 89.5258 526.816 115.365 523.158" stroke="#CCBFD5" stroke-miterlimit="10"/>
<path d="M321.15 537.005C323.143 537.005 324.76 535.389 324.76 533.396C324.76 531.403 323.143 529.787 321.15 529.787C319.156 529.787 317.539 531.403 317.539 533.396C317.539 535.389 319.156 537.005 321.15 537.005Z" fill="#CCBFD5"/>
<path d="M7.22051 348.511C7.22051 350.504 5.60334 352.12 3.61025 352.12C1.61717 352.12 0 350.504 0 348.511C0 346.519 1.61717 344.902 3.61025 344.902C5.60334 344.902 7.22051 346.519 7.22051 348.511Z" fill="#CCBFD5"/>
<path d="M330.689 259.484C330.689 262.759 328.03 265.418 324.753 265.418C321.476 265.418 318.816 262.759 318.816 259.484C318.816 256.208 321.476 253.549 324.753 253.549C328.03 253.549 330.689 256.208 330.689 259.484Z" stroke="#CCBFD5" stroke-miterlimit="10"/>
<path d="M361.99 429.854C361.99 431.846 360.373 433.463 358.38 433.463C356.387 433.463 354.77 431.846 354.77 429.854C354.77 427.861 356.387 426.245 358.38 426.245C360.373 426.245 361.99 427.861 361.99 429.854Z" fill="#CCBFD5"/>
<path d="M93.9092 483.536C93.9092 485.528 92.2921 487.145 90.299 487.145C88.3059 487.145 86.6887 485.528 86.6887 483.536C86.6887 481.543 88.3059 479.927 90.299 479.927C92.2921 479.927 93.9092 481.543 93.9092 483.536Z" fill="#CCBFD5"/>
<path d="M68.8572 146.631C68.8572 148.623 67.2401 150.24 65.247 150.24C63.2539 150.24 61.6367 148.623 61.6367 146.631C61.6367 144.639 63.2539 143.022 65.247 143.022C67.2401 143.022 68.8572 144.639 68.8572 146.631Z" fill="#CCBFD5"/>
<path d="M236.78 29.6877C236.78 31.6801 235.163 33.2967 233.17 33.2967C231.177 33.2967 229.56 31.6801 229.56 29.6877C229.56 27.6952 231.177 26.0786 233.17 26.0786C235.163 26.0786 236.78 27.6952 236.78 29.6877Z" fill="#CCBFD5"/>
<path d="M429.996 119.836C429.996 121.829 428.379 123.445 426.386 123.445C424.393 123.445 422.776 121.829 422.776 119.836C422.776 117.844 424.393 116.227 426.386 116.227C428.379 116.227 429.996 117.844 429.996 119.836Z" fill="#CCBFD5"/>
<path d="M426.386 143.348C426.386 144.348 425.577 145.149 424.584 145.149C423.591 145.149 422.783 144.341 422.783 143.348C422.783 142.356 423.591 141.547 424.584 141.547C425.577 141.547 426.386 142.356 426.386 143.348Z" fill="#CCBFD5"/>
<path d="M67.921 321.384C67.921 322.383 67.1125 323.184 66.1195 323.184C65.1265 323.184 64.3179 322.376 64.3179 321.384C64.3179 320.391 65.1265 319.583 66.1195 319.583C67.1125 319.583 67.921 320.391 67.921 321.384Z" fill="#CCBFD5"/>
<path d="M96.42 122.75C97.415 122.75 98.2216 121.944 98.2216 120.949C98.2216 119.955 97.415 119.148 96.42 119.148C95.425 119.148 94.6184 119.955 94.6184 120.949C94.6184 121.944 95.425 122.75 96.42 122.75Z" fill="#CCBFD5"/>
<path d="M333.314 388.211C334.309 388.211 335.115 387.405 335.115 386.41C335.115 385.416 334.309 384.609 333.314 384.609C332.319 384.609 331.512 385.416 331.512 386.41C331.512 387.405 332.319 388.211 333.314 388.211Z" fill="#CCBFD5"/>
<path d="M388.609 103.713C388.609 103.713 376.594 108.74 373.048 106.825C373.048 106.825 388.723 101.387 387.872 95.8423C387.538 93.6726 383.907 74.4007 383.907 74.4007C380.439 77.6268 377.616 81.9591 373.112 83.4198C366.38 85.6107 359.742 80.4772 353.117 77.9885C343.144 74.2447 336.342 77.1163 319.61 87.3834C312.163 91.3257 303.729 91.3824 296.544 86.0291C290.622 81.6188 284.43 77.5772 277.713 74.507L274.514 73.0464C264.612 68.083 255.661 68.0901 246.455 70.3236C244.937 70.6924 243.44 71.1745 241.993 71.7701C233.283 75.3508 226.29 82.9731 223.609 91.822C222.743 94.6724 221.346 97.4377 221.268 100.416C220.871 115.242 231.794 115.341 234.943 123.162C234.943 123.162 242.596 140.711 267.024 134.209C281.465 130.366 291.87 136.159 295.942 139.222C297.878 140.683 300.006 141.867 302.311 142.64C307.169 144.27 315.113 146.142 321.802 143.987C332.257 140.619 334.775 136.84 346.45 138.187C358.124 139.534 362.054 142.952 371.331 142.441C380.219 141.945 384.489 136.754 391.631 131.437L388.617 103.72L388.609 103.713Z" fill="#171717"/>
<path d="M240.681 140.023V164.038H268.308L269.258 123.8L240.681 140.023Z" fill="#FAB9A3"/>
<path d="M225.8 94.7999C225.666 95.3317 224.205 118.716 224.871 124.303C225.538 129.884 230.368 139.279 241.22 140.03C254.299 140.945 270.067 124.835 270.067 124.835V88.2908C270.067 88.2908 263.073 75.1379 247.427 75.2656C231.787 75.4003 225.8 94.7999 225.8 94.7999Z" fill="#FAB9A3"/>
<path d="M225.261 102.713C225.276 102.6 226.694 102.479 227.765 102.692C235.291 104.188 236.468 109.584 236.468 109.584C236.468 109.584 233.659 112.533 227.51 111.619C226.339 111.441 225.928 111.257 224.921 110.789L225.261 102.72V102.713Z" fill="white"/>
<path d="M247.32 98.1822C247.107 97.7922 247.575 97.0548 248.668 96.4167C249.753 95.7715 251.42 95.3035 253.285 95.2964C255.151 95.2964 256.846 95.7856 257.931 96.4592C259.03 97.1328 259.456 97.9057 259.222 98.2815C258.981 98.6856 258.236 98.7069 257.208 98.6927C256.179 98.6644 254.817 98.6147 253.285 98.6147C250.214 98.5651 247.774 98.9693 247.313 98.1893L247.32 98.1822Z" fill="#091439"/>
<path d="M239 110.824C238.078 112.299 237.206 113.795 236.383 115.327C236.163 115.745 235.936 116.227 236.106 116.667C236.248 117.028 236.617 117.241 236.972 117.411C237.844 117.83 238.759 118.142 239.702 118.347" stroke="#F3743E" stroke-width="0.75" stroke-linecap="round" stroke-linejoin="round"/>
<path d="M266.804 111.867C266.946 108.966 271.436 107.123 274.33 106.924C277.224 106.726 280.068 108.619 281.281 111.257C282.493 113.894 282.153 117.106 280.685 119.609C279.217 122.112 276.706 123.913 273.954 124.842C271.202 125.764 268.216 125.856 265.343 125.438L266.804 111.874V111.867Z" fill="#FAB9A3"/>
<path d="M260.258 132.55C260.258 132.55 258.158 144.901 240.681 145.823V139.988C244.135 140.073 252.2 138.804 260.258 132.557V132.55Z" fill="#091439"/>
<path d="M226.24 97.5012C226.162 97.0545 226.609 96.544 227.474 96.1824C228.333 95.8137 229.609 95.6294 230.992 95.8208C232.376 96.0193 233.553 96.5511 234.276 97.1467C235.007 97.7352 235.298 98.3521 235.099 98.7563C234.666 99.5788 232.716 99.3944 230.531 99.1037C228.354 98.7775 226.432 98.4159 226.24 97.5083V97.5012Z" fill="#091439"/>
<path d="M227.481 111.626C226.311 111.449 225.9 111.264 224.893 110.796V107.683C224.893 107.123 224.914 106.563 224.964 106.01L225.24 102.727C225.254 102.614 226.673 102.493 227.744 102.706C228.567 102.869 229.021 102.99 229.694 103.231C229.709 103.344 230.929 109.867 229.297 111.775C228.801 111.746 228.028 111.711 227.481 111.626Z" fill="#091439"/>
<path d="M244.76 74.592C258.435 73.0747 267.365 80.1014 267.365 80.1014L273.684 88.1845C274.564 88.6525 273.372 95.6083 274.209 96.1471C274.698 96.4662 275.209 96.8136 275.457 97.3454C275.784 98.0261 275.394 98.8132 275.415 99.5647C275.543 104.117 273.925 109.442 269.407 111.775C266.421 106.74 265.698 100.033 267.017 94.2398C263.4 92.6799 260.229 90.0777 258.123 86.7451C249.895 95.2679 236.291 98.0687 225.361 93.4882C225.361 93.4882 231.085 76.1094 244.76 74.592Z" fill="#171717"/>
<path d="M269.386 113.2C270.159 112.335 271.102 111.604 272.195 111.2C273.287 110.803 274.528 110.761 275.592 111.222C277.309 111.966 278.309 113.98 278.061 115.837C277.812 117.695 276.458 119.305 274.748 120.078C273.046 120.85 271.046 120.843 269.258 120.29" stroke="#F3743E" stroke-width="0.75" stroke-linecap="round" stroke-linejoin="round"/>
<path d="M262.57 106.35C262.57 106.35 259.839 101.493 252.278 102.798C244.717 104.102 243.979 109.314 243.979 109.314C243.979 109.314 249.228 112.866 254.704 111.64C260.796 110.278 262.563 106.35 262.563 106.35H262.57Z" fill="white"/>
<path d="M251.711 102.706C251.838 102.685 251.959 102.678 252.087 102.656C252.136 102.741 254.675 107.52 252.193 111.789C247.483 111.966 243.419 109.215 243.419 109.215C243.419 109.215 244.157 104.003 251.718 102.699L251.711 102.706Z" fill="#091439"/>
<path d="M239.738 123.183C241.086 121.857 242.71 120.829 244.483 120.177C245.363 119.85 246.405 119.631 247.207 120.12C247.746 120.446 248.079 121.042 248.186 121.666C248.455 123.225 247.306 124.807 245.817 125.36C244.327 125.913 242.568 125.721 241.157 124.991C240.603 124.707 239.759 123.814 239.731 123.19" fill="white"/>
<path d="M274.33 106.925C274.33 106.925 277.436 70.0469 230.666 80.4628L233.17 78.6051C239.483 74.4856 255.605 67.2249 269.258 77.4281C278.621 84.4264 282.33 96.5015 276.777 106.79C276.706 106.917 276.635 107.052 276.564 107.18L274.33 106.925Z" fill="#F3743E"/>
<path d="M200.309 180.815L186.62 199.427L163.66 161.415L152.106 175.447L172.824 219.997C176.832 228.612 187.918 231.072 195.195 224.967L196.564 223.818L219.8 195.882L200.309 180.822V180.815Z" fill="#FAB9A3"/>
<path d="M114.677 153.495C114.677 153.495 116.784 161.756 125.643 164.649C134.509 167.542 148.375 166.443 148.375 166.443L152.099 175.455L163.653 161.423C163.653 161.423 164.426 154.58 155.674 154.58L138.729 154.722C138.729 154.722 139.261 145.745 137.566 144.207C134.537 141.442 133.097 144.639 132.693 147.695C132.289 150.751 133.097 156.048 133.097 156.048C133.097 156.048 130.04 157.473 129.735 155.438C129.43 153.403 130.842 145.157 128.82 144.2C124.791 142.285 123.422 146.171 123.422 146.171C123.422 146.171 118.734 144.235 118.429 150.142L118.33 152.283C118.33 152.283 115.812 150.347 114.677 153.502V153.495Z" fill="#FAB9A3"/>
<path d="M148.673 149.369C148.51 148.121 148.836 146.866 148.928 145.611C149.02 144.356 148.794 142.945 147.815 142.158C146.538 141.136 144.495 141.711 143.474 142.987C142.453 144.263 142.211 145.993 142.19 147.631C142.148 150.219 142.531 152.815 143.318 155.282L152.241 157.721C152.304 154.658 149.077 152.41 148.673 149.369Z" fill="#FAB9A3"/>
<path d="M139.339 154.92C144.403 154.14 150.375 153.807 155.496 154.573C157.894 154.934 161.532 155.303 162.795 157.721" stroke="#F3743E" stroke-width="0.75" stroke-linecap="round" stroke-linejoin="round"/>
<path d="M135.459 160.656C132.31 160.656 132.714 156.785 132.615 153.438C132.551 151.169 132.487 148.907 132.735 146.646C132.828 145.816 132.941 144.937 133.459 144.277C133.969 143.618 135.714 143.022 136.346 143.568" stroke="#F3743E" stroke-width="0.75" stroke-linecap="round" stroke-linejoin="round"/>
<path d="M123.72 146.085C123.132 148.588 122.536 151.12 122.522 153.686C122.508 156.253 123.11 158.912 124.692 160.94C125.848 162.415 127.494 163.493 129.31 163.968" stroke="#F3743E" stroke-width="0.75" stroke-linecap="round" stroke-linejoin="round"/>
<path d="M118.337 152.269C118.337 152.269 117.642 159.182 120.756 162.117" stroke="#F3743E" stroke-width="0.75" stroke-linecap="round" stroke-linejoin="round"/>
<path d="M262.08 424.472L236.163 451.948L283.501 485.777L315.688 464.172L262.08 424.472Z" fill="#FAB9A3"/>
<path d="M295.686 466.164C295.14 462.356 295.09 456.067 301.027 451.87L327.377 469.766L268.35 541.933C268.35 541.933 261.484 537.154 265.648 523.413C269.833 509.615 273.259 482.522 275.188 480.458C277.117 478.395 280.082 478.551 283.451 477.927C284.607 477.714 287.409 477.303 289.154 476.764C293.679 475.375 296.346 470.851 295.672 466.164H295.686Z" fill="#253C98"/>
<path d="M271.266 497.696C274.649 495.561 279.082 495.171 282.791 496.682" stroke="white" stroke-width="0.75" stroke-linecap="round" stroke-linejoin="round"/>
<path d="M269.74 504.417C273.344 502.042 278.28 501.858 282.061 503.957" stroke="white" stroke-width="0.75" stroke-linecap="round" stroke-linejoin="round"/>
<path d="M268.428 511.415C272.032 509.04 276.968 508.856 280.742 510.955" stroke="white" stroke-width="0.75" stroke-linecap="round" stroke-linejoin="round"/>
<path d="M275.769 547.967C281.018 545.656 281.068 541.699 282.919 539.019C284.848 536.225 289.508 534.906 291.579 532.389C295.204 527.986 295.402 523.902 298.055 520.52C301.949 515.556 306.063 515.478 309.836 510.097C312.638 506.098 311.886 503.524 314.957 499.716C317.163 496.979 321.816 495.696 324.384 492.512C328.341 487.592 326.185 486.904 328.193 484.075C330.547 480.756 333.718 482.373 336.796 477.573L327.306 469.809L267.641 541.472L275.784 547.974L275.769 547.967Z" fill="#CCBFD5"/>
<path d="M302.779 193.315L341.236 221.486L354.408 277.55L370.636 275.7L364.373 219.99C363.855 213.651 360.855 207.766 356.032 203.625L320.022 173.866L302.772 193.323L302.779 193.315Z" fill="#FAB9A3"/>
<path d="M370.643 274.246L356.983 271.665C356.983 271.665 351.131 277.515 348.918 280.323C346.705 283.123 342.861 294.291 342.861 294.291C342.861 294.291 341.173 298.573 341.173 305.352L347.819 294.291C347.819 294.291 350.039 311.684 353.138 313.3C356.238 314.924 359.047 311.216 359.047 311.216L362.295 311.655C365.544 312.095 365.841 307.968 365.841 307.968C370.126 309.592 371.005 305.607 371.005 305.607C375.878 305.756 375.431 303.246 375.58 299.41C375.729 295.574 370.792 274.686 370.643 274.246Z" fill="#FAB9A3"/>
<path d="M229.815 289.583L220.19 305.593L170.292 364.31C153.376 380.604 155.652 404.811 173.079 420.559L254.519 479.644L288.295 441.015L216.786 389.417L284.352 312.804L229.815 289.583Z" fill="#3457A5"/>
<path d="M154.489 319.625L121.543 324.638L123.132 383.532L152.446 377.235L154.489 319.625Z" fill="#FAB9A3"/>
<path d="M144.091 366.507C144.538 362.686 146.098 356.595 152.907 354.049L173.817 378.079L98.3067 432.782C98.3067 432.782 92.8878 426.408 100.428 414.184C107.996 401.917 118.238 376.59 120.628 375.087C123.018 373.584 125.848 374.491 129.267 374.754C130.444 374.846 133.253 375.158 135.076 375.087C139.807 374.895 143.538 371.208 144.091 366.507Z" fill="#173371"/>
<path d="M112.429 390.757C116.252 389.559 120.628 390.31 123.827 392.721" stroke="white" stroke-width="0.75" stroke-linecap="round" stroke-linejoin="round"/>
<path d="M109.237 396.876C113.329 395.5 118.153 396.578 121.266 399.577" stroke="white" stroke-width="0.75" stroke-linecap="round" stroke-linejoin="round"/>
<path d="M106.18 403.3C110.272 401.924 115.096 403.002 118.209 406.001" stroke="white" stroke-width="0.75" stroke-linecap="round" stroke-linejoin="round"/>
<path d="M103.938 440.518C109.606 439.625 110.662 435.81 113.138 433.69C115.72 431.485 120.557 431.392 123.203 429.492C127.834 426.16 129.068 422.26 132.494 419.672C137.523 415.871 141.523 416.843 146.545 412.603C150.276 409.447 150.212 406.774 154.149 403.874C156.979 401.79 161.809 401.74 165.1 399.315C170.186 395.564 168.278 394.352 170.937 392.132C174.065 389.53 176.711 391.898 180.917 388.041L173.725 378.107L97.7251 432.158L103.938 440.518Z" fill="#CCBFD5"/>
<path d="M297.098 256.172L236.575 256.35L154.184 220.699C145.694 218.366 138.622 219.493 132.934 222.067C122.096 226.974 115.337 238.007 115.188 249.904L114.876 275.281L115.393 345.817L166.32 349.058L163.213 277.557L242.632 318.732C248.342 322.008 261.683 325.766 269.258 324.695C280.869 323.057 290.516 315.463 296.133 308.486C306.389 295.751 301.204 267.326 297.098 256.179V256.172Z" fill="#3457A5"/>
<path d="M163.114 277.614C158.376 270.467 153.638 263.32 148.907 256.166" stroke="#021747" stroke-width="0.75" stroke-linecap="round" stroke-linejoin="round"/>
<path d="M291.076 313.896C283.43 321.958 266.655 328.885 250.597 322.029C238.036 316.661 225.978 310.819 213.331 303.537C208.061 300.502 163.213 277.55 163.213 277.55L166.32 349.051L115.393 345.81" stroke="#021747" stroke-width="0.75" stroke-linecap="round" stroke-linejoin="round"/>
<path d="M199.344 240.24L282.791 277.55" stroke="#021747" stroke-width="0.75" stroke-linecap="round" stroke-linejoin="round"/>
<path d="M124.416 171.448C187.84 166.605 256.023 165.839 320.029 169.172L124.416 171.448Z" fill="#173371"/>
<path d="M124.416 171.448C187.84 166.605 256.023 165.839 320.029 169.172" stroke="#CCBFD5" stroke-miterlimit="10"/>
<path d="M291.395 187.444L300.438 196.01L321.15 172.654C311.936 165.648 304.701 160.926 299.325 157.778C292.721 153.906 285.231 151.815 277.578 151.73L268.698 151.63L240.674 153.46C240.674 153.46 231.581 155.041 225.822 156.58C219.587 158.246 213.991 161.748 209.657 166.527L192.28 185.714L215.878 202.228L219.793 195.875L232.744 240.247L227.056 252.287L236.567 256.399H300.942L293.374 238.9C293.374 238.9 292.36 211.176 291.395 187.437V187.444Z" fill="#173371"/>
<path d="M292.544 216.636L290.445 173.859" stroke="#091439" stroke-width="0.75" stroke-linecap="round" stroke-linejoin="round"/>
<path d="M226.673 219.423L215.509 181.375" stroke="#091439" stroke-width="0.75" stroke-linecap="round" stroke-linejoin="round"/>
<path d="M326.611 51.7534C384.935 55.4334 426.386 62.6444 426.386 71.2664C426.386 83.5259 345.62 93.4597 245.987 93.4597C146.354 93.4597 65.5875 83.5259 65.5875 71.2664C65.5875 66.5513 77.5531 62.1764 97.9521 58.5816" stroke="#CCBFD5" stroke-miterlimit="10"/>
<path d="M320.029 169.165C401.93 173.079 459.985 182.864 459.985 194.322C459.985 209.219 361.799 221.301 240.674 221.301C119.55 221.301 21.3707 209.226 21.3707 194.329C21.3707 184.679 62.5234 176.22 124.415 171.448" stroke="#CCBFD5" stroke-miterlimit="10"/>
<path d="M302.112 290.043C398.717 293.575 471.645 304.579 471.645 317.604C471.645 333.48 367.019 346.356 237.958 346.356C108.896 346.356 4.27698 333.487 4.27698 317.611C4.27698 307.33 48.132 298.311 114.081 293.227" stroke="#CCBFD5" stroke-miterlimit="10"/>
<path d="M101.569 407.561C54.7142 412.369 24.903 419.608 24.903 427.698C24.903 442.177 120.295 453.912 237.965 453.912C355.635 453.912 451.026 442.177 451.026 427.698C451.026 416.375 384.843 406.789 303.077 403.13" stroke="#CCBFD5" stroke-miterlimit="10"/>
</g>
<defs>
<clipPath id="clip0_5471_691">
<rect width="472" height="559" fill="white"/>
</clipPath>
</defs>
</svg>
