<svg width="26" height="24" viewBox="0 0 26 24" fill="none" xmlns="http://www.w3.org/2000/svg">
<path d="M25.1258 21.1891C25.0888 21.3125 25.0394 21.4236 25.0024 21.547C24.6692 22.5466 23.7683 23.2253 22.707 23.2377C20.7818 23.2623 18.8443 23.2377 16.9192 23.2377C16.66 23.2377 16.4873 23.0772 16.4996 22.8551C16.4996 22.633 16.6724 22.4972 16.9439 22.4972C18.795 22.4972 20.6338 22.4972 22.4849 22.4972C23.6819 22.4972 24.3977 21.7815 24.3977 20.5967C24.3977 14.2166 24.3977 7.82405 24.3977 1.44387C24.3977 0.888535 24.2249 0.728105 23.6819 0.728105C17.672 0.728105 11.662 0.728105 5.66441 0.728105C5.13376 0.728105 4.96099 0.888535 4.96099 1.43153C4.96099 4.4797 4.96099 7.52787 4.96099 10.576C4.96099 10.6748 4.96099 10.7735 4.93631 10.8722C4.88694 11.0697 4.75119 11.1684 4.55374 11.1437C4.35629 11.1314 4.24522 11.0203 4.22054 10.8105C4.22054 10.7241 4.22054 10.6501 4.22054 10.5637C4.22054 8.44108 4.22054 6.33081 4.22054 4.2082V3.92436C4.1465 3.92436 4.08479 3.91202 4.02309 3.91202C3.13455 3.91202 2.25836 3.91202 1.36982 3.91202C0.937898 3.91202 0.740446 4.10947 0.740446 4.5414C0.740446 9.93432 0.740446 15.3272 0.740446 20.7201C0.740446 21.6457 1.36982 22.3491 2.29538 22.4725C3.10987 22.5836 3.92436 22.0283 4.1465 21.2014C4.19586 21.004 4.22054 20.7818 4.22054 20.5721C4.22054 17.8324 4.22054 15.0928 4.22054 12.3531C4.22054 12.2667 4.22054 12.1927 4.22054 12.1063C4.24522 11.9212 4.34395 11.8101 4.52906 11.7854C4.72651 11.7607 4.86226 11.8471 4.92396 12.0446C4.94865 12.131 4.94865 12.242 4.94865 12.3408C4.94865 15.0804 4.94865 17.8201 4.94865 20.5597C4.94865 21.2508 4.77588 21.8802 4.30693 22.4108C4.29459 22.4232 4.29459 22.4479 4.2699 22.4972H4.5414C8.0832 22.4972 11.6373 22.4972 15.1791 22.4972C15.2408 22.4972 15.3149 22.4972 15.3766 22.4972C15.6851 22.4972 15.8455 22.633 15.8455 22.8674C15.8455 23.1019 15.6851 23.2253 15.3889 23.2253C11.0943 23.2253 6.78742 23.2253 2.49283 23.2253C1.32046 23.2253 0.394904 22.4849 0.0863853 21.3619C0.0740446 21.3002 0.0370223 21.2385 0 21.1644V4.17118C0 4.17118 0.0370223 4.1465 0.0493631 4.12182C0.308519 3.45541 0.703424 3.19626 1.40685 3.19626C2.09793 3.19626 2.80135 3.19626 3.49244 3.19626C3.72691 3.19626 3.96139 3.19626 4.2082 3.19626C4.2082 2.56688 4.2082 1.96218 4.2082 1.35748C4.22054 0.518312 4.75119 0 5.59037 0C11.6497 0 17.709 0 23.7683 0C23.8794 0 24.0028 0 24.1139 0.0246815C24.6692 0.135748 24.9654 0.518312 25.1258 1.02428V21.1891Z" fill="#173371"/>
<path d="M10.5757 14.6732C9.77356 14.6732 8.97141 14.6732 8.16926 14.6732C7.52754 14.6732 7.19434 14.34 7.19434 13.6859C7.19434 12.0816 7.19434 10.465 7.19434 8.86066C7.19434 8.23128 7.52754 7.88574 8.15692 7.88574C9.77356 7.88574 11.3902 7.88574 13.0068 7.88574C13.6239 7.88574 13.9694 8.23128 13.9694 8.86066C13.9694 10.4773 13.9694 12.0939 13.9694 13.7106C13.9694 14.3153 13.6239 14.6608 13.0068 14.6732C12.1923 14.6732 11.3779 14.6732 10.551 14.6732H10.5757ZM10.6004 8.62619C9.79824 8.62619 8.99609 8.62619 8.19394 8.62619C7.98414 8.62619 7.92244 8.70023 7.92244 8.89769C7.92244 10.4896 7.92244 12.0816 7.92244 13.6736C7.92244 13.8834 7.99649 13.9451 8.19394 13.9327C9.7859 13.9327 11.3779 13.9327 12.9698 13.9327C13.1673 13.9327 13.2413 13.871 13.2413 13.6612C13.2413 12.0693 13.2413 10.4773 13.2413 8.88534C13.2413 8.67555 13.1673 8.61385 12.9698 8.62619C12.18 8.62619 11.3902 8.62619 10.588 8.62619H10.6004Z" fill="#173371"/>
<path d="M14.8459 19.9922C17.2153 19.9922 19.5848 19.9922 21.9542 19.9922C22.3368 19.9922 22.5095 20.1033 22.5219 20.3501C22.5219 20.6092 22.3491 20.7326 21.9542 20.7326C17.2277 20.7326 12.4888 20.7326 7.76232 20.7326C7.67593 20.7326 7.60189 20.7326 7.5155 20.7326C7.30571 20.6956 7.19464 20.5722 7.20698 20.3624C7.20698 20.1526 7.33039 20.0292 7.54018 20.0169C7.62657 20.0169 7.70061 20.0169 7.787 20.0169C10.1441 20.0169 12.4888 20.0169 14.8459 20.0169V19.9922Z" fill="#173371"/>
<path d="M14.8704 16.9686C17.2275 16.9686 19.5969 16.9686 21.954 16.9686C22.028 16.9686 22.1021 16.9686 22.1761 16.9686C22.3859 16.9933 22.5093 17.1167 22.5217 17.3142C22.5217 17.524 22.4106 17.6474 22.2131 17.6844C22.1391 17.6967 22.065 17.6844 21.991 17.6844C17.2398 17.6844 12.501 17.6844 7.74976 17.6844C7.67572 17.6844 7.60167 17.6844 7.52763 17.6844C7.33018 17.6474 7.20677 17.524 7.21911 17.3142C7.21911 17.1044 7.34252 16.981 7.55231 16.9563C7.62635 16.9563 7.7004 16.9563 7.77444 16.9563C10.1439 16.9563 12.5133 16.9563 14.8827 16.9563L14.8704 16.9686Z" fill="#173371"/>
<path d="M17.4497 5.17075C17.7335 4.18349 18.0297 3.18389 18.3136 2.19663C18.4123 1.86343 18.5851 1.78938 18.8936 1.93747C19.0787 2.02386 19.1404 2.14727 19.0787 2.34472C18.6961 3.54177 18.3259 4.75117 17.9433 5.96056C17.857 6.21972 17.6965 6.3061 17.3633 6.28142C17.0795 6.26908 16.9561 6.17036 16.8944 5.9112C16.7833 5.44225 16.6722 4.98564 16.5118 4.51669L16.1909 5.8495C16.1169 6.17036 16.0058 6.26908 15.6973 6.28142C15.3394 6.29376 15.1913 6.20738 15.0926 5.88652C14.7224 4.72649 14.3645 3.56645 13.9943 2.41876C13.8956 2.12259 13.9573 1.99918 14.2535 1.91279C14.5373 1.82641 14.6484 1.88811 14.7347 2.18429C15.0309 3.19623 15.3271 4.19583 15.6356 5.26948C15.759 4.75117 15.8824 4.29456 15.9935 3.83795C16.0429 3.65284 16.0922 3.45539 16.1292 3.27028C16.1786 3.02346 16.339 2.98644 16.5488 2.98644C16.7586 2.98644 16.882 3.06048 16.9314 3.28262C17.0795 3.912 17.2399 4.54137 17.388 5.17075H17.4497V5.17075Z" fill="#FFC200"/>
<path d="M7.99657 3.71469C7.99657 4.43045 7.99657 5.13387 7.99657 5.84964C7.99657 5.97305 7.93487 6.1705 7.84848 6.19518C7.70039 6.24454 7.50294 6.21986 7.34251 6.19518C7.29315 6.19518 7.23145 6.04709 7.23145 5.9607C7.23145 4.71429 7.23145 3.45553 7.23145 2.20911C7.23145 2.11039 7.31783 1.97464 7.40422 1.93762C7.60167 1.85123 7.83614 1.86357 7.99657 2.03634C8.10764 2.15975 8.18168 2.30784 8.25573 2.44359C8.60127 3.10999 8.94681 3.77639 9.34172 4.44279V2.66572C9.34172 2.52997 9.34172 2.40656 9.34172 2.27082C9.34172 1.98698 9.45278 1.87591 9.74896 1.88825C10.0328 1.88825 10.1315 1.98698 10.1315 2.27082C10.1315 3.45553 10.1315 4.64024 10.1315 5.82496C10.1315 5.99773 10.1439 6.1705 9.92173 6.24454C9.68726 6.31859 9.4281 6.24454 9.30469 6.05943C9.23065 5.93602 9.1566 5.80027 9.0949 5.67687C8.74936 5.02281 8.39148 4.36875 8.04594 3.71469H7.99657V3.71469Z" fill="#FFC200"/>
<path d="M11.6248 2.55447V3.75153C11.8469 3.75153 12.0814 3.75153 12.3035 3.75153C12.6984 3.72685 12.7601 3.85025 12.7601 4.06005C12.7601 4.29452 12.6614 4.35623 12.3159 4.35623C12.0937 4.35623 11.8592 4.35623 11.6248 4.35623V5.56562C12.1554 5.56562 12.6614 5.56562 13.1797 5.56562C13.4635 5.56562 13.5993 5.72605 13.5499 5.99755C13.5252 6.14564 13.4389 6.24436 13.2661 6.24436C12.575 6.24436 11.8716 6.24436 11.1805 6.24436C10.909 6.24436 10.835 6.14564 10.835 5.88648C10.835 4.66475 10.835 3.45535 10.835 2.23361C10.835 1.97446 10.9213 1.87573 11.1805 1.87573C11.8716 1.87573 12.575 1.87573 13.2661 1.87573C13.4882 1.87573 13.5499 2.03616 13.5499 2.22127C13.5499 2.40639 13.4882 2.55447 13.2537 2.55447C12.7108 2.55447 12.1801 2.55447 11.6248 2.55447V2.55447Z" fill="#FFC200"/>
<path d="M20.9051 1.81396C21.189 1.87567 21.4852 1.92503 21.7567 2.01142C21.9418 2.07312 22.0652 2.22121 22.0035 2.45568C21.9294 2.73952 21.7813 2.81357 21.5222 2.69016C21.2507 2.55441 20.9668 2.50505 20.6707 2.55441C20.4732 2.59143 20.2881 2.66548 20.2264 2.88761C20.1647 3.12209 20.2881 3.28252 20.4856 3.39358C20.8064 3.56635 21.152 3.71444 21.4728 3.88721C21.9911 4.15871 22.1639 4.62766 22.1269 5.18299C22.0899 5.68896 21.8307 6.04685 21.3494 6.20728C20.72 6.41707 20.103 6.36771 19.56 5.9728C19.3132 5.78769 19.2638 5.55322 19.4119 5.33108C19.5353 5.13363 19.6711 5.10895 19.8685 5.2447C19.9302 5.28172 19.9796 5.35576 20.0413 5.38045C20.2387 5.46683 20.4362 5.59024 20.646 5.62726C20.9792 5.68896 21.2754 5.50385 21.3494 5.26938C21.4358 4.99788 21.3 4.72639 20.9668 4.55361C20.6954 4.40553 20.3992 4.29446 20.14 4.14637C19.5723 3.83785 19.3502 3.38124 19.4736 2.81357C19.5847 2.29525 20.0166 1.94971 20.6213 1.87567C20.72 1.87567 20.8188 1.87567 20.9175 1.86333V1.82631L20.9051 1.81396Z" fill="#FFC200"/>
<path d="M18.7456 10.9216C19.8193 10.9216 20.9053 10.9216 21.9789 10.9216C22.053 10.9216 22.127 10.9216 22.2011 10.9216C22.3985 10.9463 22.5096 11.0821 22.5096 11.2672C22.5096 11.4523 22.4232 11.5757 22.2381 11.6251C22.1394 11.6497 22.0406 11.6497 21.9419 11.6497C19.807 11.6497 17.6597 11.6497 15.5247 11.6497C15.4877 11.6497 15.463 11.6497 15.426 11.6497C15.1175 11.6497 14.957 11.514 14.957 11.2795C14.957 11.0327 15.1175 10.9216 15.4383 10.9216C16.5366 10.9216 17.6473 10.9216 18.7456 10.9216V10.9216Z" fill="#173371"/>
<path d="M18.7208 14.6734C17.6225 14.6734 16.5118 14.6734 15.4135 14.6734C15.1296 14.6734 14.9939 14.5747 14.9692 14.3649C14.9445 14.1551 15.0556 13.9947 15.2654 13.9576C15.3394 13.9453 15.4258 13.9576 15.5122 13.9576C17.6718 13.9576 19.8315 13.9576 21.9788 13.9576C22.0405 13.9576 22.0898 13.9576 22.1515 13.9576C22.3737 13.9823 22.5341 14.1304 22.5218 14.3402C22.5218 14.5376 22.3613 14.6857 22.1269 14.6981C21.5222 14.6981 20.9175 14.6981 20.3128 14.6981C19.7821 14.6981 19.2515 14.6981 18.7208 14.6981V14.6734Z" fill="#173371"/>
<path d="M18.721 7.89795C19.844 7.89795 20.9546 7.89795 22.0777 7.89795C22.2751 7.89795 22.4355 7.95965 22.4972 8.15711C22.5713 8.35456 22.4355 8.57669 22.2134 8.62605C22.1394 8.63839 22.0653 8.62605 21.9913 8.62605C19.8193 8.62605 17.6473 8.62605 15.4753 8.62605C15.4383 8.62605 15.389 8.62605 15.3519 8.62605C15.1051 8.61371 14.957 8.47797 14.957 8.25583C14.957 8.0337 15.1051 7.89795 15.3643 7.89795C15.8456 7.89795 16.3269 7.89795 16.8081 7.89795C17.4499 7.89795 18.0792 7.89795 18.721 7.89795V7.89795Z" fill="#173371"/>
</svg>
