<svg width="24" height="24" viewBox="0 0 24 24" fill="none" xmlns="http://www.w3.org/2000/svg">
<path d="M15.4061 23.2493H15.1538C11.0626 23.2493 6.97142 23.2493 2.88024 23.2493C1.39821 23.2493 0.318226 22.3572 0.0430318 20.8987C0.00975889 20.7226 0.0125316 20.5376 0.0125316 20.3566C0.0111453 15.2721 0.0305544 10.1876 5.42984e-05 5.10311C-0.00895711 3.63148 1.1043 2.17925 2.88301 2.20559C3.39181 2.21322 3.9013 2.20698 4.40594 2.20698C4.68183 0.702076 5.50394 -0.0507229 6.81406 0.00265237C7.64935 0.0366184 8.77578 0.679201 8.89154 2.20629C8.97888 2.20629 9.07038 2.20629 9.16119 2.20629C11.4099 2.20629 13.6586 2.21114 15.908 2.20421C16.7925 2.20144 17.5494 2.4794 18.1463 3.14763C18.6017 3.65782 18.8401 4.26297 18.8443 4.94021C18.8568 6.88598 18.8491 8.83175 18.8485 10.7775C18.8485 10.7935 18.8408 10.8087 18.8498 10.7747C18.4665 10.693 18.0894 10.5834 17.7047 10.537C17.2812 10.4864 16.8847 10.6271 16.5284 10.8572C15.2744 11.6655 13.9289 12.2651 12.4919 12.6678C11.6386 12.907 11.0349 13.6681 10.9815 14.6018C10.872 16.5275 11.1908 18.3637 12.2022 20.0433C12.9481 21.282 13.9469 22.2657 15.1663 23.0323C15.2529 23.0871 15.3361 23.1467 15.4213 23.2042L15.4068 23.25L15.4061 23.2493ZM7.79076 2.23609C7.78244 2.26382 7.77343 2.27977 7.77274 2.29502C7.77066 2.93483 7.77205 3.57463 7.76789 4.21444C7.76511 4.7073 7.78383 5.20223 7.74293 5.69162C7.68678 6.35223 6.99152 6.79171 6.35656 6.59692C5.81726 6.43125 5.58297 6.03821 5.53098 5.49684C5.49979 5.17104 5.24539 4.96031 4.96049 4.98319C4.66034 5.00675 4.45377 5.24313 4.4503 5.56408C4.4406 6.67317 5.38541 7.68384 6.47787 7.73305C7.72214 7.7892 8.77924 6.92965 8.83747 5.76094C8.88253 4.85495 8.85827 3.94549 8.86451 3.03811C8.86589 2.77193 8.86451 2.50505 8.86451 2.2354H7.78938L7.79076 2.23609ZM6.36973 11.059C7.17383 11.059 7.97723 11.0603 8.78132 11.059C9.17367 11.0583 9.40519 10.8628 9.41212 10.5321C9.41975 10.1904 9.17852 9.9658 8.78618 9.96511C7.17868 9.96233 5.57118 9.96233 3.96369 9.96511C3.59422 9.96511 3.33843 10.1966 3.33635 10.5141C3.33427 10.8302 3.59145 11.0583 3.95883 11.0596C4.76224 11.0617 5.56633 11.0596 6.37043 11.0603L6.36973 11.059ZM12.7297 11.059C13.4472 11.059 14.1653 11.0603 14.8827 11.059C15.2688 11.0576 15.5011 10.8531 15.5031 10.5197C15.5045 10.1897 15.2661 9.9658 14.8897 9.96441C13.4631 9.96095 12.0358 9.96164 10.6093 9.96441C10.2391 9.96511 9.98331 10.1952 9.98053 10.512C9.97776 10.8281 10.2349 11.0576 10.603 11.0583C11.3121 11.0603 12.0213 11.0583 12.7304 11.059H12.7297ZM13.2891 7.73721C13.8333 7.73721 14.3774 7.73998 14.9216 7.73652C15.2702 7.73374 15.4927 7.52856 15.5024 7.21247C15.5122 6.89014 15.2827 6.64683 14.932 6.64475C13.8437 6.63782 12.7554 6.63713 11.6677 6.64475C11.3163 6.64752 11.0889 6.89152 11.1 7.21524C11.1111 7.53133 11.3322 7.73444 11.683 7.73652C12.2181 7.73998 12.754 7.73721 13.2891 7.73721ZM5.54276 17.7024C6.07859 17.7024 6.61373 17.7045 7.14957 17.7017C7.51695 17.6997 7.74501 17.4952 7.75056 17.1715C7.7561 16.8401 7.51973 16.61 7.14749 16.6079C6.07652 16.603 5.00485 16.603 3.93388 16.6079C3.5859 16.61 3.33566 16.8512 3.33635 17.159C3.33635 17.4674 3.58798 17.6983 3.93596 17.7004C4.47179 17.7038 5.00693 17.7011 5.54276 17.7011V17.7024ZM8.58377 14.3807C9.02463 14.3807 9.4655 14.3828 9.90636 14.3807C10.2883 14.3786 10.5226 14.1679 10.5205 13.8352C10.5184 13.5156 10.2841 13.2896 9.92577 13.2875C9.03503 13.282 8.14498 13.282 7.25424 13.2875C6.90626 13.2896 6.65671 13.5329 6.6581 13.8407C6.66018 14.1492 6.91111 14.3779 7.26048 14.38C7.70134 14.3835 8.14221 14.3807 8.58307 14.3807H8.58377ZM4.71371 14.3807C4.97296 14.3807 5.23152 14.3807 5.49077 14.3807C5.5081 14.3807 5.52543 14.3807 5.54276 14.38C5.854 14.3675 6.07444 14.1637 6.08969 13.874C6.10563 13.569 5.90461 13.3063 5.5899 13.2952C5.01248 13.2744 4.43297 13.2751 3.85486 13.2931C3.5457 13.3028 3.31972 13.5808 3.33774 13.865C3.35646 14.1582 3.59283 14.3738 3.911 14.3793C4.17857 14.3842 4.44614 14.38 4.71371 14.3807ZM9.40796 17.7017C9.5979 17.7017 9.78852 17.7066 9.97845 17.7004C10.2911 17.6907 10.5039 17.4848 10.5184 17.1881C10.5323 16.8928 10.341 16.6377 10.036 16.6183C9.63117 16.5933 9.22358 16.594 8.81876 16.6169C8.52138 16.6335 8.30649 16.9053 8.32105 17.1805C8.3363 17.4751 8.57198 17.6927 8.89015 17.7004C9.06276 17.7045 9.23605 17.7011 9.40866 17.7004L9.40796 17.7017ZM5.5795 2.19589H7.73531C7.76026 1.61084 7.26048 1.11452 6.65602 1.11383C6.05017 1.11383 5.54692 1.61223 5.5795 2.19589V2.19589Z" fill="#173371"/>
<path d="M23.2675 15.365C23.2862 17.742 22.453 19.7619 20.6424 21.3126C19.8869 21.96 19.019 22.4792 18.1858 23.0324C17.8718 23.241 17.4947 23.2438 17.1772 23.0358C16.1964 22.3946 15.1635 21.8207 14.3261 20.9819C12.8275 19.4791 12.0955 17.6526 12.067 15.5383C12.0622 15.2021 12.0587 14.8625 12.1017 14.5311C12.1572 14.1069 12.4289 13.8241 12.833 13.7097C14.3518 13.2793 15.7742 12.6408 17.1044 11.791C17.4891 11.5456 17.887 11.5643 18.2752 11.8069C19.403 12.5112 20.5752 13.1219 21.852 13.5135C22.0579 13.5766 22.2638 13.6362 22.4704 13.6979C22.9736 13.8477 23.2627 14.2261 23.2675 14.7433C23.2696 14.9505 23.2675 15.1585 23.2675 15.3657V15.365ZM17.1689 17.5111C16.9263 17.2588 16.7065 17.0176 16.4722 16.7909C16.231 16.558 15.9045 16.5629 15.6869 16.7854C15.4754 17.001 15.4671 17.3157 15.6924 17.552C16.0501 17.9271 16.4168 18.2938 16.7904 18.6521C17.0081 18.8615 17.3304 18.8753 17.539 18.6702C18.2974 17.9264 19.0523 17.1791 19.7898 16.4152C20.0761 16.1192 19.916 15.6319 19.525 15.5286C19.2817 15.4642 19.0925 15.5702 18.924 15.7408C18.3487 16.3244 17.7699 16.9053 17.1689 17.5098V17.5111Z" fill="#FFC200"/>
</svg>
