<svg width="86" height="86" viewBox="0 0 86 86" fill="none" xmlns="http://www.w3.org/2000/svg">
<path d="M56.33 85.0075H55.4074C40.4487 85.0075 25.4899 85.0075 10.5311 85.0075C5.11233 85.0075 1.16354 81.7455 0.157339 76.4129C0.0356819 75.7691 0.04582 75.0924 0.04582 74.4309C0.0407509 55.8402 0.111718 37.2494 0.000198534 18.6587C-0.0327503 13.2779 4.03769 7.9681 10.5413 8.06441C12.4016 8.09229 14.2645 8.06948 16.1096 8.06948C17.1184 2.56703 20.1243 -0.18546 24.9146 0.00969797C27.9687 0.13389 32.0873 2.48339 32.5105 8.06695C32.8299 8.06695 33.1644 8.06695 33.4965 8.06695C41.7185 8.06695 49.9404 8.08469 58.165 8.05934C61.399 8.04921 64.1667 9.06555 66.349 11.5088C68.0141 13.3742 68.886 15.5869 68.9012 18.0631C68.9468 25.1775 68.919 32.2919 68.9164 39.4063C68.9164 39.4646 68.8885 39.5204 68.9215 39.3962C67.5199 39.0971 66.1411 38.6967 64.7345 38.5268C63.1859 38.3418 61.7361 38.8563 60.4334 39.6978C55.8484 42.6531 50.9289 44.8454 45.6748 46.318C42.5548 47.1924 40.3473 49.9753 40.1521 53.3893C39.7517 60.4302 40.9175 67.1441 44.6154 73.2853C47.3426 77.8145 50.9948 81.411 55.453 84.2142C55.7698 84.4144 56.074 84.6324 56.3857 84.8427L56.3325 85.01L56.33 85.0075ZM28.4857 8.17593C28.4553 8.27731 28.4223 8.33561 28.4198 8.39137C28.4122 10.7307 28.4173 13.0701 28.4021 15.4095C28.3919 17.2115 28.4604 19.0212 28.3108 20.8105C28.1055 23.2259 25.5634 24.8328 23.2418 24.1206C21.2699 23.5149 20.4132 22.0778 20.2232 20.0983C20.1091 18.9071 19.1789 18.1366 18.1372 18.2202C17.0398 18.3064 16.2845 19.1707 16.2718 20.3442C16.2364 24.3994 19.6909 28.0947 23.6853 28.2747C28.2348 28.48 32.0999 25.3372 32.3128 21.064C32.4776 17.7514 32.3889 14.4261 32.4117 11.1084C32.4168 10.1351 32.4117 9.15933 32.4117 8.1734H28.4806L28.4857 8.17593ZM23.2899 40.4353C26.23 40.4353 29.1675 40.4404 32.1075 40.4353C33.5421 40.4328 34.3886 39.7181 34.414 38.5091C34.4418 37.2596 33.5598 36.4384 32.1253 36.4359C26.2477 36.4257 20.3702 36.4257 14.4926 36.4359C13.1417 36.4359 12.2065 37.2824 12.1989 38.4432C12.1913 39.5989 13.1316 40.4328 14.4749 40.4379C17.4124 40.4455 20.3524 40.4379 23.2925 40.4404L23.2899 40.4353ZM46.5442 40.4353C49.1674 40.4353 51.7932 40.4404 54.4164 40.4353C55.8281 40.4303 56.6772 39.6826 56.6848 38.4635C56.6899 37.257 55.818 36.4384 54.4418 36.4333C49.2257 36.4207 44.0071 36.4232 38.7911 36.4333C37.4376 36.4359 36.5024 37.2773 36.4923 38.4356C36.4821 39.5913 37.4224 40.4303 38.7683 40.4328C41.3611 40.4404 43.9539 40.4328 46.5467 40.4353H46.5442ZM48.5895 28.2899C50.5791 28.2899 52.5687 28.3 54.5583 28.2874C55.8332 28.2772 56.6468 27.527 56.6823 26.3713C56.7178 25.1927 55.8788 24.3031 54.5964 24.2955C50.6172 24.2702 46.638 24.2676 42.6613 24.2955C41.3763 24.3056 40.545 25.1978 40.5855 26.3814C40.6261 27.5372 41.4346 28.2798 42.7171 28.2874C44.6737 28.3 46.6329 28.2899 48.5895 28.2899ZM20.2662 64.7262C22.2254 64.7262 24.1821 64.7338 26.1413 64.7237C27.4846 64.7161 28.3184 63.9684 28.3387 62.7848C28.359 61.5733 27.4947 60.7318 26.1337 60.7242C22.2178 60.7065 18.2995 60.7065 14.3836 60.7242C13.1113 60.7318 12.1963 61.6138 12.1989 62.7391C12.1989 63.867 13.1189 64.711 14.3912 64.7186C16.3504 64.7313 18.3071 64.7211 20.2662 64.7211V64.7262ZM31.3852 52.5808C32.9972 52.5808 34.6091 52.5884 36.2211 52.5808C37.6176 52.5732 38.4743 51.8027 38.4667 50.5861C38.4591 49.4177 37.6024 48.5914 36.292 48.5838C33.0352 48.5636 29.7808 48.5636 26.524 48.5838C25.2517 48.5914 24.3392 49.4811 24.3443 50.6064C24.3519 51.7342 25.2694 52.5706 26.5468 52.5782C28.1588 52.5909 29.7707 52.5808 31.3827 52.5808H31.3852ZM17.235 52.5808C18.1829 52.5808 19.1282 52.5808 20.0762 52.5808C20.1395 52.5808 20.2029 52.5808 20.2662 52.5782C21.4042 52.5326 22.2102 51.7875 22.266 50.728C22.3243 49.6129 21.5893 48.6523 20.4386 48.6117C18.3273 48.5357 16.2085 48.5382 14.0947 48.6041C12.9643 48.6396 12.138 49.6559 12.2039 50.6951C12.2724 51.7672 13.1366 52.5554 14.3 52.5757C15.2783 52.5935 16.2566 52.5782 17.235 52.5808ZM34.3987 64.7237C35.0932 64.7237 35.7902 64.7414 36.4847 64.7186C37.6277 64.6831 38.4058 63.9304 38.4591 62.8456C38.5097 61.7659 37.8102 60.8332 36.695 60.7622C35.2149 60.671 33.7246 60.6735 32.2444 60.7572C31.1571 60.818 30.3714 61.8115 30.4246 62.8177C30.4804 63.8949 31.3421 64.6907 32.5055 64.7186C33.1366 64.7338 33.7702 64.7211 34.4013 64.7186L34.3987 64.7237ZM20.4006 8.02893H28.2829C28.3742 5.88979 26.5468 4.07507 24.3367 4.07254C22.1215 4.07254 20.2815 5.89486 20.4006 8.02893Z" fill="white"/>
<path d="M85.074 56.1799C85.1425 64.8708 82.096 72.2564 75.4758 77.9261C72.7132 80.2933 69.5399 82.1917 66.4934 84.2142C65.3453 84.9771 63.9665 84.9873 62.8057 84.2269C59.2194 81.8825 55.4429 79.7839 52.3812 76.7171C46.9016 71.2223 44.2251 64.5438 44.1212 56.8135C44.1035 55.5843 44.0908 54.3424 44.2479 53.1308C44.4507 51.5797 45.4442 50.5456 46.9219 50.1274C52.475 48.5535 57.6758 46.2192 62.5396 43.1119C63.9462 42.2147 65.4011 42.2831 66.8204 43.1702C70.9441 45.7452 75.2299 47.9782 79.8985 49.4102C80.6513 49.6408 81.404 49.8588 82.1593 50.0844C83.9994 50.6318 85.0563 52.0157 85.074 53.9064C85.0816 54.6642 85.074 55.4246 85.074 56.1824V56.1799ZM62.7753 64.0268C61.8882 63.1042 61.0848 62.2222 60.2281 61.3934C59.3461 60.5418 58.1523 60.5595 57.3565 61.3731C56.5835 62.1614 56.553 63.312 57.3768 64.1763C58.6846 65.5475 60.0253 66.8882 61.3914 68.1986C62.1873 68.964 63.3658 69.0147 64.1287 68.2645C66.9015 65.5449 69.6616 62.8127 72.3583 60.0197C73.4051 58.9374 72.8196 57.1557 71.3901 56.778C70.5005 56.5423 69.8086 56.9301 69.1927 57.5536C67.0891 59.6877 64.9727 61.8116 62.7753 64.0217V64.0268Z" fill="#FEC20E"/>
</svg>
