<svg width="26" height="24" viewBox="0 0 26 24" fill="none" xmlns="http://www.w3.org/2000/svg">
<path d="M12.5941 15.1956C15.5246 15.1956 18.4544 15.1896 21.385 15.1983C22.2547 15.201 23.0286 15.519 23.7042 16.073C24.5149 16.7379 24.9963 17.6025 25.1452 18.658C25.1485 18.6795 25.1721 18.6977 25.1865 18.7178V19.7243C25.1721 19.7444 25.1485 19.7626 25.1452 19.7841C25.0088 20.7946 24.5497 21.6188 23.7954 22.2837C23.1073 22.8908 22.3098 23.2343 21.4099 23.2397C18.4715 23.2579 15.5331 23.2464 12.5941 23.2458V15.195V15.1956ZM16.2821 19.2207C16.2821 18.5276 15.7246 17.9601 15.0464 17.9628C14.38 17.9655 13.8291 18.5269 13.8232 19.2079C13.8173 19.9004 14.3715 20.4759 15.0464 20.4786C15.7233 20.4813 16.2821 19.9125 16.2821 19.22V19.2207ZM21.2013 19.2308C21.2066 18.537 20.653 17.9649 19.9755 17.9628C19.3084 17.9608 18.7529 18.5175 18.7424 19.1979C18.7312 19.8903 19.2809 20.4705 19.9558 20.4786C20.632 20.4867 21.1967 19.9212 21.2013 19.2308Z" fill="#173371"/>
<path d="M12.5938 15.1956C12.5938 17.8794 12.5938 20.5625 12.5938 23.2464C9.75246 23.2464 6.91048 23.2477 4.06915 23.245C3.84221 23.245 3.61331 23.2262 3.38768 23.1966C1.78337 22.9842 0.447974 21.731 0.0964161 20.1195C0.0852659 20.0671 0.0327946 20.0234 0 19.9763C0 19.4727 0 18.9699 0 18.4663C0.0327946 18.4186 0.0852659 18.3755 0.0964161 18.3231C0.44863 16.7103 1.78206 15.4584 3.38768 15.246C3.61331 15.2164 3.84156 15.1976 4.06915 15.1976C6.91048 15.1949 9.75246 15.1962 12.5938 15.1962V15.1956ZM5.22156 20.4785C5.89778 20.4745 6.45004 19.8983 6.44283 19.2058C6.43561 18.5134 5.87154 17.952 5.19335 17.9621C4.52762 17.9722 3.98323 18.5389 3.98389 19.2213C3.98454 19.9124 4.54599 20.4819 5.22156 20.4778V20.4785ZM11.362 19.2152C11.3594 18.5228 10.7993 17.9574 10.1217 17.9627C9.45534 17.9681 8.90701 18.5315 8.90308 19.2132C8.89914 19.905 9.45599 20.4785 10.1316 20.4785C10.8078 20.4785 11.3646 19.907 11.362 19.2152V19.2152Z" fill="#173371"/>
<path d="M16.282 5.12158C16.6093 5.12427 16.9366 5.12629 17.2639 5.13032C17.6948 5.1357 18.0024 5.44899 18.0031 5.89204C18.0051 7.88474 18.0051 9.87811 18.0031 11.8708C18.0031 12.291 17.7034 12.6245 17.3079 12.6258C15.7363 12.6292 14.1648 12.6224 12.5933 12.6198C12.5933 11.8009 12.5933 10.9814 12.5927 10.1625C13.0524 10.1296 13.3318 9.83643 13.3273 9.3712C13.3253 9.19505 13.3673 9.09085 13.5306 8.99336C13.9412 8.74932 13.9031 8.03332 13.4991 7.77784C13.2079 7.59363 12.8976 7.66288 12.5927 7.64607C12.5927 6.8104 12.5927 5.97406 12.5933 5.13839C13.3312 5.13301 14.0684 5.12696 14.8063 5.12158C15.2982 5.12158 15.7901 5.12158 16.282 5.12158V5.12158Z" fill="#FFC200"/>
<path d="M12.5925 10.1625C12.5925 10.9814 12.5925 11.8009 12.5932 12.6198C11.0295 12.6224 9.46655 12.6292 7.90291 12.6245C7.50019 12.6231 7.18536 12.2971 7.18405 11.8843C7.1788 9.88282 7.1788 7.88071 7.18405 5.87927C7.18536 5.45437 7.50413 5.14175 7.92127 5.13099C8.24856 5.12225 8.57585 5.12427 8.90314 5.12158C9.39506 5.12158 9.88698 5.12158 10.3796 5.12158C11.1174 5.12696 11.856 5.13301 12.5938 5.13839C12.5938 5.97406 12.5938 6.8104 12.5932 7.64607C12.4299 7.64607 12.2666 7.64406 12.1032 7.64607C11.7838 7.65078 11.4841 7.88138 11.3929 8.18996C11.3024 8.49452 11.4165 8.83672 11.69 9.01757C11.8245 9.10631 11.8612 9.21186 11.8592 9.36918C11.854 9.82567 12.1439 10.1296 12.5932 10.1618L12.5925 10.1625Z" fill="#FFC200"/>
<path d="M16.2821 5.12073C15.7902 5.12073 15.2983 5.12073 14.8064 5.12073C14.8064 4.71869 14.8221 4.31531 14.8011 3.91395C14.786 3.62486 14.7644 3.323 14.6719 3.05273C14.3315 2.05705 13.5976 1.58174 12.5941 1.4977C12.5941 0.999524 12.5941 0.502021 12.5941 0.0038458C14.1931 -0.0788472 15.802 1.18172 16.1706 2.84902C16.2684 3.29073 16.2566 3.75932 16.2795 4.21648C16.2946 4.517 16.2821 4.81887 16.2821 5.12006V5.12073Z" fill="#173371"/>
<path d="M12.5941 0.00538141C12.5941 0.503557 12.5941 1.00106 12.5941 1.49923C11.3715 1.60142 10.5314 2.35037 10.4008 3.52017C10.3418 4.04793 10.3831 4.58779 10.3792 5.12159C9.88726 5.12159 9.39535 5.12159 8.90277 5.12159C8.91982 4.46072 8.88178 3.79313 8.96377 3.14099C9.18612 1.37015 10.8757 -0.0645379 12.5941 0.00538141Z" fill="#173371"/>
</svg>
