<svg width="93" height="86" viewBox="0 0 93 86" fill="none" xmlns="http://www.w3.org/2000/svg">
<path d="M46.0482 55.5608C56.7632 55.5608 67.4758 55.5387 78.1908 55.5706C81.3708 55.5805 84.2006 56.7432 86.6707 58.7687C89.6349 61.1998 91.3951 64.361 91.9395 68.2203C91.9515 68.299 92.0378 68.3654 92.0906 68.4391V72.119C92.0378 72.1927 91.9515 72.2591 91.9395 72.3378C91.4407 76.0324 89.762 79.0461 87.0041 81.4772C84.4884 83.6969 81.5722 84.9531 78.282 84.9727C67.5382 85.0391 56.7944 84.9973 46.0482 84.9948V55.5583V55.5608ZM59.5331 70.2778C59.5331 67.7435 57.4947 65.6688 55.015 65.6786C52.5784 65.6884 50.564 67.741 50.5424 70.2311C50.5208 72.763 52.5473 74.8672 55.015 74.877C57.4899 74.8869 59.5331 72.8073 59.5331 70.2754V70.2778ZM77.5194 70.3147C77.5385 67.7779 75.5145 65.686 73.0372 65.6786C70.5982 65.6712 68.567 67.7066 68.5286 70.1942C68.4879 72.7262 70.4975 74.8475 72.9652 74.877C75.4377 74.9065 77.5026 72.8392 77.5194 70.3147Z" fill="white"/>
<path d="M46.0472 55.5603C46.0472 65.3733 46.0472 75.1838 46.0472 84.9968C35.6583 84.9968 25.2671 85.0017 14.8782 84.9919C14.0485 84.9919 13.2115 84.9231 12.3865 84.8149C6.52061 84.0381 1.63795 79.4561 0.35253 73.5639C0.311761 73.3722 0.119908 73.2124 0 73.0403C0 71.1991 0 69.3604 0 67.5193C0.119908 67.3447 0.311761 67.1874 0.35253 66.9957C1.64034 61.0985 6.51582 56.5214 12.3865 55.7447C13.2115 55.6365 14.0461 55.5677 14.8782 55.5677C25.2671 55.5578 35.6583 55.5628 46.0472 55.5628V55.5603ZM19.0918 74.8765C21.5643 74.8618 23.5836 72.7552 23.5572 70.2232C23.5308 67.6913 21.4684 65.6388 18.9887 65.6756C16.5545 65.7125 14.5641 67.7848 14.5665 70.2798C14.5689 72.8068 16.6217 74.8888 19.0918 74.8741V74.8765ZM41.5434 70.2577C41.5338 67.7257 39.4858 65.6584 37.0085 65.6781C34.5719 65.6978 32.5671 67.7577 32.5527 70.2503C32.5383 72.7797 34.5743 74.8765 37.0445 74.8765C39.517 74.8765 41.553 72.7871 41.5434 70.2577Z" fill="white"/>
<path d="M59.5327 18.7264C60.7294 18.7363 61.9261 18.7436 63.1228 18.7584C64.6984 18.7781 65.8231 19.9236 65.8255 21.5435C65.8327 28.8295 65.8327 36.1179 65.8255 43.4039C65.8255 44.9403 64.7295 46.1595 63.2835 46.1645C57.5375 46.1767 51.7914 46.1522 46.0454 46.1423C46.0454 43.1483 46.0454 40.1518 46.043 37.1577C47.7242 37.0373 48.7458 35.9655 48.729 34.2645C48.7218 33.6204 48.8753 33.2394 49.4724 32.883C50.9737 31.9907 50.8346 29.3727 49.3573 28.4386C48.2925 27.7651 47.1582 28.0183 46.043 27.9568C46.043 24.9013 46.043 21.8434 46.0454 18.7879C48.7434 18.7682 51.4389 18.7461 54.1369 18.7264C55.9355 18.7264 57.7341 18.7264 59.5327 18.7264Z" fill="#FFC200"/>
<path d="M46.0426 37.1577C46.0426 40.1518 46.0426 43.1483 46.045 46.1423C40.3278 46.1522 34.613 46.1767 28.8958 46.1595C27.4233 46.1546 26.2722 44.9624 26.2674 43.4531C26.2482 36.1351 26.2482 28.8147 26.2674 21.4968C26.2722 19.9432 27.4377 18.8002 28.9629 18.7609C30.1596 18.7289 31.3563 18.7363 32.553 18.7264C34.3516 18.7264 36.1502 18.7264 37.9512 18.7264C40.6492 18.7461 43.3495 18.7682 46.0474 18.7879C46.0474 21.8434 46.0474 24.9013 46.045 27.9568C45.4479 27.9568 44.8508 27.9495 44.2536 27.9568C43.0857 27.974 41.9897 28.8172 41.6564 29.9455C41.3255 31.059 41.7427 32.3102 42.7428 32.9715C43.2344 33.296 43.3687 33.6819 43.3615 34.2571C43.3423 35.9262 44.4023 37.0373 46.045 37.1553L46.0426 37.1577Z" fill="#FFC200"/>
<path d="M59.5331 18.7231C57.7345 18.7231 55.9359 18.7231 54.1372 18.7231C54.1372 17.2532 54.1948 15.7783 54.1181 14.3107C54.0629 13.2537 53.9838 12.15 53.6456 11.1618C52.401 7.52129 49.7174 5.78337 46.0482 5.4761C46.0482 3.6546 46.0482 1.83556 46.0482 0.0140615C51.895 -0.288292 57.7777 4.32076 59.1254 10.417C59.4828 12.032 59.4396 13.7454 59.5235 15.4169C59.5787 16.5157 59.5331 17.6194 59.5331 18.7207V18.7231Z" fill="white"/>
<path d="M46.0485 0.0193403C46.0485 1.84084 46.0485 3.65988 46.0485 5.48138C41.5783 5.85502 38.5063 8.59341 38.029 12.8706C37.8132 14.8003 37.9643 16.7742 37.9499 18.726C36.1513 18.726 34.3527 18.726 32.5516 18.726C32.614 16.3096 32.4749 13.8686 32.7747 11.4842C33.5876 5.00941 39.7653 -0.236309 46.0485 0.0193403Z" fill="white"/>
<path d="M46.043 27.9548C47.1606 28.0187 48.2925 27.7656 49.3573 28.4366C50.8346 29.3707 50.9737 31.9887 49.4724 32.881C48.8729 33.2374 48.7218 33.6184 48.729 34.2625C48.7458 35.9635 47.7242 37.0353 46.043 37.1557C46.043 34.088 46.043 31.0226 46.043 27.9548Z" fill="#E1AB00"/>
<path d="M46.043 27.9567C46.043 31.0245 46.043 34.0899 46.043 37.1576C44.3979 37.0397 43.3403 35.9286 43.3595 34.2595C43.3667 33.6843 43.2324 33.2983 42.7407 32.9739C41.7431 32.3126 41.3234 31.0614 41.6544 29.9479C41.9901 28.8196 43.0861 27.974 44.2516 27.9592C44.8487 27.9494 45.4459 27.9592 46.043 27.9592V27.9567Z" fill="#E1AB00"/>
</svg>
