<svg width="230" height="129" viewBox="0 0 230 129" fill="none" xmlns="http://www.w3.org/2000/svg">
<path d="M150.981 34.425C151.095 32.8984 151.153 31.3615 151.154 29.8143V10.4037L115.076 0L91.1692 34.425H150.981Z" fill="#192C51"/>
<path d="M115.075 0.000976562L79 10.4075V29.8096C79 31.3559 79.057 32.8928 79.1711 34.4203H115.075V0.000976562Z" fill="#173371"/>
<path d="M115.075 24.0625L93.342 54.5287L115.075 84.9933L116.414 84.3824C125.819 80.0844 133.979 73.3037 140.083 64.7137C146.437 55.7533 150.161 45.3609 150.978 34.4183L115.075 24.0625Z" fill="#BD932E"/>
<path d="M79.1753 34.4253C79.9897 45.3679 83.7171 55.7603 90.0724 64.7207C96.1758 73.3107 104.335 80.0915 113.74 84.3895L115.08 85.0005V24.0625L79.1753 34.4253Z" fill="#FFC200"/>
<path d="M14.4519 109.435C14.4519 113.204 11.4168 116.228 7.50679 116.228H4.53648V122.461H0V102.641H7.50679C11.4168 102.641 14.4519 105.676 14.4519 109.445V109.435ZM9.91544 109.435C9.91544 107.987 8.90013 106.885 7.50679 106.885H4.53648V111.984H7.50679C8.90013 111.984 9.91544 110.882 9.91544 109.435Z" fill="white"/>
<path d="M26.205 108.021V112.838C24.4444 112.557 21.9602 113.259 21.9602 116.067V122.472H17.7153V108.301H21.9602V110.818C22.5218 108.917 24.4228 108.01 26.205 108.01V108.021Z" fill="white"/>
<path d="M29.1753 104.51C29.1753 103.117 30.3418 101.961 31.7244 101.961C33.1069 101.961 34.2734 103.127 34.2734 104.51C34.2734 105.893 33.1069 107.059 31.7244 107.059C30.3418 107.059 29.1753 105.893 29.1753 104.51ZM29.5965 108.301H33.8414V122.472H29.5965V108.301Z" fill="white"/>
<path d="M52.123 108.301L46.8845 122.472H42.0672L36.8286 108.301H41.5271L44.4758 117.287L47.4245 108.301H52.123Z" fill="white"/>
<path d="M69.0641 108.302V122.473H64.8193V121.144C63.8796 122.225 62.497 122.873 60.596 122.873C56.8804 122.873 53.8237 119.611 53.8237 115.398C53.8237 111.186 56.8804 107.924 60.596 107.924C62.497 107.924 63.8796 108.572 64.8193 109.652V108.323H69.0641V108.302ZM64.8193 115.387C64.8193 113.26 63.4043 111.931 61.4493 111.931C59.4943 111.931 58.0794 113.26 58.0794 115.387C58.0794 117.515 59.4943 118.844 61.4493 118.844C63.4043 118.844 64.8193 117.515 64.8193 115.387Z" fill="white"/>
<path d="M72.884 115.386C72.884 111.163 76.0812 107.912 80.3908 107.912C83.1343 107.912 85.5754 109.359 86.7959 111.541L83.0803 113.691C82.5942 112.697 81.5789 112.103 80.3368 112.103C78.4898 112.103 77.1397 113.431 77.1397 115.386C77.1397 117.342 78.5006 118.67 80.3368 118.67C81.5789 118.67 82.6266 118.076 83.0803 117.082L86.7959 119.21C85.5754 121.424 83.1667 122.861 80.3908 122.861C76.0812 122.861 72.884 119.599 72.884 115.386Z" fill="white"/>
<path d="M103.508 108.301L98.6688 122.04C97.081 126.544 94.5644 128.326 90.5896 128.132V124.168C92.577 124.168 93.5059 123.541 94.1323 121.813L88.4941 108.301H93.171L96.3142 116.974L98.982 108.301H103.519H103.508Z" fill="white"/>
<path d="M110.638 103.873H116.503C122.627 103.873 126.677 107.664 126.677 113.194C126.677 118.725 122.595 122.57 116.503 122.57H110.638V103.873ZM116.47 119.88C120.802 119.88 123.577 117.104 123.577 113.194C123.577 109.284 120.834 106.595 116.47 106.595H113.64V119.88H116.47Z" fill="#FFC200"/>
<path d="M132.194 116.597C132.562 118.866 134.344 120.248 136.731 120.248C138.178 120.248 139.539 119.708 140.781 118.606L142.196 120.648C140.608 122.149 138.772 122.884 136.644 122.884C132.4 122.884 129.17 119.741 129.17 115.636C129.084 111.64 132.432 108.27 136.364 108.356C140.047 108.356 142.79 111.1 142.79 114.729C142.79 115.323 142.704 115.949 142.564 116.597H132.194ZM139.82 114.275C139.788 112.147 138.2 110.873 136.256 110.873C134.311 110.873 132.713 112.201 132.259 114.275H139.82Z" fill="#FFC200"/>
<path d="M149.671 108.658H152.955V111.239H149.671V122.57H146.701V111.239H144.714V108.658H146.701V105.85C146.701 102.588 148.602 101 151.659 101C152.426 101 153.052 101.086 153.581 101.259V103.787C153.128 103.733 152.728 103.7 152.393 103.7C150.579 103.7 149.671 104.327 149.671 106.109V108.658Z" fill="#FFC200"/>
<path d="M157.463 116.597C157.83 118.866 159.612 120.248 161.999 120.248C163.447 120.248 164.807 119.708 166.05 118.606L167.465 120.648C165.877 122.149 164.041 122.884 161.913 122.884C157.668 122.884 154.438 119.741 154.438 115.636C154.352 111.64 157.7 108.27 161.632 108.356C165.315 108.356 168.059 111.1 168.059 114.729C168.059 115.323 167.972 115.949 167.832 116.597H157.463ZM165.088 114.275C165.056 112.147 163.468 110.873 161.524 110.873C159.58 110.873 157.981 112.201 157.528 114.275H165.088Z" fill="#FFC200"/>
<path d="M183.614 122.57H180.643V114.264C180.643 112.341 179.423 111.034 177.608 111.034C175.794 111.034 174.433 112.363 174.433 114.264V122.57H171.462V108.658H174.238V110.019C175.286 108.917 176.668 108.345 178.407 108.345C181.669 108.345 183.624 110.559 183.624 113.864V122.559L183.614 122.57Z" fill="#FFC200"/>
<path d="M201.312 101.324V122.57H198.536V120.583C197.521 122.03 195.728 122.872 193.665 122.872C189.755 122.872 186.871 119.729 186.871 115.625C186.785 111.574 189.82 108.259 193.665 108.345C195.587 108.345 197.262 109.079 198.309 110.354V101.324H201.312ZM194.173 111.067C191.796 111.067 189.895 112.935 189.895 115.603C189.895 118.271 191.71 120.161 194.173 120.161C196.354 120.161 198.363 118.66 198.363 115.625C198.363 112.59 196.322 111.067 194.173 111.067Z" fill="#FFC200"/>
<path d="M207.774 116.597C208.141 118.866 209.923 120.248 212.31 120.248C213.757 120.248 215.118 119.708 216.361 118.606L217.775 120.648C216.188 122.149 214.352 122.884 212.224 122.884C207.979 122.884 204.749 119.741 204.749 115.636C204.663 111.64 208.011 108.27 211.943 108.356C215.626 108.356 218.37 111.1 218.37 114.729C218.37 115.323 218.283 115.949 218.143 116.597H207.774ZM215.399 114.275C215.367 112.147 213.779 110.873 211.835 110.873C209.891 110.873 208.292 112.201 207.838 114.275H215.399Z" fill="#FFC200"/>
<path d="M229.721 111.293H228.814C226.459 111.293 224.731 112.687 224.731 115.149V122.57H221.76V108.658H224.536V110.473C225.53 109.23 226.999 108.518 228.587 108.518C229.008 108.518 229.375 108.572 229.721 108.658V111.293Z" fill="#FFC200"/>
</svg>
