<svg width="288" height="34" viewBox="0 0 288 34" fill="none" xmlns="http://www.w3.org/2000/svg">
<path d="M18.1007 10.5643C18.1007 15.2857 14.2993 19.0736 9.4021 19.0736H5.68185V26.8793H0V2.05508H9.4021C14.2993 2.05508 18.1007 5.85651 18.1007 10.5779V10.5643ZM12.4189 10.5643C12.4189 8.75155 11.1472 7.37167 9.4021 7.37167H5.68185V13.757H9.4021C11.1472 13.757 12.4189 12.3771 12.4189 10.5643Z" fill="#173371"/>
<path d="M32.8212 8.79258V14.8262C30.6161 14.4744 27.5046 15.3538 27.5046 18.8711V26.8933H22.188V9.14431H27.5046V12.2964C28.208 9.91542 30.589 8.77905 32.8212 8.77905V8.79258Z" fill="#173371"/>
<path d="M36.5415 4.39597C36.5415 2.65083 38.0026 1.20331 39.7342 1.20331C41.4658 1.20331 42.9268 2.66435 42.9268 4.39597C42.9268 6.12758 41.4658 7.58862 39.7342 7.58862C38.0026 7.58862 36.5415 6.12758 36.5415 4.39597ZM37.0691 9.14437H42.3857V26.8934H37.0691V9.14437Z" fill="#173371"/>
<path d="M65.2829 9.14438L58.7217 26.8934H52.6881L46.127 9.14438H52.0117L55.7049 20.3998L59.3981 9.14438H65.2829Z" fill="#173371"/>
<path d="M86.5014 9.14484V26.8939H81.1848V25.2299C80.0078 26.5827 78.2762 27.3944 75.8953 27.3944C71.2416 27.3944 67.4131 23.3089 67.4131 18.0329C67.4131 12.7569 71.2416 8.67136 75.8953 8.67136C78.2762 8.67136 80.0078 9.48305 81.1848 10.8359V9.1719H86.5014V9.14484ZM81.1848 18.0193C81.1848 15.3543 79.4126 13.6903 76.964 13.6903C74.5154 13.6903 72.7432 15.3543 72.7432 18.0193C72.7432 20.6844 74.5154 22.3484 76.964 22.3484C79.4126 22.3484 81.1848 20.6844 81.1848 18.0193Z" fill="#173371"/>
<path d="M91.2856 18.018C91.2856 12.7285 95.29 8.65646 100.688 8.65646C104.124 8.65646 107.181 10.4692 108.71 13.2019L104.056 15.8941C103.447 14.6495 102.176 13.9054 100.62 13.9054C98.3068 13.9054 96.6158 15.5694 96.6158 18.018C96.6158 20.4666 98.3203 22.1306 100.62 22.1306C102.176 22.1306 103.488 21.3865 104.056 20.1419L108.71 22.807C107.181 25.5803 104.164 27.3795 100.688 27.3795C95.29 27.3795 91.2856 23.294 91.2856 18.018Z" fill="#173371"/>
<path d="M129.642 9.14438L123.581 26.3523C121.592 31.9935 118.44 34.2257 113.462 33.9822V29.0173C115.951 29.0173 117.114 28.2327 117.899 26.0682L110.837 9.14438H116.695L120.632 20.0075L123.973 9.14438H129.655H129.642Z" fill="#173371"/>
<path d="M138.572 3.59851H145.918C153.588 3.59851 158.661 8.34691 158.661 15.2734C158.661 22.1998 153.548 27.0158 145.918 27.0158H138.572V3.59851ZM145.877 23.6473C151.302 23.6473 154.779 20.1706 154.779 15.2734C154.779 10.3761 151.342 7.00762 145.877 7.00762H142.333V23.6473H145.877Z" fill="#FFC200"/>
<path d="M165.571 19.5348C166.031 22.3757 168.263 24.1073 171.253 24.1073C173.066 24.1073 174.77 23.4309 176.326 22.0511L178.098 24.6079C176.11 26.4883 173.81 27.4082 171.145 27.4082C165.828 27.4082 161.783 23.4715 161.783 18.3308C161.675 13.3254 165.869 9.10456 170.793 9.21279C175.406 9.21279 178.842 12.649 178.842 17.1944C178.842 17.9385 178.734 18.7231 178.558 19.5348H165.571ZM175.122 16.6262C175.082 13.9612 173.093 12.3649 170.658 12.3649C168.223 12.3649 166.221 14.0288 165.652 16.6262H175.122Z" fill="#FFC200"/>
<path d="M187.46 9.5915H191.573V12.8247H187.46V27.0158H183.74V12.8247H181.251V9.5915H183.74V6.07416C183.74 1.98865 186.121 0 189.95 0C190.91 0 191.695 0.108226 192.358 0.324677V3.49028C191.789 3.42264 191.289 3.38205 190.87 3.38205C188.597 3.38205 187.46 4.16669 187.46 6.39884V9.5915Z" fill="#FFC200"/>
<path d="M197.219 19.5348C197.679 22.3757 199.911 24.1073 202.901 24.1073C204.714 24.1073 206.418 23.4309 207.974 22.0511L209.746 24.6079C207.758 26.4883 205.458 27.4082 202.793 27.4082C197.476 27.4082 193.431 23.4715 193.431 18.3308C193.323 13.3254 197.517 9.10456 202.441 9.21279C207.054 9.21279 210.49 12.649 210.49 17.1944C210.49 17.9385 210.382 18.7231 210.206 19.5348H197.219ZM206.77 16.6262C206.729 13.9612 204.741 12.3649 202.306 12.3649C199.871 12.3649 197.869 14.0288 197.3 16.6262H206.77Z" fill="#FFC200"/>
<path d="M229.973 27.0157H226.252V16.6125C226.252 14.2044 224.724 12.5675 222.451 12.5675C220.178 12.5675 218.474 14.2315 218.474 16.6125V27.0157H214.753V9.59132H218.23V11.2959C219.542 9.916 221.274 9.19901 223.452 9.19901C227.538 9.19901 229.986 11.9723 229.986 16.1119V27.0021L229.973 27.0157Z" fill="#FFC200"/>
<path d="M252.14 0.406952V27.0169H248.663V24.5277C247.391 26.3405 245.146 27.3957 242.562 27.3957C237.665 27.3957 234.053 23.459 234.053 18.3183C233.944 13.2452 237.746 9.09206 242.562 9.20029C244.97 9.20029 247.067 10.1202 248.379 11.7165V0.406952H252.14ZM243.198 12.6094C240.221 12.6094 237.84 14.9498 237.84 18.2912C237.84 21.6327 240.113 24.0001 243.198 24.0001C245.93 24.0001 248.447 22.1197 248.447 18.3183C248.447 14.5169 245.89 12.6094 243.198 12.6094Z" fill="#FFC200"/>
<path d="M260.233 19.5348C260.693 22.3757 262.925 24.1073 265.915 24.1073C267.727 24.1073 269.432 23.4309 270.988 22.0511L272.76 24.6079C270.771 26.4883 268.471 27.4082 265.806 27.4082C260.49 27.4082 256.445 23.4715 256.445 18.3308C256.337 13.3254 260.53 9.10456 265.455 9.21279C270.068 9.21279 273.504 12.649 273.504 17.1944C273.504 17.9385 273.396 18.7231 273.22 19.5348H260.233ZM269.784 16.6262C269.743 13.9612 267.754 12.3649 265.319 12.3649C262.884 12.3649 260.882 14.0288 260.314 16.6262H269.784Z" fill="#FFC200"/>
<path d="M287.721 12.8926H286.585C283.636 12.8926 281.471 14.6378 281.471 17.7222V27.0161H277.751V9.59176H281.228V11.8645C282.472 10.3088 284.312 9.41589 286.301 9.41589C286.828 9.41589 287.288 9.48353 287.721 9.59176V12.8926Z" fill="#FFC200"/>
</svg>
