<svg width="21" height="24" viewBox="0 0 21 24" fill="none" xmlns="http://www.w3.org/2000/svg">
<path d="M10.2896 0C11.435 0.514574 12.5798 1.03036 13.7258 1.54311C15.6602 2.40842 17.5927 3.27737 19.5313 4.13176C20.0144 4.34475 20.2189 4.6882 20.2171 5.20945C20.2092 7.48741 20.2128 9.76598 20.214 12.0439C20.2152 14.1611 19.6694 16.1272 18.6072 17.9506C18.3267 18.4324 17.8062 18.5932 17.3545 18.3402C16.9015 18.0865 16.7567 17.5301 17.0366 17.0471C17.6928 15.9142 18.1349 14.7048 18.3093 13.4044C18.3684 12.9639 18.3871 12.5148 18.3889 12.0694C18.3967 9.99535 18.3907 7.92189 18.3961 5.84782C18.3961 5.68155 18.3509 5.60084 18.1922 5.53045C15.5414 4.35385 12.8947 3.16754 10.2438 1.99094C10.1497 1.94907 10.008 1.93875 9.91748 1.97941C7.27925 3.16087 4.64525 4.35082 2.01003 5.53834C1.90569 5.58567 1.82064 5.61965 1.82124 5.77257C1.8321 8.0657 1.80677 10.3594 1.8502 12.6526C1.88096 14.2861 2.41295 15.7898 3.26159 17.1751C4.20072 18.7079 5.43901 19.9349 7.06754 20.7067C9.5785 21.8973 11.9863 21.623 14.2759 20.0926C14.5733 19.8942 14.8622 19.7249 15.2355 19.8469C15.5914 19.9634 15.8049 20.211 15.8689 20.5726C15.931 20.9203 15.811 21.225 15.5305 21.4337C14.3803 22.2899 13.1064 22.8834 11.692 23.1133C8.0519 23.7068 5.14949 22.3354 2.79414 19.6212C1.42979 18.0489 0.573304 16.2079 0.197535 14.1562C0.0769028 13.4979 0.0183962 12.82 0.0117614 12.1507C-0.00934923 9.81149 0.00452348 7.47285 0.00392031 5.1336C0.00392031 4.67 0.204773 4.35203 0.633017 4.15967C3.62047 2.81802 6.60431 1.46969 9.58936 0.123182C9.6738 0.08556 9.75523 0.041263 9.83786 0C9.98865 0 10.1388 0 10.2896 0Z" fill="#173371"/>
<path d="M7.40094 9.25689C7.40094 8.87824 7.40033 8.51537 7.40094 8.1525C7.40395 6.76109 8.40882 5.58084 9.73517 5.41155C11.1363 5.23254 12.4048 6.10877 12.7425 7.49775C12.7884 7.68647 12.8077 7.8855 12.8131 8.08029C12.824 8.46561 12.8161 8.85154 12.8161 9.25386C13.3843 9.34488 13.8704 9.59064 14.2468 10.03C14.6196 10.465 14.8011 10.9736 14.8017 11.547C14.8029 13.0234 14.8029 14.4991 14.8017 15.9755C14.8017 16.5756 14.4344 16.9537 13.8349 16.9561C12.6683 16.9609 11.5024 16.9579 10.3359 16.9579C9.04154 16.9579 7.74776 16.9585 6.45337 16.9579C5.76516 16.9579 5.41593 16.6035 5.41533 15.9118C5.41533 14.4736 5.41412 13.0355 5.41533 11.5967C5.41654 10.3771 6.18014 9.4717 7.40033 9.2575L7.40094 9.25689ZM12.9922 15.1199C12.9922 13.9123 12.9971 12.7248 12.9892 11.5373C12.9874 11.226 12.8028 11.0737 12.4729 11.0737C10.9077 11.0725 9.34312 11.0725 7.77791 11.0737C7.37741 11.0737 7.22602 11.229 7.22542 11.6404C7.22421 12.4657 7.22542 13.2903 7.22542 14.1156C7.22542 14.4469 7.22542 14.7782 7.22542 15.1199H12.9928H12.9922ZM11.006 9.22959C11.006 8.82606 11.0283 8.43285 11.0006 8.04388C10.9656 7.55904 10.5832 7.22166 10.1188 7.21862C9.64892 7.21619 9.26169 7.53902 9.22128 8.02446C9.1881 8.42071 9.21464 8.82181 9.21464 9.23019H11.0066L11.006 9.22959Z" fill="#FFC200"/>
</svg>
