<svg width="24" height="24" viewBox="0 0 24 24" fill="none" xmlns="http://www.w3.org/2000/svg">
<g clip-path="url(#clip0_5424_5104)">
<path d="M3.95471 23.2501C3.6529 23.1669 3.34068 23.0836 3.03886 22.9796C1.2592 22.3759 0.0207158 20.6691 0.0103084 18.7958C-9.89543e-05 16.4333 -0.0105064 14.0708 0.0103084 11.7083C0.0311232 9.30423 2.03975 7.2956 4.44386 7.26438C5.01627 7.26438 5.57827 7.26438 6.15067 7.26438C6.69186 7.26438 7.08734 7.64945 7.09775 8.15942C7.09775 8.67979 6.70227 9.07527 6.15067 9.07527C5.6303 9.07527 5.10993 9.07527 4.57916 9.07527C3.03886 9.07527 1.8316 10.2825 1.8212 11.8228C1.8212 14.1125 1.8212 16.3917 1.8212 18.6813C1.8212 20.2216 3.02845 21.4289 4.56875 21.4289C9.27289 21.4289 13.9874 21.4289 18.6916 21.4289C20.2319 21.4289 21.4391 20.2216 21.4391 18.6709C21.4391 16.3917 21.4391 14.1125 21.4391 11.8332C21.4391 10.2721 20.2319 9.07527 18.6812 9.06486C18.1712 9.06486 17.6509 9.06486 17.1409 9.06486C16.5893 9.06486 16.1834 8.67979 16.173 8.16982C16.173 7.63905 16.5789 7.25397 17.1409 7.25397C17.859 7.25397 18.5771 7.23316 19.2952 7.30601C21.179 7.48294 22.8233 9.03364 23.1668 10.8966C23.1876 11.0215 23.2292 11.1359 23.2604 11.2504V19.2849C23.2292 19.3682 23.198 19.441 23.1772 19.5243C22.7713 21.356 21.6681 22.532 19.878 23.0836C19.6595 23.1461 19.4305 23.1877 19.212 23.2397H3.95471V23.2501Z" fill="#173371"/>
<path d="M12.5409 7.11866C11.4065 6.61911 10.7612 5.79692 10.73 4.55844C10.6988 3.46566 11.3649 2.46655 12.3744 2.03985C12.4993 1.98781 12.5409 1.93578 12.5409 1.79007C12.5305 1.49867 12.5409 1.19685 12.5409 0.905444C12.5513 0.395481 12.9468 0 13.4463 0C13.9459 0 14.3518 0.395481 14.3518 0.905444C14.3518 1.2593 14.3518 1.61315 14.3518 1.95659C15.4758 2.44574 16.1419 3.26792 16.1627 4.48559C16.1835 5.75529 15.5174 6.6087 14.3622 7.11866C14.3622 8.04492 14.3622 8.97118 14.3622 9.90785C14.3622 11.3649 13.4047 12.4785 11.9581 12.697C10.3866 12.9364 8.83587 11.5314 8.90872 9.94948C8.92953 9.47074 9.32502 9.09607 9.79335 9.08566C10.2825 9.07525 10.678 9.43951 10.7196 9.92866C10.73 10.064 10.7404 10.1993 10.7925 10.3241C10.9382 10.7196 11.3649 10.959 11.7708 10.8965C12.1871 10.8237 12.5305 10.4803 12.5305 10.0535C12.5409 9.07525 12.5305 8.09696 12.5305 7.11866H12.5409ZM13.4463 5.44307C13.9459 5.44307 14.3622 5.03718 14.3622 4.54803C14.3622 4.04848 13.9667 3.63218 13.4672 3.63218C12.9676 3.63218 12.5513 4.02766 12.5513 4.52722C12.5513 5.02677 12.9468 5.44307 13.4463 5.44307Z" fill="#FFC200"/>
<path d="M11.625 18.1714C10.9694 18.161 10.3761 17.932 9.85577 17.5053C7.85755 15.8505 5.84892 14.2062 3.8507 12.5514C3.40318 12.1871 3.33033 11.6459 3.67377 11.2296C4.00681 10.8237 4.5584 10.7821 5.00592 11.1464C6.99373 12.7803 8.97114 14.4143 10.959 16.0483C11.4377 16.4437 11.8436 16.4542 12.3223 16.0483C14.3101 14.4143 16.2875 12.7803 18.2754 11.1464C18.598 10.8758 18.9518 10.8029 19.3265 10.9903C19.6699 11.1672 19.8365 11.4586 19.8157 11.8437C19.8157 12.1455 19.6491 12.364 19.4202 12.5514C17.9735 13.7378 16.5269 14.9347 15.0803 16.1315C14.5183 16.5894 13.9563 17.0578 13.4047 17.5157C12.8947 17.932 12.3119 18.1506 11.6354 18.161L11.625 18.1714Z" fill="#173371"/>
</g>
<defs>
<clipPath id="clip0_5424_5104">
<rect width="23.2605" height="23.2501" fill="white"/>
</clipPath>
</defs>
</svg>
