<svg width="35" height="41" viewBox="0 0 35 41" fill="none" xmlns="http://www.w3.org/2000/svg">
<g clip-path="url(#clip0_5431_628)">
<path d="M24.7936 0C25.5825 0.497439 25.6284 0.978015 24.9483 1.6542C24.3023 2.29496 23.6563 2.93573 22.9848 3.60179C25.7355 5.60673 27.1142 8.30976 27.2145 11.7025H6.80029C6.8904 8.32156 8.26574 5.6219 11.0317 3.59842C10.3925 2.96777 9.76688 2.35061 9.14126 1.73176C8.40344 0.999936 8.40174 0.693042 9.13786 0H9.69378C10.6118 0.858293 11.5281 1.7149 12.4479 2.57488C15.4825 1.25962 18.5306 1.25962 21.6128 2.5968C21.7199 2.48382 21.8321 2.35398 21.9563 2.23595C22.7417 1.49063 23.5305 0.745315 24.3176 0H24.7936ZM20.0063 7.48856C20.0029 8.19172 20.5486 8.74481 21.2456 8.74987C21.941 8.75492 22.502 8.20184 22.5054 7.50711C22.5088 6.81407 21.9529 6.24412 21.2643 6.23569C20.5809 6.22726 20.008 6.79721 20.0063 7.48856ZM14.0034 7.50374C14.0051 6.8107 13.4475 6.24075 12.759 6.23738C12.0756 6.23232 11.5043 6.80395 11.5026 7.49362C11.5026 8.19172 12.0535 8.74818 12.7488 8.74987C13.4475 8.75155 14 8.20184 14.0034 7.50374Z" fill="white"/>
<path d="M23.8193 31.9271C23.8193 33.836 23.8193 35.6992 23.8193 37.5625C23.8193 38.2488 23.6697 38.8896 23.1971 39.4191C22.5103 40.1863 21.6619 40.5472 20.6419 40.2639C19.5845 39.9705 18.9351 39.2623 18.7481 38.1729C18.7056 37.9284 18.692 37.6772 18.692 37.4293C18.6869 35.7481 18.6903 34.067 18.6903 32.3858V31.9457H15.3259C15.3259 32.089 15.3259 32.2273 15.3259 32.3656C15.3259 34.126 15.331 35.8847 15.3259 37.6452C15.3208 38.9604 14.5489 39.9637 13.3181 40.2824C11.9785 40.6281 10.4382 39.6096 10.258 38.2471C10.2172 37.9369 10.1985 37.6199 10.1968 37.3062C10.1917 35.6638 10.1934 34.0231 10.1934 32.3807V31.9204C9.57628 31.9204 8.99656 31.9305 8.41684 31.9187C7.49881 31.8968 6.8987 31.3167 6.82729 30.4028C6.81709 30.2713 6.80859 30.1414 6.80859 30.0099C6.80859 24.5853 6.80859 19.1607 6.80859 13.736V13.4123H27.2092C27.2092 13.5556 27.2092 13.6939 27.2092 13.8339C27.2092 19.1927 27.2092 24.5516 27.2041 29.9104C27.2041 30.2207 27.1837 30.5444 27.1004 30.8412C26.9185 31.4853 26.3711 31.8867 25.6996 31.917C25.3953 31.9305 25.0909 31.9254 24.7866 31.9271C24.484 31.9271 24.1814 31.9271 23.8244 31.9271H23.8193Z" fill="white"/>
<path d="M34.0078 21.8283C34.0078 23.7455 34.0129 25.6628 34.0078 27.5817C34.0027 28.9678 33.1034 30.0015 31.7263 30.224C30.4734 30.4264 29.0471 29.3202 28.9332 28.0539C28.9094 27.779 28.8975 27.5042 28.8975 27.2293C28.8958 23.5516 28.9026 19.8739 28.8924 16.1963C28.889 15.1744 29.246 14.3498 30.1232 13.7951C30.9205 13.2909 31.762 13.2437 32.6019 13.6973C33.5165 14.1913 33.9959 14.9704 34.0044 15.999C34.0214 17.9432 34.0095 19.8874 34.0095 21.83L34.0078 21.8283Z" fill="white"/>
<path d="M0.00159866 21.8333C0.00159866 19.9026 -0.00520154 17.9719 0.00329872 16.0411C0.0100989 14.4797 1.24944 13.3044 2.77438 13.4055C3.81481 13.4747 5.13745 14.4122 5.12215 16.149C5.09665 18.9988 5.11875 21.8485 5.11365 24.6999C5.11365 25.7758 5.12895 26.8549 5.07455 27.9291C5.01165 29.1668 3.93212 30.165 2.64518 30.2527C1.50784 30.3303 0.304208 29.3809 0.0730008 28.2124C0.0253994 27.9695 0.00329872 27.7183 0.00329872 27.4704C-0.000101388 25.5903 0.00159866 23.7118 0.00159866 21.8333Z" fill="white"/>
<path d="M20.0061 7.48856C20.0095 6.7972 20.5807 6.22894 21.2642 6.23569C21.9527 6.24412 22.5103 6.81406 22.5052 7.50711C22.5018 8.20183 21.9408 8.75323 21.2455 8.74986C20.5467 8.7448 20.0027 8.19172 20.0061 7.48856Z" fill="#173371"/>
<path d="M14.0032 7.50373C14.0015 8.20352 13.4473 8.75323 12.7486 8.74986C12.0533 8.74817 11.5007 8.19171 11.5024 7.49361C11.5024 6.80394 12.0754 6.23231 12.7588 6.23737C13.4473 6.24243 14.0049 6.81069 14.0032 7.50373Z" fill="#173371"/>
</g>
<defs>
<clipPath id="clip0_5431_628">
<rect width="34.0112" height="40.36" fill="white"/>
</clipPath>
</defs>
</svg>
