<svg width="208" height="56" viewBox="0 0 208 56" fill="none" xmlns="http://www.w3.org/2000/svg">
<path d="M69.7989 55.9302V48.0511C71.3263 48.0511 72.7853 48.1104 74.2356 48.0379C77.3785 47.8817 79.4305 46.2413 80.1865 42.8834C76.9708 44.8955 73.5171 45.0187 69.9973 44.2798C64.928 43.2133 61.5117 40.1126 59.8279 35.2638C57.8178 29.487 58.2498 23.9168 61.8556 18.7997C64.7341 14.7183 68.7652 12.7986 73.7088 12.9152C77.6143 13.0075 80.7618 14.8701 83.5499 17.5331C84.1956 16.7481 84.9913 15.952 85.5754 15.0262C86.1837 14.0609 86.955 13.8695 88.0196 14.1026C88.0725 14.3006 88.1072 14.503 88.1232 14.7073C88.1232 23.565 88.1804 32.4248 88.035 41.2803C88.0041 43.167 87.4531 45.1462 86.7126 46.901C85.1697 50.5118 82.5404 53.1638 78.798 54.5976C77.5461 55.0748 76.2699 55.4904 75.007 55.9346L69.7989 55.9302ZM73.2526 20.4995C71.6922 20.6337 70.253 20.8778 68.9482 22.0081C66.3496 24.2577 65.8757 27.0945 66.1579 30.2501C66.4069 33.0538 67.9211 35.1627 70.286 36.4073C72.5738 37.597 74.9475 37.4826 77.1912 35.7476C79.9992 33.5706 81.0439 30.8328 80.6626 27.3913C80.3055 24.1324 76.6711 20.0531 73.2526 20.4995Z" fill="white"/>
<path d="M0.00215237 3.64453C0.368021 3.67312 0.733889 3.72593 1.10417 3.73032C6.47979 3.7787 11.8598 3.73028 17.231 3.9018C20.2348 4.01414 23.0979 5.20054 25.2978 7.24436C30.7615 12.1988 32.4366 19.3962 29.8248 26.0504C27.4489 32.0999 21.8088 36.0757 15.5207 35.8888C13.0412 35.814 10.5594 35.8757 7.88155 35.8757V44.1594H0.262266L0.209318 28.1834C0.731672 28.1504 1.25184 28.0911 1.7742 28.0889C6.17123 28.0889 10.5771 27.935 14.9653 28.1241C19.2654 28.3088 22.6177 24.8717 23.2216 21.384C24.1032 16.2779 20.3916 12.0558 16.0629 11.7083L15.5648 11.6468C11.1479 11.6468 6.73178 11.6527 2.31638 11.6644C1.61109 11.6644 0.905838 11.594 0.202753 11.5566C0.202753 9.49393 0.224793 7.42907 0.202753 5.36638C0.167681 4.936 0.0999127 4.50888 0 4.08874L0.00215237 3.64453Z" fill="white"/>
<path d="M0.00317383 28.211L0.205927 28.1846L0.258875 44.1605L0.00317383 44.2111V28.211Z" fill="white"/>
<path d="M0.199362 11.5645L0.00317383 11.5337V4.09668C0.103087 4.51682 0.170854 4.94383 0.205927 5.37422C0.221355 7.4369 0.20377 9.50187 0.199362 11.5645Z" fill="white"/>
<path d="M119.097 19.2962L105.276 36.7631C107.947 37.6669 111.084 36.851 113.764 32.7081L118.948 38.2056C117.019 41.2491 114.348 43.2502 110.925 44.143C106.252 45.3591 101.836 44.6421 98.049 41.6119C94.7694 38.9884 92.9357 35.4062 92.4266 31.2303C92.0497 28.1517 92.3119 25.1148 93.4999 22.1857C95.5254 17.1918 99.0672 14.0494 104.447 13.1324C108.97 12.3627 113.023 13.4908 116.521 16.4199C117.489 17.2115 118.216 18.2846 119.097 19.2962ZM100.487 32.8554L109.058 20.9411C106.936 19.8789 104.172 20.6288 102.027 22.6365C99.4816 25.0334 99.1422 29.4513 100.487 32.8554Z" fill="white"/>
<path d="M193.759 36.8238C197.24 37.6617 199.669 36.4478 202.291 32.7051L207.475 38.2181C205.78 40.7843 203.598 42.7371 200.669 43.7398C195.49 45.5122 190.577 44.9185 186.343 41.4155C183.2 38.8118 181.419 35.2779 180.947 31.157C180.529 27.4978 180.965 23.975 182.656 20.6765C187.198 11.8144 198.234 10.7148 204.93 16.3092C205.943 17.1558 206.726 18.2751 207.632 19.2866L193.759 36.8238ZM197.621 20.8721C195.071 20.164 192.38 20.4148 190.017 23.168C188 25.5232 187.72 30.2356 189.065 32.7865L197.621 20.8721Z" fill="white"/>
<path d="M122.955 14.1123C125.335 13.4834 125.65 15.8276 127.067 16.7006C128.831 15.2536 130.83 14.1255 133.168 13.6923C137.395 12.9116 141.244 13.811 144.336 16.7709C147.064 19.3943 148.583 22.7258 148.605 26.5939C148.636 32.0761 148.62 37.5605 148.623 43.0427V44.1092H141.281C141.281 43.6936 141.281 43.2626 141.281 42.8316C141.281 37.5363 141.224 32.2388 141.33 26.9458C141.389 23.9903 138.59 21.1514 136.165 20.9513C133.034 20.6918 130.096 23.9089 130.118 26.7479C130.16 32.0431 130.133 37.3384 130.135 42.6337V44.1224H122.955V14.1123Z" fill="white"/>
<path d="M179.148 19.8633L174.035 25.3125C173.045 24.1734 172.051 23.1773 171.234 22.0514C169.792 20.0723 164.661 20.1866 162.858 22.0096C160.242 24.6484 159.319 27.6017 159.965 31.0959C160.182 32.2334 160.679 33.2991 161.413 34.1966C163.703 36.9014 165.891 37.9063 169.568 36.6155C170.89 36.1471 171.924 34.7749 173.054 33.7788C173.35 33.5193 173.519 33.1191 173.819 32.6793L179.023 38.2054C176.856 41.5347 173.881 43.6039 170.063 44.3516C165.717 45.2026 161.615 44.4286 158.162 41.6248C154.92 38.9992 152.923 35.5379 152.475 31.2894C151.929 26.1041 153.357 21.5676 156.749 17.5675C161.671 11.7797 170.872 11.1904 176.739 16.7341C177.654 17.6269 178.322 18.7814 179.148 19.8633Z" fill="white"/>
<path d="M34.2083 1.87012H41.4616V44.1111H34.2083V1.87012Z" fill="white"/>
<path d="M54.4681 44.1524H47.2742V14.0742H54.4681V44.1524Z" fill="white"/>
<path d="M50.7896 0.489258C53.494 0.489258 55.7817 2.81581 55.7729 5.64815C55.7729 8.87412 53.635 10.607 51.1731 10.7478C48.1139 10.9237 45.9716 8.72681 46.0003 5.67897C46.0267 2.66851 48.1823 0.623398 50.7896 0.489258Z" fill="#FFC200"/>
<path d="M16.0596 11.7159L15.5615 11.6543L16.0596 11.7159Z" fill="white"/>
</svg>
