<svg width="131" height="35" viewBox="0 0 131 35" fill="none" xmlns="http://www.w3.org/2000/svg">
<path d="M44.5728 34.7119V29.7788C45.5291 29.7788 46.4426 29.8159 47.3506 29.7705C49.3185 29.6727 50.6032 28.6456 51.0765 26.5432C49.0632 27.803 46.9008 27.8801 44.697 27.4175C41.5231 26.7498 39.3842 24.8085 38.3299 21.7726C37.0714 18.1557 37.3419 14.6682 39.5995 11.4643C41.4017 8.90894 43.9256 7.70701 47.0208 7.77999C49.4661 7.83781 51.4367 9.00398 53.1824 10.6713C53.5867 10.1798 54.0848 9.68139 54.4505 9.10175C54.8314 8.49732 55.3144 8.37751 55.9809 8.52345C56.014 8.64743 56.0357 8.77416 56.0458 8.90208C56.0458 14.4479 56.0816 19.9951 55.9905 25.5395C55.9712 26.7208 55.6262 27.96 55.1625 29.0587C54.1966 31.3194 52.5503 32.9799 50.2072 33.8776C49.4234 34.1763 48.6243 34.4366 47.8336 34.7147L44.5728 34.7119ZM46.7352 12.5286C45.7582 12.6126 44.8571 12.7655 44.0402 13.4731C42.4132 14.8816 42.1165 16.6577 42.2931 18.6335C42.4491 20.3889 43.3971 21.7093 44.8778 22.4885C46.3102 23.2334 47.7964 23.1618 49.2012 22.0755C50.9592 20.7125 51.6133 18.9983 51.3746 16.8436C51.1511 14.8031 48.8755 12.2491 46.7352 12.5286Z" fill="#173371"/>
<path d="M0.872685 1.97559C1.10176 1.99348 1.33083 2.02655 1.56266 2.0293C4.92836 2.05959 8.29682 2.02927 11.6598 2.13666C13.5404 2.207 15.3331 2.94981 16.7104 4.22945C20.1313 7.33143 21.1801 11.8378 19.5448 16.004C18.0572 19.7916 14.526 22.2809 10.5889 22.1639C9.0365 22.1171 7.48265 22.1557 5.80601 22.1557V27.3421H1.03554L1.00239 17.3395C1.32944 17.3188 1.65512 17.2817 1.98217 17.2803C4.73518 17.2803 7.49371 17.184 10.2412 17.3024C12.9335 17.418 15.0324 15.266 15.4105 13.0824C15.9625 9.8854 13.6386 7.24191 10.9284 7.02437L10.6165 6.98585C7.85108 6.98585 5.08614 6.98953 2.32163 6.99687C1.88005 6.99687 1.43849 6.95278 0.998283 6.92938C0.998283 5.63792 1.01208 4.3451 0.998283 3.05365C0.976324 2.78418 0.933894 2.51676 0.871338 2.25371L0.872685 1.97559Z" fill="#173371"/>
<path d="M0.873291 17.3564L1.00024 17.3398L1.03339 27.3425L0.873291 27.3741V17.3564Z" fill="#173371"/>
<path d="M0.996126 6.93397L0.873291 6.91468V2.2583C0.935847 2.52135 0.978277 2.78871 1.00024 3.05817C1.0099 4.34963 0.998886 5.64252 0.996126 6.93397Z" fill="#173371"/>
<path d="M75.4388 11.7748L66.7852 22.7109C68.4577 23.2768 70.4213 22.766 72.0993 20.1721L75.345 23.6141C74.1375 25.5196 72.465 26.7726 70.322 27.3315C67.3965 28.0929 64.631 27.644 62.2603 25.7468C60.2069 24.1042 59.0588 21.8614 58.7401 19.2468C58.5041 17.3193 58.6683 15.4179 59.412 13.584C60.6802 10.4572 62.8978 8.48978 66.2663 7.91564C69.0979 7.43376 71.6357 8.14003 73.8257 9.97395C74.4315 10.4696 74.8868 11.1415 75.4388 11.7748ZM63.7865 20.2643L69.1532 12.8047C67.8243 12.1397 66.0938 12.6092 64.7511 13.8662C63.1572 15.3669 62.9448 18.133 63.7865 20.2643Z" fill="#173371"/>
<path d="M122.185 22.7491C124.364 23.2737 125.885 22.5137 127.527 20.1703L130.773 23.6221C129.711 25.2288 128.345 26.4514 126.511 27.0792C123.268 28.189 120.192 27.8172 117.542 25.624C115.574 23.9938 114.459 21.7812 114.163 19.2011C113.901 16.91 114.175 14.7044 115.233 12.6392C118.077 7.09061 124.986 6.40215 129.179 9.90478C129.814 10.4349 130.303 11.1357 130.871 11.769L122.185 22.7491ZM124.603 12.7617C123.006 12.3183 121.321 12.4754 119.842 14.1991C118.579 15.6737 118.404 18.6242 119.246 20.2213L124.603 12.7617Z" fill="#173371"/>
<path d="M77.8538 8.52957C79.3441 8.1358 79.5415 9.6035 80.4288 10.1501C81.5327 9.24415 82.7843 8.53781 84.2484 8.26658C86.8952 7.77781 89.3046 8.34093 91.2406 10.1941C92.949 11.8367 93.8998 13.9225 93.9136 16.3444C93.9329 19.7768 93.9233 23.2106 93.9247 26.643V27.3108H89.328C89.328 27.0506 89.328 26.7807 89.328 26.5108C89.328 23.1955 89.2922 19.8787 89.3584 16.5647C89.3957 14.7142 87.6431 12.9368 86.1252 12.8115C84.1643 12.649 82.3248 14.6633 82.3386 16.4408C82.3648 19.7561 82.3483 23.0716 82.3496 26.3869V27.319H77.8538V8.52957Z" fill="#173371"/>
<path d="M113.037 12.13L109.836 15.5418C109.216 14.8286 108.594 14.2049 108.082 13.5C107.179 12.2609 103.967 12.3325 102.838 13.4738C101.2 15.126 100.622 16.9751 101.026 19.1628C101.162 19.875 101.474 20.5423 101.933 21.1042C103.366 22.7977 104.737 23.4269 107.038 22.6187C107.866 22.3254 108.514 21.4663 109.222 20.8426C109.406 20.6801 109.513 20.4295 109.7 20.1542L112.958 23.6141C111.602 25.6986 109.739 26.9942 107.349 27.4623C104.628 27.9951 102.06 27.5105 99.8972 25.755C97.8673 24.1111 96.6171 21.944 96.3369 19.284C95.9947 16.0374 96.8889 13.1971 99.0127 10.6926C102.094 7.06886 107.855 6.69987 111.529 10.1708C112.101 10.7298 112.52 11.4526 113.037 12.13Z" fill="#173371"/>
<path d="M22.2893 0.864258H26.8307V27.3115H22.2893V0.864258Z" fill="#173371"/>
<path d="M34.9742 27.338H30.47V8.50586H34.9742V27.338Z" fill="#173371"/>
<path d="M32.6709 0C34.3641 0 35.7965 1.45667 35.791 3.23001C35.791 5.2498 34.4524 6.3348 32.911 6.42291C30.9956 6.53306 29.6544 5.15758 29.6723 3.24931C29.6889 1.36444 31.0384 0.0839859 32.6709 0Z" fill="#FFC200"/>
<path d="M10.9263 7.02882L10.6145 6.99023L10.9263 7.02882Z" fill="#173371"/>
</svg>
