<svg width="37" height="36" viewBox="0 0 37 36" fill="none" xmlns="http://www.w3.org/2000/svg">
<g clip-path="url(#clip0_5419_4195)">
<path d="M36.6303 14.4944C36.4411 15.1624 35.9897 15.6153 35.5026 16.0579C33.1506 18.1943 30.8132 20.3468 28.4625 22.4846C28.2544 22.6741 28.1892 22.8387 28.253 23.1292C28.9924 26.472 29.7157 29.8186 30.4453 33.1636C30.6457 34.0811 30.4011 34.8895 29.7423 35.3651C29.0127 35.8919 28.2698 35.8575 27.5199 35.3878C24.6996 33.6216 21.8745 31.8635 19.057 30.0922C18.8377 29.9539 18.6828 29.9554 18.4648 30.0922C15.6362 31.8679 12.804 33.6362 9.96834 35.3995C8.7909 36.1319 7.41722 35.627 7.07941 34.3181C6.9897 33.9706 6.9904 33.5631 7.06539 33.2097C7.77746 29.861 8.50915 26.5159 9.25206 23.1746C9.32565 22.8417 9.24716 22.6566 9.00957 22.4407C6.54395 20.2005 4.09025 17.9455 1.63025 15.6987C0.980552 15.1053 0.716329 14.3781 0.983355 13.514C1.23917 12.6851 1.82158 12.2249 2.6591 12.1437C4.372 11.9768 6.08489 11.8137 7.79849 11.6513C9.41957 11.4976 11.0399 11.3411 12.6617 11.1991C12.907 11.1779 12.9862 11.0323 13.0682 10.8326C14.3564 7.67629 15.6537 4.52439 16.9377 1.36664C17.286 0.509166 17.8691 -0.00224891 18.769 -5.39985e-05C19.6556 0.00214091 20.231 0.514287 20.573 1.35348C21.85 4.48854 23.143 7.61629 24.406 10.7572C24.5539 11.1245 24.7648 11.1867 25.0858 11.2159C28.3511 11.5188 31.6157 11.8291 34.8789 12.1473C35.7641 12.2337 36.3191 12.7546 36.5701 13.6391C36.5827 13.6838 36.61 13.7233 36.631 13.765V14.4937L36.6303 14.4944Z" fill="#173371"/>
</g>
<defs>
<clipPath id="clip0_5419_4195">
<rect width="35.75" height="35.75" fill="white" transform="translate(0.880859)"/>
</clipPath>
</defs>
</svg>
