<svg width="12" height="15" viewBox="0 0 12 15" fill="none" xmlns="http://www.w3.org/2000/svg">
<path d="M11.9995 7.02322C11.9995 8.64057 12.0012 10.2575 11.9986 11.8748C11.9973 12.8489 11.4164 13.6618 10.5144 13.9329C10.303 13.9966 10.0733 14.0264 9.85181 14.0269C7.53805 14.0335 5.22429 14.0335 2.91053 14.03C1.68687 14.0282 0.77033 13.1121 0.764179 11.8911C0.760664 11.2114 0.758907 10.5316 0.765058 9.85193C0.769891 9.34401 1.21586 9.0092 1.68028 9.15464C1.97554 9.24734 2.16799 9.51185 2.16931 9.84006C2.1715 10.5088 2.16931 11.1775 2.17018 11.8463C2.17018 12.3463 2.45358 12.6323 2.95315 12.6323C5.23967 12.6332 7.52575 12.6332 9.81226 12.6323C10.311 12.6323 10.5922 12.3458 10.5922 11.8432C10.5922 8.62519 10.5922 5.40719 10.5922 2.1892C10.5922 1.67952 10.3105 1.3992 9.79688 1.3992C7.52135 1.3992 5.24626 1.3992 2.97073 1.3992C2.44699 1.3992 2.17018 1.67689 2.16974 2.20018C2.16974 2.85266 2.17062 3.50469 2.16974 4.15717C2.16887 4.59391 1.8758 4.9085 1.47158 4.91026C1.06779 4.91246 0.764179 4.60006 0.765497 4.16508C0.767694 3.38694 0.744407 2.60661 0.794936 1.83155C0.857766 0.871069 1.74794 0.0525108 2.71194 0.00901248C3.02389 -0.00504757 3.33673 0.00154308 3.64913 0.00154308C5.71639 0.0011037 7.78322 -0.000653807 9.85049 0.00198245C10.9129 0.00330058 11.7534 0.686092 11.9582 1.71379C11.9898 1.87373 11.9977 2.04069 11.9977 2.20414C12.0004 3.8105 11.9995 5.41642 11.9995 7.02278V7.02322Z" fill="white"/>
<path d="M6.78225 6.27458C6.66273 6.1643 6.54015 6.05753 6.42459 5.94329C6.01114 5.53511 5.59813 5.12649 5.18907 4.71347C4.98739 4.51004 4.92017 4.26136 5.01244 3.98806C5.10427 3.71653 5.30287 3.55352 5.58758 3.51178C5.84022 3.47487 6.04497 3.57461 6.2216 3.75168C7.0652 4.59792 7.911 5.44196 8.75637 6.28688C8.80294 6.33346 8.84951 6.38003 8.89565 6.4266C9.28406 6.81545 9.28625 7.21441 8.90092 7.59974C8.28843 8.21223 7.67594 8.82472 7.06345 9.43677C6.78049 9.71973 6.49885 10.004 6.21413 10.2852C5.89514 10.6007 5.46719 10.6117 5.17676 10.3151C4.89073 10.0229 4.90655 9.60286 5.21587 9.28958C5.72774 8.77112 6.24006 8.25353 6.77258 7.71486H6.59463C4.90611 7.71486 3.21758 7.7153 1.52906 7.71442C1.11121 7.71442 0.834844 7.49034 0.77465 7.11027C0.714016 6.7289 1.00356 6.35586 1.38802 6.32247C1.45876 6.31632 1.53038 6.3172 1.60156 6.3172C3.31688 6.3172 5.03265 6.3172 6.74797 6.3172L6.78181 6.27458H6.78225Z" fill="white"/>
</svg>
