<svg width="67" height="86" viewBox="0 0 67 86" fill="none" xmlns="http://www.w3.org/2000/svg">
<path d="M12.4222 61.4315C10.3413 61.4315 8.35017 61.4782 6.36388 61.4118C5.36952 61.3798 4.72925 60.726 4.55705 59.664C4.11323 56.9183 3.72034 54.1627 3.31532 51.412C2.61441 46.6333 1.92079 41.8522 1.22716 37.0711C0.819718 34.2565 0.388021 31.4469 0.0290811 28.6249C-0.169791 27.064 0.662076 26.1569 2.19484 26.1544C22.9187 26.1495 43.6426 26.1495 64.3665 26.1544C65.8411 26.1544 66.6996 27.0787 66.5008 28.5708C66.0157 32.2384 65.4652 35.8961 64.9341 39.5588C64.2404 44.3399 63.542 49.121 62.8483 53.8997C62.584 55.7162 62.3512 57.5353 62.0577 59.3469C61.8152 60.8513 61.0876 61.4413 59.5791 61.4462C57.7989 61.4511 56.0164 61.4462 54.1295 61.4462C54.1101 61.0849 54.081 60.7653 54.081 60.4433C54.0786 56.3947 54.081 52.3461 54.0786 48.2975C54.0737 44.5316 52.085 42.5307 48.3549 42.3144C44.021 42.0636 39.9102 41.0755 36.2892 38.4256C34.3709 37.022 32.2099 36.9998 30.2819 38.4108C26.6076 41.1 22.4361 42.0808 18.0391 42.3193C14.4788 42.511 12.4246 44.6054 12.4198 48.2312C12.4149 52.2797 12.4198 56.3283 12.4198 60.3769V61.4315H12.4222Z" fill="white"/>
<path d="M50.7539 56.0684C50.618 59.1263 50.6641 62.2064 50.3028 65.2373C49.631 70.864 47.0529 75.5468 42.8232 79.266C40.2791 81.5029 37.4658 83.3195 34.3979 84.7354C33.6218 85.0943 32.9306 85.109 32.1569 84.7354C26.8407 82.1568 22.1187 78.8604 19.0265 73.5975C16.8753 69.9348 15.9222 65.9305 15.8955 61.6951C15.864 57.1893 15.8834 52.681 15.8906 48.1752C15.8906 46.5578 16.5309 45.9457 18.1437 45.8473C23.1543 45.5425 27.9345 44.4782 32.0866 41.4005C32.8602 40.8278 33.6606 40.8106 34.4318 41.3833C38.613 44.4732 43.415 45.5524 48.4571 45.8498C49.9972 45.9408 50.6205 46.5602 50.6277 48.1531C50.6374 50.7907 50.6302 53.4258 50.6302 56.0635L50.7563 56.0684H50.7539ZM33.2653 71.0656C33.84 71.0656 34.4148 71.0902 34.9872 71.0607C35.9233 71.014 36.469 70.3331 36.3308 69.3916C36.1295 68.0027 35.9282 66.6114 35.6832 65.2299C35.4771 64.0672 35.5305 63.111 36.4909 62.172C37.8927 60.8003 37.9315 58.4872 36.8231 56.8501C35.7196 55.2178 33.6072 54.5419 31.7737 55.2351C28.8246 56.3486 28.0073 60.1759 30.2604 62.4571C30.7891 62.993 31.0946 63.4969 30.9516 64.3057C30.6581 65.9575 30.4616 67.6291 30.2191 69.2908C30.0591 70.3822 30.612 71.041 31.7276 71.0656C32.2418 71.0779 32.7559 71.0656 33.2677 71.0656H33.2653Z" fill="#FFC200"/>
<path d="M8.94133 22.6102H4.94934V21.7794C4.94934 15.339 4.94934 8.90108 4.94934 2.4607C4.94934 0.673624 5.59446 0.0148377 7.34065 0.0148377C11.7255 0.0123795 16.1128 0.0320448 20.4977 8.87138e-05C21.5721 -0.00728576 22.2682 0.445015 22.7265 1.38895C23.1922 2.34763 23.6772 3.29648 24.1672 4.24287C25.2634 6.3618 26.9829 7.42126 29.3596 7.41881C39.2208 7.40897 49.0819 7.41389 58.943 7.41635C61.0312 7.41635 61.623 8.02106 61.6254 10.1498C61.6254 13.9821 61.6254 17.8168 61.6254 21.6491C61.6254 21.949 61.6254 22.2513 61.6254 22.5979H57.5097C57.5097 21.0001 57.5097 19.4122 57.5097 17.8242C57.5097 17.1801 57.5218 16.5361 57.5073 15.8921C57.4491 13.5494 56.0424 12.1581 53.7239 12.1581C44.8619 12.1557 35.9976 12.1581 27.1357 12.1581C22.387 12.1581 17.6383 12.1581 12.8897 12.1581C10.4523 12.1581 9.06017 13.5396 9.03591 16.0051C9.01409 18.1216 9.02621 20.2356 9.01894 22.3521C9.01894 22.4086 8.98741 22.4676 8.94375 22.6102H8.94133Z" fill="white"/>
<path d="M12.5068 22.5729V15.7318H53.9959V22.5729H12.5068Z" fill="white"/>
</svg>
