<svg width="87" height="86" viewBox="0 0 87 86" fill="none" xmlns="http://www.w3.org/2000/svg">
<path d="M0 21.0933C0.0464767 21.0541 0.0931423 21.0154 0.139808 20.9767C0.233158 20.8992 0.326508 20.8217 0.418346 20.7412C1.22443 20.0372 2.34001 20.3994 2.56109 21.4572C2.63592 21.8126 2.64102 22.1867 2.64102 22.5507C2.64442 31.2917 2.64442 40.031 2.64442 48.7721V49.7754H3.60185H27.871C27.9385 49.7754 28.0062 49.7744 28.0738 49.7733C28.2617 49.7703 28.4495 49.7673 28.6346 49.7873C29.3505 49.8673 29.7876 50.2992 29.8386 50.9931C29.8913 51.6869 29.5376 52.192 28.8199 52.3365C28.4645 52.408 28.0938 52.4335 27.7299 52.4352C21.3225 52.4392 14.9152 52.439 8.50781 52.4387C6.91047 52.4386 5.31313 52.4386 3.71579 52.4386H2.74476C2.73413 52.4872 2.72131 52.5336 2.70888 52.5786C2.68348 52.6706 2.65973 52.7565 2.65973 52.8433C2.65859 53.2641 2.65696 53.6851 2.65532 54.106C2.64959 55.5801 2.64385 57.0548 2.65973 58.5284C2.67503 59.9909 3.34336 60.6456 4.79567 60.6456C30.5647 60.649 56.3321 60.649 82.1012 60.6456C83.4004 60.6456 84.1725 60.0861 84.2048 58.9569C84.2481 57.4436 84.2395 55.9295 84.2308 54.3827C84.2272 53.741 84.2235 53.0938 84.2235 52.4386H83.1998C66.9914 52.4386 50.7848 52.4386 34.5764 52.4335C34.1853 52.4335 33.7823 52.4114 33.403 52.3195C32.733 52.1563 32.4116 51.6461 32.4575 50.9965C32.5051 50.3485 32.9031 49.903 33.5765 49.7975C33.8022 49.7622 34.0345 49.7671 34.2664 49.772C34.3472 49.7737 34.428 49.7754 34.5084 49.7754H83.2168H84.2575V48.8554V48.6616C84.2575 34.1878 84.2575 19.7124 84.2558 5.23863C84.2558 4.92913 84.2473 4.61622 84.2082 4.30841C84.0926 3.39009 83.5467 2.81869 82.6182 2.74216C82.1169 2.70082 81.6132 2.68585 81.1092 2.67087C80.5975 2.65567 80.0856 2.64045 79.5758 2.59761C78.9738 2.5466 78.6422 2.12995 78.5622 1.52794C78.484 0.927633 78.7204 0.487179 79.2408 0.192977C79.2587 0.182982 79.2769 0.17156 79.2953 0.160009C79.3521 0.124388 79.4109 0.0875401 79.4687 0.0875401C79.8929 0.0911503 80.3206 0.0675776 80.7487 0.0439908C81.9337 -0.0213087 83.1207 -0.0867162 84.2388 0.424257C85.9836 1.22013 86.8969 2.63843 86.8986 4.58391C86.9022 8.726 86.9015 12.8672 86.9008 17.0088C86.9005 18.6656 86.9003 20.3223 86.9003 21.9793C86.9003 25.1506 86.8976 28.322 86.8949 31.4935C86.8874 40.4564 86.8798 49.4197 86.9326 58.3821C86.9479 60.8514 85.3238 63.3496 81.9498 63.3394C74.8327 63.3161 67.7157 63.3202 60.5986 63.3243C57.8437 63.3259 55.0889 63.3275 52.334 63.3275H51.2865C51.4245 64.0211 51.5619 64.7126 51.699 65.4024C52.3503 68.6804 52.9937 71.9189 53.6639 75.1517C53.703 75.3404 54.0754 75.5819 54.2982 75.5887C55.188 75.6155 56.0777 75.613 56.968 75.6105C57.4355 75.6092 57.9032 75.6079 58.3711 75.6108C60.7894 75.6244 62.1566 76.9679 62.1872 79.3759C62.1992 80.2517 62.2009 81.131 62.1243 82.0017C61.9883 83.5509 60.8404 84.7141 59.3098 84.9199C58.9476 84.9692 58.5786 85.0032 58.213 85.0032C53.6705 85.0056 49.1281 85.0057 44.5855 85.0059C39.2847 85.0061 33.9837 85.0063 28.6822 85.01C27.3846 85.01 26.1772 84.7719 25.4102 83.6172C25.0956 83.1428 24.8559 82.5578 24.7878 81.9983C24.6739 81.0493 24.6756 80.0783 24.7164 79.1209C24.8082 76.9543 26.1738 75.6499 28.3574 75.6159C29.7706 75.5938 31.1855 75.6006 32.6003 75.6176C33.0034 75.6227 33.1922 75.519 33.2772 75.0802C33.8707 72.0317 34.4808 68.9862 35.0978 65.9064C35.2694 65.0502 35.4414 64.1914 35.6138 63.3292H34.6479C31.9798 63.3292 29.3116 63.3258 26.6436 63.3224C19.666 63.3135 12.6887 63.3047 5.71229 63.3564C2.95563 63.3785 0.942128 62.5282 0 59.7919V21.0933ZM51.0246 75.5734L50.7455 74.1824C50.0158 70.5459 49.2934 66.9457 48.5723 63.3615H38.3228L38.2711 63.6197C37.4739 67.5974 36.6797 71.5601 35.8757 75.5734H51.0246ZM43.542 78.2893H28.5342C27.5598 78.2893 27.3557 78.4984 27.3455 79.4814C27.3421 79.8022 27.3433 80.1222 27.3444 80.4425C27.345 80.6027 27.3455 80.763 27.3455 80.9235C27.3472 82.2074 27.502 82.3588 28.8199 82.3588H55.7845C56.0539 82.3588 56.3234 82.3594 56.5929 82.3601C57.1993 82.3615 57.8061 82.363 58.4136 82.3571C59.3218 82.3469 59.5479 82.1139 59.5598 81.1905C59.5666 80.6531 59.5632 80.1157 59.5598 79.58C59.5547 78.4746 59.3762 78.2893 58.298 78.2893H43.5437H43.542Z" fill="white"/>
<path d="M0 21.0933C0.0464767 21.0541 0.0931423 21.0154 0.139808 20.9767C0.233158 20.8992 0.326508 20.8217 0.418346 20.7412C1.22443 20.0372 2.34001 20.3994 2.56109 21.4572C2.63592 21.8126 2.64102 22.1867 2.64102 22.5507C2.64442 31.2917 2.64442 40.031 2.64442 48.7721V49.7754H3.60185H27.871C27.9385 49.7754 28.0062 49.7744 28.0738 49.7733C28.2617 49.7703 28.4495 49.7673 28.6346 49.7873C29.3505 49.8673 29.7876 50.2992 29.8386 50.9931C29.8913 51.6869 29.5376 52.192 28.8199 52.3365C28.4645 52.408 28.0938 52.4335 27.7299 52.4352C21.3225 52.4392 14.9152 52.439 8.50781 52.4387C6.91047 52.4386 5.31313 52.4386 3.71579 52.4386H2.74476C2.73413 52.4872 2.72131 52.5336 2.70888 52.5786C2.68348 52.6706 2.65973 52.7565 2.65973 52.8433C2.65859 53.2641 2.65696 53.6851 2.65532 54.106C2.64959 55.5801 2.64385 57.0548 2.65973 58.5284C2.67503 59.9909 3.34336 60.6456 4.79567 60.6456C30.5647 60.649 56.3321 60.649 82.1012 60.6456C83.4004 60.6456 84.1725 60.0861 84.2048 58.9569C84.2481 57.4436 84.2395 55.9295 84.2308 54.3827C84.2272 53.741 84.2235 53.0938 84.2235 52.4386H83.1998C66.9914 52.4386 50.7848 52.4386 34.5764 52.4335C34.1853 52.4335 33.7823 52.4114 33.403 52.3195C32.733 52.1563 32.4116 51.6461 32.4575 50.9965C32.5051 50.3485 32.9031 49.903 33.5765 49.7975C33.8022 49.7622 34.0345 49.7671 34.2664 49.772C34.3472 49.7737 34.428 49.7754 34.5084 49.7754H83.2168H84.2575V48.8554V48.6616C84.2575 34.1878 84.2575 19.7124 84.2558 5.23863C84.2558 4.92913 84.2473 4.61622 84.2082 4.30841C84.0926 3.39009 83.5467 2.81869 82.6182 2.74216C82.1169 2.70082 81.6132 2.68585 81.1092 2.67087C80.5975 2.65567 80.0856 2.64045 79.5758 2.59761C78.9738 2.5466 78.6422 2.12995 78.5622 1.52794C78.484 0.927633 78.7204 0.487179 79.2408 0.192977C79.2587 0.182982 79.2769 0.17156 79.2953 0.160009C79.3521 0.124388 79.4109 0.0875401 79.4687 0.0875401C79.8929 0.0911503 80.3206 0.0675776 80.7487 0.0439908C81.9337 -0.0213087 83.1207 -0.0867162 84.2388 0.424257C85.9836 1.22013 86.8969 2.63843 86.8986 4.58391C86.9022 8.726 86.9015 12.8672 86.9008 17.0088C86.9005 18.6656 86.9003 20.3223 86.9003 21.9793C86.9003 25.1506 86.8976 28.322 86.8949 31.4935C86.8874 40.4564 86.8798 49.4197 86.9326 58.3821C86.9479 60.8514 85.3238 63.3496 81.9498 63.3394C74.8327 63.3161 67.7157 63.3202 60.5986 63.3243C57.8437 63.3259 55.0889 63.3275 52.334 63.3275H51.2865C51.4245 64.0211 51.5619 64.7126 51.699 65.4024C52.3503 68.6804 52.9937 71.9189 53.6639 75.1517C53.703 75.3404 54.0754 75.5819 54.2982 75.5887C55.188 75.6155 56.0777 75.613 56.968 75.6105C57.4355 75.6092 57.9032 75.6079 58.3711 75.6108C60.7894 75.6244 62.1566 76.9679 62.1872 79.3759C62.1992 80.2517 62.2009 81.131 62.1243 82.0017C61.9883 83.5509 60.8404 84.7141 59.3098 84.9199C58.9476 84.9692 58.5786 85.0032 58.213 85.0032C53.6705 85.0056 49.1281 85.0057 44.5855 85.0059C39.2847 85.0061 33.9837 85.0063 28.6822 85.01C27.3846 85.01 26.1772 84.7719 25.4102 83.6172C25.0956 83.1428 24.8559 82.5578 24.7878 81.9983C24.6739 81.0493 24.6756 80.0783 24.7164 79.1209C24.8082 76.9543 26.1738 75.6499 28.3574 75.6159C29.7706 75.5938 31.1855 75.6006 32.6003 75.6176C33.0034 75.6227 33.1922 75.519 33.2772 75.0802C33.8707 72.0317 34.4808 68.9862 35.0978 65.9064C35.2694 65.0502 35.4414 64.1914 35.6138 63.3292H34.6479C31.9798 63.3292 29.3116 63.3258 26.6436 63.3224C19.666 63.3135 12.6887 63.3047 5.71229 63.3564C2.95563 63.3785 0.942128 62.5282 0 59.7919V21.0933ZM51.0246 75.5734L50.7455 74.1824C50.0158 70.5459 49.2934 66.9457 48.5723 63.3615H38.3228L38.2711 63.6197C37.4739 67.5974 36.6797 71.5601 35.8757 75.5734H51.0246ZM43.542 78.2893H28.5342C27.5598 78.2893 27.3557 78.4984 27.3455 79.4814C27.3421 79.8022 27.3433 80.1222 27.3444 80.4425C27.345 80.6027 27.3455 80.763 27.3455 80.9235C27.3472 82.2074 27.502 82.3588 28.8199 82.3588H55.7845C56.0539 82.3588 56.3234 82.3594 56.5929 82.3601C57.1993 82.3615 57.8061 82.363 58.4136 82.3571C59.3218 82.3469 59.5479 82.1139 59.5598 81.1905C59.5666 80.6531 59.5632 80.1157 59.5598 79.58C59.5547 78.4746 59.3762 78.2893 58.298 78.2893H43.5437H43.542Z" stroke="white"/>
<path d="M0 3.44246C0.166305 3.19924 0.319745 2.94014 0.473134 2.68112C0.821672 2.09257 1.16995 1.50447 1.66828 1.10415C2.18491 0.690593 2.8725 0.486091 3.55455 0.283237C3.79524 0.211653 4.03524 0.140274 4.26679 0.0599851C4.42441 0.00587544 4.60563 0.0192981 4.78681 0.0327177C4.86756 0.038699 4.94831 0.0446798 5.02695 0.0446798H73.9247C75.3005 0.0446798 75.894 0.425612 75.9093 1.32012C75.9263 2.25885 75.2988 2.6908 73.9026 2.6908H5.42829C5.3529 2.6908 5.2775 2.69005 5.20211 2.68929C5.05133 2.68778 4.90054 2.68627 4.74975 2.6908C3.32806 2.73672 2.69204 3.35913 2.64782 4.76722C2.63605 5.15805 2.63895 5.54969 2.64184 5.94158C2.64313 6.11582 2.64442 6.29012 2.64442 6.46441C2.64442 7.37733 2.64525 8.29039 2.64609 9.20351C2.64817 11.4865 2.65025 13.7699 2.63932 16.0524C2.63422 17.3499 1.80433 18.0863 0.826488 17.673C0.613385 17.5822 0.432976 17.4132 0.252499 17.2442C0.169412 17.1663 0.0863117 17.0885 0 17.0183V3.44246Z" fill="white"/>
<path d="M0 3.44246C0.166305 3.19924 0.319745 2.94014 0.473134 2.68112C0.821672 2.09257 1.16995 1.50447 1.66828 1.10415C2.18491 0.690593 2.8725 0.486091 3.55455 0.283237C3.79524 0.211653 4.03524 0.140274 4.26679 0.0599851C4.42441 0.00587544 4.60563 0.0192981 4.78681 0.0327177C4.86756 0.038699 4.94831 0.0446798 5.02695 0.0446798H73.9247C75.3005 0.0446798 75.894 0.425612 75.9093 1.32012C75.9263 2.25885 75.2988 2.6908 73.9026 2.6908H5.42829C5.3529 2.6908 5.2775 2.69005 5.20211 2.68929C5.05133 2.68778 4.90054 2.68627 4.74975 2.6908C3.32806 2.73672 2.69204 3.35913 2.64782 4.76722C2.63605 5.15805 2.63895 5.54969 2.64184 5.94158C2.64313 6.11582 2.64442 6.29012 2.64442 6.46441C2.64442 7.37733 2.64525 8.29039 2.64609 9.20351C2.64817 11.4865 2.65025 13.7699 2.63932 16.0524C2.63422 17.3499 1.80433 18.0863 0.826488 17.673C0.613385 17.5822 0.432976 17.4132 0.252499 17.2442C0.169412 17.1663 0.0863117 17.0885 0 17.0183V3.44246Z" stroke="white"/>
<path d="M49.1127 36.9958C49.0626 37.206 49.0126 37.4162 48.9625 37.6263C48.7031 38.715 48.4439 39.8028 48.1859 40.8918C47.9223 42.0057 47.5108 42.3799 46.4938 42.4156C45.5092 42.4496 44.965 42.0482 44.6487 41.0415C43.5161 37.4481 42.3835 33.8531 41.2543 30.258C40.9363 29.2445 41.3699 28.6527 42.4362 28.5574C43.1538 28.4928 43.4378 28.8737 43.6147 29.4911C44.2826 31.822 44.9625 34.1497 45.6421 36.4768C45.8139 37.0647 45.9856 37.6527 46.1571 38.2406C46.1949 38.3717 46.2371 38.5009 46.2947 38.6768C46.3305 38.7861 46.3722 38.9135 46.4224 39.0705C46.5764 38.4441 46.7288 37.836 46.8781 37.2403C47.2264 35.8502 47.5579 34.5276 47.8543 33.1967C48.0294 32.4093 48.4257 31.9892 49.2199 31.9841C50.0378 31.9807 50.395 32.4722 50.5684 33.2256C50.879 34.5893 51.2126 35.9477 51.5692 37.3999C51.7066 37.9596 51.8475 38.5333 51.9918 39.1266C52.4466 37.5708 52.8815 36.0812 53.3069 34.6238C53.7055 33.2584 54.0959 31.9213 54.4866 30.5845L54.4872 30.5826C54.5975 30.2057 54.7079 29.8288 54.8216 29.4519C55.0801 28.5966 55.5035 28.367 56.3402 28.6221C57.1871 28.8806 57.4252 29.3023 57.1718 30.1186C56.0341 33.7698 54.8947 37.4209 53.7519 41.0704C53.4441 42.0533 52.8608 42.4632 51.8813 42.4139C50.8762 42.3645 50.4953 42.0108 50.2436 40.936C50.0259 40.0067 49.8007 39.079 49.5755 38.1517C49.4805 37.7607 49.3856 37.3697 49.2913 36.9788L49.1127 36.9958Z" fill="#FFC200"/>
<path d="M49.1127 36.9958C49.0626 37.206 49.0126 37.4162 48.9625 37.6263C48.7031 38.715 48.4439 39.8028 48.1859 40.8918C47.9223 42.0057 47.5108 42.3799 46.4938 42.4156C45.5092 42.4496 44.965 42.0482 44.6487 41.0415C43.5161 37.4481 42.3835 33.8531 41.2543 30.258C40.9363 29.2445 41.3699 28.6527 42.4362 28.5574C43.1538 28.4928 43.4378 28.8737 43.6147 29.4911C44.2826 31.822 44.9625 34.1497 45.6421 36.4768C45.8139 37.0647 45.9856 37.6527 46.1571 38.2406C46.1949 38.3717 46.2371 38.5009 46.2947 38.6768C46.3305 38.7861 46.3722 38.9135 46.4224 39.0705C46.5764 38.4441 46.7288 37.836 46.8781 37.2403C47.2264 35.8502 47.5579 34.5276 47.8543 33.1967C48.0294 32.4093 48.4257 31.9892 49.2199 31.9841C50.0378 31.9807 50.395 32.4722 50.5684 33.2256C50.879 34.5893 51.2126 35.9477 51.5692 37.3999C51.7066 37.9596 51.8475 38.5333 51.9918 39.1266C52.4466 37.5708 52.8815 36.0812 53.3069 34.6238C53.7055 33.2584 54.0959 31.9213 54.4866 30.5845L54.4872 30.5826C54.5975 30.2057 54.7079 29.8288 54.8216 29.4519C55.0801 28.5966 55.5035 28.367 56.3402 28.6221C57.1871 28.8806 57.4252 29.3023 57.1718 30.1186C56.0341 33.7698 54.8947 37.4209 53.7519 41.0704C53.4441 42.0533 52.8608 42.4632 51.8813 42.4139C50.8762 42.3645 50.4953 42.0108 50.2436 40.936C50.0259 40.0067 49.8007 39.079 49.5755 38.1517C49.4805 37.7607 49.3856 37.3697 49.2913 36.9788L49.1127 36.9958Z" stroke="#FFC200"/>
<path d="M23.2207 34.4184C23.2207 35.1429 23.2211 35.8672 23.2215 36.5915C23.2222 38.0398 23.223 39.4879 23.2207 40.9367C23.219 41.9299 22.8568 42.3091 21.9385 42.2972C21.0202 42.287 20.714 41.9384 20.714 40.8925C20.714 40.0822 20.7142 39.272 20.7144 38.4618C20.715 35.6265 20.7156 32.7918 20.7089 29.956C20.7089 29.9294 20.7089 29.9027 20.7088 29.8761C20.7072 29.3463 20.7055 28.8214 21.3484 28.6466C22.0184 28.4646 22.7156 28.4255 23.2258 29.0122C23.5166 29.3472 23.736 29.7519 23.9452 30.1482C24.051 30.3494 24.1568 30.5507 24.2626 30.752C25.2509 32.6336 26.2418 34.5198 27.3617 36.3893V35.0952C27.3617 34.5865 27.3611 34.0778 27.3605 33.5691C27.3592 32.2973 27.3578 31.0255 27.3651 29.7536C27.3702 28.854 27.695 28.5547 28.6133 28.553C29.5401 28.5513 29.8649 28.8472 29.8649 29.7366C29.8673 31.4644 29.8671 33.1922 29.8669 34.9198C29.8666 36.894 29.8664 38.868 29.87 40.8415C29.87 40.8688 29.8701 40.8962 29.8702 40.9234C29.8719 41.4757 29.8735 42.0011 29.1847 42.2037C28.4262 42.4264 27.7868 42.2598 27.2987 41.6357C27.1424 41.4357 27.0222 41.2065 26.9024 40.9781C26.8776 40.9307 26.8528 40.8834 26.8277 40.8364C26.1572 39.5836 25.4885 38.3302 24.8198 37.0769C24.3402 36.1781 23.8607 35.2794 23.3806 34.3809L23.219 34.415L23.2207 34.4184Z" fill="#FFC200"/>
<path d="M23.2207 34.4184C23.2207 35.1429 23.2211 35.8672 23.2215 36.5915C23.2222 38.0398 23.223 39.4879 23.2207 40.9367C23.219 41.9299 22.8568 42.3091 21.9385 42.2972C21.0202 42.287 20.714 41.9384 20.714 40.8925C20.714 40.0822 20.7142 39.272 20.7144 38.4618C20.715 35.6265 20.7156 32.7918 20.7089 29.956C20.7089 29.9294 20.7089 29.9027 20.7088 29.8761C20.7072 29.3463 20.7055 28.8214 21.3484 28.6466C22.0184 28.4646 22.7156 28.4255 23.2258 29.0122C23.5166 29.3472 23.736 29.7519 23.9452 30.1482C24.051 30.3494 24.1568 30.5507 24.2626 30.752C25.2509 32.6336 26.2418 34.5198 27.3617 36.3893V35.0952C27.3617 34.5865 27.3611 34.0778 27.3605 33.5691C27.3592 32.2973 27.3578 31.0255 27.3651 29.7536C27.3702 28.854 27.695 28.5547 28.6133 28.553C29.5401 28.5513 29.8649 28.8472 29.8649 29.7366C29.8673 31.4644 29.8671 33.1922 29.8669 34.9198C29.8666 36.894 29.8664 38.868 29.87 40.8415C29.87 40.8688 29.8701 40.8962 29.8702 40.9234C29.8719 41.4757 29.8735 42.0011 29.1847 42.2037C28.4262 42.4264 27.7868 42.2598 27.2987 41.6357C27.1424 41.4357 27.0222 41.2065 26.9024 40.9781C26.8776 40.9307 26.8528 40.8834 26.8277 40.8364C26.1572 39.5836 25.4885 38.3302 24.8198 37.0769C24.3402 36.1781 23.8607 35.2794 23.3806 34.3809L23.219 34.415L23.2207 34.4184Z" stroke="#FFC200"/>
<path d="M34.6215 34.4306C34.9222 34.4306 35.2147 34.431 35.5021 34.4314C36.0617 34.4321 36.6014 34.4328 37.1418 34.4306C37.8475 34.4272 38.1996 34.8013 38.1673 35.4765C38.1384 36.1227 37.7591 36.4067 37.0959 36.3795C36.5274 36.3569 35.9582 36.3617 35.3759 36.3667C35.1255 36.3688 34.8726 36.371 34.6164 36.371V40.1123C35.1469 40.1123 35.6758 40.1119 36.2038 40.1115C37.2566 40.1108 38.3054 40.11 39.3543 40.1123C40.2692 40.114 40.6093 40.4099 40.6195 41.1921C40.6297 41.9846 40.2896 42.2992 39.3917 42.3009C39.1917 42.3013 38.9917 42.3016 38.7916 42.302C36.9864 42.3052 35.18 42.3084 33.375 42.2992C32.3444 42.2941 32.0825 42.0186 32.0825 40.9898C32.0825 39.7466 32.0824 38.5036 32.0822 37.2606C32.0818 34.7749 32.0814 32.2895 32.0825 29.8033C32.0825 28.7982 32.3104 28.5635 33.3325 28.5584C34.1367 28.5545 34.9406 28.5564 35.7444 28.5584C37.0026 28.5615 38.2606 28.5646 39.5192 28.5448C40.2981 28.5329 40.5991 28.8969 40.6127 29.6043C40.628 30.373 40.2828 30.7301 39.475 30.7369C38.3551 30.7464 37.2343 30.7443 36.0994 30.7422C35.6092 30.7412 35.1164 30.7403 34.6198 30.7403V34.4289L34.6215 34.4306Z" fill="#FFC200"/>
<path d="M34.6215 34.4306C34.9222 34.4306 35.2147 34.431 35.5021 34.4314C36.0617 34.4321 36.6014 34.4328 37.1418 34.4306C37.8475 34.4272 38.1996 34.8013 38.1673 35.4765C38.1384 36.1227 37.7591 36.4067 37.0959 36.3795C36.5274 36.3569 35.9582 36.3617 35.3759 36.3667C35.1255 36.3688 34.8726 36.371 34.6164 36.371V40.1123C35.1469 40.1123 35.6758 40.1119 36.2038 40.1115C37.2566 40.1108 38.3054 40.11 39.3543 40.1123C40.2692 40.114 40.6093 40.4099 40.6195 41.1921C40.6297 41.9846 40.2896 42.2992 39.3917 42.3009C39.1917 42.3013 38.9917 42.3016 38.7916 42.302C36.9864 42.3052 35.18 42.3084 33.375 42.2992C32.3444 42.2941 32.0825 42.0186 32.0825 40.9898C32.0825 39.7466 32.0824 38.5036 32.0822 37.2606C32.0818 34.7749 32.0814 32.2895 32.0825 29.8033C32.0825 28.7982 32.3104 28.5635 33.3325 28.5584C34.1367 28.5545 34.9406 28.5564 35.7444 28.5584C37.0026 28.5615 38.2606 28.5646 39.5192 28.5448C40.2981 28.5329 40.5991 28.8969 40.6127 29.6043C40.628 30.373 40.2828 30.7301 39.475 30.7369C38.3551 30.7464 37.2343 30.7443 36.0994 30.7422C35.6092 30.7412 35.1164 30.7403 34.6198 30.7403V34.4289L34.6215 34.4306Z" stroke="#FFC200"/>
<path d="M61.9799 42.4698C60.9085 42.3984 59.6399 42.1773 58.5906 41.3049C58.026 40.8356 57.725 40.2625 58.0924 39.521C58.4597 38.7762 59.0736 38.6197 59.7215 39.1452C60.6534 39.9019 61.633 40.4444 62.8931 40.1298C63.5274 39.9717 64.0546 39.7098 64.2162 38.9972C64.3777 38.2847 64.1516 37.6929 63.5921 37.2796C63.1966 36.9884 62.7531 36.7582 62.313 36.5298C62.2289 36.4862 62.145 36.4426 62.0615 36.3987C61.805 36.2636 61.5427 36.1391 61.2804 36.0146C60.9584 35.8618 60.6364 35.709 60.3252 35.5365C58.8542 34.7219 58.106 33.3734 58.2607 31.9517C58.4529 30.1984 59.429 29.1491 61.0973 28.6848C62.5921 28.2682 64.058 28.4059 65.4984 28.9144C66.1991 29.1627 66.5511 29.6661 66.3334 30.4347C66.1243 31.1728 65.5852 31.3429 64.8148 31.1082C64.0223 30.8684 63.1907 30.6677 62.3693 30.6337C61.6415 30.6031 60.9647 30.9432 60.7878 31.768C60.6109 32.5928 61.1755 33.006 61.8047 33.3241C62.2708 33.559 62.7425 33.7814 63.2143 34.0038C63.5552 34.1645 63.8961 34.3252 64.2349 34.4907C66.7059 35.7032 67.0103 37.6044 66.6055 39.5295C66.2059 41.4291 64.5138 42.4851 61.9782 42.4698H61.9799Z" fill="#FFC200"/>
<path d="M61.9799 42.4698C60.9085 42.3984 59.6399 42.1773 58.5906 41.3049C58.026 40.8356 57.725 40.2625 58.0924 39.521C58.4597 38.7762 59.0736 38.6197 59.7215 39.1452C60.6534 39.9019 61.633 40.4444 62.8931 40.1298C63.5274 39.9717 64.0546 39.7098 64.2162 38.9972C64.3777 38.2847 64.1516 37.6929 63.5921 37.2796C63.1966 36.9884 62.7531 36.7582 62.313 36.5298C62.2289 36.4862 62.145 36.4426 62.0615 36.3987C61.805 36.2636 61.5427 36.1391 61.2804 36.0146C60.9584 35.8618 60.6364 35.709 60.3252 35.5365C58.8542 34.7219 58.106 33.3734 58.2607 31.9517C58.4529 30.1984 59.429 29.1491 61.0973 28.6848C62.5921 28.2682 64.058 28.4059 65.4984 28.9144C66.1991 29.1627 66.5511 29.6661 66.3334 30.4347C66.1243 31.1728 65.5852 31.3429 64.8148 31.1082C64.0223 30.8684 63.1907 30.6677 62.3693 30.6337C61.6415 30.6031 60.9647 30.9432 60.7878 31.768C60.6109 32.5928 61.1755 33.006 61.8047 33.3241C62.2708 33.559 62.7425 33.7814 63.2143 34.0038C63.5552 34.1645 63.8961 34.3252 64.2349 34.4907C66.7059 35.7032 67.0103 37.6044 66.6055 39.5295C66.2059 41.4291 64.5138 42.4851 61.9782 42.4698H61.9799Z" stroke="#FFC200"/>
<path d="M16.81 55.2121C17.5933 55.2121 18.3765 55.2112 19.1596 55.2104C21.1172 55.2083 23.0743 55.2062 25.0324 55.2172C26.2466 55.224 27.0017 56.2919 26.3469 57.1592C26.0493 57.5538 25.3674 57.8293 24.847 57.8531C23.5153 57.9124 22.181 57.9026 20.8465 57.8928C20.3439 57.8891 19.8413 57.8854 19.3388 57.8854H8.91248C8.86329 57.8854 8.8139 57.8859 8.76444 57.8863C8.55911 57.8882 8.3524 57.89 8.15231 57.8599C7.31902 57.7307 6.82245 57.1695 6.87857 56.4467C6.93469 55.7154 7.48738 55.2223 8.33428 55.2189C10.4058 55.2101 12.4782 55.2115 14.5501 55.2128C15.3035 55.2133 16.0568 55.2138 16.81 55.2138V55.2121Z" fill="white"/>
<path d="M16.81 55.2121C17.5933 55.2121 18.3765 55.2112 19.1596 55.2104C21.1172 55.2083 23.0743 55.2062 25.0324 55.2172C26.2466 55.224 27.0017 56.2919 26.3469 57.1592C26.0493 57.5538 25.3674 57.8293 24.847 57.8531C23.5153 57.9124 22.181 57.9026 20.8465 57.8928C20.3439 57.8891 19.8413 57.8854 19.3388 57.8854H8.91248C8.86329 57.8854 8.8139 57.8859 8.76444 57.8863C8.55911 57.8882 8.3524 57.89 8.15231 57.8599C7.31902 57.7307 6.82245 57.1695 6.87857 56.4467C6.93469 55.7154 7.48738 55.2223 8.33428 55.2189C10.4058 55.2101 12.4782 55.2115 14.5501 55.2128C15.3035 55.2133 16.0568 55.2138 16.81 55.2138V55.2121Z" stroke="white"/>
<path d="M75.3823 31.1101C74.8308 31.1101 74.2792 31.1106 73.7277 31.1111C72.4409 31.1121 71.1541 31.1132 69.8673 31.1084C68.8963 31.105 68.296 30.6306 68.2534 29.8534C68.2143 29.1222 68.8418 28.4742 69.7568 28.4674C73.5185 28.4402 77.2802 28.4402 81.0402 28.4674C82.0095 28.4742 82.5622 29.0354 82.5469 29.8296C82.5316 30.617 81.9432 31.1067 80.9807 31.1101C79.6736 31.1149 78.3673 31.1138 77.0607 31.1128C76.5008 31.1123 75.9408 31.1118 75.3806 31.1118L75.3823 31.1101Z" fill="white"/>
<path d="M75.3823 31.1101C74.8308 31.1101 74.2792 31.1106 73.7277 31.1111C72.4409 31.1121 71.1541 31.1132 69.8673 31.1084C68.8963 31.105 68.296 30.6306 68.2534 29.8534C68.2143 29.1222 68.8418 28.4742 69.7568 28.4674C73.5185 28.4402 77.2802 28.4402 81.0402 28.4674C82.0095 28.4742 82.5622 29.0354 82.5469 29.8296C82.5316 30.617 81.9432 31.1067 80.9807 31.1101C79.6736 31.1149 78.3673 31.1138 77.0607 31.1128C76.5008 31.1123 75.9408 31.1118 75.3806 31.1118L75.3823 31.1101Z" stroke="white"/>
<path d="M11.4644 31.1092C10.8516 31.1092 10.2388 31.1096 9.62601 31.1099C8.40045 31.1107 7.17489 31.1115 5.94933 31.1092C4.96639 31.1058 4.39159 30.6466 4.35758 29.8609C4.32017 29.0328 4.88646 28.4716 5.90852 28.4648C9.61411 28.4427 13.318 28.4444 17.0236 28.4631C18.015 28.4682 18.6647 29.0566 18.6477 29.8235C18.6306 30.6228 18.0082 31.1092 16.9794 31.1109C15.7538 31.1143 14.5283 31.1132 13.3027 31.112C12.6899 31.1115 12.0771 31.1109 11.4644 31.1109V31.1092Z" fill="white"/>
<path d="M11.4644 31.1092C10.8516 31.1092 10.2388 31.1096 9.62601 31.1099C8.40045 31.1107 7.17489 31.1115 5.94933 31.1092C4.96639 31.1058 4.39159 30.6466 4.35758 29.8609C4.32017 29.0328 4.88646 28.4716 5.90852 28.4648C9.61411 28.4427 13.318 28.4444 17.0236 28.4631C18.015 28.4682 18.6647 29.0566 18.6477 29.8235C18.6306 30.6228 18.0082 31.1092 16.9794 31.1109C15.7538 31.1143 14.5283 31.1132 13.3027 31.112C12.6899 31.1115 12.0771 31.1109 11.4644 31.1109V31.1092Z" stroke="white"/>
<path d="M11.456 33.9931C12.03 33.9931 12.6042 33.9924 13.1784 33.9918C14.4704 33.9903 15.7628 33.9889 17.0544 33.9948C18.0101 33.9999 18.6223 34.5066 18.6461 35.2804C18.6682 36.01 18.0288 36.6443 17.1173 36.6494C13.3556 36.6732 9.59558 36.6749 5.83387 36.6477C4.87644 36.6409 4.32545 36.0559 4.35436 35.2583C4.38327 34.4743 4.96657 33.9982 5.94101 33.9948C7.2278 33.99 8.5146 33.9911 9.8014 33.9921C10.3529 33.9926 10.9045 33.9931 11.456 33.9931Z" fill="white"/>
<path d="M11.456 33.9931C12.03 33.9931 12.6042 33.9924 13.1784 33.9918C14.4704 33.9903 15.7628 33.9889 17.0544 33.9948C18.0101 33.9999 18.6223 34.5066 18.6461 35.2804C18.6682 36.01 18.0288 36.6443 17.1173 36.6494C13.3556 36.6732 9.59558 36.6749 5.83387 36.6477C4.87644 36.6409 4.32545 36.0559 4.35436 35.2583C4.38327 34.4743 4.96657 33.9982 5.94101 33.9948C7.2278 33.99 8.5146 33.9911 9.8014 33.9921C10.3529 33.9926 10.9045 33.9931 11.456 33.9931Z" stroke="white"/>
<path d="M75.4636 33.9931C76.0293 33.9931 76.595 33.9924 77.1607 33.9918C78.4333 33.9903 79.706 33.9889 80.9787 33.9948C81.9429 33.9999 82.5313 34.493 82.5483 35.2787C82.5653 36.0695 82.0041 36.6426 81.045 36.6494C77.2833 36.6749 73.5233 36.6749 69.7616 36.6494C68.8534 36.6426 68.2174 35.9896 68.2531 35.2617C68.2923 34.4896 68.9011 33.9999 69.8636 33.9965C71.1695 33.9917 72.4763 33.9928 73.7833 33.9938C74.3434 33.9943 74.9035 33.9948 75.4636 33.9948V33.9931Z" fill="white"/>
<path d="M75.4636 33.9931C76.0293 33.9931 76.595 33.9924 77.1607 33.9918C78.4333 33.9903 79.706 33.9889 80.9787 33.9948C81.9429 33.9999 82.5313 34.493 82.5483 35.2787C82.5653 36.0695 82.0041 36.6426 81.045 36.6494C77.2833 36.6749 73.5233 36.6749 69.7616 36.6494C68.8534 36.6426 68.2174 35.9896 68.2531 35.2617C68.2923 34.4896 68.9011 33.9999 69.8636 33.9965C71.1695 33.9917 72.4763 33.9928 73.7833 33.9938C74.3434 33.9943 74.9035 33.9948 75.4636 33.9948V33.9931Z" stroke="white"/>
<path d="M11.4659 42.1405C10.9408 42.1405 10.4156 42.1408 9.89052 42.1411C8.5773 42.1418 7.26409 42.1425 5.95087 42.1388C4.96793 42.1354 4.39143 41.6746 4.35742 40.8889C4.32171 40.0607 4.8914 39.4927 5.91006 39.4859C9.61565 39.4621 13.3212 39.4655 17.0268 39.4842C18.0166 39.4893 18.6662 40.0811 18.6509 40.8498C18.6339 41.6491 18.0149 42.1354 16.9843 42.1388C15.7588 42.1422 14.5332 42.1411 13.3076 42.14C12.6949 42.1394 12.0821 42.1388 11.4693 42.1388L11.4659 42.1405Z" fill="white"/>
<path d="M11.4659 42.1405C10.9408 42.1405 10.4156 42.1408 9.89052 42.1411C8.5773 42.1418 7.26409 42.1425 5.95087 42.1388C4.96793 42.1354 4.39143 41.6746 4.35742 40.8889C4.32171 40.0607 4.8914 39.4927 5.91006 39.4859C9.61565 39.4621 13.3212 39.4655 17.0268 39.4842C18.0166 39.4893 18.6662 40.0811 18.6509 40.8498C18.6339 41.6491 18.0149 42.1354 16.9843 42.1388C15.7588 42.1422 14.5332 42.1411 13.3076 42.14C12.6949 42.1394 12.0821 42.1388 11.4693 42.1388L11.4659 42.1405Z" stroke="white"/>
<path d="M75.3832 42.1417C74.8317 42.1417 74.2803 42.1422 73.7289 42.1426C72.442 42.1437 71.1551 42.1448 69.8682 42.14C68.8954 42.1366 68.2968 41.6605 68.256 40.885C68.2169 40.1537 68.8478 39.499 69.7593 39.4922C73.521 39.465 77.2827 39.465 81.0444 39.4922C82.0087 39.499 82.5648 40.0687 82.5512 40.8595C82.5376 41.6435 81.9458 42.1366 80.9849 42.1417C79.678 42.1465 78.3718 42.1454 77.0653 42.1443C76.5053 42.1439 75.9452 42.1434 75.3849 42.1434L75.3832 42.1417Z" fill="white"/>
<path d="M75.3832 42.1417C74.8317 42.1417 74.2803 42.1422 73.7289 42.1426C72.442 42.1437 71.1551 42.1448 69.8682 42.14C68.8954 42.1366 68.2968 41.6605 68.256 40.885C68.2169 40.1537 68.8478 39.499 69.7593 39.4922C73.521 39.465 77.2827 39.465 81.0444 39.4922C82.0087 39.499 82.5648 40.0687 82.5512 40.8595C82.5376 41.6435 81.9458 42.1366 80.9849 42.1417C79.678 42.1465 78.3718 42.1454 77.0653 42.1443C76.5053 42.1439 75.9452 42.1434 75.3849 42.1434L75.3832 42.1417Z" stroke="white"/>
<path d="M81.3008 56.5641C81.294 58.4704 79.7601 59.9755 77.8435 59.9584C75.9763 59.9414 74.4832 58.433 74.4764 56.5556C74.4679 54.639 75.9814 53.1187 77.8962 53.1204C79.806 53.1204 81.3093 54.6407 81.3025 56.5641H81.3008ZM77.8265 55.4043C77.716 55.5884 77.6034 55.7479 77.5031 55.8899C77.3024 56.1742 77.1508 56.3889 77.1633 56.593C77.1786 56.8379 77.6922 57.2766 77.8962 57.2307C78.187 57.1661 78.5544 56.7545 78.5901 56.4569C78.6091 56.2938 78.4416 56.1086 78.2139 55.857C78.0952 55.7257 77.96 55.5763 77.8265 55.4026V55.4043Z" fill="white"/>
<path d="M81.3008 56.5641C81.294 58.4704 79.7601 59.9755 77.8435 59.9584C75.9763 59.9414 74.4832 58.433 74.4764 56.5556C74.4679 54.639 75.9814 53.1187 77.8962 53.1204C79.806 53.1204 81.3093 54.6407 81.3025 56.5641H81.3008ZM77.8265 55.4043C77.716 55.5884 77.6034 55.7479 77.5031 55.8899C77.3024 56.1742 77.1508 56.3889 77.1633 56.593C77.1786 56.8379 77.6922 57.2766 77.8962 57.2307C78.187 57.1661 78.5544 56.7545 78.5901 56.4569C78.6091 56.2938 78.4416 56.1086 78.2139 55.857C78.0952 55.7257 77.96 55.5763 77.8265 55.4026V55.4043Z" stroke="white"/>
<path d="M72.3283 56.5286C72.3283 58.4502 70.8216 59.962 68.9084 59.9586C67.0003 59.9535 65.5004 58.4315 65.5072 56.5064C65.514 54.6341 67.0054 53.1393 68.8863 53.1206C70.7995 53.1002 72.3266 54.6137 72.3283 56.5286ZM69.8097 56.753C69.8114 56.6916 69.8127 56.6302 69.8139 56.5689C69.8152 56.5064 69.8165 56.4441 69.8182 56.3823C69.7262 56.3186 69.6338 56.2395 69.5413 56.1603C69.3276 55.9775 69.1134 55.7943 68.9033 55.799C68.6499 55.8041 68.2316 56.2446 68.2129 56.515C68.1959 56.7547 68.6091 57.2105 68.8659 57.2377C69.0709 57.259 69.2949 57.102 69.5188 56.945C69.6163 56.8767 69.7138 56.8084 69.8097 56.7547V56.753Z" fill="white"/>
<path d="M72.3283 56.5286C72.3283 58.4502 70.8216 59.962 68.9084 59.9586C67.0003 59.9535 65.5004 58.4315 65.5072 56.5064C65.514 54.6341 67.0054 53.1393 68.8863 53.1206C70.7995 53.1002 72.3266 54.6137 72.3283 56.5286ZM69.8097 56.753C69.8114 56.6916 69.8127 56.6302 69.8139 56.5689C69.8152 56.5064 69.8165 56.4441 69.8182 56.3823C69.7262 56.3186 69.6338 56.2395 69.5413 56.1603C69.3276 55.9775 69.1134 55.7943 68.9033 55.799C68.6499 55.8041 68.2316 56.2446 68.2129 56.515C68.1959 56.7547 68.6091 57.2105 68.8659 57.2377C69.0709 57.259 69.2949 57.102 69.5188 56.945C69.6163 56.8767 69.7138 56.8084 69.8097 56.7547V56.753Z" stroke="white"/>
<path d="M18.4614 7.55904C18.4614 7.70869 18.4529 7.83794 18.4376 7.94848C18.4223 8.05901 18.3968 8.14745 18.361 8.21377C18.3253 8.28009 18.2828 8.32941 18.2318 8.36172C18.1808 8.39403 18.123 8.40934 18.0617 8.40934H13.7694V21.6382C13.7694 21.7012 13.7541 21.7556 13.7218 21.8032C13.6895 21.8508 13.6351 21.8882 13.5569 21.9154C13.4786 21.9426 13.3732 21.9665 13.244 21.9869C13.1147 22.0073 12.9515 22.0158 12.7542 22.0158C12.5569 22.0158 12.4039 22.0056 12.2712 21.9869C12.1369 21.9665 12.0314 21.9443 11.9532 21.9154C11.875 21.8882 11.8189 21.8508 11.7883 21.8032C11.7559 21.7556 11.7406 21.7012 11.7406 21.6382V8.40764H7.44834C7.38542 8.40764 7.3276 8.39233 7.27829 8.36002C7.22727 8.32941 7.18645 8.28009 7.15414 8.21207C7.12183 8.14575 7.09632 8.05731 7.07762 7.94678C7.05721 7.83624 7.04871 7.70699 7.04871 7.55734C7.04871 7.40769 7.05891 7.27674 7.07762 7.1628C7.09632 7.04886 7.12353 6.95703 7.15414 6.88561C7.18475 6.81418 7.22727 6.76316 7.27829 6.73255C7.3293 6.70194 7.38542 6.68494 7.44834 6.68494H18.06C18.123 6.68494 18.1791 6.70024 18.2301 6.73255C18.2811 6.76486 18.3236 6.81588 18.3593 6.88561C18.3951 6.95703 18.4206 7.04886 18.4359 7.1628C18.4512 7.27674 18.4597 7.40769 18.4597 7.55734L18.4614 7.55904Z" fill="#FFC200"/>
<path d="M31.6557 21.638C31.6557 21.7009 31.6404 21.7554 31.6081 21.803C31.5758 21.8506 31.5214 21.888 31.4431 21.9152C31.3649 21.9424 31.2612 21.9662 31.1302 21.9866C31.001 22.007 30.8411 22.0156 30.6524 22.0156C30.4483 22.0156 30.2833 22.0053 30.1575 21.9866C30.0317 21.9662 29.9296 21.9441 29.8514 21.9152C29.7732 21.888 29.717 21.8506 29.6864 21.803C29.6541 21.7554 29.6388 21.7009 29.6388 21.638V14.8697H22.6936V21.638C22.6936 21.7009 22.6783 21.7554 22.646 21.803C22.6137 21.8506 22.5593 21.888 22.481 21.9152C22.4028 21.9424 22.2991 21.9662 22.1681 21.9866C22.0389 22.007 21.8756 22.0156 21.6783 22.0156C21.4811 22.0156 21.328 22.0053 21.1954 21.9866C21.061 21.9662 20.9556 21.9441 20.8774 21.9152C20.7991 21.888 20.743 21.8506 20.7124 21.803C20.6801 21.7554 20.6648 21.7009 20.6648 21.638V6.99252C20.6648 6.9296 20.6801 6.87518 20.7124 6.82756C20.743 6.77995 20.7991 6.74253 20.8774 6.71533C20.9556 6.68812 21.0627 6.66431 21.1954 6.6439C21.3297 6.62349 21.4896 6.61499 21.6783 6.61499C21.8671 6.61499 22.0389 6.62519 22.1681 6.6439C22.2974 6.66431 22.4028 6.68642 22.481 6.71533C22.5593 6.74253 22.6154 6.77995 22.646 6.82756C22.6766 6.87518 22.6936 6.9296 22.6936 6.99252V13.101H29.6388V6.99252C29.6388 6.9296 29.6541 6.87518 29.6864 6.82756C29.717 6.77995 29.7732 6.74253 29.8514 6.71533C29.9296 6.68812 30.0317 6.66431 30.1575 6.6439C30.2833 6.62349 30.4483 6.61499 30.6524 6.61499C30.8411 6.61499 31.001 6.62519 31.1302 6.6439C31.2595 6.66431 31.3649 6.68642 31.4431 6.71533C31.5214 6.74253 31.5775 6.77995 31.6081 6.82756C31.6387 6.87518 31.6557 6.9296 31.6557 6.99252V21.638Z" fill="#FFC200"/>
<path d="M45.8867 21.6381C45.8867 21.701 45.8748 21.7555 45.851 21.8031C45.8272 21.8507 45.7761 21.8898 45.6979 21.9204C45.6197 21.951 45.5091 21.9748 45.368 21.9919C45.2268 22.0072 45.0381 22.0157 44.8017 22.0157C44.5976 22.0157 44.431 22.0072 44.3 21.9919C44.1708 21.9765 44.0653 21.951 43.9871 21.9153C43.9089 21.8796 43.8477 21.8303 43.8051 21.7674C43.7626 21.7045 43.7252 21.6262 43.6929 21.531L42.2899 17.9342C42.125 17.5261 41.9532 17.1503 41.7763 16.8084C41.5995 16.4666 41.3886 16.1724 41.1454 15.9241C40.9022 15.6759 40.6148 15.4837 40.2849 15.3459C39.955 15.2082 39.5571 15.1402 39.0945 15.1402H37.7391V21.6364C37.7391 21.6993 37.7221 21.7538 37.6864 21.8014C37.6507 21.849 37.5963 21.8864 37.5215 21.9136C37.4466 21.9408 37.3446 21.9646 37.2154 21.985C37.0861 22.0055 36.9228 22.014 36.7256 22.014C36.5283 22.014 36.3651 22.0038 36.2358 21.985C36.1066 21.9646 36.0011 21.9425 35.9229 21.9136C35.8447 21.8864 35.7886 21.849 35.7579 21.8014C35.7256 21.7538 35.7103 21.6993 35.7103 21.6364V7.51131C35.7103 7.2052 35.7903 6.99093 35.9518 6.86849C36.1134 6.74604 36.2834 6.68652 36.4654 6.68652H39.7084C40.0928 6.68652 40.4142 6.69673 40.6693 6.71543C40.9243 6.73584 41.1539 6.75625 41.3597 6.78006C41.9498 6.88209 42.4702 7.04365 42.9225 7.26302C43.3749 7.4824 43.7541 7.763 44.0602 8.09972C44.3663 8.43813 44.5959 8.82417 44.7507 9.26122C44.9037 9.69657 44.9803 10.1795 44.9803 10.705C44.9803 11.2305 44.9105 11.6744 44.7745 12.0791C44.6367 12.4838 44.4378 12.841 44.1793 13.1522C43.9208 13.4634 43.6096 13.7321 43.2474 13.96C42.8851 14.1878 42.4804 14.38 42.0331 14.5382C42.2848 14.6487 42.5127 14.7881 42.7168 14.9565C42.9208 15.1266 43.1113 15.3272 43.2882 15.5636C43.465 15.8 43.6317 16.0704 43.7898 16.3765C43.9463 16.6826 44.1045 17.0295 44.2609 17.4139L45.6282 20.7742C45.7387 21.0565 45.8084 21.2555 45.8408 21.3694C45.8714 21.4834 45.8884 21.5718 45.8884 21.6347L45.8867 21.6381ZM42.8324 10.9193C42.8324 10.3224 42.6981 9.81731 42.4311 9.40407C42.1641 8.99083 41.7151 8.69492 41.0876 8.51296C40.8903 8.45854 40.6693 8.41943 40.421 8.39562C40.1727 8.37181 39.8496 8.35991 39.4482 8.35991H37.7391V13.5008H39.7203C40.2543 13.5008 40.7169 13.4362 41.1063 13.3069C41.4957 13.1777 41.8206 12.9957 42.079 12.7644C42.3392 12.5332 42.5297 12.2594 42.6504 11.9448C42.7729 11.6301 42.8324 11.2883 42.8324 10.9193V10.9193Z" fill="#FFC200"/>
<path d="M57.3132 21.1075C57.3132 21.2487 57.3047 21.3728 57.2894 21.4783C57.2741 21.5837 57.2469 21.6721 57.2061 21.7436C57.167 21.815 57.121 21.866 57.07 21.8966C57.019 21.9289 56.9612 21.9442 56.9 21.9442H49.5772C49.3969 21.9442 49.2252 21.883 49.0636 21.7623C48.9021 21.6398 48.8221 21.4256 48.8221 21.1194V7.51131C48.8221 7.2052 48.9021 6.99093 49.0636 6.86849C49.2252 6.74604 49.3952 6.68652 49.5772 6.68652H56.8166C56.8795 6.68652 56.9357 6.70183 56.9884 6.73414C57.0394 6.76645 57.0802 6.81747 57.1125 6.88719C57.1431 6.95862 57.1687 7.04705 57.1891 7.15249C57.2095 7.25792 57.218 7.39057 57.218 7.54702C57.218 7.68817 57.2078 7.81232 57.1891 7.91775C57.1687 8.02319 57.1431 8.10992 57.1125 8.17794C57.0802 8.24427 57.0394 8.29358 56.9884 8.32589C56.9374 8.35821 56.8795 8.37351 56.8166 8.37351H50.851V13.1607H55.968C56.031 13.1607 56.0871 13.1777 56.1398 13.2134C56.1908 13.2491 56.2333 13.2984 56.269 13.3613C56.3047 13.4243 56.3303 13.511 56.3456 13.6215C56.3609 13.7321 56.3694 13.8613 56.3694 14.011C56.3694 14.1521 56.3609 14.2746 56.3456 14.3766C56.3303 14.4786 56.3047 14.562 56.269 14.6249C56.2333 14.6878 56.1908 14.7337 56.1398 14.7609C56.0888 14.7881 56.031 14.8017 55.968 14.8017H50.851V20.2606H56.9C56.9629 20.2606 57.019 20.276 57.07 20.3083C57.121 20.3406 57.167 20.3882 57.2061 20.4562C57.2452 20.5225 57.2724 20.6093 57.2894 20.7164C57.3047 20.8218 57.3132 20.9545 57.3132 21.1109V21.1075Z" fill="#FFC200"/>
<path d="M71.7822 21.2245C71.8451 21.398 71.8791 21.5374 71.8825 21.6429C71.8859 21.7483 71.857 21.83 71.7941 21.8844C71.7311 21.9388 71.6274 21.9745 71.4812 21.9898C71.3349 22.0051 71.141 22.0136 70.8979 22.0136C70.6547 22.0136 70.4591 22.0068 70.3146 21.9966C70.1683 21.9847 70.0595 21.9643 69.9846 21.9371C69.9098 21.9099 69.8554 21.8725 69.8197 21.8248C69.784 21.7772 69.75 21.7194 69.7193 21.648L68.4099 17.9339H62.0667L60.8168 21.6004C60.7929 21.6718 60.7623 21.7313 60.7232 21.784C60.6841 21.8351 60.6263 21.8776 60.5532 21.9133C60.4783 21.949 60.3729 21.9745 60.2351 21.9898C60.0974 22.0051 59.9188 22.0136 59.6995 22.0136C59.4801 22.0136 59.2845 22.0034 59.14 21.9847C58.9937 21.9643 58.8917 21.9286 58.8339 21.8725C58.7743 21.818 58.7471 21.7364 58.7505 21.631C58.7539 21.5255 58.7879 21.3861 58.8509 21.2126L63.9679 7.0399C63.9986 6.95317 64.0411 6.88345 64.0921 6.82733C64.1431 6.77291 64.2179 6.72869 64.3166 6.69808C64.4152 6.66747 64.541 6.64536 64.6941 6.63346C64.8472 6.62156 65.0427 6.61646 65.2774 6.61646C65.5291 6.61646 65.7366 6.62326 65.9015 6.63346C66.0665 6.64536 66.2008 6.66747 66.3029 6.69808C66.4049 6.73039 66.4831 6.77461 66.5392 6.83413C66.5937 6.89365 66.6379 6.96508 66.6685 7.05181L71.7856 21.2245H71.7822ZM65.2145 8.71329H65.2026L62.5735 16.3183H67.8793L65.2145 8.71329Z" fill="#FFC200"/>
<path d="M82.0039 7.55904C82.0039 7.70869 81.9954 7.83794 81.98 7.94848C81.9647 8.05901 81.9392 8.14745 81.9035 8.21377C81.8678 8.28009 81.8253 8.32941 81.7743 8.36172C81.7233 8.39403 81.6654 8.40934 81.6042 8.40934H77.3119V21.6382C77.3119 21.7012 77.2966 21.7556 77.2643 21.8032C77.232 21.8508 77.1776 21.8882 77.0994 21.9154C77.0211 21.9426 76.9157 21.9665 76.7864 21.9869C76.6572 22.0073 76.4939 22.0158 76.2967 22.0158C76.0994 22.0158 75.9463 22.0056 75.8137 21.9869C75.6794 21.9665 75.5739 21.9443 75.4957 21.9154C75.4175 21.8882 75.3613 21.8508 75.3307 21.8032C75.2984 21.7556 75.2831 21.7012 75.2831 21.6382V8.40764H70.9908C70.9279 8.40764 70.8701 8.39233 70.8208 8.36002C70.7697 8.32941 70.7289 8.28009 70.6966 8.21207C70.6643 8.14575 70.6388 8.05731 70.6201 7.94678C70.5997 7.83624 70.5912 7.70699 70.5912 7.55734C70.5912 7.40769 70.6014 7.27674 70.6201 7.1628C70.6388 7.04886 70.666 6.95703 70.6966 6.88561C70.7272 6.81418 70.7697 6.76316 70.8208 6.73255C70.8718 6.70194 70.9279 6.68494 70.9908 6.68494H81.6025C81.6654 6.68494 81.7216 6.70024 81.7726 6.73255C81.8236 6.76486 81.8661 6.81588 81.9018 6.88561C81.9375 6.95703 81.963 7.04886 81.9783 7.1628C81.9937 7.27674 82.0022 7.40769 82.0022 7.55734L82.0039 7.55904Z" fill="#FFC200"/>
</svg>
