<svg width="20" height="20" viewBox="0 0 20 20" fill="none" xmlns="http://www.w3.org/2000/svg">
<g clip-path="url(#clip0_5489_1522)">
<path d="M19.8839 7.94007C19.7803 8.30599 19.533 8.55408 19.2662 8.79656C17.9777 9.96687 16.6973 11.146 15.4096 12.3171C15.2956 12.4209 15.2599 12.5111 15.2948 12.6702C15.6999 14.5014 16.0961 16.3346 16.4958 18.167C16.6056 18.6696 16.4716 19.1125 16.1107 19.373C15.711 19.6616 15.304 19.6428 14.8932 19.3854C13.3483 18.4179 11.8007 17.4548 10.2573 16.4845C10.1371 16.4088 10.0523 16.4096 9.93287 16.4845C8.38334 17.4572 6.83188 18.426 5.2785 19.3919C4.6335 19.7931 3.881 19.5165 3.69595 18.7995C3.6468 18.6091 3.64719 18.3859 3.68827 18.1923C4.07834 16.3579 4.47916 14.5255 4.88613 12.695C4.92644 12.5127 4.88344 12.4113 4.75329 12.2931C3.40262 11.0658 2.05849 9.8306 0.710897 8.59977C0.354995 8.27473 0.210253 7.87634 0.35653 7.40301C0.496664 6.94891 0.815709 6.69682 1.2745 6.65233C2.21283 6.56095 3.15115 6.47157 4.08986 6.3826C4.97788 6.29843 5.86553 6.21266 6.75394 6.13491C6.88832 6.12328 6.9317 6.04353 6.97662 5.93411C7.68228 4.2051 8.39293 2.47849 9.09629 0.748681C9.2871 0.278954 9.60653 -0.00119852 10.0995 3.85465e-06C10.5852 0.00120623 10.9004 0.28176 11.0877 0.741467C11.7873 2.45885 12.4956 4.17224 13.1874 5.89283C13.2684 6.09403 13.384 6.12809 13.5599 6.14413C15.3486 6.31005 17.1369 6.47999 18.9245 6.65433C19.4094 6.70163 19.7135 6.98699 19.8509 7.47154C19.8578 7.49599 19.8728 7.51764 19.8843 7.54048V7.93967L19.8839 7.94007Z" fill="white"/>
</g>
<defs>
<clipPath id="clip0_5489_1522">
<rect width="19.5838" height="19.5838" fill="white" transform="translate(0.300415)"/>
</clipPath>
</defs>
</svg>
