<svg width="26" height="26" viewBox="0 0 26 26" fill="none" xmlns="http://www.w3.org/2000/svg">
<path d="M25.2131 10.2224C25.0796 10.6935 24.7613 11.0129 24.4178 11.325C22.7589 12.8317 21.1105 14.3498 19.4527 15.8575C19.3059 15.9912 19.2599 16.1073 19.3049 16.3121C19.8264 18.6697 20.3365 21.0299 20.851 23.389C20.9924 24.036 20.8199 24.6062 20.3552 24.9416C19.8407 25.3131 19.3167 25.2889 18.7879 24.9576C16.7989 23.712 14.8064 22.4721 12.8194 21.2228C12.6646 21.1253 12.5554 21.1264 12.4017 21.2228C10.4067 22.4752 8.40934 23.7223 6.40946 24.9659C5.57906 25.4824 4.61026 25.1263 4.37201 24.2032C4.30875 23.9581 4.30924 23.6707 4.36213 23.4215C4.86432 21.0598 5.38036 18.7007 5.9043 16.3441C5.9562 16.1093 5.90084 15.9788 5.73328 15.8266C3.99438 14.2466 2.26389 12.6563 0.528942 11.0717C0.0707393 10.6532 -0.115606 10.1403 0.0727165 9.53093C0.253131 8.94631 0.663882 8.62175 1.25455 8.56448C2.46259 8.44683 3.67062 8.33176 4.87915 8.21721C6.02243 8.10885 7.16522 7.99843 8.309 7.89833C8.482 7.88336 8.53785 7.78068 8.59569 7.63981C9.50418 5.41382 10.4191 3.19091 11.3246 0.963882C11.5703 0.359137 11.9815 -0.00154302 12.6162 4.96264e-06C13.2415 0.00155295 13.6473 0.362749 13.8885 0.954594C14.7891 3.16563 15.701 5.3715 16.5917 7.58667C16.696 7.8457 16.8448 7.88956 17.0712 7.9102C19.3741 8.12382 21.6765 8.3426 23.9779 8.56706C24.6021 8.62794 24.9936 8.99533 25.1706 9.61917C25.1795 9.65064 25.1987 9.67851 25.2136 9.70792V10.2218L25.2131 10.2224Z" fill="#FFC200"/>
</svg>
