<svg width="73" height="86" viewBox="0 0 73 86" fill="none" xmlns="http://www.w3.org/2000/svg">
<path d="M35.0207 10.1395C36.2518 10.6188 37.481 11.1067 38.7141 11.5796C40.8235 12.3884 42.9368 13.1886 45.0578 13.9953V34.5279C44.1989 34.2048 43.3498 33.886 42.5044 33.5651C39.8619 32.5594 37.2193 31.5495 34.5728 30.5481C34.4197 30.4903 34.251 30.4668 34.0881 30.4668C28.3241 30.4625 22.5582 30.4625 16.7941 30.4668C16.5964 30.4668 16.3889 30.5138 16.2009 30.5844C12.7673 31.8875 9.33559 33.1992 5.90199 34.5065C5.86709 34.5194 5.82637 34.5194 5.7876 34.5258C5.7876 27.668 5.7876 20.8081 5.7876 13.9503C5.92137 13.9204 6.06097 13.9054 6.18893 13.8562C8.37007 13.026 10.5512 12.1958 12.7304 11.3592C13.7677 10.9612 14.801 10.5482 15.8364 10.1417C22.2305 10.1417 28.6227 10.1417 35.0168 10.1417L35.0207 10.1395ZM33.08 27.0646V13.5502H17.781V27.0646H33.0819H33.08ZM8.87609 16.4324V29.7628C10.8343 29.0182 12.7614 28.2843 14.677 27.5546V14.2264C12.7246 14.9688 10.7974 15.7006 8.87609 16.4324V16.4324ZM36.182 27.5525C38.117 28.2885 40.0441 29.0203 41.9887 29.7585V16.426C40.0538 15.6921 38.1286 14.9603 36.182 14.2221V27.5503V27.5525Z" fill="white"/>
<path d="M7.02783 55.6095V52.2608H14.6919C14.6919 51.6681 14.6919 51.1097 14.6919 50.5512C14.6958 47.7375 16.7392 45.478 19.2868 45.4737C21.0647 45.4715 22.8406 45.4737 24.6301 45.4459C23.3001 45.095 22.228 44.3418 21.5087 43.0451C20.7894 41.7485 20.6285 40.3576 21.0259 38.9091C21.6754 36.5383 23.8876 34.9699 26.0222 35.3357C28.339 35.7337 30.0277 37.8242 30.0355 40.3106C30.0452 42.9039 28.4088 45.0286 26.0978 45.4715H26.5185C28.2188 45.4715 29.9192 45.4673 31.6195 45.4715C34.1147 45.478 36.1659 47.7503 36.1737 50.5084C36.1737 51.0712 36.1737 51.6339 36.1737 52.2309H43.8242V55.6095H7.02783V55.6095ZM33.1007 52.2373C33.1007 51.6275 33.124 51.0498 33.0949 50.4763C33.0484 49.5584 32.4027 48.8673 31.5652 48.8651C27.4763 48.8544 23.3874 48.8544 19.3004 48.8651C18.5307 48.8651 17.9064 49.4236 17.8075 50.2688C17.7319 50.9128 17.792 51.5761 17.792 52.2394H33.1007V52.2373ZM26.9644 40.3769C26.9567 39.4611 26.2335 38.6822 25.4095 38.6972C24.5778 38.7143 23.8759 39.5146 23.8973 40.424C23.9186 41.3269 24.6204 42.0844 25.4328 42.0822C26.2607 42.0822 26.9722 41.2884 26.9644 40.3769Z" fill="white"/>
<path d="M33.0807 27.063H17.7817V13.5486H33.0827V27.063H33.0807Z" fill="#FFC200"/>
<path d="M8.87671 16.4313C10.8 15.6995 12.7271 14.9677 14.6776 14.2252V27.5535C12.7601 28.2831 10.8349 29.0149 8.87671 29.7616V16.4313Z" fill="#FFC200"/>
<path d="M36.1804 27.5535V14.2252C38.127 14.9634 40.0503 15.6931 41.9871 16.4291V29.7616C40.0425 29.0234 38.1153 28.2895 36.1804 27.5556V27.5535Z" fill="#FFC200"/>
<path d="M33.0992 52.2385H17.7905C17.7905 51.5752 17.7304 50.9119 17.806 50.2678C17.9049 49.4226 18.5292 48.8663 19.2989 48.8642C23.3878 48.8556 27.4767 48.8535 31.5637 48.8642C32.4012 48.8663 33.0468 49.5574 33.0934 50.4754C33.1224 51.0488 33.0992 51.6265 33.0992 52.2364V52.2385Z" fill="white"/>
<path d="M26.9632 40.3776C26.9709 41.2891 26.2594 42.0808 25.4315 42.0829C24.6192 42.0829 23.9173 41.3276 23.896 40.4247C23.8747 39.5174 24.5765 38.715 25.4082 38.6979C26.2322 38.6808 26.9535 39.4618 26.9632 40.3776Z" fill="white"/>
<path d="M7.47897 74.3212C7.25138 74.2421 7.02043 74.1696 6.78941 74.0971C6.29619 73.9424 5.8026 73.7876 5.34048 73.5671C1.85841 71.89 0.0514541 69.1001 0.0184946 65.2322C-0.00609234 62.3705 -0.000846402 59.5079 0.00440006 56.645C0.00660032 55.4444 0.00880068 54.2437 0.00880068 53.043C0.00880068 49.3971 0.00928537 45.7512 0.00977007 42.1053C0.0112242 31.1676 0.0126783 20.2299 0.00104551 9.29222C-0.000893286 6.50617 0.914217 4.13503 2.99454 2.26797C4.61149 0.815818 6.5212 0.00928058 8.71592 0.00734178C19.8911 -0.000413386 31.0663 -0.00429097 42.2415 0.00734178C46.7066 0.0112194 50.5841 3.67166 50.8982 8.13088C50.8999 8.15515 50.9016 8.17943 50.9033 8.2037C50.9269 8.54197 50.9506 8.88013 50.9506 9.21661C50.9509 12.3233 50.9513 15.4301 50.9516 18.5368C50.9535 34.0522 50.9554 49.5675 50.9506 65.0829C50.9506 68.9799 49.1882 71.8221 45.6906 73.5399C45.1898 73.7857 44.6439 73.9405 44.0984 74.0952C43.8436 74.1675 43.5889 74.2398 43.3389 74.3212H7.47897ZM2.96158 37.0867C2.96158 39.7276 2.96592 42.3685 2.97027 45.0093C2.98128 51.7056 2.99229 58.4015 2.9325 65.0965C2.90342 68.3885 5.37538 71.4421 9.27429 71.4286C16.3276 71.4071 23.3801 71.4103 30.4328 71.4136C34.1938 71.4153 37.9548 71.417 41.7161 71.415C45.4463 71.4131 47.9958 68.8655 47.9958 65.1372C47.9997 46.4879 47.9997 27.8387 47.9958 9.18946C47.9958 5.46116 45.4463 2.90971 41.72 2.90777C30.8821 2.90196 20.0443 2.90196 9.20449 2.91553C8.60734 2.91553 7.99275 2.98533 7.41693 3.13655C4.70649 3.84421 2.96546 6.13586 2.96352 9.00334C2.9577 16.0236 2.95843 23.0439 2.95916 30.065C2.9594 32.4055 2.95964 34.746 2.95964 37.0867H2.96158Z" fill="white"/>
<path d="M7.47897 74.3212C7.25138 74.2421 7.02043 74.1696 6.78941 74.0971C6.29619 73.9424 5.8026 73.7876 5.34048 73.5671C1.85841 71.89 0.0514541 69.1001 0.0184946 65.2322C-0.00609234 62.3705 -0.000846402 59.5079 0.00440006 56.645C0.00660032 55.4444 0.00880068 54.2437 0.00880068 53.043C0.00880068 49.3971 0.00928537 45.7512 0.00977007 42.1053C0.0112242 31.1676 0.0126783 20.2299 0.00104551 9.29222C-0.000893286 6.50617 0.914217 4.13503 2.99454 2.26797C4.61149 0.815818 6.5212 0.00928058 8.71592 0.00734178C19.8911 -0.000413386 31.0663 -0.00429097 42.2415 0.00734178C46.7066 0.0112194 50.5841 3.67166 50.8982 8.13088C50.8999 8.15515 50.9016 8.17943 50.9033 8.2037C50.9269 8.54197 50.9506 8.88013 50.9506 9.21661C50.9509 12.3233 50.9513 15.4301 50.9516 18.5368C50.9535 34.0522 50.9554 49.5675 50.9506 65.0829C50.9506 68.9799 49.1882 71.8221 45.6906 73.5399C45.1898 73.7857 44.6439 73.9405 44.0984 74.0952C43.8436 74.1675 43.5889 74.2398 43.3389 74.3212H7.47897ZM2.96158 37.0867C2.96158 39.7276 2.96592 42.3685 2.97027 45.0093C2.98128 51.7056 2.99229 58.4015 2.9325 65.0965C2.90342 68.3885 5.37538 71.4421 9.27429 71.4286C16.3276 71.4071 23.3801 71.4103 30.4328 71.4136C34.1938 71.4153 37.9548 71.417 41.7161 71.415C45.4463 71.4131 47.9958 68.8655 47.9958 65.1372C47.9997 46.4879 47.9997 27.8387 47.9958 9.18946C47.9958 5.46116 45.4463 2.90971 41.72 2.90777C30.8821 2.90196 20.0443 2.90196 9.20449 2.91553C8.60734 2.91553 7.99275 2.98533 7.41693 3.13655C4.70649 3.84421 2.96546 6.13586 2.96352 9.00334C2.9577 16.0236 2.95843 23.0439 2.95916 30.065C2.9594 32.4055 2.95964 34.746 2.95964 37.0867H2.96158Z" stroke="white"/>
<path d="M25.4433 62.1467C19.9759 62.1467 14.5085 62.1467 9.0392 62.1467C7.96511 62.1467 7.36602 61.6794 7.30398 60.8225C7.24388 59.983 7.80225 59.318 8.64175 59.2365C8.78522 59.223 8.93257 59.2307 9.07798 59.2307C20.0128 59.2307 30.9495 59.2307 41.8843 59.2307C42.9681 59.2307 43.5691 59.6786 43.6505 60.5336C43.7339 61.4138 43.1697 62.0943 42.2817 62.135C41.6536 62.1641 41.0235 62.1467 40.3953 62.1467C35.4107 62.1467 30.428 62.1467 25.4433 62.1467V62.1467Z" fill="white"/>
<path d="M25.4446 68.0964C24.6962 68.0964 23.9478 68.1139 23.1995 68.0925C22.3503 68.0693 21.7144 67.4237 21.726 66.6326C21.7357 65.8784 22.3658 65.2057 23.1607 65.1921C24.7059 65.165 26.2511 65.165 27.7963 65.1921C28.5932 65.2057 29.2214 65.8746 29.2349 66.6307C29.2485 67.4237 28.6165 68.0693 27.7634 68.0925C26.9917 68.1139 26.2182 68.0964 25.4465 68.0964H25.4446Z" fill="white"/>
<path d="M32.9545 50.4519C32.9545 48.0263 32.9524 45.6007 32.9545 43.1731C32.9565 41.6248 33.5366 40.83 35.0106 40.4069C40.6152 38.7925 46.2199 37.172 51.837 35.6011C52.4212 35.438 53.1314 35.4545 53.7176 35.6176C59.2624 37.1638 64.7949 38.7554 70.3294 40.3408C71.9272 40.7991 72.5176 41.5938 72.5197 43.2577C72.5197 47.5928 72.6311 51.9321 72.499 56.2651C72.0985 69.351 65.9901 78.8036 54.2771 84.6189C53.2531 85.1267 52.3118 85.1453 51.2611 84.6436C41.2139 79.8337 35.1509 71.9397 33.3591 60.9512C32.8203 57.6462 33.0659 54.2132 32.9545 50.838C32.9503 50.71 32.9545 50.5799 32.9545 50.4499V50.4519ZM50.5179 58.3646C49.7685 57.6235 49.0914 56.9546 48.4143 56.2858C47.3099 55.1958 45.7761 55.1401 44.7708 56.1516C43.784 57.1445 43.817 58.6618 44.8616 59.7518C46.0754 61.0172 47.2934 62.2765 48.5175 63.5295C49.8408 64.8858 51.2115 64.8776 52.5409 63.5172C52.7391 63.3149 52.9352 63.1105 53.1314 62.9061C55.623 60.2968 58.1271 57.6978 60.6022 55.074C61.6117 54.0047 61.5704 52.5018 60.5733 51.5357C59.5721 50.5655 58.094 50.5944 57.0392 51.6142C56.779 51.864 56.5396 52.1344 56.2898 52.3945C54.3741 54.3763 52.4604 56.358 50.52 58.3646H50.5179Z" fill="#FFC200"/>
<path d="M50.5182 58.3641C52.4587 56.3575 54.3744 54.3758 56.2881 52.394C56.5378 52.1339 56.7794 51.8634 57.0374 51.6137C58.0923 50.5939 59.5704 50.565 60.5716 51.5352C61.5687 52.5013 61.6079 54.0042 60.6005 55.0735C58.1253 57.6973 55.6213 60.2963 53.1296 62.9056C52.9335 63.11 52.7374 63.3144 52.5392 63.5167C51.2098 64.8771 49.8411 64.8853 48.5158 63.529C47.2917 62.2739 46.0737 61.0147 44.8599 59.7513C43.8153 58.6613 43.7823 57.144 44.769 56.1511C45.7764 55.1375 47.3082 55.1932 48.4126 56.2853C49.0897 56.9541 49.7668 57.623 50.5162 58.3641H50.5182Z" fill="#FCFCFD"/>
</svg>
