<svg width="15" height="24" viewBox="0 0 15 24" fill="none" xmlns="http://www.w3.org/2000/svg">
<g clip-path="url(#clip0_5424_5152)">
<path d="M12.9423 0H2.04622C0.920797 0 0 0.920797 0 2.04622V21.2167C0 22.3421 0.920797 23.2629 2.04622 23.2629H12.9423C14.0677 23.2629 14.9885 22.3421 14.9885 21.2167V2.04622C14.9885 0.920797 14.0677 0 12.9423 0ZM13.6201 21.2167C13.6201 21.5876 13.3132 21.8945 12.9423 21.8945H2.04622C1.67534 21.8945 1.36841 21.5876 1.36841 21.2167V20.5389H13.6201V21.2167V21.2167ZM13.6201 19.1705H1.36841V2.04622C1.36841 1.67534 1.67534 1.36841 2.04622 1.36841H12.9423C13.3132 1.36841 13.6201 1.67534 13.6201 2.04622V19.1705Z" fill="#173371"/>
<path d="M6.12581 4.09243H8.84983C9.22071 4.09243 9.52764 3.7855 9.52764 3.41463C9.52764 3.04375 9.22071 2.73682 8.84983 2.73682H6.12581C5.75493 2.73682 5.448 3.04375 5.448 3.41463C5.448 3.7855 5.75493 4.09243 6.12581 4.09243Z" fill="#173371"/>
<path d="M10.896 10.2311V8.93943C10.896 7.05947 9.37413 5.5376 7.49417 5.5376C5.61421 5.5376 4.09233 7.05947 4.09233 8.93943V10.2311C3.5552 10.4869 3.18433 11.0368 3.18433 11.6635V16.2035C3.18433 17.0859 3.9005 17.7893 4.77014 17.7893H10.2182C11.1006 17.7893 11.804 17.0731 11.804 16.2035V11.6635C11.804 11.0368 11.4331 10.4869 10.896 10.2311ZM5.44795 8.93943C5.44795 7.81401 6.36875 6.89322 7.49417 6.89322C8.61959 6.89322 9.54039 7.81401 9.54039 8.93943V10.0776H5.44795V8.93943V8.93943ZM10.4484 16.2035C10.4484 16.3314 10.3461 16.4337 10.2182 16.4337H4.77014C4.64226 16.4337 4.53994 16.3314 4.53994 16.2035V11.6635C4.53994 11.5356 4.64226 11.4333 4.77014 11.4333H10.2182C10.3461 11.4333 10.4484 11.5356 10.4484 11.6635V16.2035V16.2035Z" fill="#FFC200"/>
<path d="M8.45339 12.4947L7.00825 13.9399L6.52228 13.4539C6.25371 13.1853 5.81889 13.1853 5.56311 13.4539C5.30734 13.7225 5.29455 14.1573 5.56311 14.4131L6.52228 15.3722C6.77805 15.6408 7.23845 15.6408 7.48144 15.3722L9.41256 13.4411C9.68112 13.1725 9.68112 12.7377 9.41256 12.4819C9.14399 12.2134 8.70917 12.2134 8.45339 12.4819V12.4947Z" fill="#FFC200"/>
</g>
<defs>
<clipPath id="clip0_5424_5152">
<rect width="14.9885" height="23.2501" fill="white"/>
</clipPath>
</defs>
</svg>
