<svg width="25" height="25" viewBox="0 0 25 25" fill="none" xmlns="http://www.w3.org/2000/svg">
<path d="M12.5085 0.00117837C19.4702 0.0414917 25.0098 5.67006 24.9709 12.6651C24.9334 19.4238 19.2992 24.9926 12.4904 25.001C5.5232 25.0079 -0.0455923 19.3251 0.000281391 12.2564C0.044765 5.55885 5.75674 -0.0377448 12.5085 0.00117837ZM12.4487 22.4557C17.9522 22.4751 22.4395 18.0226 22.4631 12.5219C22.4854 7.06017 18.0259 2.5715 12.5488 2.5437C7.03703 2.51589 2.54975 6.94479 2.50944 12.4483C2.46912 17.9239 6.95224 22.4348 12.4501 22.4543L12.4487 22.4557Z" fill="#021747"/>
<path d="M12.4488 22.4571C6.95085 22.4376 2.46774 17.9267 2.50805 12.4511C2.54837 6.94623 7.03704 2.51871 12.5474 2.54652C18.0245 2.57293 22.4854 7.0616 22.4617 12.5247C22.4381 18.0254 17.9508 22.4766 12.4474 22.4585L12.4488 22.4571ZM10.985 14.2471C10.0967 13.4325 9.23342 12.6568 8.39101 11.8617C8.04765 11.5378 7.689 11.2931 7.1969 11.3598C6.71175 11.4252 6.35032 11.6921 6.17795 12.1452C5.98333 12.6582 6.1001 13.1322 6.48656 13.5312C7.58335 14.6655 8.67737 15.8026 9.77556 16.937C10.5582 17.7446 11.2574 17.7196 12.0206 16.8689C13.1549 15.6038 14.2934 14.3416 15.4292 13.078C16.4606 11.9298 17.506 10.7941 18.5166 9.62914C19.22 8.81732 18.8447 7.69828 17.8257 7.50505C17.2683 7.3994 16.8749 7.68855 16.5204 8.08473C14.6479 10.1782 12.7685 12.2648 10.985 14.2485V14.2471Z" fill="#021747"/>
<path d="M10.9849 14.2471C12.7671 12.2634 14.6479 10.1768 16.5204 8.08332C16.8748 7.68713 17.2682 7.39799 17.8257 7.50364C18.8446 7.69686 19.22 8.81591 18.5166 9.62773C17.506 10.794 16.4606 11.9298 15.4291 13.0766C14.2934 14.3402 13.1549 15.6024 12.0206 16.8674C11.2574 17.7182 10.5582 17.7432 9.77554 16.9356C8.67735 15.8012 7.58333 14.6655 6.48653 13.5298C6.10008 13.1294 5.98331 12.6554 6.17793 12.1438C6.3503 11.692 6.71034 11.4238 7.19688 11.3584C7.68898 11.2917 8.04763 11.5364 8.39099 11.8603C9.23479 12.6568 10.098 13.4325 10.9849 14.2457V14.2471Z" fill="white"/>
</svg>
