<svg width="82" height="86" viewBox="0 0 82 86" fill="none" xmlns="http://www.w3.org/2000/svg">
<path d="M63.9103 45.2962C63.9078 44.3895 63.9078 43.4829 63.9078 42.5762H63.954C63.954 41.8039 63.954 41.0341 63.954 40.2618V39.3576C63.954 37.3683 63.9565 35.3766 63.9565 33.3897C63.9565 33.0891 63.9565 32.786 63.954 32.4855C63.9565 31.3002 63.954 30.1173 63.9492 28.9321C63.9467 28.436 63.9467 27.9399 63.9443 27.4438C63.9443 27.1432 63.9443 26.8401 63.9419 26.5395C63.937 22.5511 63.9394 18.5652 63.8421 14.5792C63.7375 10.2951 61.6403 7.70462 57.789 6.94213C56.6918 6.72463 55.5556 6.67819 54.4389 6.67575C41.6175 6.65864 28.7985 6.65864 15.977 6.6733C14.8579 6.67575 13.7339 6.74662 12.6196 6.87615C9.31083 7.25739 7.09932 9.32246 6.44973 12.7879C6.17968 14.2371 6.11885 15.7498 6.11642 17.2357C6.09452 34.0691 6.10182 50.9049 6.10669 67.7383C6.10669 68.7231 6.14318 69.708 6.204 70.688C6.44973 74.7277 8.38633 77.1985 12.043 77.9976C13.1938 78.2494 14.3908 78.3349 15.5683 78.3349C28.3581 78.3593 41.1479 78.3544 53.9353 78.3422C55.0861 78.3398 56.2466 78.2933 57.3852 78.1369C60.0833 77.7704 62.1877 76.4751 63.1804 73.7306C63.2607 73.5131 63.3336 73.2883 63.3969 73.0537C63.4164 72.9828 63.4358 72.9095 63.4529 72.8386C63.7253 71.778 63.8786 70.6538 63.8835 69.5565C63.8859 69.0017 63.8884 68.4494 63.8908 67.8947C63.8908 67.5941 63.8908 67.291 63.8908 66.9904C63.9054 62.6501 63.9078 58.3098 63.9078 53.972V53.0677C63.9078 51.3961 63.9054 49.727 63.9054 48.0602C64.3044 48.0456 64.7058 48.048 65.1072 48.0651C66.8224 48.1409 68.4744 48.4513 70.0242 48.9718C70.0242 50.8023 70.0242 52.6352 70.0266 54.4656V55.3723C70.0315 59.0967 70.0388 62.8163 70.0509 66.5408C70.0509 66.8414 70.0509 67.1444 70.0509 67.445C70.0534 68.2857 70.0558 69.1288 70.0582 69.9695C70.0607 70.8444 69.9998 71.6949 69.8733 72.516C69.8271 72.8288 69.7711 73.1368 69.7055 73.4423C68.2311 80.4391 62.2729 85.2046 55.2953 85.0042C41.7707 84.6181 28.2292 84.8674 14.6949 84.9407C12.5442 84.9504 10.4786 84.7916 8.48608 83.9167C3.28208 81.6292 -0.00478732 76.2991 0.00251141 70.2188C0.0122431 60.9883 0.00494433 51.7578 0.00494433 42.5273C0.00494433 33.2968 0.0244076 24.0663 7.85027e-05 14.8383C-0.0266835 6.11366 6.79277 -0.230627 14.7557 0.00642868C28.2803 0.404779 41.8243 0.143285 55.3586 0.0724132C57.3146 0.0626377 59.2099 0.170168 61.0467 0.874002C66.567 2.98795 70.0728 8.61129 70.0607 14.9971C70.0509 19.4059 70.0436 23.8122 70.0388 28.2209C70.0388 28.5215 70.0388 28.8245 70.0388 29.1251C70.0339 33.9787 70.029 38.8273 70.029 43.6808L63.9127 45.2962H63.9103Z" fill="white"/>
<path d="M81.5801 63.2197C81.5022 62.313 81.3976 61.4014 81.2079 60.5119C79.9306 54.5562 75.6438 49.947 70.0286 48.0677C68.4789 47.5471 66.8269 47.2368 65.1117 47.161C64.7103 47.1439 64.3088 47.1414 63.9099 47.1561C56.9931 47.4005 50.5653 52.3225 48.5387 59.1775C48.1397 60.5339 47.9135 61.9684 47.8113 63.3834C47.5631 66.8537 49.4827 69.0263 52.373 70.478C55.6185 72.108 59.0878 72.6481 63.1824 72.8265C63.9561 72.8607 64.7516 72.8827 65.574 72.8949C66.4376 72.8192 68.0434 72.7434 69.7123 72.5381C69.9216 72.5137 70.1332 72.4868 70.3425 72.4575C73.1987 72.0567 75.9795 71.3455 78.4003 69.6641C80.6361 68.1123 81.8136 66.0032 81.5801 63.2197ZM74.4663 65.1894C73.06 65.8908 71.576 66.2843 70.0578 66.5409C69.4058 66.6533 68.7489 66.7388 68.0896 66.8097C66.9461 66.9368 65.7929 66.971 64.8611 67.0321C64.5351 67.0199 64.214 67.0052 63.8928 66.9906C61.0414 66.8513 58.3677 66.5971 55.8204 65.5853C53.6113 64.708 53.4094 64.317 53.896 61.9635C54.9227 57.022 59.1584 53.3562 63.9123 53.0678C63.9609 53.0654 64.012 53.0629 64.0607 53.0605C66.1919 52.9627 68.2502 53.4711 70.0311 54.4682C72.5686 55.8832 74.5465 58.2928 75.3713 61.3501C75.5197 61.9024 75.5148 62.4963 75.6535 63.0535C75.9333 64.163 75.3762 64.7373 74.4663 65.1894Z" fill="#FEC20E"/>
<path d="M70.0359 28.2211C68.7781 27.3046 67.3135 26.6961 65.7808 26.5494C65.1531 26.4883 64.54 26.4883 63.9463 26.5397C59.0489 26.9673 55.436 31.0266 55.329 35.5404C54.9689 40.4111 58.8007 44.8076 63.9099 45.2964C64.0364 45.311 64.1629 45.3208 64.2918 45.3281C66.3963 45.4479 68.3913 44.832 70.0262 43.681C72.3204 42.0705 73.9043 39.4115 74.0892 36.2589C74.2716 33.1479 72.5637 30.0613 70.0359 28.2211ZM64.6154 39.4286C64.3891 39.4237 64.1677 39.4018 63.9561 39.3578C62.3309 39.0327 61.1801 37.6177 61.1996 35.8459C61.2191 34.1597 62.3698 32.8155 63.9585 32.4856C64.2164 32.4318 64.4865 32.405 64.7662 32.4074C66.7174 32.4294 68.2064 33.9959 68.182 35.995C68.1577 37.9648 66.6031 39.4604 64.6154 39.4286Z" fill="#FEC20E"/>
<path d="M23.723 22.8029C23.723 24.1445 23.7351 25.4862 23.7181 26.8255C23.6962 28.5288 22.5211 29.7972 20.8278 29.8265C18.1273 29.873 15.4267 29.8681 12.7262 29.8265C11.1083 29.8021 9.8651 28.6413 9.82617 27.0234C9.75562 24.2203 9.75562 21.4147 9.82617 18.6116C9.86753 16.9425 11.1326 15.8085 12.7992 15.7963C15.4389 15.7767 18.0786 15.7767 20.7183 15.7963C22.5041 15.8085 23.7035 17.05 23.7205 18.8658C23.7327 20.1757 23.723 21.4881 23.7205 22.798L23.723 22.8029ZM13.7553 25.8137C14.4925 25.8137 19.3194 25.7844 20.0006 25.7844V20.1855H13.7553V25.8161V25.8137Z" fill="white"/>
<path d="M42.1936 25.7746C38.4324 25.7746 34.6686 25.7868 30.9074 25.7697C28.7153 25.7599 27.3529 24.2178 27.7154 22.2065C27.9708 20.7988 29.2043 19.8433 30.8392 19.8384C35.1479 19.8286 39.4566 19.8335 43.7653 19.8335C47.0716 19.8335 50.3804 19.8237 53.6867 19.8384C55.1416 19.8457 56.2729 20.662 56.6743 21.9255C57.0636 23.1547 56.6695 24.5355 55.5357 25.1954C54.9178 25.5546 54.1149 25.7379 53.3923 25.7477C49.6603 25.8014 45.9282 25.7721 42.1961 25.7721L42.1936 25.7746Z" fill="white"/>
<path d="M39.3228 45.1082C36.4422 45.1082 33.5592 45.1375 30.6811 45.0984C28.7932 45.0715 27.5451 43.7274 27.6618 41.9727C27.7665 40.4086 28.9999 39.2258 30.6154 39.2209C36.4374 39.2063 42.2618 39.2038 48.0837 39.2209C49.7186 39.2258 50.991 40.5088 51.0251 42.0876C51.0592 43.7005 49.8914 45.0398 48.2418 45.0715C45.2713 45.1326 42.2982 45.0886 39.3277 45.0886V45.1058L39.3228 45.1082Z" fill="white"/>
<path d="M36.0043 58.4053C37.795 58.4053 39.5856 58.398 41.3762 58.4053C43.0987 58.4151 44.4465 59.7323 44.4246 61.3648C44.4027 62.9802 43.106 64.2535 41.4151 64.2608C37.8022 64.2755 34.1918 64.2779 30.5789 64.2608C28.8905 64.251 27.6327 62.9558 27.6497 61.3111C27.6667 59.6615 28.9294 58.42 30.63 58.4078C32.4206 58.3955 34.2113 58.4053 36.0019 58.4053H36.0043Z" fill="white"/>
<path d="M64.861 67.032C61.6423 66.9024 58.6571 66.7118 55.8227 65.5852C53.6112 64.7078 53.4117 64.3168 53.8983 61.9634C54.9323 56.9706 59.2483 53.2803 64.063 53.0604C69.233 52.8233 73.9698 56.147 75.3736 61.35C75.522 61.9023 75.5172 62.4986 75.6558 63.0533C75.9356 64.1629 75.3785 64.7372 74.4686 65.1893C72.4541 66.1913 70.2888 66.5676 68.0919 66.8096C66.9485 66.9367 65.7953 66.9684 64.861 67.0295V67.032Z" fill="#FEC20E"/>
<path d="M61.1995 35.8457C61.2214 33.8833 62.776 32.3852 64.7662 32.4072C66.7174 32.4292 68.2063 33.9957 68.182 35.9948C68.1576 37.9646 66.603 39.4602 64.6153 39.4285C62.6495 39.3967 61.1776 37.8497 61.1995 35.8457Z" fill="#FEC20E"/>
<path d="M23.723 42.1437C23.723 43.4854 23.7351 44.827 23.7181 46.1663C23.6962 47.8697 22.5211 49.138 20.8278 49.1674C18.1273 49.2138 15.4267 49.2089 12.7262 49.1674C11.1083 49.1429 9.8651 47.9821 9.82617 46.3642C9.75562 43.5611 9.75562 40.7556 9.82617 37.9524C9.86753 36.2833 11.1326 35.1493 12.7992 35.1371C15.4389 35.1175 18.0786 35.1175 20.7183 35.1371C22.5041 35.1493 23.7035 36.3908 23.7205 38.2066C23.7327 39.5165 23.723 40.8289 23.7205 42.1388L23.723 42.1437ZM13.7553 45.1545C14.4925 45.1545 19.3194 45.1252 20.0006 45.1252V39.5263H13.7553V45.157V45.1545Z" fill="white"/>
<path d="M23.723 61.3184C23.723 62.66 23.7351 64.0017 23.7181 65.341C23.6962 67.0443 22.5211 68.3127 20.8278 68.342C18.1273 68.3885 15.4267 68.3836 12.7262 68.342C11.1083 68.3176 9.8651 67.1568 9.82617 65.5389C9.75562 62.7358 9.75562 59.9302 9.82617 57.1271C9.86753 55.458 11.1326 54.324 12.7992 54.3118C15.4389 54.2922 18.0786 54.2922 20.7183 54.3118C22.5041 54.324 23.7035 55.5655 23.7205 57.3813C23.7327 58.6912 23.723 60.0036 23.7205 61.3135L23.723 61.3184ZM13.7553 64.3292C14.4925 64.3292 19.3194 64.2999 20.0006 64.2999V58.701H13.7553V64.3317V64.3292Z" fill="white"/>
</svg>
