<svg width="89" height="87" viewBox="0 0 89 87" fill="none" xmlns="http://www.w3.org/2000/svg">
<path d="M41.1157 4.67756C40.7194 5.93797 40.3378 7.18371 39.939 8.427C39.1195 10.987 37.2555 12.3673 34.5574 12.3747C30.1934 12.3869 25.8269 12.3894 21.4629 12.3747C18.7941 12.3649 16.9667 11.009 16.1473 8.47839C15.7926 7.38195 15.4721 6.27082 15.066 5.19151C14.9731 4.94432 14.5964 4.64819 14.3444 4.64329C12.2089 4.60413 10.0709 4.59434 7.93537 4.6384C6.15698 4.67511 4.7284 6.11664 4.61343 7.90325C4.59631 8.17736 4.60609 8.45392 4.60609 8.72803C4.60609 31.9051 4.60609 55.0797 4.60609 78.2567C4.60609 81.0932 5.89769 82.3953 8.73283 82.3977C21.5827 82.3977 34.4351 82.361 47.285 82.4295C50.0761 82.4442 51.5291 80.6747 51.4802 78.1955C51.3946 73.8905 51.4533 69.5855 51.4631 65.2805C51.4631 64.862 51.468 64.4068 51.6196 64.0299C51.9376 63.2369 52.603 62.8771 53.4494 62.9628C54.3153 63.0484 54.9611 63.7313 54.9783 64.6221C55.015 66.4234 55.0003 68.2247 55.0003 70.026C55.0003 73.0804 55.0345 76.1348 54.9758 79.1867C54.9024 82.9484 51.7835 85.9856 48.0066 85.9979C41.4141 86.0199 34.8191 86.0052 28.2266 86.0052C21.6341 86.0052 15.0391 86.0077 8.44663 86.0052C4.17067 86.0052 1.13738 83.0487 1.01018 78.7658C0.990607 78.0633 1.00528 77.3609 1.00528 76.6585C1.00528 54.0003 1.00528 31.3446 1.00528 8.68642C1.00528 4.99327 2.87418 2.28888 6.12763 1.33438C6.84681 1.12391 7.6247 1.01622 8.37324 1.01622C21.4678 0.996641 34.5647 0.996641 47.6592 1.00643C51.8985 1.00888 54.944 4.00207 54.9905 8.21897C55.0247 11.4545 55.0052 14.6924 54.9905 17.9279C54.9856 18.8848 54.4352 19.5383 53.5986 19.6998C52.7522 19.8638 51.945 19.504 51.6392 18.7331C51.4875 18.3537 51.4655 17.9034 51.4631 17.4849C51.4484 14.5529 51.3995 11.6209 51.4729 8.69132C51.5365 6.17782 49.8682 4.46953 47.4317 4.59679C45.4234 4.70203 43.4028 4.62126 41.3896 4.62371C41.3309 4.62371 41.2722 4.64574 41.1157 4.67756ZM37.3534 4.70448H18.7011C19.0093 5.66142 19.3127 6.52046 19.5597 7.39419C19.8312 8.35358 20.4697 8.82348 21.4286 8.82593C25.822 8.83816 30.2154 8.83816 34.6063 8.82593C35.3891 8.82593 36.0667 8.54447 36.3553 7.75396C36.7174 6.76275 37.0158 5.74708 37.3534 4.70448Z" fill="white" stroke="white" stroke-miterlimit="10"/>
<path d="M27.9107 78.8877C24.941 78.8412 22.666 76.45 22.7247 73.4348C22.781 70.5371 25.1954 68.2169 28.1162 68.2487C31.0761 68.283 33.4146 70.75 33.3608 73.7799C33.3095 76.6581 30.8828 78.9317 27.9082 78.8852L27.9107 78.8877ZM29.7674 73.5988C29.7698 72.61 29.0531 71.8807 28.0648 71.8685C27.0398 71.8562 26.2473 72.6272 26.2693 73.6159C26.2889 74.5435 27.1157 75.3438 28.0452 75.3389C28.9968 75.334 29.7649 74.5557 29.7674 73.5963V73.5988Z" fill="white" stroke="white" stroke-miterlimit="10"/>
<path d="M53.5766 18.3142C61.4192 18.6128 67.5029 22.8958 70.0885 30.0202C70.5215 31.2121 70.7881 32.4848 70.9447 33.7452C71.0499 34.6018 71.3654 34.7291 72.1091 34.6189C75.8371 34.0683 79.2495 34.9297 82.3562 37.0247C87.3685 40.4022 89.7511 46.6553 88.32 52.6025C86.9282 58.3882 82.0211 62.8425 76.0915 63.5816C74.4672 63.7848 72.8087 63.7261 71.1648 63.7848C71.1599 59.82 71.1722 55.8527 71.1428 51.8879C71.1232 49.066 68.0166 46.905 65.3722 47.808V50.5712C65.7856 50.5712 66.1183 50.5687 66.451 50.5712C67.723 50.5834 68.2172 51.0705 68.2172 52.3431C68.2172 56.1562 68.2098 59.9693 68.2049 63.7823C63.5914 63.775 58.9754 63.7652 54.3619 63.7677C54.1442 63.7677 53.924 63.8851 53.7063 63.9488C53.3565 63.518 53.0067 63.0873 52.6936 62.7006C52.0673 63.0971 51.5414 63.4299 51.013 63.7628C49.9122 63.7652 48.8115 63.7677 47.7131 63.7701C44.7875 63.7579 41.8642 63.7481 38.9386 63.7358C38.9337 59.9815 38.9264 56.2272 38.9264 52.4704C38.9264 51.046 39.4156 50.5687 40.8637 50.5663C45.8369 50.5663 50.81 50.5663 55.7856 50.5663C56.0155 50.5663 56.2479 50.5663 56.6956 50.5663C55.2621 51.7264 53.9974 52.7518 52.6667 53.8287C53.2807 54.5923 53.8629 55.3216 54.4989 56.1146C57.0013 54.1077 59.4647 52.1693 61.8766 50.1674C62.6496 49.5261 62.5297 48.5496 61.7127 47.8717C60.7269 47.0542 59.7191 46.2613 58.7186 45.4634C57.3218 44.3474 55.9201 43.2363 54.4891 42.0933C53.8433 42.9034 53.2635 43.6303 52.6691 44.3743C54.0194 45.4683 55.2817 46.4889 56.6271 47.5755C56.4118 47.6123 56.3531 47.6294 56.2944 47.6294C51.0766 47.6294 45.8589 47.6294 40.6411 47.6343C37.8451 47.6343 36.0007 49.4845 35.9958 52.2844C35.9885 56.0999 35.986 59.9154 35.9811 63.7334C34.2712 63.6893 32.5613 63.6477 30.8514 63.6037C22.3827 62.1842 17.5123 54.4308 18.5593 47.0469C19.6332 39.4819 26.5951 33.8137 34.2272 34.4745C34.8167 34.5259 35.4038 34.6287 36.0521 34.7144C36.4997 29.5479 38.7233 25.4215 42.581 22.1616C44.2958 21.1826 46.0105 20.2036 47.7253 19.2247C49.675 18.9187 51.6246 18.6104 53.5742 18.3044L53.5766 18.3142Z" fill="#FEC20E"/>
<path d="M53.5474 75.6697C53.249 75.956 52.953 76.2424 52.5958 76.5826C50.9911 75.3197 49.3644 74.0373 47.7377 72.7573C46.9891 72.1356 46.2406 71.5164 45.4945 70.8948C44.5405 70.0994 44.5405 69.1571 45.497 68.3617C46.243 67.7401 46.9916 67.1184 47.7377 66.4968C48.8287 65.5888 49.9221 64.6808 51.0131 63.7704C51.5415 63.4375 52.0675 63.1022 52.6937 62.7082C53.0068 63.0949 53.3566 63.5256 53.7064 63.9564C53.9461 64.2696 54.1883 64.5853 54.4525 64.9329C54.1002 65.2633 53.8214 65.5203 53.545 65.7797L50.6927 67.953L50.7881 68.1439H53.5768C57.9041 68.1512 62.2314 68.1635 66.5587 68.1586C67.6449 68.1586 68.1928 67.6055 68.2148 66.5335C68.2319 65.6182 68.2099 64.7053 68.205 63.7899C68.2099 59.9769 68.2173 56.1638 68.2173 52.3507C68.2173 51.0781 67.7231 50.5886 66.4511 50.5788C66.1184 50.5763 65.7857 50.5788 65.3723 50.5788V47.8156C68.0167 46.9126 71.1234 49.0712 71.1429 51.8955C71.1723 55.8603 71.16 59.8276 71.1649 63.7924C71.16 64.6147 71.1527 65.4346 71.1503 66.2569C71.1429 69.2868 69.3523 71.093 66.3459 71.1004C62.0895 71.1077 57.8331 71.1151 53.5768 71.12C52.6472 71.12 51.7176 71.12 50.7856 71.12L50.6902 71.3084L53.5425 73.4817C53.8287 73.7387 54.1149 73.9957 54.4329 74.2796C54.11 74.7862 53.8263 75.2316 53.545 75.6746L53.5474 75.6697Z" fill="#FFC200"/>
<path d="M38.9387 63.7433C38.9338 64.6268 38.9215 65.5104 38.9264 66.3939C38.9313 67.6641 39.423 68.1511 40.6926 68.1609C41.0253 68.1634 41.3555 68.1609 41.7714 68.1609V70.9216C39.1784 71.8198 36.0693 69.6979 35.9983 66.9421C35.9714 65.8775 35.9837 64.8104 35.9788 63.7433C35.9837 59.9278 35.9861 56.1123 35.9934 52.2943C35.9983 49.4945 37.8428 47.6467 40.6388 47.6442C45.8565 47.6393 51.0743 47.6442 56.292 47.6393C56.3507 47.6393 56.4094 47.6198 56.6247 47.5855C55.2817 46.4988 54.0195 45.4783 52.6667 44.3843C53.2587 43.6403 53.8385 42.9134 54.4867 42.1033C55.9202 43.2438 57.3194 44.3573 58.7162 45.4734C59.7167 46.2737 60.7245 47.0666 61.7104 47.8816C62.5274 48.5596 62.6472 49.5336 61.8742 50.1773C59.4623 52.1793 56.9965 54.1152 54.4965 56.1245C53.8605 55.3316 53.2783 54.6022 52.6643 53.8386C53.9926 52.7618 55.2597 51.7363 56.6932 50.5762C56.2455 50.5762 56.0156 50.5762 55.7832 50.5762C50.8101 50.5762 45.8369 50.5762 40.8614 50.5762C39.4132 50.5762 38.924 51.0559 38.924 52.4803C38.924 56.2347 38.9313 59.989 38.9362 63.7458L38.9387 63.7433Z" fill="white"/>
</svg>
