<svg width="23" height="24" viewBox="0 0 23 24" fill="none" xmlns="http://www.w3.org/2000/svg">
<path d="M17.4792 12.3883C17.4785 12.1404 17.4785 11.8924 17.4785 11.6444H17.4912C17.4912 11.4332 17.4912 11.2227 17.4912 11.0115V10.7642C17.4912 10.2201 17.4919 9.67536 17.4919 9.13196C17.4919 9.04974 17.4919 8.96686 17.4912 8.88465C17.4919 8.56048 17.4912 8.23698 17.4899 7.91281C17.4892 7.77713 17.4892 7.64145 17.4885 7.50576C17.4885 7.42355 17.4885 7.34067 17.4879 7.25846C17.4865 6.16765 17.4872 5.07751 17.4606 3.98736C17.432 2.81568 16.8584 2.10718 15.8051 1.89865C15.505 1.83916 15.1943 1.82646 14.8888 1.82579C11.3822 1.82111 7.87627 1.82111 4.36965 1.82512C4.06357 1.82579 3.75616 1.84518 3.45141 1.8806C2.54648 1.98487 1.94164 2.54966 1.76398 3.49743C1.69012 3.89379 1.67348 4.30752 1.67282 4.7139C1.66683 9.31777 1.66883 13.9223 1.67016 18.5262C1.67016 18.7955 1.68014 19.0649 1.69677 19.3329C1.76398 20.4378 2.29363 21.1135 3.29371 21.3321C3.60844 21.4009 3.93582 21.4243 4.25787 21.4243C7.75584 21.431 11.2538 21.4297 14.7511 21.4263C15.0658 21.4256 15.3832 21.4129 15.6946 21.3702C16.4326 21.2699 17.0081 20.9157 17.2796 20.1651C17.3016 20.1056 17.3215 20.0441 17.3388 19.9799C17.3441 19.9605 17.3495 19.9405 17.3541 19.9211C17.4286 19.631 17.4706 19.3236 17.4719 19.0234C17.4726 18.8717 17.4732 18.7207 17.4739 18.5689C17.4739 18.4867 17.4739 18.4039 17.4739 18.3216C17.4779 17.1346 17.4785 15.9475 17.4785 14.7611V14.5138C17.4785 14.0566 17.4779 13.6001 17.4779 13.1443C17.587 13.1403 17.6968 13.141 17.8066 13.1456C18.2757 13.1664 18.7275 13.2512 19.1513 13.3936C19.1513 13.8942 19.1513 14.3955 19.152 14.8961V15.1441C19.1533 16.1627 19.1553 17.18 19.1587 18.1987C19.1587 18.2809 19.1587 18.3637 19.1587 18.446C19.1593 18.6759 19.16 18.9065 19.1607 19.1364C19.1613 19.3757 19.1447 19.6083 19.1101 19.8329C19.0975 19.9184 19.0821 20.0026 19.0642 20.0862C18.661 21.9998 17.0314 23.3031 15.1231 23.2483C11.4241 23.1427 7.72057 23.2109 4.01899 23.231C3.43078 23.2336 2.86587 23.1902 2.32091 22.9509C0.897636 22.3253 -0.00130931 20.8675 0.000686863 19.2046C0.00334843 16.6801 0.00135225 14.1556 0.00135225 11.6311C0.00135225 9.10656 0.00667539 6.58205 2.14702e-05 4.05821C-0.00729785 1.67206 1.8578 -0.0630755 4.03563 0.00175822C7.73454 0.110706 11.4388 0.039188 15.1404 0.0198047C15.6753 0.0171312 16.1937 0.0465403 16.696 0.239036C18.2058 0.817193 19.1647 2.35516 19.1613 4.10166C19.1587 5.30743 19.1567 6.51254 19.1553 7.71831C19.1553 7.80052 19.1553 7.8834 19.1553 7.96562C19.154 9.29304 19.1527 10.6191 19.1527 11.9465L17.4799 12.3883H17.4792Z" fill="#173371"/>
<path d="M22.3119 17.2902C22.2906 17.0423 22.262 16.793 22.2101 16.5497C21.8608 14.9208 20.6884 13.6602 19.1526 13.1462C18.7288 13.0039 18.277 12.919 17.8079 12.8983C17.6981 12.8936 17.5883 12.8929 17.4792 12.8969C15.5875 12.9638 13.8295 14.3099 13.2752 16.1847C13.1661 16.5557 13.1042 16.948 13.0763 17.335C13.0084 18.2841 13.5334 18.8783 14.3239 19.2754C15.2115 19.7212 16.1604 19.8689 17.2802 19.9177C17.4918 19.927 17.7094 19.9331 17.9343 19.9364C18.1705 19.9157 18.6097 19.895 19.0661 19.8388C19.1234 19.8321 19.1812 19.8248 19.2385 19.8168C20.0196 19.7071 20.7802 19.5126 21.4422 19.0528C22.0537 18.6284 22.3758 18.0515 22.3119 17.2902ZM20.3663 17.829C19.9817 18.0208 19.5758 18.1284 19.1606 18.1986C18.9823 18.2293 18.8026 18.2527 18.6223 18.2721C18.3096 18.3069 17.9942 18.3162 17.7393 18.3329C17.6502 18.3296 17.5623 18.3256 17.4745 18.3216C16.6947 18.2835 15.9634 18.214 15.2667 17.9372C14.6626 17.6973 14.6073 17.5903 14.7404 16.9467C15.0212 15.5952 16.1797 14.5926 17.4798 14.5138C17.4931 14.5131 17.5071 14.5124 17.5204 14.5117C18.1033 14.485 18.6662 14.624 19.1533 14.8967C19.8473 15.2837 20.3883 15.9428 20.6138 16.7789C20.6544 16.93 20.6531 17.0924 20.691 17.2448C20.7675 17.5482 20.6152 17.7053 20.3663 17.829Z" fill="#FEC20E"/>
<path d="M19.1546 7.71836C18.8106 7.46771 18.41 7.30128 17.9909 7.26118C17.8192 7.24447 17.6515 7.24447 17.4891 7.25851C16.1497 7.37547 15.1616 8.48567 15.1323 9.72018C15.0338 11.0523 16.0818 12.2547 17.4792 12.3884C17.5138 12.3924 17.5484 12.3951 17.5836 12.3971C18.1592 12.4298 18.7048 12.2614 19.152 11.9466C19.7794 11.5061 20.2126 10.7789 20.2632 9.91669C20.3131 9.06583 19.846 8.22166 19.1546 7.71836ZM17.6721 10.7836C17.6102 10.7823 17.5497 10.7762 17.4918 10.7642C17.0473 10.6753 16.7326 10.2883 16.7379 9.80373C16.7432 9.34254 17.058 8.97493 17.4925 8.8847C17.563 8.86999 17.6369 8.86264 17.7134 8.86331C18.247 8.86932 18.6542 9.29776 18.6476 9.8445C18.6409 10.3832 18.2158 10.7923 17.6721 10.7836Z" fill="#FEC20E"/>
<path d="M6.48817 6.23644C6.48817 6.60339 6.49149 6.97034 6.48684 7.33661C6.48085 7.80248 6.15946 8.14937 5.69635 8.1574C4.95776 8.17009 4.21918 8.16876 3.48059 8.1574C3.03811 8.15071 2.69809 7.83323 2.68745 7.39075C2.66815 6.62411 2.66815 5.8568 2.68745 5.09016C2.69876 4.63365 3.04476 4.32351 3.50056 4.32017C4.22251 4.31483 4.94446 4.31483 5.66641 4.32017C6.15481 4.32351 6.48284 4.66306 6.4875 5.15967C6.49083 5.51793 6.48817 5.87685 6.4875 6.23511L6.48817 6.23644ZM3.76205 7.0599C3.96367 7.0599 5.28381 7.05188 5.47012 7.05188V5.5206H3.76205V7.06057V7.0599Z" fill="#173371"/>
<path d="M11.5398 7.04931C10.5111 7.04931 9.48176 7.05265 8.45307 7.04797C7.85355 7.0453 7.48093 6.62355 7.58007 6.07346C7.64994 5.68847 7.98729 5.42713 8.43444 5.42579C9.61284 5.42312 10.7913 5.42446 11.9697 5.42446C12.8739 5.42446 13.7789 5.42178 14.6831 5.42579C15.081 5.4278 15.3904 5.65104 15.5002 5.9966C15.6067 6.3328 15.4989 6.71044 15.1888 6.8909C15.0198 6.98916 14.8002 7.03929 14.6026 7.04196C13.5819 7.05666 12.5612 7.04864 11.5405 7.04864L11.5398 7.04931Z" fill="#173371"/>
<path d="M10.7546 12.3368C9.96682 12.3368 9.17833 12.3448 8.39117 12.3341C7.87483 12.3268 7.53348 11.9592 7.56542 11.4793C7.59403 11.0515 7.93139 10.728 8.37321 10.7267C9.96549 10.7226 11.5584 10.722 13.1507 10.7267C13.5979 10.728 13.9459 11.0789 13.9552 11.5107C13.9645 11.9518 13.6451 12.3181 13.194 12.3268C12.3815 12.3435 11.5684 12.3315 10.756 12.3315V12.3361L10.7546 12.3368Z" fill="#173371"/>
<path d="M9.84708 15.9737C10.3368 15.9737 10.8265 15.9717 11.3163 15.9737C11.7874 15.9763 12.156 16.3366 12.15 16.7831C12.144 17.2249 11.7894 17.5731 11.3269 17.5751C10.3388 17.5791 9.35136 17.5798 8.36325 17.5751C7.90147 17.5725 7.55746 17.2182 7.56212 16.7684C7.56678 16.3172 7.91212 15.9777 8.37723 15.9743C8.86695 15.971 9.35668 15.9737 9.84641 15.9737H9.84708Z" fill="#173371"/>
<path d="M17.7393 18.333C16.859 18.2976 16.0425 18.2454 15.2674 17.9373C14.6625 17.6973 14.6079 17.5904 14.741 16.9467C15.0238 15.5812 16.2042 14.572 17.521 14.5118C18.935 14.447 20.2305 15.356 20.6144 16.779C20.655 16.93 20.6537 17.0931 20.6916 17.2448C20.7682 17.5483 20.6158 17.7054 20.3669 17.829C19.816 18.1031 19.2238 18.206 18.6229 18.2722C18.3102 18.3069 17.9948 18.3156 17.7393 18.3323V18.333Z" fill="#FEC20E"/>
<path d="M16.7379 9.80353C16.7438 9.26681 17.169 8.85709 17.7133 8.8631C18.247 8.86912 18.6542 9.29756 18.6475 9.8443C18.6409 10.383 18.2157 10.7921 17.6721 10.7834C17.1344 10.7747 16.7319 10.3516 16.7379 9.80353Z" fill="#FEC20E"/>
<path d="M6.48817 11.5262C6.48817 11.8932 6.49149 12.2601 6.48684 12.6264C6.48085 13.0923 6.15946 13.4392 5.69635 13.4472C4.95776 13.4599 4.21918 13.4586 3.48059 13.4472C3.03811 13.4405 2.69809 13.123 2.68745 12.6805C2.66815 11.9139 2.66815 11.1466 2.68745 10.38C2.69876 9.92344 3.04476 9.61331 3.50056 9.60997C4.22251 9.60462 4.94446 9.60462 5.66641 9.60997C6.15481 9.61331 6.48284 9.95285 6.4875 10.4495C6.49083 10.8077 6.48817 11.1666 6.4875 11.5249L6.48817 11.5262ZM3.76205 12.3497C3.96367 12.3497 5.28381 12.3417 5.47012 12.3417V10.8104H3.76205V12.3504V12.3497Z" fill="#173371"/>
<path d="M6.48817 16.7704C6.48817 17.1373 6.49149 17.5043 6.48684 17.8705C6.48085 18.3364 6.15946 18.6833 5.69635 18.6913C4.95776 18.704 4.21918 18.7027 3.48059 18.6913C3.03811 18.6846 2.69809 18.3672 2.68745 17.9247C2.66815 17.158 2.66815 16.3907 2.68745 15.6241C2.69876 15.1676 3.04476 14.8574 3.50056 14.8541C4.22251 14.8488 4.94446 14.8488 5.66641 14.8541C6.15481 14.8574 6.48284 15.197 6.4875 15.6936C6.49083 16.0519 6.48817 16.4108 6.4875 16.769L6.48817 16.7704ZM3.76205 17.5938C3.96367 17.5938 5.28381 17.5858 5.47012 17.5858V16.0545H3.76205V17.5945V17.5938Z" fill="#173371"/>
</svg>
