<svg width="52" height="52" viewBox="0 0 52 52" fill="none" xmlns="http://www.w3.org/2000/svg">
<circle cx="26" cy="26" r="26" fill="white"/>
<path d="M8.00172 36.8934C8.37648 36.3422 8.9584 36.3723 9.52399 36.3508C11.617 36.2693 13.6301 35.8554 15.5168 34.9145C15.6182 34.8638 15.7214 34.8157 15.8211 34.7616C15.95 34.6921 16.0772 34.6183 16.2698 34.5092C16.0007 34.4526 15.7919 34.4002 15.5795 34.3641C12.7121 33.8705 10.8297 32.2212 9.85062 29.5047C9.73716 29.1905 9.77412 28.9226 10.0268 28.6985C10.2666 28.4856 10.6732 28.4512 10.9861 28.6444C11.7898 29.139 12.6708 29.3004 13.7083 29.2995C13.5458 29.1879 13.4633 29.1295 13.3782 29.0728C11.4949 27.8219 10.0182 26.213 9.06413 24.1525C8.88362 23.7627 8.74523 23.3523 8.60255 22.9462C8.49338 22.6345 8.57676 22.3495 8.83549 22.1537C9.09507 21.9571 9.37872 21.9752 9.66754 22.1383C10.1987 22.4396 10.7317 22.7384 11.2783 23.0106C11.4795 23.111 11.7202 23.1325 11.9806 23.1565C9.17415 19.9644 8.60427 16.5414 10.8159 12.7551C13.0525 15.2166 15.5744 17.2772 18.686 18.5306C20.1567 19.123 22.8995 19.9018 24.6178 20.1799C24.6745 19.6536 24.708 19.123 24.7922 18.601C25.1034 16.6848 26.0137 15.093 27.4801 13.8283C28.839 12.6556 30.4378 12.0451 32.2265 12.0013C33.2408 11.9764 34.2001 12.3035 35.1215 12.7053C35.7765 12.9912 36.41 13.3261 37.0624 13.6189C37.1991 13.6798 37.3968 13.7081 37.5308 13.6575C38.8356 13.1621 40.1319 12.6444 41.4341 12.1421C41.6197 12.0709 41.8312 11.997 42.0194 12.0185C42.4217 12.0631 42.6246 12.434 42.4956 12.8307C42.1991 13.7382 41.7177 14.5461 41.1298 15.2939L41.0946 15.372L41.1994 15.354C41.4899 15.257 41.7805 15.1608 42.071 15.0638C42.3761 14.9625 42.6658 14.99 42.8945 15.2252C43.1222 15.4587 43.1386 15.7403 43.0346 16.0486C42.5403 17.515 41.6937 18.6963 40.3304 19.4819C40.2298 19.5403 40.1576 19.7352 40.1568 19.8666C40.1533 21.6163 39.9462 23.342 39.5267 25.0394C38.4093 29.5605 36.1366 33.3828 32.5377 36.3697C29.9075 38.5522 26.899 39.9173 23.4952 40.3963C21.7408 40.6427 19.9899 40.5612 18.2339 40.4719C16.5577 40.3869 14.8953 40.1894 13.2562 39.8357C11.709 39.5017 10.1833 39.0836 8.83635 38.2096C8.52347 38.0061 8.27764 37.7005 8 37.442V36.8943L8.00172 36.8934ZM41.3619 16.6109C41.2854 16.6298 41.2063 16.6435 41.1315 16.6684C40.4954 16.8788 39.8637 17.1012 39.2242 17.2995C38.9388 17.3879 38.656 17.3725 38.4695 17.0805C38.2941 16.8075 38.3337 16.4521 38.5675 16.2014C38.6294 16.1344 38.7016 16.0778 38.7669 16.0142C39.1047 15.6905 39.464 15.3858 39.7734 15.0372C40.119 14.6483 40.4181 14.219 40.7378 13.8069C39.7365 14.0971 38.7961 14.4285 37.8686 14.7925C37.3692 14.9882 36.918 14.929 36.4581 14.6912C35.9028 14.4044 35.3476 14.1168 34.7768 13.8627C33.9319 13.4858 33.0663 13.1604 32.1174 13.2102C28.5855 13.3931 26.024 16.3242 25.8916 19.6133C25.865 20.2804 25.8873 20.9492 25.8873 21.6326C25.7421 21.6223 25.6492 21.6257 25.5615 21.6077C24.3057 21.3398 23.0439 21.0917 21.795 20.7938C17.9416 19.8734 14.5197 18.14 11.6686 15.3531C11.5113 15.1995 11.3419 15.0569 11.1563 14.8887C10.6414 16.2392 10.5228 17.5596 10.9147 18.9118C11.4348 20.7045 12.5823 22.0481 14.0057 23.1857C14.561 23.6296 15.1515 24.0297 15.7944 24.5002C13.8983 24.4976 12.0751 24.6281 10.2916 23.8691C10.3406 23.9765 10.3595 24.0254 10.3835 24.0709C11.6488 26.401 13.5046 28.0735 15.9715 29.0582C16.4898 29.2652 16.4967 29.2506 16.4305 29.7897C16.4039 30.0027 16.3686 30.2139 16.3351 30.444C14.7157 30.4895 13.1032 30.723 11.4889 30.2302C12.1508 31.6228 13.5329 32.6856 15.0819 33.0643C16.1537 33.3261 17.2393 33.418 18.3379 33.4111C18.8338 33.4077 19.3289 33.4111 19.8369 33.4111C17.0528 35.8237 13.9197 37.3536 10.1936 37.5734C11.1597 37.9503 12.113 38.2851 13.0877 38.5333C14.8145 38.9728 16.5826 39.1772 18.3593 39.2785C19.9435 39.3686 21.5277 39.4365 23.1127 39.2347C25.8297 38.8878 28.3035 37.9211 30.5495 36.3688C33.5348 34.3057 35.7017 31.5644 37.1707 28.2675C38.0173 26.3684 38.5847 24.3808 38.7789 22.3057C38.8821 21.2059 38.895 20.0984 38.9637 18.9951C38.9706 18.8809 39.0565 18.7049 39.1459 18.674C40.1851 18.3151 40.9012 17.6034 41.422 16.665L41.4367 16.5834L41.361 16.6126L41.3619 16.6109ZM12.0347 23.1729L12.0115 23.1325C12.0038 23.1402 11.9892 23.1488 11.9901 23.154C11.9935 23.1694 12.0038 23.1832 12.0115 23.1978L12.0347 23.1729Z" fill="#173371"/>
<path d="M41.2003 15.355L41.0955 15.3731L41.1307 15.2949L41.2012 15.355H41.2003Z" fill="#FEFEFE"/>
<path d="M41.3618 16.6112L41.4375 16.582C41.4323 16.6095 41.428 16.6361 41.4228 16.6636C41.4031 16.6464 41.3824 16.6284 41.3618 16.6112V16.6112Z" fill="#FEFEFE"/>
<path d="M12.0347 23.1722L12.0115 23.1971C12.0038 23.1825 11.9943 23.1688 11.99 23.1533C11.9892 23.1481 12.0038 23.1387 12.0115 23.1318L12.0347 23.1722Z" fill="#FEFEFE"/>
</svg>
