<svg width="86" height="86" viewBox="0 0 86 86" fill="none" xmlns="http://www.w3.org/2000/svg">
<path d="M28.0879 27.0335C28.7697 21.4902 35.1266 18.2205 40.2593 21.6753C40.4798 21.4345 40.6978 21.181 40.9285 20.9402C43.7521 17.9797 47.222 16.6161 51.2927 16.8594C57.0159 17.1991 62.0168 21.7057 62.9293 27.3783C63.1219 28.5746 63.0434 29.8166 63.0484 31.0383C63.0484 31.3653 63.1219 31.5326 63.4109 31.7024C66.8707 33.7301 68.5081 36.7818 68.2648 40.7638C68.0011 45.0474 64.4729 48.7074 60.2172 49.2498C59.7255 49.3132 59.2236 49.3487 58.7294 49.3487C48.5705 49.3537 38.409 49.3537 28.2501 49.3537C22.6536 49.3537 18.1216 45.5974 17.09 40.1048C16.0102 34.3663 20.0454 28.4225 25.7788 27.3326C26.5265 27.1907 27.292 27.1349 28.0904 27.0335H28.0879ZM42.7382 28.8129C40.6699 28.8484 38.8095 29.2539 37.053 30.1005C35.7603 30.724 34.5994 31.5351 33.5881 32.5566C33.213 32.9368 33.2028 33.3854 33.5273 33.7453C33.8821 34.1357 34.313 34.1483 34.749 33.7732C34.8579 33.6794 34.9568 33.578 35.0633 33.4817C37.93 30.9318 41.2554 30.0219 45.0067 30.7772C47.0725 31.1955 48.8619 32.1966 50.3777 33.6667C50.7274 34.0064 51.0874 34.2117 51.5563 33.9075C52.0607 33.5806 52.0911 32.9799 51.6044 32.5059C49.1002 30.0751 46.084 28.8914 42.7357 28.8129H42.7382ZM49.6705 35.6362C49.4652 35.3371 49.3385 35.0785 49.1458 34.8859C45.6302 31.3754 39.5521 31.3982 36.0518 34.9265C35.6006 35.3802 35.5575 35.7883 35.92 36.1887C36.29 36.5993 36.7361 36.5841 37.2228 36.1456C37.3166 36.062 37.4053 35.9758 37.4965 35.8922C39.9856 33.682 43.5949 33.2992 46.4616 34.9797C47.0547 35.3269 47.5439 35.8465 48.1269 36.2115C48.3753 36.3662 48.7808 36.4397 49.0444 36.3459C49.2903 36.2597 49.4424 35.9074 49.668 35.6336L49.6705 35.6362ZM42.5785 44.2236C43.9422 44.2565 45.1411 43.1033 45.1867 41.7143C45.2323 40.3329 44.041 39.1061 42.6419 39.0909C41.2706 39.0782 40.0819 40.2416 40.0616 41.623C40.0388 42.9918 41.1997 44.1906 42.5785 44.2236ZM42.6419 35.6641C41.0121 35.7097 39.5927 36.2648 38.4191 37.4104C38.0415 37.7805 38.0263 38.2367 38.3482 38.5967C38.6675 38.954 39.1314 38.9845 39.5369 38.6651C39.7473 38.5003 39.9349 38.3077 40.1503 38.1531C41.8435 36.9567 43.9827 37.1316 45.6252 38.5941C46.1042 39.0199 46.5605 39.0301 46.928 38.6195C47.2727 38.2367 47.2169 37.7881 46.7734 37.3623C45.6176 36.2521 44.226 35.7224 42.6394 35.6615L42.6419 35.6641Z" fill="#FFC200"/>
<path d="M38.3431 51.075H40.0312C40.034 51.1328 40.0382 51.1902 40.0423 51.2474C40.0495 51.3458 40.0566 51.4436 40.0566 51.5413C40.0566 52.6979 40.0533 53.8544 40.05 55.0107C40.0417 57.9012 40.0334 60.7911 40.0769 63.6823C40.1022 65.3197 38.7639 66.544 37.271 66.4933C35.7089 66.4398 34.143 66.4515 32.5777 66.4631C31.9156 66.4681 31.2537 66.473 30.5922 66.473V64.7621H31.1168H37.2127C38.0415 64.7621 38.3381 64.463 38.3381 63.6393V51.7137V51.08L38.3431 51.075Z" fill="white"/>
<path d="M38.3431 51.075H40.0312C40.034 51.1328 40.0382 51.1902 40.0423 51.2474C40.0495 51.3458 40.0566 51.4436 40.0566 51.5413C40.0566 52.6979 40.0533 53.8544 40.05 55.0107C40.0417 57.9012 40.0334 60.7911 40.0769 63.6823C40.1022 65.3197 38.7639 66.544 37.271 66.4933C35.7089 66.4398 34.143 66.4515 32.5777 66.4631C31.9156 66.4681 31.2537 66.473 30.5922 66.473V64.7621H31.1168H37.2127C38.0415 64.7621 38.3381 64.463 38.3381 63.6393V51.7137V51.08L38.3431 51.075Z" stroke="white"/>
<path d="M54.6437 64.7605V66.4714H53.9542C53.2706 66.4714 52.5873 66.4717 51.9041 66.4719C50.5379 66.4725 49.1721 66.4731 47.8052 66.4714C46.3148 66.4688 45.1894 65.3663 45.1869 63.8911C45.184 61.5084 45.1844 59.1249 45.1848 56.7415C45.1851 54.9542 45.1854 53.1669 45.1843 51.38V51.0911H46.8978V51.6563V63.5261C46.8978 64.4969 47.1588 64.7579 48.1296 64.7579H54.6411L54.6437 64.7605Z" fill="white"/>
<path d="M54.6437 64.7605V66.4714H53.9542C53.2706 66.4714 52.5873 66.4717 51.9041 66.4719C50.5379 66.4725 49.1721 66.4731 47.8052 66.4714C46.3148 66.4688 45.1894 65.3663 45.1869 63.8911C45.184 61.5084 45.1844 59.1249 45.1848 56.7415C45.1851 54.9542 45.1854 53.1669 45.1843 51.38V51.0911H46.8978V51.6563V63.5261C46.8978 64.4969 47.1588 64.7579 48.1296 64.7579H54.6411L54.6437 64.7605Z" stroke="white"/>
<path d="M23.7511 57.8853V56.1998H24.2606H30.3007C31.2258 56.1998 31.497 55.9235 31.497 54.9832V51.0975H33.18C33.1825 51.1308 33.1862 51.1672 33.1901 51.2057C33.1985 51.2875 33.2079 51.3788 33.2079 51.4701C33.2079 51.8708 33.2093 52.2717 33.2106 52.6727C33.2138 53.6085 33.217 54.5449 33.2028 55.48C33.1851 56.7397 32.0724 57.8879 30.8152 57.9031C29.1868 57.921 27.5584 57.9174 25.93 57.9137C25.2594 57.9122 24.5889 57.9107 23.9184 57.9107C23.8671 57.9107 23.8157 57.8993 23.7804 57.8914C23.7687 57.8888 23.7587 57.8866 23.7511 57.8853Z" fill="white"/>
<path d="M23.7511 57.8853V56.1998H24.2606H30.3007C31.2258 56.1998 31.497 55.9235 31.497 54.9832V51.0975H33.18C33.1825 51.1308 33.1862 51.1672 33.1901 51.2057C33.1985 51.2875 33.2079 51.3788 33.2079 51.4701C33.2079 51.8708 33.2093 52.2717 33.2106 52.6727C33.2138 53.6085 33.217 54.5449 33.2028 55.48C33.1851 56.7397 32.0724 57.8879 30.8152 57.9031C29.1868 57.921 27.5584 57.9174 25.93 57.9137C25.2594 57.9122 24.5889 57.9107 23.9184 57.9107C23.8671 57.9107 23.8157 57.8993 23.7804 57.8914C23.7687 57.8888 23.7587 57.8866 23.7511 57.8853Z" stroke="white"/>
<path d="M52.0345 51.0745H53.7453V54.8638C53.7453 55.9816 53.9659 56.2021 55.0862 56.2021H61.4887V57.8927C61.4568 57.8941 61.4213 57.8962 61.3834 57.8984C61.2887 57.904 61.1783 57.9104 61.068 57.9104C60.3548 57.9104 59.6419 57.911 58.9291 57.9116C57.5038 57.9127 56.0788 57.9138 54.6528 57.9104C53.1345 57.9079 52.037 56.8028 52.0345 55.282C52.0328 54.3609 52.0333 53.4387 52.0339 52.5035C52.0342 52.031 52.0345 51.5552 52.0345 51.0745Z" fill="white"/>
<path d="M52.0345 51.0745H53.7453V54.8638C53.7453 55.9816 53.9659 56.2021 55.0862 56.2021H61.4887V57.8927C61.4568 57.8941 61.4213 57.8962 61.3834 57.8984C61.2887 57.904 61.1783 57.9104 61.068 57.9104C60.3548 57.9104 59.6419 57.911 58.9291 57.9116C57.5038 57.9127 56.0788 57.9138 54.6528 57.9104C53.1345 57.9079 52.037 56.8028 52.0345 55.282C52.0328 54.3609 52.0333 53.4387 52.0339 52.5035C52.0342 52.031 52.0345 51.5552 52.0345 51.0745Z" stroke="white"/>
<path d="M56.3129 65.5799C56.318 64.163 57.4712 63.0402 58.9135 63.0478C60.3303 63.0554 61.4583 64.2112 61.4481 65.6483C61.438 67.0627 60.2796 68.1931 58.845 68.183C57.4307 68.1754 56.3053 67.017 56.3129 65.5799V65.5799Z" fill="white"/>
<path d="M22.0832 57.039C22.0883 58.4711 20.9553 59.6193 19.5308 59.6244C18.0987 59.6294 16.9505 58.4939 16.948 57.072C16.9455 55.6373 18.0759 54.4917 19.5004 54.4891C20.935 54.4866 22.0807 55.6145 22.0832 57.039Z" fill="white"/>
<path d="M68.295 57.0609C68.295 58.4879 67.1519 59.6259 65.7223 59.6234C64.2979 59.6234 63.1573 58.4777 63.1598 57.0507C63.1598 55.6237 64.3029 54.4882 65.7325 54.4907C67.162 54.4907 68.295 55.6288 68.295 57.0634V57.0609Z" fill="white"/>
<path d="M26.3777 63.0457C27.7997 63.0482 28.9352 64.1989 28.9301 65.6285C28.9251 67.0479 27.7743 68.186 26.3473 68.1809C24.9305 68.1784 23.7924 67.0251 23.7949 65.5955C23.7975 64.1736 24.9457 63.0406 26.3777 63.0457V63.0457Z" fill="white"/>
<path d="M42.5357 80.9296C59.3278 80.8865 72.9136 70.388 78.2719 56.6653C78.488 56.1114 78.6878 55.5504 78.8879 54.9888C78.9835 54.7204 79.0792 54.4519 79.1767 54.1839C79.6355 52.9217 80.619 52.3488 81.7241 52.6986C82.9509 53.0864 83.4781 54.1636 83.0396 55.4969C79.9752 64.8523 74.371 72.3067 66.217 77.8221C60.5293 81.6698 54.2534 84.0523 47.4352 84.7494C34.6732 86.0522 23.3965 82.4783 13.8459 73.8605C7.29129 67.9446 2.95449 60.6118 1.09912 51.9864C-1.85376 38.2688 1.13967 25.8718 10.1225 15.0615C15.9421 8.0582 23.3914 3.51609 32.2222 1.26532C35.5375 0.418739 38.9112 -0.0172219 42.338 0.000520706C43.6256 0.00812468 44.5305 0.781196 44.5989 1.9294C44.6648 3.03704 43.7954 4.01795 42.523 4.04837C38.972 4.12948 35.4463 4.46152 32.06 5.53622C17.5364 10.1442 8.23672 19.7962 4.98221 34.7203C1.02054 52.8887 10.8322 71.0445 28.0577 78.101C32.6886 79.9994 37.5222 80.9423 42.5357 80.9296Z" fill="white"/>
<path d="M42.5357 80.9296C59.3278 80.8865 72.9136 70.388 78.2719 56.6653C78.488 56.1114 78.6878 55.5504 78.8879 54.9888C78.9835 54.7204 79.0792 54.4519 79.1767 54.1839C79.6355 52.9217 80.619 52.3488 81.7241 52.6986C82.9509 53.0864 83.4781 54.1636 83.0396 55.4969C79.9752 64.8523 74.371 72.3067 66.217 77.8221C60.5293 81.6698 54.2534 84.0523 47.4352 84.7494C34.6732 86.0522 23.3965 82.4783 13.8459 73.8605C7.29129 67.9446 2.95449 60.6118 1.09912 51.9864C-1.85376 38.2688 1.13967 25.8718 10.1225 15.0615C15.9421 8.0582 23.3914 3.51609 32.2222 1.26532C35.5375 0.418739 38.9112 -0.0172219 42.338 0.000520706C43.6256 0.00812468 44.5305 0.781196 44.5989 1.9294C44.6648 3.03704 43.7954 4.01795 42.523 4.04837C38.972 4.12948 35.4463 4.46152 32.06 5.53622C17.5364 10.1442 8.23672 19.7962 4.98221 34.7203C1.02054 52.8887 10.8322 71.0445 28.0577 78.101C32.6886 79.9994 37.5222 80.9423 42.5357 80.9296Z" stroke="white"/>
<path d="M85.0521 41.1425C85.0521 41.301 85.0546 41.4595 85.057 41.6179C85.0625 41.9662 85.0679 42.3141 85.047 42.6608C84.9862 43.6746 84.1599 44.4883 83.146 44.5643C82.1778 44.6378 81.1715 43.8952 81.0625 42.8838C80.9789 42.1115 80.9353 41.3349 80.8916 40.5585C80.8466 39.7576 80.8016 38.9571 80.7128 38.1618C79.6964 29.0775 75.8792 21.3392 69.3702 14.9418C65.1626 10.8052 60.2251 7.84471 54.6108 6.01976C53.0901 5.5255 52.4032 4.57753 52.6946 3.44201C53.0216 2.16201 54.1445 1.5689 55.5081 2.00232C60.4887 3.57888 65.046 5.9716 69.1116 9.25145C77.073 15.6717 82.1068 23.9195 84.2157 33.9137C84.5573 35.5334 84.7447 37.1863 84.9321 38.8392C85.0186 39.6021 85.105 40.3651 85.2067 41.1248L85.0546 41.1451L85.0521 41.1425Z" fill="white"/>
<path d="M85.0521 41.1425C85.0521 41.301 85.0546 41.4595 85.057 41.6179C85.0625 41.9662 85.0679 42.3141 85.047 42.6608C84.9862 43.6746 84.1599 44.4883 83.146 44.5643C82.1778 44.6378 81.1715 43.8952 81.0625 42.8838C80.9789 42.1115 80.9353 41.3349 80.8916 40.5585C80.8466 39.7576 80.8016 38.9571 80.7128 38.1618C79.6964 29.0775 75.8792 21.3392 69.3702 14.9418C65.1626 10.8052 60.2251 7.84471 54.6108 6.01976C53.0901 5.5255 52.4032 4.57753 52.6946 3.44201C53.0216 2.16201 54.1445 1.5689 55.5081 2.00232C60.4887 3.57888 65.046 5.9716 69.1116 9.25145C77.073 15.6717 82.1068 23.9195 84.2157 33.9137C84.5573 35.5334 84.7447 37.1863 84.9321 38.8392C85.0186 39.6021 85.105 40.3651 85.2067 41.1248L85.0546 41.1451L85.0521 41.1425Z" stroke="white"/>
</svg>
