<svg width="25" height="25" viewBox="0 0 25 25" fill="none" xmlns="http://www.w3.org/2000/svg">
<path d="M8.6818 8.39344C8.86828 6.87735 10.6069 5.98309 12.0107 6.92796C12.071 6.8621 12.1306 6.79278 12.1937 6.72692C12.9659 5.91724 13.915 5.54428 15.0283 5.61083C16.5936 5.70372 17.9613 6.93628 18.2109 8.48772C18.2636 8.81492 18.2421 9.1546 18.2435 9.48874C18.2435 9.57816 18.2636 9.62392 18.3426 9.67036C19.2889 10.2249 19.7367 11.0596 19.6701 12.1486C19.598 13.3202 18.6331 14.3212 17.4691 14.4696C17.3346 14.4869 17.1974 14.4966 17.0622 14.4966C14.2838 14.498 11.5046 14.498 8.72617 14.498C7.19552 14.498 5.95604 13.4706 5.67389 11.9684C5.37858 10.3989 6.4822 8.77333 8.05027 8.47524C8.25477 8.43642 8.46413 8.42117 8.68249 8.39344H8.6818ZM12.6886 8.88008C12.123 8.88979 11.6141 9.00071 11.1337 9.23224C10.7802 9.40278 10.4627 9.62461 10.1861 9.90398C10.0835 10.008 10.0807 10.1307 10.1695 10.2291C10.2665 10.3359 10.3844 10.3393 10.5036 10.2367C10.5334 10.2111 10.5604 10.1833 10.5896 10.157C11.3736 9.45962 12.2831 9.21075 13.3091 9.41733C13.8741 9.53172 14.3635 9.80554 14.778 10.2076C14.8737 10.3005 14.9721 10.3567 15.1004 10.2735C15.2383 10.184 15.2467 10.0197 15.1136 9.89011C14.4286 9.22531 13.6037 8.90157 12.688 8.88008H12.6886ZM14.5846 10.7462C14.5285 10.6644 14.4938 10.5937 14.4411 10.5411C13.4796 9.58094 11.8173 9.58717 10.8599 10.5521C10.7365 10.6762 10.7247 10.7878 10.8239 10.8974C10.9251 11.0097 11.0471 11.0055 11.1802 10.8856C11.2058 10.8627 11.2301 10.8391 11.2551 10.8163C11.9358 10.2118 12.923 10.1071 13.707 10.5667C13.8692 10.6617 14.003 10.8038 14.1624 10.9036C14.2304 10.9459 14.3413 10.966 14.4134 10.9404C14.4806 10.9168 14.5222 10.8204 14.5839 10.7456L14.5846 10.7462ZM12.645 13.0949C13.0179 13.1039 13.3458 12.7885 13.3583 12.4086C13.3708 12.0308 13.045 11.6953 12.6623 11.6911C12.2873 11.6876 11.9621 12.0058 11.9566 12.3836C11.9504 12.758 12.2679 13.0859 12.645 13.0949ZM12.6623 10.7539C12.2166 10.7664 11.8284 10.9182 11.5074 11.2315C11.4041 11.3327 11.3999 11.4575 11.488 11.5559C11.5753 11.6537 11.7022 11.662 11.8131 11.5747C11.8706 11.5296 11.9219 11.4769 11.9809 11.4346C12.4439 11.1074 13.029 11.1553 13.4782 11.5552C13.6093 11.6717 13.734 11.6745 13.8345 11.5622C13.9288 11.4575 13.9136 11.3348 13.7923 11.2183C13.4762 10.9147 13.0956 10.7698 12.6616 10.7532L12.6623 10.7539Z" fill="#FFC200"/>
<path d="M12.1107 18.4146C12.0989 17.6253 12.1011 16.837 12.1034 16.047C12.1043 15.7304 12.1052 15.4136 12.1052 15.0963C12.1052 15.0649 12.1024 15.0256 12.1003 14.9952C12.0993 14.9818 12.0985 14.9701 12.0981 14.9615L12.0912 14.8187H11.9483H11.4866H11.4244L11.3805 14.8627L11.3791 14.8641L11.3352 14.908V14.9701V15.1434V15.1498V15.1562V15.1626V15.1689V15.1753V15.1817V15.188V15.1944V15.2008V15.2071V15.2135V15.2199V15.2262V15.2326V15.239V15.2453V15.2517V15.2581V15.2645V15.2708V15.2772V15.2836V15.2899V15.2963V15.3027V15.309V15.3154V15.3218V15.3282V15.3345V15.3409V15.3473V15.3536V15.36V15.3664V15.3727V15.3791V15.3855V15.3918V15.3982V15.4046V15.411V15.4173V15.4237V15.4301V15.4364V15.4428V15.4492V15.4555V15.4619V15.4683V15.4747V15.481V15.4874V15.4938V15.5001V15.5065V15.5129V15.5192V15.5256V15.532V15.5384V15.5447V15.5511V15.5575V15.5638V15.5702V15.5766V15.5829V15.5893V15.5957V15.602V15.6084V15.6148V15.6212V15.6275V15.6339V15.6403V15.6466V15.653V15.6594V15.6658V15.6721V15.6785V15.6849V15.6912V15.6976V15.704V15.7103V15.7167V15.7231V15.7295V15.7358V15.7422V15.7486V15.7549V15.7613V15.7677V15.774V15.7804V15.7868V15.7932V15.7995V15.8059V15.8123V15.8186V15.825V15.8314V15.8377V15.8441V15.8505V15.8569V15.8632V15.8696V15.876V15.8823V15.8887V15.8951V15.9015V15.9078V15.9142V15.9206V15.9269V15.9333V15.9397V15.946V15.9524V15.9588V15.9652V15.9715V15.9779V15.9843V15.9906V15.997V16.0034V16.0098V16.0161V16.0225V16.0289V16.0352V16.0416V16.048V16.0543V16.0607V16.0671V16.0735V16.0798V16.0862V16.0926V16.0989V16.1053V16.1117V16.1181V16.1244V16.1308V16.1372V16.1435V16.1499V16.1563V16.1626V16.169V16.1754V16.1818V16.1881V16.1945V16.2009V16.2072V16.2136V16.22V16.2264V16.2327V16.2391V16.2455V16.2518V16.2582V16.2646V16.271V16.2773V16.2837V16.2901V16.2964V16.3028V16.3092V16.3155V16.3219V16.3283V16.3347V16.341V16.3474V16.3538V16.3601V16.3665V16.3729V16.3793V16.3856V16.392V16.3984V16.4047V16.4111V16.4175V16.4239V16.4302V16.4366V16.443V16.4493V16.4557V16.4621V16.4684V16.4748V16.4812V16.4876V16.4939V16.5003V16.5067V16.513V16.5194V16.5258V16.5322V16.5385V16.5449V16.5513V16.5576V16.564V16.5704V16.5768V16.5831V16.5895V16.5959V16.6022V16.6086V16.615V16.6214V16.6277V16.6341V16.6405V16.6468V16.6532V16.6596V16.6659V16.6723V16.6787V16.6851V16.6914V16.6978V16.7042V16.7105V16.7169V16.7233V16.7297V16.736V16.7424V16.7488V16.7551V16.7615V16.7679V16.7743V16.7806V16.787V16.7934V16.7997V16.8061V16.8125V16.8189V16.8252V16.8316V16.838V16.8443V16.8507V16.8571V16.8635V16.8698V16.8762V16.8826V16.8889V16.8953V16.9017V16.908V16.9144V16.9208V16.9272V16.9335V16.9399V16.9463V16.9526V16.959V16.9654V16.9718V16.9781V16.9845V16.9909V16.9972V17.0036V17.01V17.0164V17.0227V17.0291V17.0355V17.0418V17.0482V17.0546V17.061V17.0673V17.0737V17.0801V17.0864V17.0928V17.0992V17.1056V17.1119V17.1183V17.1247V17.131V17.1374V17.1438V17.1501V17.1565V17.1629V17.1693V17.1756V17.182V17.1884V17.1947V17.2011V17.2075V17.2139V17.2202V17.2266V17.233V17.2393V17.2457V17.2521V17.2585V17.2648V17.2712V17.2776V17.2839V17.2903V17.2967V17.303V17.3094V17.3158V17.3222V17.3285V17.3349V17.3413V17.3476V17.354V17.3604V17.3668V17.3731V17.3795V17.3859V17.3922V17.3986V17.405V17.4114V17.4177V17.4241V17.4305V17.4368V17.4432V17.4496V17.4559V17.4623V17.4687V17.4751V17.4814V17.4878V17.4942V17.5005V17.5069V17.5133V17.5197V17.526V17.5324V17.5388V17.5451V17.5515V17.5579V17.5642V17.5706V17.577V17.5834V17.5897V17.5961V17.6025V17.6088V17.6152V17.6216V17.628V17.6343V17.6407V17.6471V17.6534V17.6598V17.6662V17.6725V17.6789V17.6853V17.6917V17.698V17.7044V17.7108V17.7171V17.7235V17.7299V17.7362V17.7426V17.749V17.7554V17.7617V17.7681V17.7745V17.7808V17.7872V17.7936V17.8V17.8063V17.8127V17.8191V17.8254V17.8318V17.8382V17.8445V17.8509V17.8573V17.8637V17.87V17.8764V17.8828V17.8891V17.8955V17.9019V17.9082V17.9146V17.921V17.9274V17.9337V17.9401V17.9465V17.9528V17.9592V17.9656V17.9719V17.9783V17.9847V17.9911V17.9974V18.0038V18.0102V18.0165V18.0229V18.0293V18.0356V18.042V18.0484V18.0548V18.0611V18.0675V18.0739V18.0802V18.0866V18.093V18.0993V18.1057V18.1121V18.1185V18.1248V18.1312V18.1376V18.1439V18.1503V18.1567V18.163V18.1694V18.1758V18.1821V18.1885V18.1949V18.2013V18.2076V18.214V18.2204V18.2267V18.2331V18.2395V18.2458V18.2522V18.2586V18.2649V18.2713V18.2777V18.2841V18.2904V18.2968V18.3032V18.3095V18.3159V18.3223V18.3286V18.335V18.3414V18.3477V18.3541V18.3605V18.3669V18.3732V18.3796V18.386V18.3923V18.3987V18.4051C11.3352 18.5067 11.3154 18.5319 11.3102 18.537C11.3051 18.5422 11.2797 18.5622 11.1774 18.5622H11.1742H11.1709H11.1676H11.1644H11.1611H11.1579H11.1546H11.1514H11.1481H11.1449H11.1416H11.1384H11.1351H11.1319H11.1286H11.1253H11.1221H11.1188H11.1156H11.1123H11.1091H11.1058H11.1026H11.0993H11.0961H11.0928H11.0896H11.0863H11.083H11.0798H11.0765H11.0733H11.07H11.0668H11.0635H11.0603H11.057H11.0538H11.0505H11.0473H11.044H11.0407H11.0375H11.0342H11.031H11.0277H11.0245H11.0212H11.018H11.0147H11.0115H11.0082H11.0049H11.0017H10.9984H10.9952H10.9919H10.9887H10.9854H10.9822H10.9789H10.9757H10.9724H10.9691H10.9659H10.9626H10.9594H10.9561H10.9529H10.9496H10.9464H10.9431H10.9399H10.9366H10.9333H10.9301H10.9268H10.9236H10.9203H10.9171H10.9138H10.9106H10.9073H10.9041H10.9008H10.8975H10.8943H10.891H10.8878H10.8845H10.8813H10.878H10.8748H10.8715H10.8683H10.865H10.8617H10.8585H10.8552H10.852H10.8487H10.8455H10.8422H10.839H10.8357H10.8324H10.8292H10.8259H10.8227H10.8194H10.8162H10.8129H10.8097H10.8064H10.8031H10.7999H10.7966H10.7934H10.7901H10.7869H10.7836H10.7804H10.7771H10.7739H10.7706H10.7673H10.7641H10.7608H10.7576H10.7543H10.7511H10.7478H10.7446H10.7413H10.738H10.7348H10.7315H10.7283H10.725H10.7218H10.7185H10.7153H10.712H10.7087H10.7055H10.7022H10.699H10.6957H10.6925H10.6892H10.686H10.6827H10.6794H10.6762H10.6729H10.6697H10.6664H10.6632H10.6599H10.6567H10.6534H10.6501H10.6469H10.6436H10.6404H10.6371H10.6339H10.6306H10.6274H10.6241H10.6208H10.6176H10.6143H10.6111H10.6078H10.6046H10.6013H10.598H10.5948H10.5915H10.5883H10.585H10.5818H10.5785H10.5753H10.572H10.5687H10.5655H10.5622H10.559H10.5557H10.5525H10.5492H10.546H10.5427H10.5394H10.5362H10.5329H10.5297H10.5264H10.5232H10.5199H10.5166H10.5134H10.5101H10.5069H10.5036H10.5004H10.4971H10.4939H10.4906H10.4873H10.4841H10.4808H10.4776H10.4743H10.4711H10.4678H10.4645H10.4613H10.458H10.4548H10.4515H10.4483H10.445H10.4418H10.4385H10.4352H10.432H10.4287H10.4255H10.4222H10.419H10.4157H10.4124H10.4092H10.4059H10.4027H10.3994H10.3962H10.3929H10.3897H10.3864H10.3831H10.3799H10.3766H10.3734H10.3701H10.3669H10.3636H10.3603H10.3571H10.3538H10.3506H10.3473H10.3441H10.3408H10.3375H10.3343H10.331H10.3278H10.3245H10.3213H10.318H10.3148H10.3115H10.3082H10.305H10.3017H10.2985H10.2952H10.292H10.2887H10.2854H10.2822H10.2789H10.2757H10.2724H10.2692H10.2659H10.2626H10.2594H10.2561H10.2529H10.2496H10.2464H10.2431H10.2398H10.2366H10.2333H10.2301H10.2268H10.2236H10.2203H10.217H10.2138H10.2105H10.2073H10.204H10.2008H10.1975H10.1942H10.191H10.1877H10.1845H10.1812H10.178H10.1747H10.1715H10.1682H10.1649H10.1617H10.1584H10.1552H10.1519H10.1487H10.1454H10.1421H10.1389H10.1356H10.1324H10.1291H10.1259H10.1226H10.1193H10.1161H10.1128H10.1096H10.1063H10.1031H10.0998H10.0965H10.0933H10.09H10.0868H10.0835H10.0803H10.077H10.0737H10.0705H10.0672H10.064H10.0607H10.0575H10.0542H10.0509H10.0477H10.0444H10.0412H10.0379H10.0347H10.0314H10.0281H10.0249H10.0216H10.0184H10.0151H10.0119H10.0086H10.0053H10.0021H9.99882H9.99557H9.99231H9.98905H9.98579H9.98254H9.97928H9.97602H9.97276H9.96951H9.96625H9.96299H9.95974H9.95648H9.95322H9.94996H9.94671H9.94345H9.94019H9.93693H9.93368H9.93042H9.92716H9.9239H9.92065H9.91739H9.91413H9.91087H9.90762H9.90436H9.9011H9.89785H9.89459H9.89133H9.88807H9.88482H9.88156H9.8783H9.87504H9.87179H9.86853H9.86527H9.86201H9.85876H9.8555H9.85224H9.84898H9.84573H9.84247H9.83921H9.83595H9.8327H9.82944H9.82618H9.82292H9.81967H9.81641H9.81315H9.80989H9.80664H9.80338H9.80012H9.79686H9.79361H9.79035H9.78709H9.78383H9.78058H9.77732H9.77406H9.7708H9.76755H9.76429H9.76103H9.75777H9.75452H9.75126H9.748H9.74474H9.74149H9.73823H9.73497H9.73171H9.72846H9.7252H9.72194H9.71868H9.71543H9.71217H9.70891H9.70565H9.7024H9.69914H9.69588H9.69262H9.68937H9.68611H9.68285H9.67959H9.67633H9.67308H9.66982H9.66656H9.6633H9.66005H9.65679H9.65353H9.65027H9.64702H9.64376H9.6405H9.63724H9.63399H9.63073H9.62747H9.62421H9.62096H9.6177H9.61444H9.61118H9.60793H9.60467H9.60141H9.59815H9.5949H9.59164H9.58838H9.58512H9.58186H9.57861H9.57535H9.57209H9.56883H9.56558H9.56232H9.55906H9.5558H9.55255H9.54929H9.54603H9.54277H9.53952H9.53626H9.533H9.52974H9.52649H9.52323H9.51997H9.51671H9.51345H9.5102H9.3667H9.2167V18.7122V19.1801V19.3301H9.3667C9.55008 19.3301 9.73251 19.3287 9.91432 19.3274C10.341 19.3242 10.7642 19.3211 11.1882 19.3356L11.1883 19.3356C11.6811 19.3523 12.119 18.9493 12.1107 18.4146ZM12.1107 18.4146L11.9608 18.4169M12.1107 18.4146C12.1107 18.4146 12.1107 18.4146 12.1107 18.4145L11.9608 18.4169M11.9608 18.4169C11.9677 18.8647 11.6017 19.1995 11.1933 19.1856C10.7661 19.171 10.3378 19.1742 9.90975 19.1774C9.77871 19.1784 9.64768 19.1794 9.5167 19.1798V19.1801H9.3667V19.0301V18.8622V18.7122H9.5102H9.5167H11.1774C11.4041 18.7122 11.4852 18.6304 11.4852 18.4051V15.1434V14.9701L11.4866 14.9688H11.9483C11.949 14.9846 11.9502 15.0003 11.9513 15.0159C11.9533 15.0428 11.9552 15.0696 11.9552 15.0963C11.9552 15.4126 11.9543 15.7289 11.9534 16.0452C11.9511 16.8357 11.9489 17.6261 11.9608 18.4169Z" fill="#173371" stroke="#173371" stroke-width="0.3"/>
<path d="M16.0509 18.6055L16.0948 18.6494V18.7115V19.1794V19.3294H15.9448H15.9445H15.9441H15.9438H15.9435H15.9432H15.9428H15.9425H15.9422H15.9419H15.9415H15.9412H15.9409H15.9405H15.9402H15.9399H15.9396H15.9392H15.9389H15.9386H15.9382H15.9379H15.9376H15.9372H15.9369H15.9366H15.9363H15.9359H15.9356H15.9353H15.9349H15.9346H15.9343H15.9339H15.9336H15.9333H15.9329H15.9326H15.9323H15.9319H15.9316H15.9313H15.9309H15.9306H15.9302H15.9299H15.9296H15.9292H15.9289H15.9286H15.9282H15.9279H15.9276H15.9272H15.9269H15.9265H15.9262H15.9259H15.9255H15.9252H15.9249H15.9245H15.9242H15.9238H15.9235H15.9232H15.9228H15.9225H15.9221H15.9218H15.9214H15.9211H15.9208H15.9204H15.9201H15.9197H15.9194H15.9191H15.9187H15.9184H15.918H15.9177H15.9173H15.917H15.9166H15.9163H15.916H15.9156H15.9153H15.9149H15.9146H15.9142H15.9139H15.9135H15.9132H15.9128H15.9125H15.9121H15.9118H15.9115H15.9111H15.9108H15.9104H15.9101H15.9097H15.9094H15.909H15.9087H15.9083H15.908H15.9076H15.9073H15.9069H15.9066H15.9062H15.9059H15.9055H15.9052H15.9048H15.9045H15.9041H15.9038H15.9034H15.9031H15.9027H15.9023H15.902H15.9016H15.9013H15.9009H15.9006H15.9002H15.8999H15.8995H15.8992H15.8988H15.8985H15.8981H15.8977H15.8974H15.897H15.8967H15.8963H15.896H15.8956H15.8953H15.8949H15.8945H15.8942H15.8938H15.8935H15.8931H15.8928H15.8924H15.892H15.8917H15.8913H15.891H15.8906H15.8902H15.8899H15.8895H15.8892H15.8888H15.8884H15.8881H15.8877H15.8874H15.887H15.8866H15.8863H15.8859H15.8856H15.8852H15.8848H15.8845H15.8841H15.8838H15.8834H15.883H15.8827H15.8823H15.8819H15.8816H15.8812H15.8808H15.8805H15.8801H15.8798H15.8794H15.879H15.8787H15.8783H15.8779H15.8776H15.8772H15.8768H15.8765H15.8761H15.8757H15.8754H15.875H15.8746H15.8743H15.8739H15.8735H15.8732H15.8728H15.8724H15.8721H15.8717H15.8713H15.871H15.8706H15.8702H15.8699H15.8695H15.8691H15.8688H15.8684H15.868H15.8677H15.8673H15.8669H15.8666H15.8662H15.8658H15.8654H15.8651H15.8647H15.8643H15.864H15.8636H15.8632H15.8629H15.8625H15.8621H15.8617H15.8614H15.861H15.8606H15.8603H15.8599H15.8595H15.8591H15.8588H15.8584H15.858H15.8577H15.8573H15.8569H15.8565H15.8562H15.8558H15.8554H15.855H15.8547H15.8543H15.8539H15.8535H15.8532H15.8528H15.8524H15.852H15.8517H15.8513H15.8509H15.8505H15.8502H15.8498H15.8494H15.849H15.8487H15.8483H15.8479H15.8475H15.8472H15.8468H15.8464H15.846H15.8457H15.8453H15.8449H15.8445H15.8442H15.8438H15.8434H15.843H15.8426H15.8423H15.8419H15.8415H15.8411H15.8408H15.8404H15.84H15.8396H15.8392H15.8389H15.8385H15.8381H15.8377H15.8374H15.837H15.8366H15.8362H15.8358H15.8355H15.8351H15.8347H15.8343H15.8339H15.8336H15.8332H15.8328H15.8324H15.832H15.8317H15.8313H15.8309H15.8305H15.8301H15.8298H15.8294H15.829H15.8286H15.8282H15.8278H15.8275H15.8271H15.8267H15.8263H15.8259H15.8256H15.8252H15.8248H15.8244H15.824H15.8236H15.8233H15.8229H15.8225H15.8221H15.8217H15.8213H15.821H15.8206H15.8202H15.8198H15.8194H15.819H15.8187H15.8183H15.8179H15.8175H15.8171H15.8167H15.8164H15.816H15.8156H15.8152H15.8148H15.8144H15.8141H15.8137H15.8133H15.8129H15.8125H15.8121H15.8117H15.8114H15.811H15.8106H15.8102H15.8098H15.8094H15.8091H15.8087H15.8083H15.8079H15.8075H15.8071H15.8067H15.8064H15.806H15.8056H15.8052H15.8048H15.8044H15.804H15.8037H15.8033H15.8029H15.8025H15.8021H15.8017H15.8013H15.8009H15.8006H15.8002H15.7998H15.7994H15.799H15.7986H15.7982H15.7979H15.7975H15.7971H15.7967H15.7963H15.7959H15.7955H15.7951H15.7948H15.7944H15.794H15.7936H15.7932H15.7928H15.7924H15.792H15.7917H15.7913H15.7909H15.7905H15.7901H15.7897H15.7893H15.7889H15.7885H15.7882H15.7878H15.7874H15.787H15.7866H15.7862H15.7858H15.7854H15.7851H15.7847H15.7843H15.7839H15.7835H15.7831H15.7827H15.7823H15.7819H15.7816H15.7812H15.7808H15.7804H15.78H15.7796H15.7792H15.7788H15.7784H15.7781H15.7777H15.7773H15.7769H15.7765H15.7761H15.7757H15.7753H15.7749H15.7745H15.7742H15.7738H15.7734H15.773H15.7726H15.7722H15.7718H15.7714H15.771H15.7707H15.7703H15.7699H15.7695H15.7691H15.7687H15.7683H15.7679H15.7675H15.7671H15.7668H15.7664H15.766H15.7656H15.7652H15.7648H15.7644H15.764H15.7636H15.7632H15.7629H15.7625H15.7621H15.7617H15.7613H15.7609H15.7605H15.7601H15.7597H15.7593H15.759H15.7586H15.7582H15.7578H15.7574H15.757H15.7566H15.7562C15.5694 19.3294 15.3826 19.3295 15.1957 19.3295C14.822 19.3297 14.4482 19.3299 14.0743 19.3294L14.0742 19.3294C13.5863 19.3286 13.2092 18.9624 13.2084 18.4739L13.2084 18.4739C13.2076 17.8222 13.2077 17.1701 13.2078 16.518C13.2079 16.0292 13.208 15.5404 13.2077 15.052L13.2077 15.0519L13.2077 15.0518V15.0517V15.0515V15.0514V15.0512V15.0511V15.051V15.0508V15.0507V15.0505V15.0504V15.0503V15.0501V15.05V15.0499V15.0497V15.0496V15.0494V15.0493V15.0492V15.049V15.0489V15.0488V15.0486V15.0485V15.0483V15.0482V15.0481V15.0479V15.0478V15.0476V15.0475V15.0474V15.0472V15.0471V15.047V15.0468V15.0467V15.0465V15.0464V15.0463V15.0461V15.046V15.0458V15.0457V15.0456V15.0454V15.0453V15.0452V15.045V15.0449V15.0447V15.0446V15.0445V15.0443V15.0442V15.044V15.0439V15.0438V15.0436V15.0435V15.0434V15.0432V15.0431V15.0429V15.0428V15.0427V15.0425V15.0424V15.0422V15.0421V15.042V15.0418V15.0417V15.0415V15.0414V15.0413V15.0411V15.041V15.0408V15.0407V15.0406V15.0404V15.0403V15.0402V15.04V15.0399V15.0397V15.0396V15.0395V15.0393V15.0392V15.039V15.0389V15.0388V15.0386V15.0385V15.0383V15.0382V15.0381V15.0379V15.0378V15.0376V15.0375V15.0374V15.0372V15.0371V15.0369V15.0368V15.0367V15.0365V15.0364V15.0362V15.0361V15.036V15.0358V15.0357V15.0355V15.0354V15.0352V15.0351V15.035V15.0348V15.0347V15.0345V15.0344V15.0343V15.0341V15.034V15.0338V15.0337V15.0336V15.0334V15.0333V15.0331V15.033V15.0328V15.0327V15.0326V15.0324V15.0323V15.0321V15.032V15.0319V15.0317V15.0316V15.0314V15.0313V15.0311V15.031V15.0309V15.0307V15.0306V15.0304V15.0303V15.0301V15.03V15.0299V15.0297V15.0296V15.0294V15.0293V15.0291V15.029V15.0289V15.0287V15.0286V15.0284V15.0283V15.0281V15.028V15.0279V15.0277V15.0276V15.0274V15.0273V15.0271V15.027V15.0269V15.0267V15.0266V15.0264V15.0263V15.0261V15.026V15.0258V15.0257V15.0256V15.0254V15.0253V15.0251V15.025V15.0248V15.0247V15.0245V15.0244V15.0242V15.0241V15.024V15.0238V15.0237V15.0235V15.0234V15.0232V15.0231V15.0229V15.0228V15.0226V15.0225V15.0224V15.0222V15.0221V15.0219V15.0218V15.0216V15.0215V15.0213V15.0212V15.021V15.0209V15.0207V15.0206V15.0204V15.0203V15.0201V15.02V15.0199V15.0197V15.0196V15.0194V15.0193V15.0191V15.019V15.0188V15.0187V15.0185V15.0184V15.0182V15.0181V15.0179V15.0178V15.0176V15.0175V15.0173V15.0172V15.017V15.0169V15.0167V15.0166V15.0164V15.0163V15.0161V15.016V15.0158V15.0157V15.0155V15.0154V15.0152V15.0151V15.0149V15.0148V15.0146V15.0145V15.0143V15.0142V15.014V15.0139V15.0137V15.0136V15.0134V15.0133V15.0131V15.013V15.0128V15.0127V15.0125V15.0124V15.0122V15.0121V15.0119V15.0117V15.0116V15.0114V15.0113V15.0111V15.011V15.0108V15.0107V15.0105V15.0104V15.0102V15.0101V15.0099V15.0098V15.0096V15.0094V15.0093V15.0091V15.009V15.0088V15.0087V15.0085V15.0084V15.0082V15.008V15.0079V15.0077V15.0076V15.0074V15.0073V15.0071V15.007V15.0068V15.0066V15.0065V15.0063V15.0062V15.006V15.0059V15.0057V15.0055V15.0054V15.0052V15.0051V15.0049V15.0048V15.0046V15.0044V15.0043V15.0041V15.004V15.0038V15.0037V15.0035V15.0033V15.0032V15.003V15.0029V15.0027V15.0025V15.0024V15.0022V15.0021V15.0019V15.0017V15.0016V15.0014V15.0013V15.0011V15.0009V15.0008V15.0006V15.0005V15.0003V15.0001V15V14.9998V14.9996V14.9995V14.9993V14.9992V14.999V14.9988V14.9987V14.9985V14.9983V14.9982V14.998V14.9979V14.9977V14.9975V14.9974V14.9972V14.997V14.9969V14.9967V14.9965V14.9964V14.9962V14.996V14.9959V14.9957V14.9956V14.9954V14.9952V14.9951V14.9949V14.9947V14.9946V14.9944V14.9942V14.9941V14.9939V14.9937V14.9936V14.9934V14.9932V14.9931V14.9929V14.9927V14.9926V14.9924V14.9922V14.992V14.9919V14.9917V14.9915V14.9914V14.9912V14.991V14.9909V14.9907V14.9905V14.9904V14.9902V14.99V14.9898V14.9897V14.9895V14.9893V14.9892V14.989V14.9888V14.9886V14.9885V14.9883V14.9881V14.988V14.9878V14.9876V14.9874V14.9873V14.9871V14.9869V14.9868V14.9866V14.9864V14.9862V14.9861V14.9859V14.9857V14.9855V14.9854V14.9852V14.985V14.9848V14.9847V14.9845V14.9843V14.9841V14.984V14.9838V14.9836V14.9834V14.9833V14.9831V14.9829V14.9827V14.9825V14.9824V14.9822V14.982V14.9818V14.9817V14.9815V14.9813V14.9811V14.9809V14.9808V14.9806V14.9804V14.9802V14.98V14.9799V14.9797V14.9795V14.9793V14.9791V14.979V14.9788V14.9786V14.9784V14.9782V14.9781V14.9779V14.9777V14.9775V14.9773V14.9771V14.977V14.9768V14.9766V14.9764V14.9762V14.976V14.9759V14.9757V14.9755V14.9753V14.9751V14.9749V14.9748V14.9746V14.9744V14.9742V14.974V14.9738V14.9736V14.9735V14.9733V14.9731V14.9729V14.8229H13.3577H13.8263H13.9763V14.9729V15.1275V15.1338V15.1402V15.1465V15.1529V15.1592V15.1655V15.1719V15.1782V15.1846V15.1909V15.1972V15.2036V15.2099V15.2163V15.2226V15.2289V15.2353V15.2416V15.248V15.2543V15.2606V15.267V15.2733V15.2797V15.286V15.2923V15.2987V15.305V15.3114V15.3177V15.324V15.3304V15.3367V15.3431V15.3494V15.3558V15.3621V15.3684V15.3748V15.3811V15.3875V15.3938V15.4001V15.4065V15.4128V15.4192V15.4255V15.4318V15.4382V15.4445V15.4509V15.4572V15.4635V15.4699V15.4762V15.4826V15.4889V15.4952V15.5016V15.5079V15.5143V15.5206V15.5269V15.5333V15.5396V15.546V15.5523V15.5586V15.565V15.5713V15.5777V15.584V15.5904V15.5967V15.603V15.6094V15.6157V15.6221V15.6284V15.6347V15.6411V15.6474V15.6538V15.6601V15.6664V15.6728V15.6791V15.6855V15.6918V15.6981V15.7045V15.7108V15.7172V15.7235V15.7298V15.7362V15.7425V15.7489V15.7552V15.7615V15.7679V15.7742V15.7806V15.7869V15.7933V15.7996V15.8059V15.8123V15.8186V15.825V15.8313V15.8376V15.844V15.8503V15.8567V15.863V15.8693V15.8757V15.882V15.8884V15.8947V15.901V15.9074V15.9137V15.9201V15.9264V15.9327V15.9391V15.9454V15.9518V15.9581V15.9644V15.9708V15.9771V15.9835V15.9898V15.9961V16.0025V16.0088V16.0152V16.0215V16.0279V16.0342V16.0405V16.0469V16.0532V16.0596V16.0659V16.0722V16.0786V16.0849V16.0913V16.0976V16.1039V16.1103V16.1166V16.123V16.1293V16.1356V16.142V16.1483V16.1547V16.161V16.1673V16.1737V16.18V16.1864V16.1927V16.199V16.2054V16.2117V16.2181V16.2244V16.2308V16.2371V16.2434V16.2498V16.2561V16.2625V16.2688V16.2751V16.2815V16.2878V16.2942V16.3005V16.3068V16.3132V16.3195V16.3259V16.3322V16.3385V16.3449V16.3512V16.3576V16.3639V16.3702V16.3766V16.3829V16.3893V16.3956V16.4019V16.4083V16.4146V16.421V16.4273V16.4336V16.44V16.4463V16.4527V16.459V16.4654V16.4717V16.478V16.4844V16.4907V16.4971V16.5034V16.5097V16.5161V16.5224V16.5288V16.5351V16.5414V16.5478V16.5541V16.5605V16.5668V16.5731V16.5795V16.5858V16.5922V16.5985V16.6048V16.6112V16.6175V16.6239V16.6302V16.6365V16.6429V16.6492V16.6556V16.6619V16.6683V16.6746V16.6809V16.6873V16.6936V16.7V16.7063V16.7126V16.719V16.7253V16.7317V16.738V16.7443V16.7507V16.757V16.7634V16.7697V16.776V16.7824V16.7887V16.7951V16.8014V16.8077V16.8141V16.8204V16.8268V16.8331V16.8394V16.8458V16.8521V16.8585V16.8648V16.8711V16.8775V16.8838V16.8902V16.8965V16.9029V16.9092V16.9155V16.9219V16.9282V16.9346V16.9409V16.9472V16.9536V16.9599V16.9663V16.9726V16.9789V16.9853V16.9916V16.998V17.0043V17.0106V17.017V17.0233V17.0297V17.036V17.0423V17.0487V17.055V17.0614V17.0677V17.074V17.0804V17.0867V17.0931V17.0994V17.1058V17.1121V17.1184V17.1248V17.1311V17.1375V17.1438V17.1501V17.1565V17.1628V17.1692V17.1755V17.1818V17.1882V17.1945V17.2009V17.2072V17.2135V17.2199V17.2262V17.2326V17.2389V17.2452V17.2516V17.2579V17.2643V17.2706V17.2769V17.2833V17.2896V17.296V17.3023V17.3086V17.315V17.3213V17.3277V17.334V17.3404V17.3467V17.353V17.3594V17.3657V17.3721V17.3784V17.3847V17.3911V17.3974V17.4038V17.4101V17.4164V17.4228V17.4291V17.4355V17.4418V17.4481V17.4545V17.4608V17.4672V17.4735V17.4798V17.4862V17.4925V17.4989V17.5052V17.5115V17.5179V17.5242V17.5306V17.5369V17.5433V17.5496V17.5559V17.5623V17.5686V17.575V17.5813V17.5876V17.594V17.6003V17.6067V17.613V17.6193V17.6257V17.632V17.6384V17.6447V17.651V17.6574V17.6637V17.6701V17.6764V17.6827V17.6891V17.6954V17.7018V17.7081V17.7144V17.7208V17.7271V17.7335V17.7398V17.7462V17.7525V17.7588V17.7652V17.7715V17.7779V17.7842V17.7905V17.7969V17.8032V17.8096V17.8159V17.8222V17.8286V17.8349V17.8413V17.8476V17.8539V17.8603V17.8666V17.873V17.8793V17.8856V17.892V17.8983V17.9047V17.911V17.9173V17.9237V17.93V17.9364V17.9427V17.949V17.9554V17.9617V17.9681V17.9744V17.9808V17.9871V17.9934V17.9998V18.0061V18.0125V18.0188V18.0251V18.0315V18.0378V18.0442V18.0505V18.0568V18.0632V18.0695V18.0759V18.0822V18.0885V18.0949V18.1012V18.1076V18.1139V18.1202V18.1266V18.1329V18.1393V18.1456V18.1519V18.1583V18.1646V18.171V18.1773V18.1837V18.19V18.1963V18.2027V18.209V18.2154V18.2217V18.228V18.2344V18.2407V18.2471V18.2534V18.2597V18.2661V18.2724V18.2788V18.2851V18.2914V18.2978V18.3041V18.3105V18.3168V18.3231V18.3295V18.3358V18.3422V18.3485V18.3548V18.3612V18.3675V18.3739C13.9763 18.5054 13.9972 18.5318 14.0012 18.5358C14.0053 18.5399 14.0316 18.5608 14.1632 18.5608L16.0509 18.6055ZM16.0509 18.6055L15.9448 18.7115L16.0509 18.6055ZM16.0063 18.5608L16.0502 18.6048L16.0063 18.5608ZM16.0063 18.5608H15.9441M16.0063 18.5608H15.9441M15.9441 18.5608H15.9406M15.9441 18.5608H15.9406M15.9406 18.5608H15.9371M15.9406 18.5608H15.9371M15.9371 18.5608H15.9337M15.9371 18.5608H15.9337M15.9337 18.5608H15.9302M15.9337 18.5608H15.9302M15.9302 18.5608H15.9267M15.9302 18.5608H15.9267M15.9267 18.5608H15.9233M15.9267 18.5608H15.9233M15.9233 18.5608H15.9198M15.9233 18.5608H15.9198M15.9198 18.5608H15.9163M15.9198 18.5608H15.9163M15.9163 18.5608H15.9128M15.9163 18.5608H15.9128M15.9128 18.5608H15.9094M15.9128 18.5608H15.9094M15.9094 18.5608H15.9059M15.9094 18.5608H15.9059M15.9059 18.5608H15.9024M15.9059 18.5608H15.9024M15.9024 18.5608H15.8989M15.9024 18.5608H15.8989M15.8989 18.5608H15.8955M15.8989 18.5608H15.8955M15.8955 18.5608H15.892M15.8955 18.5608H15.892M15.892 18.5608H15.8885M15.892 18.5608H15.8885M15.8885 18.5608H15.885M15.8885 18.5608H15.885M15.885 18.5608H15.8816M15.885 18.5608H15.8816M15.8816 18.5608H15.8781M15.8816 18.5608H15.8781M15.8781 18.5608H15.8746M15.8781 18.5608H15.8746M15.8746 18.5608H15.8712M15.8746 18.5608H15.8712M15.8712 18.5608H15.8677M15.8712 18.5608H15.8677M15.8677 18.5608H15.8642M15.8677 18.5608H15.8642M15.8642 18.5608H15.8607M15.8642 18.5608H15.8607M15.8607 18.5608H15.8573M15.8607 18.5608H15.8573M15.8573 18.5608H15.8538M15.8573 18.5608H15.8538M15.8538 18.5608H15.8503M15.8538 18.5608H15.8503M15.8503 18.5608H15.8468M15.8503 18.5608H15.8468M15.8468 18.5608H15.8434M15.8468 18.5608H15.8434M15.8434 18.5608H15.8399M15.8434 18.5608H15.8399M15.8399 18.5608H15.8364M15.8399 18.5608H15.8364M15.8364 18.5608H15.8329M15.8364 18.5608H15.8329M15.8329 18.5608H15.8295M15.8329 18.5608H15.8295M15.8295 18.5608H15.826M15.8295 18.5608H15.826M15.826 18.5608H15.8225M15.826 18.5608H15.8225M15.8225 18.5608H15.819M15.8225 18.5608H15.819M15.819 18.5608H15.8156M15.819 18.5608H15.8156M15.8156 18.5608H15.8121M15.8156 18.5608H15.8121M15.8121 18.5608H15.8086M15.8121 18.5608H15.8086M15.8086 18.5608H15.8052M15.8086 18.5608H15.8052M15.8052 18.5608H15.8017M15.8052 18.5608H15.8017M15.8017 18.5608H15.7982M15.8017 18.5608H15.7982M15.7982 18.5608H15.7947M15.7982 18.5608H15.7947M15.7947 18.5608H15.7913M15.7947 18.5608H15.7913M15.7913 18.5608H15.7878M15.7913 18.5608H15.7878M15.7878 18.5608H15.7843M15.7878 18.5608H15.7843M15.7843 18.5608H15.7808M15.7843 18.5608H15.7808M15.7808 18.5608H15.7774M15.7808 18.5608H15.7774M15.7774 18.5608H15.7739M15.7774 18.5608H15.7739M15.7739 18.5608H15.7704M15.7739 18.5608H15.7704M15.7704 18.5608H15.7669M15.7704 18.5608H15.7669M15.7669 18.5608H15.7635M15.7669 18.5608H15.7635M15.7635 18.5608H15.76M15.7635 18.5608H15.76M15.76 18.5608H15.7565M15.76 18.5608H15.7565M15.7565 18.5608H15.753M15.7565 18.5608H15.753M15.753 18.5608H15.7496M15.753 18.5608H15.7496M15.7496 18.5608H15.7461M15.7496 18.5608H15.7461M15.7461 18.5608H15.7426M15.7461 18.5608H15.7426M15.7426 18.5608H15.7391M15.7426 18.5608H15.7391M15.7391 18.5608H15.7357M15.7391 18.5608H15.7357M15.7357 18.5608H15.7322M15.7357 18.5608H15.7322M15.7322 18.5608H15.7287M15.7322 18.5608H15.7287M15.7287 18.5608H15.7252M15.7287 18.5608H15.7252M15.7252 18.5608H15.7218M15.7252 18.5608H15.7218M15.7218 18.5608H15.7183M15.7218 18.5608H15.7183M15.7183 18.5608H15.7148M15.7183 18.5608H15.7148M15.7148 18.5608H15.7113M15.7148 18.5608H15.7113M15.7113 18.5608H15.7079M15.7113 18.5608H15.7079M15.7079 18.5608H15.7044M15.7079 18.5608H15.7044M15.7044 18.5608H15.7009M15.7044 18.5608H15.7009M15.7009 18.5608H15.6974M15.7009 18.5608H15.6974M15.6974 18.5608H15.694M15.6974 18.5608H15.694M15.694 18.5608H15.6905M15.694 18.5608H15.6905M15.6905 18.5608H15.687M15.6905 18.5608H15.687M15.687 18.5608H15.6835M15.687 18.5608H15.6835M15.6835 18.5608H15.6801M15.6835 18.5608H15.6801M15.6801 18.5608H15.6766M15.6801 18.5608H15.6766M15.6766 18.5608H15.6731M15.6766 18.5608H15.6731M15.6731 18.5608H15.6696M15.6731 18.5608H15.6696M15.6696 18.5608H15.6662M15.6696 18.5608H15.6662M15.6662 18.5608H15.6627M15.6662 18.5608H15.6627M15.6627 18.5608H15.6592M15.6627 18.5608H15.6592M15.6592 18.5608H15.6557M15.6592 18.5608H15.6557M15.6557 18.5608H15.6523M15.6557 18.5608H15.6523M15.6523 18.5608H15.6488M15.6523 18.5608H15.6488M15.6488 18.5608H15.6453M15.6488 18.5608H15.6453M15.6453 18.5608H15.6418M15.6453 18.5608H15.6418M15.6418 18.5608H15.6384M15.6418 18.5608H15.6384M15.6384 18.5608H15.6349M15.6384 18.5608H15.6349M15.6349 18.5608H15.6314M15.6349 18.5608H15.6314M15.6314 18.5608H15.6279M15.6314 18.5608H15.6279M15.6279 18.5608H15.6245M15.6279 18.5608H15.6245M15.6245 18.5608H15.621M15.6245 18.5608H15.621M15.621 18.5608H15.6175M15.621 18.5608H15.6175M15.6175 18.5608H15.614M15.6175 18.5608H15.614M15.614 18.5608H15.6106M15.614 18.5608H15.6106M15.6106 18.5608H15.6071M15.6106 18.5608H15.6071M15.6071 18.5608H15.6036M15.6071 18.5608H15.6036M15.6036 18.5608H15.6001M15.6036 18.5608H15.6001M15.6001 18.5608H15.5967M15.6001 18.5608H15.5967M15.5967 18.5608H15.5932M15.5967 18.5608H15.5932M15.5932 18.5608H15.5897M15.5932 18.5608H15.5897M15.5897 18.5608H15.5862M15.5897 18.5608H15.5862M15.5862 18.5608H15.5828M15.5862 18.5608H15.5828M15.5828 18.5608H15.5793M15.5828 18.5608H15.5793M15.5793 18.5608H15.5758M15.5793 18.5608H15.5758M15.5758 18.5608H15.5723M15.5758 18.5608H15.5723M15.5723 18.5608H15.5688M15.5723 18.5608H15.5688M15.5688 18.5608H15.5654M15.5688 18.5608H15.5654M15.5654 18.5608H15.5619M15.5654 18.5608H15.5619M15.5619 18.5608H15.5584M15.5619 18.5608H15.5584M15.5584 18.5608H15.5549M15.5584 18.5608H15.5549M15.5549 18.5608H15.5515M15.5549 18.5608H15.5515M15.5515 18.5608H15.548M15.5515 18.5608H15.548M15.548 18.5608H15.5445M15.548 18.5608H15.5445M15.5445 18.5608H15.541M15.5445 18.5608H15.541M15.541 18.5608H15.5376M15.541 18.5608H15.5376M15.5376 18.5608H15.5341M15.5376 18.5608H15.5341M15.5341 18.5608H15.5306M15.5341 18.5608H15.5306M15.5306 18.5608H15.5271M15.5306 18.5608H15.5271M15.5271 18.5608H15.5237M15.5271 18.5608H15.5237M15.5237 18.5608H15.5202M15.5237 18.5608H15.5202M15.5202 18.5608H15.5167M15.5202 18.5608H15.5167M15.5167 18.5608H15.5132M15.5167 18.5608H15.5132M15.5132 18.5608H15.5098M15.5132 18.5608H15.5098M15.5098 18.5608H15.5063M15.5098 18.5608H15.5063M15.5063 18.5608H15.5028M15.5063 18.5608H15.5028M15.5028 18.5608H15.4993M15.5028 18.5608H15.4993M15.4993 18.5608H15.4958M15.4993 18.5608H15.4958M15.4958 18.5608H15.4924M15.4958 18.5608H15.4924M15.4924 18.5608H15.4889M15.4924 18.5608H15.4889M15.4889 18.5608H15.4854M15.4889 18.5608H15.4854M15.4854 18.5608H15.4819M15.4854 18.5608H15.4819M15.4819 18.5608H15.4785M15.4819 18.5608H15.4785M15.4785 18.5608H15.475M15.4785 18.5608H15.475M15.475 18.5608H15.4715M15.475 18.5608H15.4715M15.4715 18.5608H15.468M15.4715 18.5608H15.468M15.468 18.5608H15.4646M15.468 18.5608H15.4646M15.4646 18.5608H15.4611M15.4646 18.5608H15.4611M15.4611 18.5608H15.4576M15.4611 18.5608H15.4576M15.4576 18.5608H15.4541M15.4576 18.5608H15.4541M15.4541 18.5608H15.4507M15.4541 18.5608H15.4507M15.4507 18.5608H15.4472M15.4507 18.5608H15.4472M15.4472 18.5608H15.4437M15.4472 18.5608H15.4437M15.4437 18.5608H15.4402M15.4437 18.5608H15.4402M15.4402 18.5608H15.4367M15.4402 18.5608H15.4367M15.4367 18.5608H15.4333M15.4367 18.5608H15.4333M15.4333 18.5608H15.4298M15.4333 18.5608H15.4298M15.4298 18.5608H15.4263M15.4298 18.5608H15.4263M15.4263 18.5608H15.4228M15.4263 18.5608H15.4228M15.4228 18.5608H15.4194M15.4228 18.5608H15.4194M15.4194 18.5608H15.4159M15.4194 18.5608H15.4159M15.4159 18.5608H15.4124M15.4159 18.5608H15.4124M15.4124 18.5608H15.4089M15.4124 18.5608H15.4089M15.4089 18.5608H15.4055M15.4089 18.5608H15.4055M15.4055 18.5608H15.402M15.4055 18.5608H15.402M15.402 18.5608H15.3985M15.402 18.5608H15.3985M15.3985 18.5608H15.395M15.3985 18.5608H15.395M15.395 18.5608H15.3915M15.395 18.5608H15.3915M15.3915 18.5608H15.3881M15.3915 18.5608H15.3881M15.3881 18.5608H15.3846M15.3881 18.5608H15.3846M15.3846 18.5608H15.3811M15.3846 18.5608H15.3811M15.3811 18.5608H15.3776M15.3811 18.5608H15.3776M15.3776 18.5608H15.3742M15.3776 18.5608H15.3742M15.3742 18.5608H15.3707M15.3742 18.5608H15.3707M15.3707 18.5608H15.3672M15.3707 18.5608H15.3672M15.3672 18.5608H15.3637M15.3672 18.5608H15.3637M15.3637 18.5608H15.3602M15.3637 18.5608H15.3602M15.3602 18.5608H15.3568M15.3602 18.5608H15.3568M15.3568 18.5608H15.3533M15.3568 18.5608H15.3533M15.3533 18.5608H15.3498M15.3533 18.5608H15.3498M15.3498 18.5608H15.3463M15.3498 18.5608H15.3463M15.3463 18.5608H15.3429M15.3463 18.5608H15.3429M15.3429 18.5608H15.3394M15.3429 18.5608H15.3394M15.3394 18.5608H15.3359M15.3394 18.5608H15.3359M15.3359 18.5608H15.3324M15.3359 18.5608H15.3324M15.3324 18.5608H15.329M15.3324 18.5608H15.329M15.329 18.5608H15.3255M15.329 18.5608H15.3255M15.3255 18.5608H15.322M15.3255 18.5608H15.322M15.322 18.5608H15.3185M15.322 18.5608H15.3185M15.3185 18.5608H15.315M15.3185 18.5608H15.315M15.315 18.5608H15.3116M15.315 18.5608H15.3116M15.3116 18.5608H15.3081M15.3116 18.5608H15.3081M15.3081 18.5608H15.3046M15.3081 18.5608H15.3046M15.3046 18.5608H15.3011M15.3046 18.5608H15.3011M15.3011 18.5608H15.2977M15.3011 18.5608H15.2977M15.2977 18.5608H15.2942M15.2977 18.5608H15.2942M15.2942 18.5608H15.2907M15.2942 18.5608H15.2907M15.2907 18.5608H15.2872M15.2907 18.5608H15.2872M15.2872 18.5608H15.2837M15.2872 18.5608H15.2837M15.2837 18.5608H15.2803M15.2837 18.5608H15.2803M15.2803 18.5608H15.2768M15.2803 18.5608H15.2768M15.2768 18.5608H15.2733M15.2768 18.5608H15.2733M15.2733 18.5608H15.2698M15.2733 18.5608H15.2698M15.2698 18.5608H15.2664M15.2698 18.5608H15.2664M15.2664 18.5608H15.2629M15.2664 18.5608H15.2629M15.2629 18.5608H15.2594M15.2629 18.5608H15.2594M15.2594 18.5608H15.2559M15.2594 18.5608H15.2559M15.2559 18.5608H15.2524M15.2559 18.5608H15.2524M15.2524 18.5608H15.249M15.2524 18.5608H15.249M15.249 18.5608H15.2455M15.249 18.5608H15.2455M15.2455 18.5608H15.242M15.2455 18.5608H15.242M15.242 18.5608H15.2385M15.242 18.5608H15.2385M15.2385 18.5608H15.235M15.2385 18.5608H15.235M15.235 18.5608H15.2316M15.235 18.5608H15.2316M15.2316 18.5608H15.2281M15.2316 18.5608H15.2281M15.2281 18.5608H15.2246M15.2281 18.5608H15.2246M15.2246 18.5608H15.2211M15.2246 18.5608H15.2211M15.2211 18.5608H15.2177M15.2211 18.5608H15.2177M15.2177 18.5608H15.2142M15.2177 18.5608H15.2142M15.2142 18.5608H15.2107M15.2142 18.5608H15.2107M15.2107 18.5608H15.2072M15.2107 18.5608H15.2072M15.2072 18.5608H15.2037M15.2072 18.5608H15.2037M15.2037 18.5608H15.2003M15.2037 18.5608H15.2003M15.2003 18.5608H15.1968M15.2003 18.5608H15.1968M15.1968 18.5608H15.1933M15.1968 18.5608H15.1933M15.1933 18.5608H15.1898M15.1933 18.5608H15.1898M15.1898 18.5608H15.1864M15.1898 18.5608H15.1864M15.1864 18.5608H15.1829M15.1864 18.5608H15.1829M15.1829 18.5608H15.1794M15.1829 18.5608H15.1794M15.1794 18.5608H15.1759M15.1794 18.5608H15.1759M15.1759 18.5608H15.1724M15.1759 18.5608H15.1724M15.1724 18.5608H15.169M15.1724 18.5608H15.169M15.169 18.5608H15.1655M15.169 18.5608H15.1655M15.1655 18.5608H15.162M15.1655 18.5608H15.162M15.162 18.5608H15.1585M15.162 18.5608H15.1585M15.1585 18.5608H15.155M15.1585 18.5608H15.155M15.155 18.5608H15.1516M15.155 18.5608H15.1516M15.1516 18.5608H15.1481M15.1516 18.5608H15.1481M15.1481 18.5608H15.1446M15.1481 18.5608H15.1446M15.1446 18.5608H15.1411M15.1446 18.5608H15.1411M15.1411 18.5608H15.1377M15.1411 18.5608H15.1377M15.1377 18.5608H15.1342M15.1377 18.5608H15.1342M15.1342 18.5608H15.1307M15.1342 18.5608H15.1307M15.1307 18.5608H15.1272M15.1307 18.5608H15.1272M15.1272 18.5608H15.1237M15.1272 18.5608H15.1237M15.1237 18.5608H15.1203M15.1237 18.5608H15.1203M15.1203 18.5608H15.1168M15.1203 18.5608H15.1168M15.1168 18.5608H15.1133M15.1168 18.5608H15.1133M15.1133 18.5608H15.1098M15.1133 18.5608H15.1098M15.1098 18.5608H15.1063M15.1098 18.5608H15.1063M15.1063 18.5608H15.1029M15.1063 18.5608H15.1029M15.1029 18.5608H15.0994M15.1029 18.5608H15.0994M15.0994 18.5608H15.0959M15.0994 18.5608H15.0959M15.0959 18.5608H15.0924M15.0959 18.5608H15.0924M15.0924 18.5608H15.089M15.0924 18.5608H15.089M15.089 18.5608H15.0855M15.089 18.5608H15.0855M15.0855 18.5608H15.082M15.0855 18.5608H15.082M15.082 18.5608H15.0785M15.082 18.5608H15.0785M15.0785 18.5608H15.075M15.0785 18.5608H15.075M15.075 18.5608H15.0716M15.075 18.5608H15.0716M15.0716 18.5608H15.0681M15.0716 18.5608H15.0681M15.0681 18.5608H15.0646M15.0681 18.5608H15.0646M15.0646 18.5608H15.0611M15.0646 18.5608H15.0611M15.0611 18.5608H15.0576M15.0611 18.5608H15.0576M15.0576 18.5608H15.0542M15.0576 18.5608H15.0542M15.0542 18.5608H15.0507M15.0542 18.5608H15.0507M15.0507 18.5608H15.0472M15.0507 18.5608H15.0472M15.0472 18.5608H15.0437M15.0472 18.5608H15.0437M15.0437 18.5608H15.0402M15.0437 18.5608H15.0402M15.0402 18.5608H15.0368M15.0402 18.5608H15.0368M15.0368 18.5608H15.0333M15.0368 18.5608H15.0333M15.0333 18.5608H15.0298M15.0333 18.5608H15.0298M15.0298 18.5608H15.0263M15.0298 18.5608H15.0263M15.0263 18.5608H15.0229M15.0263 18.5608H15.0229M15.0229 18.5608H15.0194M15.0229 18.5608H15.0194M15.0194 18.5608H15.0159M15.0194 18.5608H15.0159M15.0159 18.5608H15.0124M15.0159 18.5608H15.0124M15.0124 18.5608H15.0089M15.0124 18.5608H15.0089M15.0089 18.5608H15.0055M15.0089 18.5608H15.0055M15.0055 18.5608H15.002M15.0055 18.5608H15.002M15.002 18.5608H14.9985M15.002 18.5608H14.9985M14.9985 18.5608H14.995M14.9985 18.5608H14.995M14.995 18.5608H14.9915M14.995 18.5608H14.9915M14.9915 18.5608H14.9881M14.9915 18.5608H14.9881M14.9881 18.5608H14.9846M14.9881 18.5608H14.9846M14.9846 18.5608H14.9811M14.9846 18.5608H14.9811M14.9811 18.5608H14.9776M14.9811 18.5608H14.9776M14.9776 18.5608H14.9741M14.9776 18.5608H14.9741M14.9741 18.5608H14.9707M14.9741 18.5608H14.9707M14.9707 18.5608H14.9672M14.9707 18.5608H14.9672M14.9672 18.5608H14.9637M14.9672 18.5608H14.9637M14.9637 18.5608H14.9602M14.9637 18.5608H14.9602M14.9602 18.5608H14.9567M14.9602 18.5608H14.9567M14.9567 18.5608H14.9533M14.9567 18.5608H14.9533M14.9533 18.5608H14.9498M14.9533 18.5608H14.9498M14.9498 18.5608H14.9463M14.9498 18.5608H14.9463M14.9463 18.5608H14.9428M14.9463 18.5608H14.9428M14.9428 18.5608H14.9393M14.9428 18.5608H14.9393M14.9393 18.5608H14.9359M14.9393 18.5608H14.9359M14.9359 18.5608H14.9324M14.9359 18.5608H14.9324M14.9324 18.5608H14.9289M14.9324 18.5608H14.9289M14.9289 18.5608H14.9254M14.9289 18.5608H14.9254M14.9254 18.5608H14.922M14.9254 18.5608H14.922M14.922 18.5608H14.9185M14.922 18.5608H14.9185M14.9185 18.5608H14.915M14.9185 18.5608H14.915M14.915 18.5608H14.9115M14.915 18.5608H14.9115M14.9115 18.5608H14.908M14.9115 18.5608H14.908M14.908 18.5608H14.9046M14.908 18.5608H14.9046M14.9046 18.5608H14.9011M14.9046 18.5608H14.9011M14.9011 18.5608H14.8976M14.9011 18.5608H14.8976M14.8976 18.5608H14.8941M14.8976 18.5608H14.8941M14.8941 18.5608H14.8906M14.8941 18.5608H14.8906M14.8906 18.5608H14.8872M14.8906 18.5608H14.8872M14.8872 18.5608H14.8837M14.8872 18.5608H14.8837M14.8837 18.5608H14.8802M14.8837 18.5608H14.8802M14.8802 18.5608H14.8767M14.8802 18.5608H14.8767M14.8767 18.5608H14.8732M14.8767 18.5608H14.8732M14.8732 18.5608H14.8698M14.8732 18.5608H14.8698M14.8698 18.5608H14.8663M14.8698 18.5608H14.8663M14.8663 18.5608H14.8628M14.8663 18.5608H14.8628M14.8628 18.5608H14.8593M14.8628 18.5608H14.8593M14.8593 18.5608H14.8558M14.8593 18.5608H14.8558M14.8558 18.5608H14.8524M14.8558 18.5608H14.8524M14.8524 18.5608H14.8489M14.8524 18.5608H14.8489M14.8489 18.5608H14.8454M14.8489 18.5608H14.8454M14.8454 18.5608H14.8419M14.8454 18.5608H14.8419M14.8419 18.5608H14.8384M14.8419 18.5608H14.8384M14.8384 18.5608H14.835M14.8384 18.5608H14.835M14.835 18.5608H14.8315M14.835 18.5608H14.8315M14.8315 18.5608H14.828M14.8315 18.5608H14.828M14.828 18.5608H14.8245M14.828 18.5608H14.8245M14.8245 18.5608H14.821M14.8245 18.5608H14.821M14.821 18.5608H14.8176M14.821 18.5608H14.8176M14.8176 18.5608H14.8141M14.8176 18.5608H14.8141M14.8141 18.5608H14.8106M14.8141 18.5608H14.8106M14.8106 18.5608H14.8071M14.8106 18.5608H14.8071M14.8071 18.5608H14.8036M14.8071 18.5608H14.8036M14.8036 18.5608H14.8002M14.8036 18.5608H14.8002M14.8002 18.5608H14.7967M14.8002 18.5608H14.7967M14.7967 18.5608H14.7932M14.7967 18.5608H14.7932M14.7932 18.5608H14.7897M14.7932 18.5608H14.7897M14.7897 18.5608H14.7862M14.7897 18.5608H14.7862M14.7862 18.5608H14.7828M14.7862 18.5608H14.7828M14.7828 18.5608H14.7793M14.7828 18.5608H14.7793M14.7793 18.5608H14.7758M14.7793 18.5608H14.7758M14.7758 18.5608H14.7723M14.7758 18.5608H14.7723M14.7723 18.5608H14.7688M14.7723 18.5608H14.7688M14.7688 18.5608H14.7654M14.7688 18.5608H14.7654M14.7654 18.5608H14.7619M14.7654 18.5608H14.7619M14.7619 18.5608H14.7584M14.7619 18.5608H14.7584M14.7584 18.5608H14.7549M14.7584 18.5608H14.7549M14.7549 18.5608H14.7514M14.7549 18.5608H14.7514M14.7514 18.5608H14.748M14.7514 18.5608H14.748M14.748 18.5608H14.7445M14.748 18.5608H14.7445M14.7445 18.5608H14.741M14.7445 18.5608H14.741M14.741 18.5608H14.7375M14.741 18.5608H14.7375M14.7375 18.5608H14.734M14.7375 18.5608H14.734M14.734 18.5608H14.7306M14.734 18.5608H14.7306M14.7306 18.5608H14.7271M14.7306 18.5608H14.7271M14.7271 18.5608H14.7236M14.7271 18.5608H14.7236M14.7236 18.5608H14.7201M14.7236 18.5608H14.7201M14.7201 18.5608H14.7166M14.7201 18.5608H14.7166M14.7166 18.5608H14.7132M14.7166 18.5608H14.7132M14.7132 18.5608H14.7097M14.7132 18.5608H14.7097M14.7097 18.5608H14.7062M14.7097 18.5608H14.7062M14.7062 18.5608H14.7027M14.7062 18.5608H14.7027M14.7027 18.5608H14.6992M14.7027 18.5608H14.6992M14.6992 18.5608H14.6958M14.6992 18.5608H14.6958M14.6958 18.5608H14.6923M14.6958 18.5608H14.6923M14.6923 18.5608H14.6888M14.6923 18.5608H14.6888M14.6888 18.5608H14.6853M14.6888 18.5608H14.6853M14.6853 18.5608H14.6818M14.6853 18.5608H14.6818M14.6818 18.5608H14.6784M14.6818 18.5608H14.6784M14.6784 18.5608H14.6749M14.6784 18.5608H14.6749M14.6749 18.5608H14.6714M14.6749 18.5608H14.6714M14.6714 18.5608H14.6679M14.6714 18.5608H14.6679M14.6679 18.5608H14.6644M14.6679 18.5608H14.6644M14.6644 18.5608H14.661M14.6644 18.5608H14.661M14.661 18.5608H14.6575M14.661 18.5608H14.6575M14.6575 18.5608H14.654M14.6575 18.5608H14.654M14.654 18.5608H14.6505M14.654 18.5608H14.6505M14.6505 18.5608H14.647M14.6505 18.5608H14.647M14.647 18.5608H14.6435M14.647 18.5608H14.6435M14.6435 18.5608H14.6401M14.6435 18.5608H14.6401M14.6401 18.5608H14.6366M14.6401 18.5608H14.6366M14.6366 18.5608H14.6331M14.6366 18.5608H14.6331M14.6331 18.5608H14.6296M14.6331 18.5608H14.6296M14.6296 18.5608H14.6261M14.6296 18.5608H14.6261M14.6261 18.5608H14.6227M14.6261 18.5608H14.6227M14.6227 18.5608H14.6192M14.6227 18.5608H14.6192M14.6192 18.5608H14.6157M14.6192 18.5608H14.6157M14.6157 18.5608H14.6122M14.6157 18.5608H14.6122M14.6122 18.5608H14.6087M14.6122 18.5608H14.6087M14.6087 18.5608H14.6053M14.6087 18.5608H14.6053M14.6053 18.5608H14.6018M14.6053 18.5608H14.6018M14.6018 18.5608H14.5983M14.6018 18.5608H14.5983M14.5983 18.5608H14.5948M14.5983 18.5608H14.5948M14.5948 18.5608H14.5913M14.5948 18.5608H14.5913M14.5913 18.5608H14.5879M14.5913 18.5608H14.5879M14.5879 18.5608H14.5844M14.5879 18.5608H14.5844M14.5844 18.5608H14.5809M14.5844 18.5608H14.5809M14.5809 18.5608H14.5774M14.5809 18.5608H14.5774M14.5774 18.5608H14.5739M14.5774 18.5608H14.5739M14.5739 18.5608H14.5705M14.5739 18.5608H14.5705M14.5705 18.5608H14.567M14.5705 18.5608H14.567M14.567 18.5608H14.5635M14.567 18.5608H14.5635M14.5635 18.5608H14.56M14.5635 18.5608H14.56M14.56 18.5608H14.5565M14.56 18.5608H14.5565M14.5565 18.5608H14.5531M14.5565 18.5608H14.5531M14.5531 18.5608H14.5496M14.5531 18.5608H14.5496M14.5496 18.5608H14.5461M14.5496 18.5608H14.5461M14.5461 18.5608H14.5426M14.5461 18.5608H14.5426M14.5426 18.5608H14.5391M14.5426 18.5608H14.5391M14.5391 18.5608H14.5357M14.5391 18.5608H14.5357M14.5357 18.5608H14.5322M14.5357 18.5608H14.5322M14.5322 18.5608H14.5287M14.5322 18.5608H14.5287M14.5287 18.5608H14.5252M14.5287 18.5608H14.5252M14.5252 18.5608H14.5217M14.5252 18.5608H14.5217M14.5217 18.5608H14.5182M14.5217 18.5608H14.5182M14.5182 18.5608H14.5148M14.5182 18.5608H14.5148M14.5148 18.5608H14.5113M14.5148 18.5608H14.5113M14.5113 18.5608H14.5078M14.5113 18.5608H14.5078M14.5078 18.5608H14.5043M14.5078 18.5608H14.5043M14.5043 18.5608H14.5008M14.5043 18.5608H14.5008M14.5008 18.5608H14.4974M14.5008 18.5608H14.4974M14.4974 18.5608H14.4939M14.4974 18.5608H14.4939M14.4939 18.5608H14.4904M14.4939 18.5608H14.4904M14.4904 18.5608H14.4869M14.4904 18.5608H14.4869M14.4869 18.5608H14.4834M14.4869 18.5608H14.4834M14.4834 18.5608H14.48M14.4834 18.5608H14.48M14.48 18.5608H14.4765M14.48 18.5608H14.4765M14.4765 18.5608H14.473M14.4765 18.5608H14.473M14.473 18.5608H14.4695M14.473 18.5608H14.4695M14.4695 18.5608H14.466M14.4695 18.5608H14.466M14.466 18.5608H14.4626M14.466 18.5608H14.4626M14.4626 18.5608H14.4591M14.4626 18.5608H14.4591M14.4591 18.5608H14.4556M14.4591 18.5608H14.4556M14.4556 18.5608H14.4521M14.4556 18.5608H14.4521M14.4521 18.5608H14.4486M14.4521 18.5608H14.4486M14.4486 18.5608H14.4452M14.4486 18.5608H14.4452M14.4452 18.5608H14.4417M14.4452 18.5608H14.4417M14.4417 18.5608H14.4382M14.4417 18.5608H14.4382M14.4382 18.5608H14.4347M14.4382 18.5608H14.4347M14.4347 18.5608H14.4312M14.4347 18.5608H14.4312M14.4312 18.5608H14.4277M14.4312 18.5608H14.4277M14.4277 18.5608H14.4243M14.4277 18.5608H14.4243M14.4243 18.5608H14.4208M14.4243 18.5608H14.4208M14.4208 18.5608H14.4173M14.4208 18.5608H14.4173M14.4173 18.5608H14.4138M14.4173 18.5608H14.4138M14.4138 18.5608H14.4103M14.4138 18.5608H14.4103M14.4103 18.5608H14.4069M14.4103 18.5608H14.4069M14.4069 18.5608H14.4034H14.4069Z" fill="#173371" stroke="#173371" stroke-width="0.3"/>
<path d="M7.34561 16.9584V16.8313V16.3703V16.2203H7.49561H7.63494H7.63817H7.64139H7.64462H7.64784H7.65107H7.6543H7.65752H7.66075H7.66397H7.6672H7.67042H7.67365H7.67687H7.6801H7.68332H7.68655H7.68977H7.693H7.69622H7.69945H7.70268H7.7059H7.70913H7.71235H7.71558H7.7188H7.72203H7.72525H7.72848H7.7317H7.73493H7.73816H7.74138H7.74461H7.74783H7.75106H7.75428H7.75751H7.76074H7.76396H7.76719H7.77041H7.77364H7.77686H7.78009H7.78332H7.78654H7.78977H7.79299H7.79622H7.79944H7.80267H7.8059H7.80912H7.81235H7.81557H7.8188H7.82203H7.82525H7.82848H7.8317H7.83493H7.83816H7.84138H7.84461H7.84783H7.85106H7.85429H7.85751H7.86074H7.86396H7.86719H7.87042H7.87364H7.87687H7.88009H7.88332H7.88655H7.88977H7.893H7.89623H7.89945H7.90268H7.9059H7.90913H7.91236H7.91558H7.91881H7.92204H7.92526H7.92849H7.93171H7.93494H7.93817H7.94139H7.94462H7.94785H7.95107H7.9543H7.95753H7.96075H7.96398H7.9672H7.97043H7.97366H7.97688H7.98011H7.98334H7.98656H7.98979H7.99302H7.99624H7.99947H8.0027H8.00592H8.00915H8.01238H8.0156H8.01883H8.02206H8.02528H8.02851H8.03174H8.03496H8.03819H8.04142H8.04464H8.04787H8.0511H8.05432H8.05755H8.06078H8.064H8.06723H8.07046H8.07368H8.07691H8.08014H8.08336H8.08659H8.08982H8.09304H8.09627H8.0995H8.10272H8.10595H8.10918H8.1124H8.11563H8.11886H8.12208H8.12531H8.12854H8.13176H8.13499H8.13822H8.14144H8.14467H8.1479H8.15113H8.15435H8.15758H8.16081H8.16403H8.16726H8.17049H8.17371H8.17694H8.18017H8.18339H8.18662H8.18985H8.19307H8.1963H8.19953H8.20276H8.20598H8.20921H8.21244H8.21566H8.21889H8.22212H8.22534H8.22857H8.2318H8.23503H8.23825H8.24148H8.24471H8.24793H8.25116H8.25439H8.25761H8.26084H8.26407H8.2673H8.27052H8.27375H8.27698H8.2802H8.28343H8.28666H8.28989H8.29311H8.29634H8.29957H8.30279H8.30602H8.30925H8.31247H8.3157H8.31893H8.32216H8.32538H8.32861H8.33184H8.33506H8.33829H8.34152H8.34475H8.34797H8.3512H8.35443H8.35765H8.36088H8.36411H8.36734H8.37056H8.37379H8.37702H8.38024H8.38347H8.3867H8.38993H8.39315H8.39638H8.39961H8.40283H8.40606H8.40929H8.41252H8.41574H8.41897H8.4222H8.42542H8.42865H8.43188H8.43511H8.43833H8.44156H8.44479H8.44801H8.45124H8.45447H8.4577H8.46092H8.46415H8.46738H8.4706H8.47383H8.47706H8.48029H8.48351H8.48674H8.48997H8.49319H8.49642H8.49965H8.50288H8.5061H8.50933H8.51256H8.51578H8.51901H8.52224H8.52547H8.52869H8.53192H8.53515H8.53837H8.5416H8.54483H8.54806H8.55128H8.55451H8.55774H8.56096H8.56419H8.56742H8.57065H8.57387H8.5771H8.58033H8.58355H8.58678H8.59001H8.59324H8.59646H8.59969H8.60292H8.60614H8.60937H8.6126H8.61583H8.61905H8.62228H8.62551H8.62873H8.63196H8.63519H8.63841H8.64164H8.64487H8.6481H8.65132H8.65455H8.65778H8.661H8.66423H8.66746H8.67069H8.67391H8.67714H8.68037H8.68359H8.68682H8.69005H8.69327H8.6965H8.69973H8.70296H8.70618H8.70941H8.71264H8.71586H8.71909H8.72232H8.72554H8.72877H8.732H8.73523H8.73845H8.74168H8.74491H8.74813H8.75136H8.75459H8.75781H8.76104H8.76427H8.76749H8.77072H8.77395H8.77717H8.7804H8.78363H8.78686H8.79008H8.79331H8.79654H8.79976H8.80299H8.80622H8.80944H8.81267H8.8159H8.81912H8.82235H8.82558H8.8288H8.83203H8.83526H8.83848H8.84171H8.84494H8.84816H8.85139H8.85462H8.85784H8.86107H8.8643H8.86752H8.87075H8.87398H8.8772H8.88043H8.88366H8.88688H8.89011H8.89334H8.89656H8.89979H8.90302H8.90624H8.90947H8.9127H8.91592H8.91915H8.92238H8.9256H8.92883H8.93206H8.93528H8.93851H8.94174H8.94496H8.94819H8.95141H8.95464H8.95787H8.96109H8.96432H8.96755H8.97077H8.974H8.97723H8.98045H8.98368H8.9869H8.99013H8.99336H8.99658H8.99981H9.00304H9.00626H9.00949H9.01272H9.01594H9.01917H9.02239H9.02562H9.02885H9.03207H9.0353H9.03852H9.04175H9.04498H9.0482H9.05143H9.05466H9.05788H9.06111H9.06433H9.06756H9.07079H9.07401H9.07724H9.08046H9.08369H9.08692H9.09014H9.09337H9.09659H9.09982H9.10305H9.10627H9.1095H9.11272H9.11595H9.11918H9.1224H9.12563H9.12885H9.13208H9.1353H9.13853H9.14176H9.14498H9.14821H9.15143H9.15466H9.15788H9.16111H9.16434H9.16756H9.17079H9.17401H9.17724H9.18046H9.18369H9.18692H9.19014H9.19337H9.19659H9.19982H9.20304H9.20627H9.20949H9.21272H9.21595H9.21917H9.2224H9.22562H9.22885H9.23207H9.2353H9.23852H9.24175H9.24497H9.2482H9.25142H9.25465H9.25788H9.2611H9.26433H9.26755H9.27078H9.274H9.27723H9.28045H9.28368H9.2869C9.40899 16.2203 9.43428 16.1994 9.43842 16.1952C9.44336 16.1902 9.4641 16.1625 9.4641 16.0376V16.0355V16.0335V16.0314V16.0293V16.0273V16.0252V16.0232V16.0211V16.0191V16.017V16.015V16.0129V16.0108V16.0088V16.0067V16.0047V16.0026V16.0006V15.9985V15.9965V15.9944V15.9924V15.9903V15.9882V15.9862V15.9841V15.9821V15.98V15.978V15.9759V15.9739V15.9718V15.9697V15.9677V15.9656V15.9636V15.9615V15.9595V15.9574V15.9554V15.9533V15.9512V15.9492V15.9471V15.9451V15.943V15.941V15.9389V15.9369V15.9348V15.9327V15.9307V15.9286V15.9266V15.9245V15.9225V15.9204V15.9183V15.9163V15.9142V15.9122V15.9101V15.9081V15.906V15.904V15.9019V15.8998V15.8978V15.8957V15.8937V15.8916V15.8896V15.8875V15.8854V15.8834V15.8813V15.8793V15.8772V15.8752V15.8731V15.871V15.869V15.8669V15.8649V15.8628V15.8608V15.8587V15.8566V15.8546V15.8525V15.8505V15.8484V15.8464V15.8443V15.8422V15.8402V15.8381V15.8361V15.834V15.832V15.8299V15.8278V15.8258V15.8237V15.8217V15.8196V15.8176V15.8155V15.8134V15.8114V15.8093V15.8073V15.8052V15.8031V15.8011V15.799V15.797V15.7949V15.7929V15.7908V15.7887V15.7867V15.7846V15.7826V15.7805V15.7784V15.7764V15.7743V15.7723V15.7702V15.7681V15.7661V15.764V15.762V15.7599V15.7579V15.7558V15.7537V15.7517V15.7496V15.7476V15.7455V15.7434V15.7414V15.7393V15.7373V15.7352V15.7331V15.7311V15.729V15.727V15.7249V15.7228V15.7208V15.7187V15.7166V15.7146V15.7125V15.7105V15.7084V15.7063V15.7043V15.7022V15.7002V15.6981V15.696V15.694V15.6919V15.6898V15.6878V15.6857V15.6837V15.6816V15.6795V15.6775V15.6754V15.6734V15.6713V15.6692V15.6672V15.6651V15.663V15.661V15.6589V15.6568V15.6548V15.6527V15.6507V15.6486V15.6465V15.6445V15.6424V15.6403V15.6383V15.6362V15.6341V15.6321V15.63V15.628V15.6259V15.6238V15.6218V15.6197V15.6176V15.6156V15.6135V15.6114V15.6094V15.6073V15.6052V15.6032V15.6011V15.599V15.597V15.5949V15.5928V15.5908V15.5887V15.5866V15.5846V15.5825V15.5804V15.5784V15.5763V15.5742V15.5722V15.5701V15.568V15.566V15.5639V15.5618V15.5598V15.5577V15.5556V15.5536V15.5515V15.5494V15.5474V15.5453V15.5432V15.5412V15.5391V15.537V15.5349V15.5329V15.5308V15.5287V15.5267V15.5246V15.5225V15.5205V15.5184V15.5163V15.5143V15.5122V15.5101V15.508V15.506V15.5039V15.5018V15.4998V15.4977V15.4956V15.4935V15.4915V15.4894V15.4873V15.4853V15.4832V15.4811V15.479V15.477V15.4749V15.4728V15.4707V15.4687V15.4666V15.4645V15.4625V15.4604V15.4583V15.4562V15.4542V15.4521V15.45V15.4479V15.4459V15.4438V15.4417V15.4396V15.4376V15.4355V15.4334V15.4313V15.4293V15.4272V15.4251V15.423V15.421V15.4189V15.4168V15.4147V15.4127V15.4106V15.4085V15.4064V15.4043V15.4023V15.4002V15.3981V15.396V15.394V15.3919V15.3898V15.3877V15.3856V15.3836V15.3815V15.3794V15.3773V15.3753V15.3732V15.3711V15.369V15.3669V15.3649V15.3628V15.3607V15.3586V15.3565V15.3545V15.3524V15.3503V15.3482V15.3461V15.344V15.342V15.3399V15.3378V15.3357V15.3336V15.3316V15.3295V15.3274V15.3253V15.3232V15.3211V15.3191V15.317V15.3149V15.3128V15.3107V15.3086V15.3066V15.3045V15.3024V15.3003V15.2982V15.2961V15.294V15.292V15.2899V15.2878V15.2857V15.2836V15.2815V15.2794V15.2774V15.2753V15.2732V15.2711V15.269V15.2669V15.2648V15.2627V15.2607V15.2586V15.2565V15.2544V15.2523V15.2502V15.2481V15.246V15.2439V15.2419V15.2398V15.2377V15.2356V15.2335V15.2314V15.2293V15.2272V15.2251V15.223V15.2209V15.2189V15.2168V15.2147V15.2126V15.2105V15.2084V15.2063V15.2042V15.2021V15.2V15.1979V15.1958V15.1937V15.1916V15.1896V15.1875V15.1854V15.1833V15.1812V15.1791V15.177V15.1749V15.1728V15.1707V15.1686V15.1665V15.1644V15.1623V15.1602V15.1581V15.156V15.1539V15.1518V15.1497V15.1476V15.1455V15.1434V15.1413V15.1392V15.1371V15.135V15.1329V15.1308V15.1287V15.1266V15.1245V15.1224V15.1203V15.1182V15.1161V15.114V15.1119V15.1098V15.1077V15.1056V15.1035V15.1014V15.0993V15.0972V15.0951V15.093V15.0909V15.0888V15.0867V15.0846V15.0825V15.0804V15.0783V15.0762V15.0741V15.072V15.0699V15.0677V15.0656V15.0635V15.0614V15.0593V15.0572V15.0551V15.053V15.0509V15.0488V15.0467V15.0446V15.0425V15.0403V15.0382V15.0361V15.034V15.0319V15.0298V15.0277V15.0256V15.0235V15.0214V15.0192V15.0171V15.015V15.0129V15.0108V15.0087V15.0066V15.0045V15.0023V15.0002V14.9981V14.996V14.9939V14.9918V14.9897V14.9875V14.9854V14.9833V14.9812V14.9791V14.977V14.9749V14.8249H9.6141H10.0744H10.2138L10.224 14.9639C10.2242 14.9663 10.2247 14.9709 10.2253 14.977C10.2276 14.9996 10.232 15.0432 10.232 15.0768C10.232 15.1852 10.2324 15.2942 10.2328 15.4036L7.34561 16.9584ZM7.34561 16.9584L7.46899 16.9789M7.34561 16.9584L7.46899 16.9789M7.46899 16.9789C7.46947 16.979 7.47015 16.9792 7.47109 16.9794L7.47145 16.9795C7.47458 16.9802 7.47999 16.9814 7.48608 16.9826C7.49827 16.9849 7.51825 16.9882 7.54136 16.9882C7.72401 16.9882 7.90697 16.9887 8.09013 16.9891C8.53591 16.9901 8.98286 16.9911 9.42928 16.9862L9.42944 16.9862C9.85759 16.981 10.2246 16.5984 10.2306 16.1757C10.2306 16.1757 10.2306 16.1756 10.2306 16.1756L7.46899 16.9789Z" fill="#173371" stroke="#173371" stroke-width="0.3"/>
<path d="M15.0815 14.8187H15.2315H15.6994H15.8494V14.9688V14.9708V14.9728V14.9749V14.9769V14.9789V14.981V14.983V14.9851V14.9871V14.9891V14.9912V14.9932V14.9952V14.9973V14.9993V15.0014V15.0034V15.0054V15.0075V15.0095V15.0115V15.0136V15.0156V15.0177V15.0197V15.0217V15.0238V15.0258V15.0278V15.0299V15.0319V15.034V15.036V15.038V15.0401V15.0421V15.0441V15.0462V15.0482V15.0502V15.0523V15.0543V15.0563V15.0584V15.0604V15.0624V15.0645V15.0665V15.0686V15.0706V15.0726V15.0747V15.0767V15.0787V15.0808V15.0828V15.0848V15.0869V15.0889V15.0909V15.093V15.095V15.097V15.0991V15.1011V15.1031V15.1052V15.1072V15.1092V15.1113V15.1133V15.1153V15.1174V15.1194V15.1214V15.1235V15.1255V15.1275V15.1296V15.1316V15.1336V15.1357V15.1377V15.1397V15.1417V15.1438V15.1458V15.1478V15.1499V15.1519V15.1539V15.156V15.158V15.16V15.1621V15.1641V15.1661V15.1682V15.1702V15.1722V15.1742V15.1763V15.1783V15.1803V15.1824V15.1844V15.1864V15.1885V15.1905V15.1925V15.1945V15.1966V15.1986V15.2006V15.2027V15.2047V15.2067V15.2088V15.2108V15.2128V15.2148V15.2169V15.2189V15.2209V15.223V15.225V15.227V15.229V15.2311V15.2331V15.2351V15.2372V15.2392V15.2412V15.2432V15.2453V15.2473V15.2493V15.2514V15.2534V15.2554V15.2574V15.2595V15.2615V15.2635V15.2656V15.2676V15.2696V15.2716V15.2737V15.2757V15.2777V15.2797V15.2818V15.2838V15.2858V15.2878V15.2899V15.2919V15.2939V15.296V15.298V15.3V15.302V15.3041V15.3061V15.3081V15.3101V15.3122V15.3142V15.3162V15.3182V15.3203V15.3223V15.3243V15.3263V15.3284V15.3304V15.3324V15.3344V15.3365V15.3385V15.3405V15.3426V15.3446V15.3466V15.3486V15.3507V15.3527V15.3547V15.3567V15.3588V15.3608V15.3628V15.3648V15.3668V15.3689V15.3709V15.3729V15.3749V15.377V15.379V15.381V15.383V15.3851V15.3871V15.3891V15.3911V15.3932V15.3952V15.3972V15.3992V15.4013V15.4033V15.4053V15.4073V15.4094V15.4114V15.4134V15.4154V15.4174V15.4195V15.4215V15.4235V15.4255V15.4276V15.4296V15.4316V15.4336V15.4357V15.4377V15.4397V15.4417V15.4437V15.4458V15.4478V15.4498V15.4518V15.4539V15.4559V15.4579V15.4599V15.4619V15.464V15.466V15.468V15.47V15.4721V15.4741V15.4761V15.4781V15.4801V15.4822V15.4842V15.4862V15.4882V15.4903V15.4923V15.4943V15.4963V15.4983V15.5004V15.5024V15.5044V15.5064V15.5085V15.5105V15.5125V15.5145V15.5165V15.5186V15.5206V15.5226V15.5246V15.5266V15.5287V15.5307V15.5327V15.5347V15.5367V15.5388V15.5408V15.5428V15.5448V15.5469V15.5489V15.5509V15.5529V15.5549V15.557V15.559V15.561V15.563V15.565V15.5671V15.5691V15.5711V15.5731V15.5751V15.5772V15.5792V15.5812V15.5832V15.5852V15.5873V15.5893V15.5913V15.5933V15.5953V15.5974V15.5994V15.6014V15.6034V15.6054V15.6075V15.6095V15.6115V15.6135V15.6155V15.6176V15.6196V15.6216V15.6236V15.6256V15.6277V15.6297V15.6317V15.6337V15.6357V15.6378V15.6398V15.6418V15.6438V15.6458V15.6479V15.6499V15.6519V15.6539V15.6559V15.6579V15.66V15.662V15.664V15.666V15.668V15.6701V15.6721V15.6741V15.6761V15.6781V15.6802V15.6822V15.6842V15.6862V15.6882V15.6903V15.6923V15.6943V15.6963V15.6983V15.7003V15.7024V15.7044V15.7064V15.7084V15.7104V15.7125V15.7145V15.7165V15.7185V15.7205V15.7226V15.7246V15.7266V15.7286V15.7306V15.7326V15.7347V15.7367V15.7387V15.7407V15.7427V15.7448V15.7468V15.7488V15.7508V15.7528V15.7549V15.7569V15.7589V15.7609V15.7629V15.7649V15.767V15.769V15.771V15.773V15.775V15.7771V15.7791V15.7811V15.7831V15.7851V15.7871V15.7892V15.7912V15.7932V15.7952V15.7972V15.7993V15.8013V15.8033V15.8053V15.8073V15.8093V15.8114V15.8134V15.8154V15.8174V15.8194V15.8215V15.8235V15.8255V15.8275V15.8295V15.8315V15.8336V15.8356V15.8376V15.8396V15.8416V15.8437V15.8457V15.8477V15.8497V15.8517V15.8537V15.8558V15.8578V15.8598V15.8618V15.8638V15.8659V15.8679V15.8699V15.8719V15.8739V15.8759V15.878V15.88V15.882V15.884V15.886V15.8881V15.8901V15.8921V15.8941V15.8961V15.8981V15.9002V15.9022V15.9042V15.9062V15.9082V15.9103V15.9123V15.9143V15.9163V15.9183V15.9203V15.9224V15.9244V15.9264V15.9284V15.9304V15.9325V15.9345V15.9365V15.9385V15.9405V15.9425V15.9446V15.9466V15.9486V15.9506V15.9526V15.9547V15.9567V15.9587V15.9607V15.9627V15.9648V15.9668V15.9688V15.9708V15.9728V15.9748V15.9769V15.9789V15.9809V15.9829V15.9849V15.987V15.989V15.991V15.993V15.995V15.997V15.9991V16.0011V16.0031V16.0051C15.8494 16.0787 15.8533 16.127 15.8603 16.1598C15.8637 16.1754 15.8672 16.1847 15.8697 16.19C15.872 16.1948 15.8736 16.1963 15.8739 16.1966L15.8739 16.1966C15.8741 16.1969 15.8757 16.1984 15.8806 16.2008C15.8859 16.2034 15.8953 16.2069 15.911 16.2103C15.9439 16.2173 15.9924 16.2211 16.0662 16.2211H16.0696H16.073H16.0764H16.0799H16.0833H16.0867H16.0901H16.0935H16.097H16.1004H16.1038H16.1072H16.1107H16.1141H16.1175H16.1209H16.1244H16.1278H16.1312H16.1346H16.1381H16.1415H16.1449H16.1483H16.1518H16.1552H16.1586H16.162H16.1655H16.1689H16.1723H16.1757H16.1792H16.1826H16.186H16.1894H16.1928H16.1963H16.1997H16.2031H16.2065H16.21H16.2134H16.2168H16.2202H16.2237H16.2271H16.2305H16.2339H16.2374H16.2408H16.2442H16.2476H16.2511H16.2545H16.2579H16.2613H16.2648H16.2682H16.2716H16.275H16.2784H16.2819H16.2853H16.2887H16.2921H16.2956H16.299H16.3024H16.3058H16.3093H16.3127H16.3161H16.3195H16.323H16.3264H16.3298H16.3332H16.3367H16.3401H16.3435H16.3469H16.3504H16.3538H16.3572H16.3606H16.364H16.3675H16.3709H16.3743H16.3777H16.3812H16.3846H16.388H16.3914H16.3949H16.3983H16.4017H16.4051H16.4086H16.412H16.4154H16.4188H16.4222H16.4257H16.4291H16.4325H16.4359H16.4394H16.4428H16.4462H16.4496H16.4531H16.4565H16.4599H16.4633H16.4668H16.4702H16.4736H16.477H16.4804H16.4839H16.4873H16.4907H16.4941H16.4976H16.501H16.5044H16.5078H16.5113H16.5147H16.5181H16.5215H16.525H16.5284H16.5318H16.5352H16.5386H16.5421H16.5455H16.5489H16.5523H16.5558H16.5592H16.5626H16.566H16.5695H16.5729H16.5763H16.5797H16.5831H16.5866H16.59H16.5934H16.5968H16.6003H16.6037H16.6071H16.6105H16.614H16.6174H16.6208H16.6242H16.6276H16.6311H16.6345H16.6379H16.6413H16.6448H16.6482H16.6516H16.655H16.6585H16.6619H16.6653H16.6687H16.6721H16.6756H16.679H16.6824H16.6858H16.6893H16.6927H16.6961H16.6995H16.7029H16.7064H16.7098H16.7132H16.7166H16.7201H16.7235H16.7269H16.7303H16.7337H16.7372H16.7406H16.744H16.7474H16.7509H16.7543H16.7577H16.7611H16.7646H16.768H16.7714H16.7748H16.7782H16.7817H16.7851H16.7885H16.7919H16.7953H16.7988H16.8022H16.8056H16.809H16.8125H16.8159H16.8193H16.8227H16.8261H16.8296H16.833H16.8364H16.8398H16.8433H16.8467H16.8501H16.8535H16.8569H16.8604H16.8638H16.8672H16.8706H16.8741H16.8775H16.8809H16.8843H16.8877H16.8912H16.8946H16.898H16.9014H16.9048H16.9083H16.9117H16.9151H16.9185H16.922H16.9254H16.9288H16.9322H16.9356H16.9391H16.9425H16.9459H16.9493H16.9527H16.9562H16.9596H16.963H16.9664H16.9698H16.9733H16.9767H16.9801H16.9835H16.987H16.9904H16.9938H16.9972H17.0006H17.0041H17.0075H17.0109H17.0143H17.0177H17.0212H17.0246H17.028H17.0314H17.0348H17.0383H17.0417H17.0451H17.0485H17.0519H17.0554H17.0588H17.0622H17.0656H17.069H17.0725H17.0759H17.0793H17.0827H17.0861H17.0896H17.093H17.0964H17.0998H17.1032H17.1067H17.1101H17.1135H17.1169H17.1203H17.1238H17.1272H17.1306H17.134H17.1374H17.1409H17.1443H17.1477H17.1511H17.1545H17.158H17.1614H17.1648H17.1682H17.1716H17.1751H17.1785H17.1819H17.1853H17.1887H17.1921H17.1956H17.199H17.2024H17.2058H17.2092H17.2127H17.2161H17.2195H17.2229H17.2263H17.2298H17.2332H17.2366H17.24H17.2434H17.2469H17.2503H17.2537H17.2571H17.2605H17.2639H17.2674H17.2708H17.2742H17.2776H17.281H17.2845H17.2879H17.2913H17.2947H17.2981H17.3015H17.305H17.3084H17.3118H17.3152H17.3186H17.3221H17.3255H17.3289H17.3323H17.3357H17.3391H17.3426H17.346H17.3494H17.3528H17.3562H17.3596H17.3631H17.3665H17.3699H17.3733H17.3767H17.3802H17.3836H17.387H17.3904H17.3938H17.3972H17.4007H17.4041H17.4075H17.4109H17.4143H17.4177H17.4212H17.4246H17.428H17.4314H17.4348H17.4382H17.4417H17.4451H17.4485H17.4519H17.4553H17.4587H17.4622H17.4656H17.469H17.4724H17.4758H17.4792H17.4827H17.4861H17.4895H17.4929H17.4963H17.4997H17.5032H17.5066H17.51H17.5134H17.5168H17.5202H17.5236H17.5271H17.5305H17.5339H17.5373H17.5407H17.5441H17.5476H17.551H17.5544H17.5578H17.5612H17.5646H17.568H17.5715H17.5749H17.5783H17.5817H17.5851H17.5885H17.592H17.5954H17.5988H17.6022H17.6056H17.609H17.6124H17.6159H17.6193H17.6227H17.6261H17.6295H17.6329H17.6363H17.6398H17.6432H17.6466H17.65H17.6534H17.6568H17.6602H17.6637H17.6671H17.6705H17.6739H17.6773H17.6807H17.6841H17.6876H17.691H17.6944H17.6978H17.7012H17.7046H17.708H17.7114H17.7149H17.7183H17.7217H17.7251H17.7285H17.7319H17.7353H17.7388H17.7422H17.7456H17.749H17.7524H17.7558H17.7592H17.7626H17.7661H17.7695H17.7729H17.7763H17.7797H17.7831H17.7865H17.7899H17.7934H17.7968H17.8002H17.8036H17.807H17.8104H17.8138H17.8172H17.9672V16.3711V16.8335V16.9769L17.8241 16.9834C17.8184 16.9836 17.8109 16.9841 17.8021 16.9846C17.7756 16.9861 17.7372 16.9884 17.7022 16.9884C17.5074 16.9884 17.3125 16.9885 17.1176 16.9887C16.7277 16.989 16.3376 16.9893 15.9474 16.9884L15.0815 14.8187ZM15.0815 14.8187V14.9688M15.0815 14.8187V14.9688M15.0815 14.9688C15.0815 15.1 15.0814 15.2301 15.0814 15.3593C15.0812 15.6151 15.081 15.8677 15.0815 16.1198L15.0815 14.9688ZM15.0815 16.1198C15.0824 16.6176 15.4488 16.9875 15.9473 16.9884L15.0815 16.1198Z" fill="#173371" stroke="#173371" stroke-width="0.3"/>
<path d="M16.4016 18.936C16.403 18.5484 16.7184 18.2413 17.1129 18.2434C17.5004 18.2455 17.8089 18.5616 17.8061 18.9547C17.8033 19.3415 17.4865 19.6507 17.0942 19.6479C16.7073 19.6458 16.3995 19.329 16.4016 18.936Z" fill="#173371"/>
<path d="M7.03949 16.6C7.04087 16.9916 6.731 17.3057 6.34141 17.3071C5.94974 17.3085 5.6357 16.9979 5.63501 16.609C5.63432 16.2166 5.9435 15.9033 6.33309 15.9026C6.72546 15.9019 7.03879 16.2104 7.03949 16.6Z" fill="#173371"/>
<path d="M19.6782 16.606C19.6782 16.9963 19.3655 17.3076 18.9745 17.3069C18.5849 17.3069 18.273 16.9935 18.2737 16.6032C18.2737 16.2129 18.5863 15.9024 18.9773 15.9031C19.3683 15.9031 19.6782 16.2143 19.6782 16.6067V16.606Z" fill="#173371"/>
<path d="M8.21348 18.2429C8.60238 18.2436 8.91294 18.5583 8.91156 18.9493C8.91017 19.3375 8.59545 19.6488 8.20516 19.6474C7.81765 19.6467 7.50639 19.3313 7.50708 18.9403C7.50777 18.5514 7.82181 18.2415 8.21348 18.2429Z" fill="#173371"/>
<path d="M13.9836 24.2783L13.9836 24.2783C10.4657 24.6375 7.35338 23.6513 4.71985 21.275L4.78684 21.2008L4.71984 21.275C2.9121 19.6434 1.71485 17.6195 1.20284 15.2392C0.388831 11.4577 1.21501 8.03579 3.69158 5.05538L3.76849 5.11929L3.69158 5.05538C5.29743 3.12291 7.35349 1.86967 9.78803 1.24916C10.7026 1.01562 11.6338 0.895245 12.5799 0.900144L12.58 0.900144C12.7758 0.901301 12.9496 0.960863 13.0785 1.07087C13.2082 1.18152 13.2867 1.33855 13.2976 1.52174L13.2976 1.52175C13.3191 1.88427 13.0339 2.1976 12.6324 2.2072L12.6323 2.2072C11.6652 2.22929 10.7117 2.31968 9.79861 2.60946L9.79861 2.60947C5.85851 3.85957 3.34237 6.47253 2.46033 10.5173C1.38743 15.4377 4.04427 20.356 8.71167 22.268L8.71169 22.268C9.96605 22.7822 11.2751 23.0376 12.6332 23.0342C17.1826 23.0225 20.8628 20.1784 22.3141 16.4615C22.3727 16.3114 22.4265 16.1604 22.4809 16.0077C22.5072 15.9339 22.5336 15.8597 22.5608 15.785M13.9836 24.2783L23.3514 15.413L23.3816 15.3177C23.2058 15.262 23.0335 15.2787 22.8864 15.3644C22.741 15.4492 22.6295 15.596 22.5608 15.785M13.9836 24.2783C15.8658 24.0859 17.5979 23.4281 19.1663 22.3671C21.4149 20.8461 22.9613 18.7891 23.8062 16.2095L13.9836 24.2783ZM22.5608 15.785L22.6547 15.8192L22.5608 15.7851C22.5608 15.7851 22.5608 15.7851 22.5608 15.785Z" fill="#173371" stroke="#173371" stroke-width="0.2"/>
<path d="M16.1815 1.54774C17.5437 1.97893 18.7901 2.63333 19.902 3.53037C22.0794 5.28631 23.4562 7.54206 24.0329 10.2755L23.1706 12.7288C23.2004 13.0054 23.4756 13.2085 23.7404 13.1884L23.7479 13.2881C23.7479 13.2881 23.7479 13.2881 23.748 13.2881C24.0735 13.2636 24.3404 13.0026 24.3601 12.6738C24.3661 12.5751 24.3645 12.4735 24.363 12.3764C24.3628 12.3644 24.3626 12.3526 24.3625 12.3408L24.4164 12.3336L24.4031 12.2344C24.3759 12.031 24.3525 11.8247 24.329 11.6172C24.2774 11.1626 24.2252 10.7025 24.1308 10.2548L24.1308 10.2548C23.5493 7.49901 22.1603 5.22302 19.9648 3.45253C18.8427 2.54731 17.5851 1.88717 16.2117 1.45242M16.1815 1.54774L16.2118 1.45244C16.2117 1.45243 16.2117 1.45242 16.2117 1.45242M16.1815 1.54774C15.8085 1.4292 15.5014 1.59141 15.412 1.94149M16.1815 1.54774L16.2116 1.4524C16.2117 1.45241 16.2117 1.45241 16.2117 1.45242M16.2117 1.45242C16.0052 1.38679 15.807 1.39611 15.6445 1.48003C15.4813 1.56432 15.3659 1.71779 15.3151 1.91668M15.412 1.94149L15.3151 1.91663C15.3151 1.91665 15.3151 1.91667 15.3151 1.91668M15.412 1.94149L15.3151 1.91674C15.3151 1.91672 15.3151 1.9167 15.3151 1.91668M15.412 1.94149L15.9052 2.74161C15.685 2.67004 15.5131 2.56193 15.4077 2.41916C15.3 2.27324 15.2682 2.09958 15.3151 1.91668" fill="#173371" stroke="#173371" stroke-width="0.2"/>
</svg>
