<svg width="27" height="24" viewBox="0 0 27 24" fill="none" xmlns="http://www.w3.org/2000/svg">
<g clip-path="url(#clip0_5424_5050)">
<path d="M24.1249 0H3.86819C2.58335 0 1.54454 1.03881 1.54454 2.32365V3.86819H0.779105C0.355381 3.86819 0 4.2099 0 4.64729V9.29459C0 9.71831 0.341713 10.0737 0.779105 10.0737H1.55821V13.1764H0.779105C0.355381 13.1764 0 13.5182 0 13.9555V18.6028C0 19.0266 0.341713 19.3819 0.779105 19.3819H1.55821V20.9265C1.55821 22.2113 2.59702 23.2501 3.88186 23.2501H24.1386C25.4234 23.2501 26.4622 22.2113 26.4622 20.9265V2.32365C26.4622 1.03881 25.4234 0 24.1386 0H24.1249ZM24.904 20.9265C24.904 21.3502 24.5623 21.7056 24.1249 21.7056H3.86819C3.44446 21.7056 3.08908 21.3639 3.08908 20.9265V18.6028C3.08908 18.1791 2.74737 17.8237 2.30998 17.8237H1.53087V14.721H2.30998C2.7337 14.721 3.08908 14.3793 3.08908 13.9419V9.29459C3.08908 8.87086 2.74737 8.51548 2.30998 8.51548H1.53087V5.4264H2.30998C2.7337 5.4264 3.08908 5.08469 3.08908 4.64729V2.32365C3.08908 1.89992 3.4308 1.54454 3.86819 1.54454H24.1249C24.5486 1.54454 24.904 1.88625 24.904 2.32365V20.9265Z" fill="#173371"/>
<path d="M22.5257 9.29468C22.102 9.29468 21.7466 9.63639 21.7466 10.0738V13.1765C21.7466 13.6003 22.0883 13.9556 22.5257 13.9556C22.9631 13.9556 23.3048 13.6139 23.3048 13.1765V10.0738C23.3048 9.65006 22.9631 9.29468 22.5257 9.29468Z" fill="#173371"/>
<path d="M20.7488 4.87958C20.4481 4.57888 19.956 4.57888 19.6553 4.87958L16.1425 8.39239C15.5275 7.98233 14.7894 7.74997 14.0102 7.74997C13.2311 7.74997 12.493 7.98233 11.878 8.39239L8.36515 4.87958C8.06445 4.57888 7.57238 4.57888 7.27167 4.87958C6.97097 5.18029 6.97097 5.67236 7.27167 5.97306L10.7845 9.48587C10.3744 10.101 10.1421 10.8391 10.1421 11.6182C10.1421 12.3973 10.3744 13.1354 10.7845 13.7504L7.27167 17.2633C6.97097 17.564 6.97097 18.056 7.27167 18.3567C7.42203 18.5071 7.62705 18.5891 7.81841 18.5891C8.00977 18.5891 8.2148 18.5071 8.36515 18.3567L11.878 14.8439C12.493 15.254 13.2311 15.4863 14.0102 15.4863C14.7894 15.4863 15.5275 15.254 16.1425 14.8439L19.6553 18.3567C19.8057 18.5071 20.0107 18.5891 20.2021 18.5891C20.3934 18.5891 20.5985 18.5071 20.7488 18.3567C21.0495 18.056 21.0495 17.564 20.7488 17.2633L17.236 13.7504C17.6461 13.1354 17.8784 12.3973 17.8784 11.6182C17.8784 10.8391 17.6461 10.101 17.236 9.48587L20.7488 5.97306C21.0495 5.67236 21.0495 5.18029 20.7488 4.87958ZM11.6729 11.6318C11.6729 10.347 12.7117 9.30818 13.9966 9.30818C15.2814 9.30818 16.3202 10.347 16.3202 11.6318C16.3202 12.9167 15.2814 13.9555 13.9966 13.9555C12.7117 13.9555 11.6729 12.9167 11.6729 11.6318Z" fill="#FFC200"/>
</g>
<defs>
<clipPath id="clip0_5424_5050">
<rect width="26.4486" height="23.2501" fill="white"/>
</clipPath>
</defs>
</svg>
