<svg width="25" height="24" viewBox="0 0 25 24" fill="none" xmlns="http://www.w3.org/2000/svg">
<path d="M24.6157 16.1846C24.5557 16.4859 24.4956 16.7872 24.4235 17.0884C24.3635 17.3415 24.2914 17.5825 24.2193 17.8356C24.2073 17.8838 24.1713 17.932 24.1232 17.9802C24.4355 16.6426 24.2914 15.3531 23.6667 14.1359C23.0421 12.9067 22.069 12.039 20.7837 11.5329C18.4893 10.6291 15.7984 11.4485 14.3809 13.4731C12.9394 15.5339 13.0355 18.3418 14.8014 20.294C15.7864 21.3907 17.0357 21.9812 18.5133 22.0776C19.9908 22.162 21.2762 21.704 22.4294 20.7399C22.1411 21.704 19.2821 23.126 17.4922 23.2345C15.6663 23.355 13.7803 22.7766 12.3027 21.3545C10.669 22.8609 8.73495 23.4755 6.54864 23.1622C4.81881 22.9212 3.36528 22.1017 2.16401 20.8122C4.59057 22.5114 7.00512 22.6199 9.34759 20.7279C10.4768 19.812 11.0654 18.5466 11.1855 17.0884C11.4498 14.0275 9.19143 11.3883 6.14021 11.1834C4.3383 11.0629 2.80068 11.7137 1.62344 13.0995C0.458206 14.4734 0.121851 16.0882 0.434181 17.8597C-0.767088 14.7626 0.458206 9.99035 4.93894 8.59243C4.42239 6.14606 5.01101 4.00096 6.7048 2.1692C7.94211 0.855627 9.64791 0.132562 10.8372 0C9.39565 0.44589 8.27847 1.30152 7.54569 2.62714C6.81292 3.95276 6.65675 5.36273 7.0772 6.82092C7.834 9.3878 10.2005 10.9303 12.7111 10.7375C15.1617 10.5447 17.2399 8.73704 17.6724 6.12195C18.0568 3.78404 16.7955 1.01229 13.9124 0.0241022C15.8825 0.421788 17.4682 1.42203 18.6214 3.08508C19.7746 4.76018 20.0869 6.604 19.6665 8.52012C20.2671 8.8214 20.8678 9.07447 21.4083 9.4119C23.006 10.4242 23.979 11.8944 24.4115 13.7382C24.4836 14.0516 24.5436 14.3649 24.6037 14.6903V16.1846H24.6157Z" fill="#173371"/>
<path d="M8.20605 7.47172C10.6326 5.61585 13.9361 5.61585 16.3266 7.42351C16.2305 7.74889 15.774 8.35145 15.3056 8.74913C14.4166 8.09837 13.4075 7.74889 12.3024 7.74889C11.1972 7.74889 10.2002 8.08632 9.25116 8.78529L8.20605 7.47172Z" fill="#FFC200"/>
<path d="M9.76781 19.0165C6.84872 17.7632 5.32311 14.8951 5.64745 12.039C6.21205 12.0028 6.75262 12.1113 7.26917 12.2679C7.29319 12.7259 7.28118 13.1838 7.36527 13.6177C7.65357 15.2928 8.56654 16.522 10.0801 17.3053C10.2603 17.4017 10.3324 17.4861 10.2483 17.6789C10.0801 18.1127 9.93598 18.5586 9.76781 19.0165Z" fill="#FFC200"/>
<path d="M14.8971 18.9925C14.6088 18.5346 14.4406 18.0405 14.3325 17.5343C14.3325 17.4861 14.4046 17.3776 14.4767 17.3415C15.8822 16.6305 16.8071 15.5097 17.1795 13.9672C17.3117 13.4249 17.2997 12.8585 17.3717 12.2198L18.9094 11.9788C19.3178 14.2203 18.1766 17.5946 14.8971 18.9925Z" fill="#FFC200"/>
</svg>
