<svg width="85" height="86" viewBox="0 0 85 86" fill="none" xmlns="http://www.w3.org/2000/svg">
<path d="M39.5482 45.4823C39.5482 42.7079 39.5459 39.9335 39.5482 37.1567C39.5506 35.3858 40.2141 34.4767 41.9 33.9927C48.3107 32.1462 54.7214 30.2927 61.1462 28.4958C61.8144 28.3093 62.6267 28.3282 63.2973 28.5147C69.6395 30.2832 75.9675 32.1037 82.2979 33.9171C84.1255 34.4413 84.8008 35.3504 84.8031 37.2535C84.8031 42.2121 84.9306 47.1753 84.7795 52.1315C84.3214 67.0992 77.3346 77.9111 63.9371 84.5627C62.766 85.1435 61.6893 85.1648 60.4874 84.591C48.9954 79.0894 42.0606 70.0601 40.011 57.4914C39.3948 53.7111 39.6757 49.7844 39.5482 45.9239C39.5435 45.7775 39.5482 45.6287 39.5482 45.48V45.4823ZM59.6374 54.5328C58.7803 53.6852 58.0058 52.9201 57.2313 52.1551C55.9681 50.9084 54.2137 50.8446 53.0638 52.0016C51.9351 53.1374 51.9729 54.8728 53.1677 56.1196C54.5561 57.567 55.9492 59.0073 57.3494 60.4406C58.8629 61.9919 60.4308 61.9824 61.9514 60.4264C62.178 60.195 62.4024 59.9612 62.6267 59.7275C65.4767 56.7429 68.3408 53.7702 71.1719 50.7691C72.3265 49.546 72.2793 47.827 71.1388 46.722C69.9936 45.6122 68.303 45.6453 67.0964 46.8117C66.7989 47.0974 66.525 47.4067 66.2393 47.7042C64.0481 49.971 61.8593 52.2377 59.6398 54.5328H59.6374Z" fill="#FFC200"/>
<path d="M70.5901 26.2163C66.085 26.2163 61.6388 26.2116 57.1927 26.2305C56.9424 26.2305 56.6519 26.4028 56.4536 26.5776C55.1597 27.7228 53.7429 27.711 52.4183 26.5469C52.2223 26.3745 51.9177 26.2281 51.6651 26.2281C43.6535 26.2116 35.6419 26.2163 27.628 26.2187C27.5146 26.2187 27.4037 26.2541 27.3045 26.2706C25.8878 32.8041 25.4439 43.7931 27.2785 53.2285C27.857 53.2285 28.4638 53.2285 29.0707 53.2285C30.6905 53.2285 32.3103 53.2167 33.93 53.2309C35.8072 53.2474 37.0728 54.402 37.0799 56.0785C37.0893 57.8093 35.8261 58.9568 33.8899 58.9686C32.2394 58.9781 30.5913 58.9757 28.9408 58.9828C28.8865 58.9828 28.8322 59.0206 28.6598 59.0867C28.9266 59.9343 29.1746 60.7985 29.4721 61.6439C30.6716 65.0487 32.145 68.3072 34.603 71.0249C36.27 72.8667 38.2487 73.9741 40.8224 73.7403C41.2899 73.6978 41.7669 73.7049 42.2344 73.7474C43.6606 73.8725 44.7397 75.183 44.6924 76.6989C44.6476 78.1487 43.4929 79.3529 42.0668 79.4025C30.2348 79.8086 19.9541 76.0732 11.5623 67.6319C5.17526 61.2094 1.38789 53.4221 0.292287 44.3976C-2.16337 24.214 11.0972 5.45186 30.9313 0.972652C48.5506 -3.00598 66.6753 5.48964 74.7577 21.5482C75.3976 22.8185 76.0162 24.1668 76.2688 25.5481C76.5971 27.3332 75.4283 28.7097 73.8132 28.8963C72.2501 29.0757 70.9632 28.0321 70.5878 26.214L70.5901 26.2163ZM27.4414 71.3862L27.6658 71.3933L27.576 71.2044C27.5595 71.1477 27.5571 71.084 27.5288 71.0344C25.3872 67.4217 23.7462 63.6013 22.7356 59.5188C22.5986 58.9686 22.2633 58.9639 21.8241 58.9662C18.7026 58.9757 15.5787 58.971 12.4572 58.9733C12.2424 58.9733 12.0251 59.004 11.6709 59.0324C15.7913 64.7795 20.9647 68.914 27.4414 71.3862ZM21.4275 26.3249C21.2669 26.2635 21.2126 26.2258 21.1606 26.2258C17.097 26.221 13.031 26.2305 8.96736 26.1998C8.39123 26.1951 8.29206 26.5445 8.1433 26.9223C4.77386 35.4439 4.77858 43.9631 8.11497 52.4965C8.35109 53.1034 8.67693 53.2498 9.28376 53.245C13.0239 53.2167 16.7641 53.2309 20.5066 53.2309C20.7923 53.2309 21.078 53.2309 21.4511 53.2309C19.9989 44.2016 20.0013 35.2739 21.4298 26.3249H21.4275ZM50.5813 20.429C49.8092 18.3936 49.1669 16.4716 48.357 14.6228C47.1434 11.8555 45.6558 9.24632 43.2946 7.26527C40.8862 5.24407 38.4801 5.19213 35.9985 7.09526C35.4861 7.48722 34.9973 7.92641 34.5676 8.40573C31.4767 11.8413 29.9018 16.0348 28.5795 20.429H50.5813ZM51.5234 7.97835C53.8043 11.9192 55.4572 16.0891 56.5292 20.4195H67.4403C63.3578 14.5543 58.1135 10.4293 51.5234 7.97835ZM11.6143 20.4739C15.2505 20.4739 18.6601 20.4621 22.0697 20.4857C22.6317 20.4904 22.6624 20.1338 22.7544 19.7702C23.7816 15.7939 25.3541 12.0467 27.4721 8.52851C27.5642 8.3774 27.6185 8.20267 27.7626 7.87682C21.0638 10.4836 15.7842 14.5826 11.6143 20.4739Z" fill="white"/>
<path d="M59.6354 54.5313C61.8549 52.2362 64.0461 49.9695 66.2349 47.7027C66.5206 47.4052 66.7969 47.0959 67.0921 46.8102C68.2986 45.6438 69.9893 45.6107 71.1344 46.7205C72.2749 47.8255 72.3198 49.5445 71.1675 50.7676C68.3364 53.7687 65.4723 56.7414 62.6223 59.726C62.398 59.9598 62.1737 60.1935 61.947 60.4249C60.4264 61.9809 58.8609 61.9904 57.345 60.4391C55.9448 59.0035 54.5517 57.5631 53.1633 56.1181C51.9685 54.8714 51.9307 53.1359 53.0594 52.0001C54.2117 50.8408 55.9637 50.9045 57.2269 52.1536C58.0014 52.9186 58.7759 53.6837 59.633 54.5313H59.6354Z" fill="white"/>
<path d="M27.576 71.2045L27.6657 71.3934C27.5902 71.391 27.5146 71.3886 27.4414 71.3863C27.4863 71.3249 27.5311 71.2659 27.576 71.2045Z" fill="white"/>
</svg>
