<svg width="24" height="24" viewBox="0 0 24 24" fill="none" xmlns="http://www.w3.org/2000/svg">
<path d="M22.0655 9.42476C22.1213 9.56993 22.2665 9.65926 22.4228 9.65926C22.4787 9.65926 22.5233 9.65926 22.568 9.62576C22.769 9.5476 22.8583 9.32426 22.7802 9.12326C22.3782 8.16292 21.8422 7.26958 21.1722 6.46557C21.027 6.34274 20.8148 6.33157 20.6697 6.45441C20.5245 6.57724 20.4798 6.78941 20.5803 6.94574C21.1945 7.68275 21.697 8.52026 22.0655 9.4136V9.42476Z" fill="#173371"/>
<path d="M23.0815 21.4402L20.9598 19.3297L22.1993 18.5033C22.3221 18.414 22.3891 18.2688 22.3668 18.1125C22.3445 17.9673 22.2328 17.8445 22.0765 17.7998L16.8839 16.4152C16.7499 16.3817 16.6048 16.4152 16.5154 16.5157C16.4261 16.6162 16.3814 16.7502 16.4149 16.8842L17.7773 22.0767C17.8108 22.2219 17.9336 22.3335 18.0899 22.367C18.2463 22.3894 18.3914 22.3224 18.4808 22.1995L19.3295 20.96L21.4511 23.0817C21.5293 23.1487 21.6186 23.1934 21.7303 23.1934C21.8308 23.1934 21.9313 23.1487 22.0095 23.0817L23.1038 21.9874C23.1708 21.9092 23.2155 21.8087 23.2155 21.7082C23.2155 21.6077 23.1708 21.5072 23.0926 21.4402H23.0815ZM21.708 22.2665L19.5193 20.0778C19.4523 20.0108 19.3518 19.9662 19.2513 19.9662H19.2178C19.1061 19.9773 18.9944 20.0443 18.9386 20.1337L18.3244 21.0605L17.3418 17.342L21.0603 18.3247L20.1335 18.95C20.033 19.017 19.9771 19.1175 19.966 19.2292C19.966 19.3408 19.9995 19.4525 20.0776 19.5418L22.2663 21.7305L21.7191 22.2665H21.708Z" fill="#173371"/>
<path d="M2.70257 1.93185C2.70257 2.14402 2.5239 2.32269 2.31173 2.32269C2.09957 2.32269 1.9209 2.14402 1.9209 1.93185C1.9209 1.71968 2.09957 1.54102 2.31173 1.54102C2.5239 1.54102 2.70257 1.71968 2.70257 1.93185Z" fill="#173371"/>
<path d="M4.25433 1.93185C4.25433 2.14402 4.07566 2.32269 3.86349 2.32269C3.65132 2.32269 3.47266 2.14402 3.47266 1.93185C3.47266 1.71968 3.65132 1.54102 3.86349 1.54102C4.07566 1.54102 4.25433 1.71968 4.25433 1.93185Z" fill="#173371"/>
<path d="M5.79534 1.93185C5.79534 2.14402 5.61668 2.32269 5.40451 2.32269C5.19234 2.32269 5.01367 2.14402 5.01367 1.93185C5.01367 1.71968 5.19234 1.54102 5.40451 1.54102C5.61668 1.54102 5.79534 1.71968 5.79534 1.93185Z" fill="#173371"/>
<path d="M8.11789 1.54102C7.90572 1.54102 7.72705 1.71968 7.72705 1.93185C7.72705 2.14402 7.90572 2.32269 8.11789 2.32269H17.7883C18.0005 2.32269 18.1791 2.14402 18.1791 1.93185C18.1791 1.71968 18.0005 1.54102 17.7883 1.54102H8.11789Z" fill="#173371"/>
<path d="M5.57221 18.95H0.770506V3.86369H17.7886C18.0008 3.86369 18.1795 3.68503 18.1795 3.47286C18.1795 3.26069 18.0008 3.08202 17.7886 3.08202H0.770506V0.770506H18.95V5.57221C18.95 5.78437 19.1286 5.96304 19.3408 5.96304C19.553 5.96304 19.7316 5.78437 19.7316 5.57221V0.390836C19.7316 0.178668 19.553 0 19.3408 0H0.390836C0.178668 0 0 0.178668 0 0.390836V19.3296C0 19.5418 0.178668 19.7205 0.390836 19.7205H5.57221C5.78437 19.7205 5.96304 19.5418 5.96304 19.3296C5.96304 19.1175 5.78437 18.9388 5.57221 18.9388V18.95Z" fill="#173371"/>
<path d="M5.11417 6.4768C3.56199 8.35281 2.70215 10.709 2.70215 13.1433C2.70215 13.3555 2.88082 13.5342 3.09298 13.5342C3.30515 13.5342 3.48382 13.3555 3.48382 13.1433C3.48382 10.8877 4.26549 8.69898 5.71717 6.95697C5.85117 6.78947 5.82884 6.5438 5.6725 6.4098C5.51617 6.2758 5.25933 6.29813 5.12533 6.46563L5.11417 6.4768Z" fill="#173371"/>
<path d="M17.6996 15.2538C17.8671 15.2315 18.0123 15.1086 18.0346 14.93C18.0681 14.729 18.0905 14.528 18.1128 14.3381C18.0011 14.662 17.8671 14.9746 17.6885 15.2538H17.6996Z" fill="#173371"/>
<path d="M19.7095 7.14667C18.0903 5.21482 15.7118 4.09814 13.1881 4.09814H12.9089C11.0329 4.16515 9.22388 4.83515 7.77221 6.02999C7.60471 6.16399 7.58237 6.40966 7.71637 6.57716C7.85037 6.74466 8.09604 6.767 8.26354 6.633C8.93355 6.08583 9.69289 5.63916 10.5081 5.33765C9.86039 6.04116 9.35789 6.85633 9.01172 7.74967C8.35288 7.55984 7.70521 7.3365 7.07987 7.05733C6.92354 6.99033 6.74487 7.035 6.64437 7.15783C6.64437 7.15783 6.62203 7.15783 6.62203 7.18017C5.37136 8.71001 4.69019 10.6195 4.69019 12.596C4.69019 14.5726 5.38252 16.4932 6.64437 18.0119L6.6667 18.0454C8.27471 19.9884 10.6644 21.1163 13.1881 21.1163C14.2936 21.1163 15.3768 20.9041 16.4041 20.4798C16.5381 20.4351 16.6386 20.3123 16.6609 20.1783C16.6833 20.0331 16.6274 19.8879 16.5158 19.8098C16.4041 19.7204 16.2478 19.7093 16.1138 19.7763C15.3098 20.1113 14.4499 20.3011 13.5789 20.3569V17.5876C13.3109 17.5876 13.0541 17.5652 12.8084 17.5206V20.3234C11.5801 20.1224 10.4857 18.9723 9.79339 17.2637C10.3071 17.1409 10.8207 17.0516 11.3344 16.9846C11.0106 16.8059 10.7091 16.5826 10.4299 16.3369C10.1284 16.3927 9.81572 16.4486 9.51422 16.5267C9.22389 15.6111 9.04522 14.6731 8.97822 13.7127C8.92238 13.4335 8.90005 13.1432 8.90005 12.8529C8.90005 12.6295 8.91122 12.4174 8.94472 12.2052C8.96705 11.0215 9.16805 9.84902 9.52539 8.72118C9.98322 8.83284 10.4411 8.92218 10.9101 8.98918C11.3009 8.71001 11.7252 8.49784 12.1942 8.35267C11.3902 8.29684 10.5862 8.18517 9.80456 7.99534C10.5081 6.28683 11.5912 5.13665 12.8196 4.93565V8.19634C13.0764 8.15167 13.3332 8.12934 13.5901 8.12934V4.94682C14.8073 5.14782 15.8904 6.30916 16.5828 8.00651C16.0244 8.14051 15.4549 8.24101 14.8743 8.29684C15.3433 8.41968 15.7899 8.62068 16.1919 8.88868C16.4153 8.84401 16.6274 8.79934 16.8396 8.75468C16.9289 9.04501 17.0183 9.34652 17.0853 9.63685C17.5989 10.184 17.9786 10.8429 18.1908 11.591C18.1238 10.5525 17.9339 9.53635 17.6213 8.54251C18.2019 8.37501 18.7715 8.17401 19.3298 7.93951C20.2901 9.17901 20.8485 10.6977 20.9266 12.261H18.3248C18.3471 12.462 18.3695 12.663 18.3695 12.8752C18.3695 12.931 18.3695 12.9869 18.3695 13.0315H20.9266C20.882 13.9025 20.7033 14.7624 20.3683 15.5664C20.2901 15.7674 20.3795 15.9907 20.5805 16.0689C20.6251 16.0912 20.681 16.1024 20.7256 16.1024C20.882 16.1024 21.0271 16.0019 21.083 15.8567C21.4961 14.8406 21.7083 13.7462 21.6971 12.6407C21.6971 10.6419 20.9936 8.71001 19.7095 7.18017V7.14667ZM7.05754 7.88367C7.60471 8.11817 8.17421 8.31917 8.74371 8.48668C8.37521 9.69268 8.18538 10.9545 8.16304 12.2164H5.46069C5.53886 10.6419 6.0972 9.13435 7.05754 7.89484V7.88367ZM7.07987 17.3084C6.11953 16.0689 5.55003 14.5502 5.47186 12.9869H8.16304C8.18538 14.2487 8.38638 15.5106 8.76605 16.7166C8.19654 16.8841 7.62704 17.0851 7.07987 17.3196V17.3084ZM9.02288 17.4424C9.35789 18.3246 9.87156 19.1398 10.5081 19.8433C9.40255 19.4413 8.40871 18.7824 7.60471 17.9337C8.07371 17.7439 8.54271 17.5876 9.02288 17.4424ZM17.3533 7.76084C17.0183 6.8675 16.5046 6.04116 15.8569 5.33765C16.9624 5.75082 17.9674 6.40966 18.7826 7.25833H18.805C18.336 7.44817 17.8558 7.61567 17.3644 7.74967L17.3533 7.76084Z" fill="#173371"/>
<path d="M15.8119 11.1779C15.9571 11.323 15.9571 11.5575 15.8119 11.7027L13.3329 14.1817C13.1877 14.3269 12.9532 14.3269 12.808 14.1817L11.6244 12.9981C11.4792 12.8529 11.4792 12.6184 11.6244 12.4732C11.7695 12.328 12.004 12.328 12.1492 12.4732L13.0649 13.3889L15.2871 11.1667C15.4322 11.0215 15.6667 11.0215 15.8119 11.1667V11.1779ZM18.4584 12.6854C18.4584 15.2984 16.3367 17.4201 13.7237 17.4201C11.1107 17.4201 8.98901 15.2984 8.98901 12.6854C8.98901 10.0724 11.1107 7.95068 13.7237 7.95068C16.3367 7.95068 18.4584 10.0724 18.4584 12.6854ZM17.7214 12.6854C17.7214 10.4744 15.9347 8.68769 13.7237 8.68769C11.5127 8.68769 9.72602 10.4744 9.72602 12.6854C9.72602 14.8964 11.5127 16.6831 13.7237 16.6831C15.9347 16.6831 17.7214 14.8964 17.7214 12.6854Z" fill="#FFC200"/>
</svg>
