<svg width="86" height="86" viewBox="0 0 86 86" fill="none" xmlns="http://www.w3.org/2000/svg">
<path d="M55.6061 0C56.1237 0.11433 56.6455 0.220346 57.161 0.34507C63.0729 1.77732 67.3323 7.00117 67.3697 13.0337C67.4216 21.6084 67.3905 30.1832 67.3821 38.758C67.3821 40.5083 66.191 41.9093 64.5738 42.1463C62.8734 42.3958 61.3019 41.3855 60.857 39.6996C60.7323 39.2299 60.7364 38.7164 60.7364 38.2238C60.7302 30.0917 60.7364 21.9577 60.7281 13.8257C60.7281 12.1959 60.3976 10.6535 59.3769 9.32104C57.9821 7.49799 56.0925 6.64987 53.8517 6.64779C40.4106 6.627 26.9695 6.62077 13.5284 6.64779C9.50397 6.6561 6.65195 9.53931 6.64779 13.5721C6.62908 32.8523 6.63116 52.1326 6.64779 71.4128C6.65195 75.5162 9.5497 78.3454 13.6843 78.3537C20.6813 78.3682 27.6783 78.3537 34.6754 78.362C36.3009 78.362 37.6064 79.4263 37.9598 80.9812C38.2944 82.455 37.5211 84.0411 36.0972 84.671C35.6586 84.8643 35.1472 84.9849 34.667 84.9849C27.3935 85.0036 20.1201 85.0306 12.8466 84.9849C6.69352 84.9454 1.13499 80.0583 0.172535 73.9593C0.149669 73.8158 0.0582045 73.6828 0 73.5456C0 52.8497 0 32.1518 0 11.4559C0.0561258 11.3728 0.145511 11.2979 0.160062 11.2085C0.970769 6.64779 3.44862 3.31558 7.60609 1.30544C8.81591 0.721321 10.1671 0.428219 11.4538 0C26.1713 0 40.8887 0 55.6061 0Z" fill="white"/>
<path d="M75.4522 45.1421C79.2999 45.352 82.5074 47.2707 84.1725 51.2453C85.875 55.3071 85.0913 59.0904 82.0085 62.221C76.0717 68.2534 70.0537 74.2049 64.0316 80.15C63.4912 80.6843 62.7137 81.0834 61.9758 81.2975C57.8287 82.5011 53.6608 83.6319 49.4992 84.7815C47.2874 85.3926 45.508 84.5694 44.9759 82.5572C44.7971 81.8795 44.8595 81.0584 45.059 80.3745C46.2751 76.2025 47.5348 72.043 48.8486 67.9021C49.0731 67.1975 49.5283 66.4969 50.0521 65.9689C55.9412 60.0445 61.8677 54.1576 67.7733 48.254C69.7814 46.2459 72.1803 45.1857 75.4501 45.1421H75.4522ZM53.2991 76.7201C55.2116 76.215 57.1323 75.7369 59.0323 75.1881C59.5062 75.0509 59.9906 74.7661 60.3419 74.419C64.042 70.7646 67.7172 67.0831 71.3966 63.4079C71.5857 63.2188 71.7666 63.0192 71.8934 62.8841C70.3385 61.298 68.8169 59.7452 67.2204 58.1134C63.2687 62.0983 59.3129 66.0833 55.3654 70.0765C55.197 70.247 55.0328 70.4631 54.9642 70.6876C54.3593 72.6604 53.7772 74.6414 53.189 76.6183L53.2035 76.822L53.2991 76.718V76.7201ZM76.7805 58.0178C77.9113 57.0241 78.641 55.86 78.1899 54.2615C77.8199 52.9498 76.9406 52.1537 75.6102 51.8897C74.1093 51.5924 73.0409 52.32 72.1574 53.3323C73.7164 54.9121 75.2422 56.4587 76.7805 58.0157V58.0178Z" fill="#FEC20E"/>
<path d="M21.9123 22.185C24.1698 19.4494 26.4939 16.6431 28.8075 13.8285C29.6868 12.7601 30.8031 12.2383 32.1667 12.5085C33.4846 12.7684 34.3764 13.5916 34.7423 14.9116C35.0541 16.032 34.8005 17.0547 34.075 17.9382C31.5182 21.0563 28.9842 24.1931 26.365 27.2571C23.937 30.0988 20.1142 30.1466 17.4929 27.4629C16.3933 26.3363 15.2749 25.2241 14.2044 24.0704C13.19 22.975 12.9904 21.5677 13.5953 20.3225C14.2148 19.0482 15.4599 18.2396 16.8901 18.4828C17.6738 18.6159 18.4637 19.0919 19.1081 19.5949C20.1018 20.3724 20.9727 21.3078 21.9061 22.1871L21.9123 22.185Z" fill="#FEC20E"/>
<path d="M21.8681 42.6362C24.1506 39.8694 26.4351 37.0963 28.7238 34.3254C29.8172 33.0033 31.1476 32.5418 32.5258 32.9971C34.908 33.7828 35.6106 36.4644 33.9435 38.4995C31.8065 41.1083 29.6592 43.7088 27.4953 46.2947C26.8238 47.0971 26.1711 47.9577 25.3562 48.5917C23.0073 50.421 19.91 50.1903 17.7439 48.0949C16.5528 46.9412 15.3949 45.7501 14.26 44.5403C12.9192 43.1101 12.942 41.073 14.2683 39.7841C15.607 38.4849 17.6005 38.5203 19.0244 39.8777C19.964 40.7757 20.889 41.6862 21.8681 42.6362Z" fill="#FEC20E"/>
<path d="M21.8811 62.7101C24.1365 59.9766 26.4231 57.2036 28.7118 54.4347C30.0484 52.8174 31.8382 52.464 33.3973 53.5013C35.0998 54.6342 35.3575 56.8606 33.9627 58.5714C32.3891 60.4983 30.7968 62.4087 29.2107 64.3274C28.3127 65.4146 27.4272 66.5101 26.5146 67.5848C23.9869 70.5636 20.1994 70.6966 17.4679 67.9132C16.4411 66.8676 15.4079 65.8261 14.3914 64.7701C12.9488 63.2714 12.8968 61.2321 14.2542 59.8914C15.6241 58.5402 17.6384 58.615 19.1309 60.066C20.0393 60.9494 20.9581 61.8225 21.8832 62.7101H21.8811Z" fill="#FEC20E"/>
<path d="M45.895 21.417C47.4998 21.417 49.1046 21.4087 50.7093 21.419C52.6633 21.4315 54.1039 22.8367 54.1122 24.7159C54.1185 26.6055 52.6841 28.046 50.7509 28.0544C47.5143 28.0668 44.2777 28.0668 41.0411 28.0544C39.1079 28.046 37.6736 26.6055 37.6798 24.7159C37.6861 22.8367 39.1287 21.4315 41.0827 21.419C42.6875 21.4087 44.2923 21.417 45.8971 21.417H45.895Z" fill="white"/>
<path d="M45.895 41.8363C47.4998 41.8363 49.1046 41.828 50.7093 41.8384C52.6633 41.8508 54.1039 43.2561 54.1122 45.1352C54.1185 47.0248 52.6841 48.4654 50.7509 48.4737C47.5143 48.4861 44.2777 48.4861 41.0411 48.4737C39.1079 48.4654 37.6736 47.0248 37.6798 45.1352C37.6861 43.2561 39.1287 41.8508 41.0827 41.8384C42.6875 41.828 44.2923 41.8363 45.8971 41.8363H45.895Z" fill="white"/>
<path d="M53.1892 76.6193C53.7775 74.6424 54.3595 72.6614 54.9644 70.6886C55.033 70.4641 55.1972 70.2479 55.3656 70.0775C59.3131 66.0842 63.269 62.0993 67.2206 58.1144C68.8192 59.7462 70.3408 61.299 71.8936 62.8851C71.7668 63.0181 71.586 63.2177 71.3968 63.4089C67.7174 67.0841 64.0422 70.7635 60.3421 74.42C59.9908 74.7671 59.5065 75.0519 59.0325 75.1891C57.1325 75.7379 55.2118 76.216 53.2994 76.7211C53.2661 76.6837 53.2287 76.6504 53.1892 76.6213V76.6193Z" fill="white"/>
<path d="M76.7796 58.0155C75.2413 56.4564 73.7155 54.9119 72.1565 53.3321C73.0379 52.3198 74.1063 51.5901 75.6093 51.8895C76.9417 52.1535 77.819 52.9496 78.189 54.2613C78.6401 55.8598 77.9104 57.0219 76.7796 58.0176V58.0155Z" fill="white"/>
<path d="M53.2994 76.7179L53.2037 76.8219C53.1996 76.7533 53.1933 76.6868 53.1892 76.6182C53.2287 76.6493 53.2661 76.6826 53.2994 76.7179Z" fill="#FBFBFB"/>
</svg>
