<svg width="24" height="24" viewBox="0 0 24 24" fill="none" xmlns="http://www.w3.org/2000/svg">
<path d="M15.2081 0C15.3497 0.031269 15.4924 0.0602639 15.6334 0.0943756C17.2503 0.486091 18.4152 1.9148 18.4254 3.56467C18.4396 5.90985 18.4311 8.25502 18.4288 10.6002C18.4288 11.0789 18.1031 11.4621 17.6607 11.5269C17.1957 11.5951 16.7659 11.3188 16.6442 10.8577C16.6101 10.7293 16.6112 10.5888 16.6112 10.4541C16.6095 8.23001 16.6112 6.00536 16.609 3.78128C16.609 3.33555 16.5186 2.91371 16.2394 2.54928C15.8579 2.05068 15.3412 1.81872 14.7283 1.81815C11.0522 1.81247 7.37608 1.81076 3.69998 1.81815C2.59931 1.82043 1.81929 2.60897 1.81815 3.71192C1.81304 8.98501 1.8136 14.2581 1.81815 19.5312C1.81929 20.6535 2.61182 21.4272 3.74262 21.4295C5.65628 21.4335 7.56995 21.4295 9.48361 21.4318C9.9282 21.4318 10.2852 21.7229 10.3819 22.1481C10.4734 22.5512 10.2619 22.985 9.87249 23.1573C9.75253 23.2101 9.61267 23.2431 9.48134 23.2431C7.49206 23.2482 5.50278 23.2556 3.5135 23.2431C1.83066 23.2323 0.310416 21.8957 0.0471878 20.2277C0.040934 20.1884 0.0159188 20.152 0 20.1145C0 14.4543 0 8.79342 0 3.13316C0.0153503 3.11042 0.0397969 3.08995 0.0437766 3.0655C0.265503 1.81815 0.943188 0.906802 2.08024 0.357035C2.41113 0.197279 2.78067 0.117117 3.13259 0C7.15777 0 11.1829 0 15.2081 0Z" fill="#173371"/>
<path d="M20.6359 12.3462C21.6883 12.4036 22.5655 12.9284 23.0209 14.0154C23.4865 15.1263 23.2722 16.161 22.4291 17.0172C20.8054 18.6671 19.1595 20.2948 17.5124 21.9208C17.3646 22.0669 17.152 22.176 16.9502 22.2346C15.816 22.5638 14.6761 22.8731 13.5379 23.1874C12.933 23.3546 12.4463 23.1295 12.3008 22.5791C12.2519 22.3938 12.2689 22.1692 12.3235 21.9822C12.6561 20.8411 13.0006 19.7035 13.3599 18.571C13.4213 18.3783 13.5458 18.1867 13.6891 18.0423C15.2997 16.422 16.9206 14.8119 18.5358 13.1973C19.085 12.6481 19.7411 12.3581 20.6354 12.3462H20.6359ZM14.5771 20.9827C15.1002 20.8445 15.6255 20.7138 16.1451 20.5637C16.2748 20.5262 16.4072 20.4483 16.5033 20.3533C17.5153 19.3539 18.5204 18.347 19.5267 17.3418C19.5785 17.2901 19.6279 17.2355 19.6626 17.1986C19.2374 16.7648 18.8212 16.3401 18.3846 15.8938C17.3038 16.9837 16.2219 18.0735 15.1423 19.1657C15.0962 19.2123 15.0513 19.2714 15.0325 19.3328C14.8671 19.8724 14.7079 20.4142 14.547 20.9548L14.551 21.0106L14.5771 20.9821V20.9827ZM20.9992 15.8677C21.3085 15.5959 21.5081 15.2775 21.3847 14.8403C21.2835 14.4816 21.043 14.2638 20.6791 14.1916C20.2687 14.1103 19.9764 14.3093 19.7348 14.5862C20.1612 15.0183 20.5785 15.4413 20.9992 15.8671V15.8677Z" fill="#FEC20E"/>
<path d="M5.99295 6.06737C6.61037 5.31919 7.24599 4.55167 7.87876 3.78189C8.11925 3.48966 8.42455 3.34696 8.7975 3.42087C9.15795 3.49194 9.40185 3.71708 9.50191 4.07809C9.58719 4.38453 9.51783 4.66424 9.31941 4.90587C8.62012 5.75866 7.92708 6.61657 7.21074 7.45458C6.5467 8.23175 5.50118 8.24483 4.78426 7.51086C4.48351 7.20272 4.17764 6.89856 3.88485 6.58302C3.60741 6.28341 3.55283 5.89852 3.71827 5.55797C3.88769 5.20946 4.22824 4.9883 4.61939 5.05482C4.83372 5.09121 5.04976 5.2214 5.22601 5.35898C5.49776 5.57161 5.73598 5.82745 5.99125 6.06794L5.99295 6.06737Z" fill="#FEC20E"/>
<path d="M5.98084 11.6609C6.60509 10.9042 7.2299 10.1458 7.85585 9.38793C8.15489 9.02634 8.51875 8.90013 8.89568 9.02464C9.54722 9.23954 9.73938 9.97294 9.28342 10.5295C8.69897 11.243 8.11168 11.9543 7.51985 12.6615C7.33621 12.881 7.15769 13.1163 6.93483 13.2897C6.2924 13.79 5.44529 13.7269 4.85288 13.1539C4.52712 12.8383 4.21045 12.5126 3.90003 12.1817C3.53333 11.7905 3.53958 11.2334 3.9023 10.8809C4.26844 10.5256 4.81365 10.5352 5.2031 10.9065C5.46007 11.1521 5.71306 11.4011 5.98084 11.6609Z" fill="#FEC20E"/>
<path d="M5.98443 17.1511C6.60129 16.4034 7.22667 15.645 7.85262 14.8877C8.21818 14.4454 8.70768 14.3488 9.13408 14.6325C9.5997 14.9423 9.6702 15.5512 9.28872 16.0191C8.85834 16.5461 8.42285 17.0686 7.98906 17.5934C7.74346 17.8907 7.50127 18.1903 7.25168 18.4843C6.56035 19.299 5.52449 19.3353 4.77745 18.5741C4.4966 18.2881 4.21404 18.0033 3.93603 17.7145C3.54147 17.3046 3.52726 16.7468 3.8985 16.3801C4.27316 16.0106 4.82407 16.0311 5.23227 16.4279C5.48072 16.6695 5.73201 16.9083 5.985 17.1511H5.98443Z" fill="#FEC20E"/>
<path d="M12.5521 5.85755C12.991 5.85755 13.4299 5.85528 13.8688 5.85812C14.4033 5.86153 14.7972 6.24586 14.7995 6.7598C14.8012 7.2766 14.4089 7.67059 13.8802 7.67286C12.995 7.67627 12.1098 7.67627 11.2246 7.67286C10.6959 7.67059 10.3036 7.2766 10.3053 6.7598C10.307 6.24586 10.7016 5.86153 11.236 5.85812C11.6749 5.85528 12.1138 5.85755 12.5527 5.85755H12.5521Z" fill="#173371"/>
<path d="M12.5521 11.442C12.991 11.442 13.4299 11.4397 13.8688 11.4426C14.4033 11.446 14.7972 11.8303 14.7995 12.3443C14.8012 12.8611 14.4089 13.2551 13.8802 13.2573C12.995 13.2607 12.1098 13.2607 11.2246 13.2573C10.6959 13.2551 10.3036 12.8611 10.3053 12.3443C10.307 11.8303 10.7016 11.446 11.236 11.4426C11.6749 11.4397 12.1138 11.442 12.5527 11.442H12.5521Z" fill="#173371"/>
<path d="M14.5471 20.9551C14.708 20.4144 14.8672 19.8726 15.0326 19.3331C15.0514 19.2717 15.0963 19.2125 15.1424 19.1659C16.222 18.0738 17.3039 16.9839 18.3847 15.894C18.8219 16.3403 19.238 16.765 19.6627 17.1988C19.6281 17.2352 19.5786 17.2898 19.5269 17.3421C18.5206 18.3472 17.5154 19.3535 16.5034 20.3536C16.4073 20.4485 16.2749 20.5264 16.1453 20.5639C15.6256 20.714 15.1003 20.8448 14.5773 20.9829C14.5682 20.9727 14.5579 20.9636 14.5471 20.9556V20.9551Z" fill="#173371"/>
<path d="M20.999 15.8671C20.5783 15.4407 20.161 15.0183 19.7346 14.5862C19.9757 14.3093 20.2679 14.1098 20.6789 14.1916C21.0434 14.2638 21.2833 14.4816 21.3845 14.8403C21.5079 15.2775 21.3083 15.5953 20.999 15.8677V15.8671Z" fill="#173371"/>
<path d="M14.5773 20.9821L14.5511 21.0106C14.55 20.9918 14.5483 20.9736 14.5471 20.9548C14.5579 20.9634 14.5682 20.9725 14.5773 20.9821Z" fill="#173371"/>
</svg>
