<svg width="15" height="24" viewBox="0 0 15 24" fill="none" xmlns="http://www.w3.org/2000/svg">
<g clip-path="url(#clip0_5424_5163)">
<path d="M1.76633 23.2501C1.76633 23.2501 1.67474 23.1847 1.60932 23.1716C0.614944 22.8707 0 22.0595 0 20.9997C0 17.31 0 13.6073 0 9.91761C0 7.37933 0 4.85414 0 2.31585C0 0.928959 0.928959 0 2.31585 0C5.613 0 8.91015 0 12.2073 0C13.6073 0 14.5232 0.915875 14.5232 2.31585C14.5232 8.53072 14.5232 14.7587 14.5232 20.9735C14.5232 22.0464 13.8951 22.8969 12.9007 23.1716C12.8222 23.1978 12.7437 23.224 12.6522 23.2501H1.76633ZM3.6635 1.45232C3.19248 1.45232 2.74762 1.45232 2.30277 1.45232C1.71399 1.45232 1.45232 1.72708 1.45232 2.31585C1.45232 8.51763 1.45232 14.7194 1.45232 20.9212C1.45232 21.5231 1.72708 21.7847 2.32894 21.7847C5.613 21.7847 8.89707 21.7847 12.1811 21.7847C12.8222 21.7847 13.0839 21.5231 13.0839 20.895C13.0839 14.7063 13.0839 8.51763 13.0839 2.32894C13.0839 2.25043 13.0839 2.17193 13.0839 2.10651C13.0578 1.77941 12.783 1.47848 12.4559 1.45232C11.9325 1.42615 11.4092 1.45232 10.912 1.45232C10.8989 1.4654 10.8858 1.47848 10.8858 1.47848C10.8858 1.81867 10.8858 2.15885 10.8858 2.49903C10.8858 2.97005 10.5849 3.2579 10.1139 3.2579C8.22979 3.2579 6.3457 3.2579 4.46162 3.2579C3.9906 3.2579 3.68967 2.97005 3.68967 2.49903C3.68967 2.15885 3.68967 1.81867 3.68967 1.43923L3.6635 1.45232ZM9.40734 1.4654H5.1289V1.80558H9.40734V1.4654Z" fill="#173371"/>
<path d="M7.01286 4.89331C9.11937 4.93256 10.7156 5.57367 12.0371 6.8559C12.3773 7.183 12.3904 7.61477 12.1025 7.92878C11.8147 8.22971 11.3698 8.22971 11.0296 7.90261C9.93058 6.84282 8.62219 6.31946 7.09137 6.35871C5.74372 6.39796 4.57925 6.89515 3.59796 7.82411C3.37553 8.03345 3.12694 8.15121 2.81292 8.0727C2.27648 7.92878 2.09331 7.2615 2.49891 6.8559C3.38861 5.96619 4.4615 5.36433 5.6783 5.08957C6.20166 4.97181 6.7381 4.93256 6.99978 4.89331H7.01286Z" fill="#FFC200"/>
<path d="M10.8204 9.11954C10.768 9.45973 10.6241 9.69524 10.3363 9.81299C10.0484 9.93075 9.77365 9.8915 9.53814 9.66907C9.09329 9.25038 8.5961 8.93637 7.99424 8.80553C6.86902 8.55694 5.87464 8.8317 5.02419 9.61673C4.78868 9.83916 4.527 9.93075 4.21298 9.82608C3.70271 9.6429 3.57187 9.01487 3.96439 8.62236C4.67092 7.91582 5.53446 7.47097 6.52884 7.32705C8.05966 7.10462 9.39422 7.53639 10.5194 8.60927C10.6503 8.74011 10.7157 8.94945 10.8204 9.11954Z" fill="#FFC200"/>
<path d="M7.2616 9.62988C8.02047 9.64297 8.67467 9.89156 9.22419 10.4149C9.55129 10.7289 9.57746 11.1607 9.28961 11.4616C9.00177 11.7756 8.58308 11.7756 8.2429 11.4878C7.62795 10.9514 6.89525 10.9514 6.28031 11.4878C5.94013 11.7887 5.50836 11.7756 5.2336 11.4878C4.94575 11.1869 4.97192 10.742 5.29902 10.4411C5.84854 9.91773 6.51582 9.66913 7.2616 9.64297V9.62988Z" fill="#FFC200"/>
<path d="M7.26151 13.267C6.85591 13.267 6.52881 12.9399 6.52881 12.5343C6.52881 12.1418 6.85591 11.8147 7.24842 11.8147C7.64094 11.8147 7.98112 12.1549 7.98112 12.5474C7.98112 12.9399 7.65403 13.2539 7.26151 13.267Z" fill="#FFC200"/>
<path d="M7.23549 16.4728C7.65418 16.4728 8.08595 16.4728 8.50463 16.4728C8.9364 16.4728 9.14575 16.6821 9.14575 17.1139C9.14575 17.7943 9.14575 18.4616 9.14575 19.1419C9.14575 19.5606 8.9364 19.7699 8.50463 19.7699C7.64109 19.7699 6.79064 19.7699 5.9271 19.7699C5.50842 19.7699 5.29907 19.5475 5.29907 19.1288C5.29907 18.4485 5.29907 17.7812 5.29907 17.1008C5.29907 16.6691 5.50841 16.4597 5.94018 16.4597C6.37195 16.4597 6.80372 16.4597 7.23549 16.4597V16.4728ZM8.0467 18.1214C8.0467 17.6634 7.68035 17.2971 7.22241 17.2971C6.77756 17.2971 6.41121 17.6634 6.39812 18.1214C6.39812 18.5793 6.76447 18.9457 7.22241 18.9457C7.68035 18.9457 8.0467 18.5793 8.0467 18.1214Z" fill="#173371"/>
<path d="M6.39806 15.9233H5.86162C5.80929 15.3476 5.96629 14.8504 6.46348 14.5233C6.9345 14.2093 7.43169 14.1962 7.9158 14.4709C8.46532 14.785 8.6485 15.2952 8.59616 15.9233H8.04664C8.04664 15.8317 8.04664 15.727 8.04664 15.6354C8.03355 15.1775 7.68029 14.8373 7.22235 14.8373C6.7775 14.8373 6.41115 15.1906 6.39806 15.6354C6.39806 15.727 6.39806 15.8317 6.39806 15.9233V15.9233Z" fill="#173371"/>
<path d="M7.49728 18.1344C7.49728 18.2914 7.37952 18.4091 7.22252 18.4091C7.07859 18.4091 6.94775 18.2783 6.94775 18.1213C6.94775 17.9774 7.07859 17.8596 7.22252 17.8596C7.37952 17.8596 7.49728 17.9774 7.49728 18.1344V18.1344Z" fill="#173371"/>
</g>
<defs>
<clipPath id="clip0_5424_5163">
<rect width="14.5232" height="23.2501" fill="white"/>
</clipPath>
</defs>
</svg>
