<svg width="52" height="52" viewBox="0 0 52 52" fill="none" xmlns="http://www.w3.org/2000/svg">
<circle cx="26" cy="26" r="26" fill="white"/>
<path d="M44.9145 30.4945C44.8895 30.6047 44.8486 30.715 44.8412 30.8262C44.7633 31.9074 44.7485 32.9969 44.6028 34.0689C44.408 35.4994 44.0537 36.9021 43.1206 38.0602C42.1773 39.2303 40.9427 39.9919 39.4409 40.0947C36.4022 40.3023 33.3589 40.4876 30.3146 40.5367C26.6145 40.596 22.9117 40.5311 19.2107 40.4653C17.2758 40.4311 15.3409 40.3078 13.4097 40.1744C12.1881 40.0901 11.0027 39.8214 9.9536 39.1275C8.54834 38.1982 7.80721 36.8317 7.52894 35.2325C7.29612 33.891 7.13565 32.5253 7.0902 31.1662C7.00394 28.6044 6.9826 26.039 7.01321 23.4754C7.03269 21.8263 7.12452 20.1715 7.30632 18.5326C7.46772 17.0743 7.85823 15.6531 8.82104 14.4792C9.7551 13.3396 10.9646 12.6031 12.4311 12.4548C14.2816 12.2677 16.1432 12.125 18.0021 12.0926C22.2707 12.0184 26.5403 11.9805 30.809 12.0101C33.3617 12.0277 35.9134 12.1797 38.4633 12.314C40.1041 12.4002 41.5966 12.8995 42.7941 14.103C43.6892 15.0027 44.1038 16.1274 44.3941 17.3235C44.7494 18.7837 44.7457 20.2772 44.8422 21.7623C44.8505 21.8865 44.8904 22.0078 44.9154 22.1301V30.4926L44.9145 30.4945ZM25.2093 38.3807V38.3743C25.6907 38.3743 26.1721 38.3863 26.6526 38.3724C30.2664 38.2649 33.8802 38.1667 37.4921 38.0315C38.2861 38.0018 39.1024 37.9286 39.8602 37.71C41.1402 37.3412 41.7543 36.3212 42.1058 35.0945C42.5427 33.5704 42.539 32.0019 42.6086 30.4444C42.7551 27.1915 42.7449 23.9349 42.5316 20.6848C42.4592 19.5851 42.3201 18.4798 42.0854 17.4041C41.732 15.7828 40.6867 14.8516 39.0245 14.658C37.6665 14.4996 36.2974 14.4218 34.9302 14.3708C32.6363 14.2846 30.3415 14.2383 28.0467 14.1938C23.1334 14.1003 18.2256 14.2661 13.3234 14.5783C11.4414 14.6988 10.2996 15.6846 9.79406 17.4866C9.36552 19.0134 9.36274 20.5801 9.29224 22.1376C9.14569 25.3905 9.15589 28.6471 9.36923 31.8972C9.44065 32.984 9.58906 34.0754 9.81261 35.1408C10.141 36.7084 11.1678 37.6377 12.7567 37.8147C14.3846 37.9963 16.0227 38.113 17.6598 38.1797C20.1744 38.2816 22.6928 38.3168 25.2093 38.3798V38.3807Z" fill="#173371"/>
<path d="M21.1326 25.8932C21.1326 24.4266 21.1744 22.9581 21.1196 21.4933C21.0742 20.2824 22.2967 19.3661 23.5257 20.0443C26.2361 21.5415 28.9576 23.0183 31.6763 24.5007C32.2402 24.8083 32.5881 25.2725 32.5927 25.9118C32.5973 26.5668 32.2449 27.0411 31.6651 27.3524C28.9474 28.8098 26.2268 30.2625 23.5174 31.7338C22.2698 32.412 21.077 31.4466 21.1196 30.295C21.1734 28.8302 21.1326 27.3617 21.1326 25.8951V25.8932ZM23.3718 29.2629C25.4495 28.1474 27.4957 27.0476 29.6004 25.9173C27.4948 24.7666 25.4439 23.6456 23.3718 22.5125V29.2629Z" fill="#173371"/>
</svg>
