<svg id="Layer_1" data-name="Layer 1" xmlns="http://www.w3.org/2000/svg" viewBox="0 0 368.18 483.37"><defs><style>.cls-1{fill:#f9bd2c;}.cls-2{fill:#fe9e00;}.cls-3{fill:#fef4f4;}.cls-4{fill:#fcd82a;}.cls-5{fill:#e2e6e9;}.cls-6{fill:#fdfdfd;}.cls-7{fill:#fff;}</style></defs><title>premier</title><path class="cls-1" d="M-1045.34,807H-1194.5a11.32,11.32,0,0,0-2-1.08c-22.23-7-33-21.51-33-44.65q0-196.77,0-393.55c0-25.71,18.3-44,44-44.06q28.08-.07,56.15,0,42,.06,84,.15,0,106.53,0,213.07l-82.52.13c-11.27,0-16.66,5.45-16.66,16.82q0,67.9,0,135.81c0,12,5.22,17.28,17.13,17.3l82,.14Z" transform="translate(1229.43 -323.63)"/><path class="cls-2" d="M-861.4,451.13c0,1.57.14,3.13.14,4.7q0,153.6,0,307.19c0,22-12.54,37.87-34,43.12-.36.09-.63.56-.95.86h-149.16l.06-99.93-.1-.26c28.61,0,57.22.14,85.83.08a13.65,13.65,0,0,0,13.32-13.24c.09-2.36,0-4.72,0-7.08q0-67.44,0-134.88c0-8.3-5.58-14.62-13.33-14.64-28.61-.07-57.22,0-85.83.07l.1-.25q0-106.55,0-213.07h56.57q0,48.82,0,97.64c0,17.51,12.13,29.64,29.65,29.65Z" transform="translate(1229.43 -323.63)"/><path class="cls-3" d="M-1045.28,707.07l-82-.14c-11.91,0-17.13-5.28-17.13-17.3q0-67.9,0-135.81c0-11.37,5.39-16.8,16.66-16.82l82.52-.13-.1.25q0,21.09.07,42.17h-70.48v85.16h6.42l64.06.2-.07,42.16Z" transform="translate(1229.43 -323.63)"/><path class="cls-4" d="M-861.4,451.13l-97.64,0c-17.52,0-29.64-12.14-29.65-29.65q0-48.82,0-97.64c3.37,1.41,7.57,2,10,4.35q56.78,56.24,113,113C-863.37,443.56-862.81,447.76-861.4,451.13Z" transform="translate(1229.43 -323.63)"/><path class="cls-5" d="M-1045.31,579.29q0-21.09-.07-42.17c28.61,0,57.22-.14,85.83-.07,7.75,0,13.33,6.34,13.33,14.64q0,67.44,0,134.88c0,2.36.07,4.72,0,7.08a13.65,13.65,0,0,1-13.32,13.24c-28.61.06-57.22,0-85.83-.08q0-21.07.07-42.16l0-.37h70.5V579.65h-70.5Z" transform="translate(1229.43 -323.63)"/><path class="cls-1" d="M-1045.31,664.65l-64.06-.2h-6.42V579.29h70.48l0,.36v84.63Z" transform="translate(1229.43 -323.63)"/><path class="cls-2" d="M-1045.36,664.28V579.65h70.5v84.63Z" transform="translate(1229.43 -323.63)"/><path class="cls-6" d="M-1066.16,620.07c0-7.91,0-15.83,0-23.74,0-4.56,2.11-5.86,6.15-3.75q22.77,11.88,45.46,23.93c1.3.69,2.88,2.34,2.89,3.55s-1.59,2.85-2.88,3.54c-15.11,8.07-30.28,16-45.46,23.94-4,2.11-6.14.81-6.16-3.73C-1066.19,635.9-1066.16,628-1066.16,620.07Z" transform="translate(1229.43 -323.63)"/><path class="cls-7" d="M-1114.58,485.66h7.68c4.41,0,8.18,1.63,8.18,6.8,0,5-3.9,7.17-8.18,7.17h-2.27v6.48h-5.41Zm7.43,9.69c2.14,0,3.15-1.07,3.15-2.89s-1.14-2.52-3.15-2.52h-2v5.41Z" transform="translate(1229.43 -323.63)"/><path class="cls-7" d="M-1094.44,490.38h4.44l.41,3.33h.12a7,7,0,0,1,6.14-3.71,6.37,6.37,0,0,1,3,.63l-1.07,4.53a8.46,8.46,0,0,0-2.74-.44c-1.79,0-3.71.94-4.88,3.59v7.8h-5.41Z" transform="translate(1229.43 -323.63)"/><path class="cls-7" d="M-1077.26,498.24A8.07,8.07,0,0,1-1069,490c5,0,7.49,3.4,7.49,7.62a14.6,14.6,0,0,1-.22,2.26h-11.43v-3.52h7.68l-.75.94c0-2.08-.82-3.21-2.58-3.21-2.08,0-3.21,1.32-3.21,4.15s1.44,4.16,4.34,4.16a8.75,8.75,0,0,0,3.77-.95l1.77,3.21a12.48,12.48,0,0,1-6.3,1.83C-1073.42,506.49-1077.26,503.47-1077.26,498.24Z" transform="translate(1229.43 -323.63)"/><path class="cls-7" d="M-1059.13,490.38h4l.37,1.89h.13a3.43,3.43,0,0,1,3.34-2.27c1.29,0,2.29.88,2.64,2.52a3.54,3.54,0,0,1,3.4-2.52c2.26,0,3.52,2,3.52,5.16v10.95h-5.1V495.54c0-.66-.12-1-.53-1s-.76.38-1,1.2v10.32h-4.09V495.54c0-.66-.22-1-.63-1s-.66.38-.94,1.2v10.32h-5.1Z" transform="translate(1229.43 -323.63)"/><path class="cls-7" d="M-1032.76,494.59h-6v-4.21h11.39v15.73h-5.41Zm-1-9.5a3.22,3.22,0,0,1,3.47-3.21,3.22,3.22,0,0,1,3.46,3.21,3.17,3.17,0,0,1-3.46,3.15A3.17,3.17,0,0,1-1033.71,485.09Z" transform="translate(1229.43 -323.63)"/><path class="cls-7" d="M-1020.61,498.24a8.06,8.06,0,0,1,8.24-8.24c5,0,7.49,3.4,7.49,7.62a14.6,14.6,0,0,1-.22,2.26h-11.42v-3.52h7.67l-.75.94c0-2.08-.82-3.21-2.58-3.21-2.08,0-3.21,1.32-3.21,4.15s1.45,4.16,4.34,4.16a8.82,8.82,0,0,0,3.78-.95l1.76,3.21a12.44,12.44,0,0,1-6.29,1.83C-1016.78,506.49-1020.61,503.47-1020.61,498.24Z" transform="translate(1229.43 -323.63)"/><path class="cls-7" d="M-1000,490.38h4.43l.41,3.33h.13a6.94,6.94,0,0,1,6.13-3.71,6.37,6.37,0,0,1,3,.63l-1.07,4.53a8.37,8.37,0,0,0-2.74-.44c-1.79,0-3.71.94-4.87,3.59v7.8H-1000Z" transform="translate(1229.43 -323.63)"/></svg>